<?xml version="1.0" encoding="UTF-8"?>
<svg xmlns="http://www.w3.org/2000/svg" xmlns:xlink="http://www.w3.org/1999/xlink" width="100pt" height="100pt" viewBox="0 0 100 100" version="1.1">
<g id="surface1">
<path style=" stroke:none;fill-rule:nonzero;fill:rgb(5.098039%,12.54902%,32.54902%);fill-opacity:1;" d="M 4.0625 44.722656 C 5.644531 44.753906 7.238281 44.769531 8.835938 44.722656 C 8.851562 44.863281 8.851562 44.984375 8.835938 45.121094 C 8.28125 45.121094 7.5625 45.261719 7.394531 45.875 C 7.269531 46.535156 7.300781 47.191406 7.300781 47.851562 C 7.300781 49.722656 7.300781 51.59375 7.300781 53.464844 C 7.347656 53.863281 7.285156 54.324219 7.5625 54.664062 C 7.882812 55.015625 8.390625 55.09375 8.835938 55.09375 C 8.835938 55.214844 8.835938 55.351562 8.835938 55.476562 C 7.238281 55.429688 5.644531 55.445312 4.0625 55.476562 C 4.0625 55.351562 4.0625 55.230469 4.0625 55.105469 C 4.507812 55.09375 5.015625 55.046875 5.335938 54.707031 C 5.675781 54.355469 5.582031 53.820312 5.613281 53.359375 C 5.597656 50.964844 5.644531 48.574219 5.582031 46.179688 C 5.597656 45.382812 4.707031 45.105469 4.0625 45.136719 C 4.0625 44.984375 4.0625 44.847656 4.0625 44.722656 "/>
<path style=" stroke:none;fill-rule:nonzero;fill:rgb(5.098039%,12.54902%,32.54902%);fill-opacity:1;" d="M 37.746094 44.707031 C 38.972656 44.722656 40.214844 44.707031 41.441406 44.707031 C 42.300781 44.722656 43.175781 44.648438 44.019531 44.90625 C 44.894531 45.167969 45.78125 45.722656 46.105469 46.625 C 46.351562 47.40625 46.304688 48.296875 45.875 49.003906 C 45.460938 49.691406 44.679688 50.0625 43.925781 50.246094 C 42.960938 50.507812 41.933594 50.414062 40.949219 50.492188 C 40.9375 51.59375 40.949219 52.699219 40.949219 53.820312 C 40.949219 54.203125 41.089844 54.648438 41.457031 54.847656 C 41.824219 55.03125 42.253906 55.0625 42.667969 55.09375 C 42.667969 55.214844 42.667969 55.351562 42.667969 55.476562 C 41.027344 55.429688 39.386719 55.429688 37.746094 55.476562 C 37.746094 55.351562 37.746094 55.214844 37.746094 55.09375 C 38.175781 55.09375 38.648438 55.046875 38.972656 54.722656 C 39.265625 54.402344 39.277344 53.941406 39.292969 53.527344 C 39.292969 51.410156 39.292969 49.308594 39.292969 47.191406 C 39.265625 46.71875 39.308594 46.242188 39.1875 45.78125 C 38.957031 45.230469 38.296875 45.121094 37.761719 45.121094 C 37.730469 44.984375 37.746094 44.847656 37.746094 44.707031 M 41.320312 45.230469 C 41.011719 45.246094 40.964844 45.613281 40.949219 45.859375 C 40.949219 47.238281 40.949219 48.605469 40.949219 49.984375 C 41.671875 50.03125 42.4375 50.136719 43.128906 49.832031 C 43.804688 49.570312 44.234375 48.910156 44.324219 48.207031 C 44.449219 47.363281 44.386719 46.363281 43.742188 45.734375 C 43.082031 45.136719 42.132812 45.167969 41.320312 45.230469 "/>
<path style=" stroke:none;fill-rule:nonzero;fill:rgb(5.098039%,12.54902%,32.54902%);fill-opacity:1;" d="M 32.421875 45.660156 C 34.402344 45.382812 36.363281 46.765625 36.902344 48.648438 C 37.363281 50.308594 37.007812 52.269531 35.691406 53.4375 C 34.632812 54.464844 33.007812 54.753906 31.609375 54.355469 C 30.660156 54.0625 29.832031 53.40625 29.292969 52.578125 C 28.695312 51.65625 28.511719 50.492188 28.664062 49.417969 C 28.910156 47.515625 30.507812 45.859375 32.421875 45.660156 M 32.363281 46.058594 C 31.734375 46.164062 31.179688 46.59375 30.84375 47.132812 C 30.183594 48.160156 30.03125 49.417969 30.09375 50.613281 C 30.152344 51.578125 30.382812 52.578125 30.996094 53.328125 C 31.871094 54.402344 33.742188 54.492188 34.648438 53.421875 C 35.351562 52.578125 35.582031 51.441406 35.613281 50.367188 C 35.644531 49.171875 35.476562 47.867188 34.707031 46.886719 C 34.1875 46.179688 33.222656 45.875 32.363281 46.058594 "/>
<path style=" stroke:none;fill-rule:nonzero;fill:rgb(5.098039%,12.54902%,32.54902%);fill-opacity:1;" d="M 9.480469 45.796875 C 10.230469 45.8125 10.996094 45.8125 11.75 45.796875 C 13.589844 48.007812 15.382812 50.246094 17.238281 52.4375 C 17.238281 51.027344 17.238281 49.617188 17.238281 48.191406 C 17.269531 47.699219 17.300781 47.191406 17.070312 46.75 C 16.855469 46.351562 16.394531 46.164062 15.964844 46.105469 C 15.949219 45.996094 15.949219 45.90625 15.949219 45.796875 C 16.902344 45.796875 17.835938 45.8125 18.789062 45.78125 C 18.789062 45.890625 18.789062 45.980469 18.789062 46.089844 C 18.40625 46.105469 17.929688 46.195312 17.808594 46.625 C 17.5 47.714844 17.546875 48.863281 17.53125 50 C 17.515625 51.519531 17.605469 53.019531 17.652344 54.539062 C 17.5 54.507812 17.300781 54.570312 17.207031 54.417969 C 15.246094 52.039062 13.296875 49.648438 11.320312 47.285156 C 11.335938 49.171875 11.273438 51.074219 11.351562 52.960938 C 11.335938 53.648438 12.023438 54.0625 12.636719 54.09375 C 12.636719 54.1875 12.636719 54.292969 12.621094 54.386719 C 11.640625 54.371094 10.660156 54.371094 9.679688 54.386719 C 9.679688 54.292969 9.679688 54.1875 9.679688 54.09375 C 10.046875 54.035156 10.460938 53.941406 10.707031 53.621094 C 10.9375 53.34375 10.890625 52.976562 10.90625 52.636719 C 10.90625 50.707031 10.921875 48.773438 10.90625 46.839844 C 10.597656 46.363281 10.046875 46.058594 9.492188 46.058594 C 9.464844 45.996094 9.464844 45.90625 9.480469 45.796875 "/>
<path style=" stroke:none;fill-rule:nonzero;fill:rgb(5.098039%,12.54902%,32.54902%);fill-opacity:1;" d="M 19.417969 45.796875 C 20.828125 45.8125 22.238281 45.78125 23.648438 45.8125 C 25.015625 45.875 26.363281 46.519531 27.179688 47.621094 C 27.761719 48.40625 27.992188 49.402344 27.960938 50.367188 C 27.960938 51.488281 27.578125 52.683594 26.6875 53.40625 C 25.722656 54.21875 24.386719 54.402344 23.160156 54.386719 C 21.917969 54.386719 20.660156 54.386719 19.417969 54.386719 C 19.402344 54.277344 19.402344 54.1875 19.417969 54.078125 C 19.785156 54.078125 20.214844 54.019531 20.460938 53.695312 C 20.613281 53.464844 20.628906 53.175781 20.644531 52.898438 C 20.644531 51.042969 20.644531 49.203125 20.644531 47.347656 C 20.613281 47.039062 20.660156 46.6875 20.445312 46.441406 C 20.183594 46.164062 19.785156 46.121094 19.417969 46.121094 C 19.417969 46.027344 19.417969 45.90625 19.417969 45.796875 M 22.285156 46.195312 C 22.007812 46.179688 22.023438 46.503906 21.992188 46.703125 C 21.992188 48.664062 21.992188 50.644531 21.992188 52.605469 C 21.992188 52.992188 22.070312 53.40625 22.332031 53.679688 C 22.636719 53.957031 23.066406 54.003906 23.464844 54.019531 C 24.1875 54.050781 24.984375 53.894531 25.507812 53.375 C 26.089844 52.792969 26.242188 51.933594 26.320312 51.148438 C 26.363281 50.183594 26.351562 49.203125 26.058594 48.265625 C 25.859375 47.621094 25.476562 47.007812 24.894531 46.65625 C 24.125 46.179688 23.175781 46.121094 22.285156 46.195312 "/>
<path style=" stroke:none;fill-rule:nonzero;fill:rgb(5.098039%,12.54902%,32.54902%);fill-opacity:1;" d="M 46.886719 45.796875 C 48.3125 45.765625 49.738281 45.78125 51.164062 45.796875 C 51.933594 45.828125 52.777344 45.996094 53.3125 46.578125 C 53.804688 47.148438 53.851562 47.992188 53.636719 48.679688 C 53.3125 49.585938 52.347656 50.09375 51.425781 50.167969 C 52.023438 50.9375 52.636719 51.671875 53.234375 52.4375 C 53.863281 53.097656 54.507812 53.835938 55.414062 54.078125 C 55.414062 54.1875 55.414062 54.277344 55.398438 54.386719 C 54.691406 54.355469 53.972656 54.371094 53.265625 54.371094 C 52.269531 53.144531 51.304688 51.886719 50.292969 50.691406 C 50.105469 50.414062 49.769531 50.382812 49.464844 50.382812 C 49.433594 51.378906 49.417969 52.394531 49.507812 53.390625 C 49.601562 53.925781 50.230469 54.078125 50.691406 54.078125 C 50.691406 54.1875 50.691406 54.277344 50.691406 54.386719 C 49.417969 54.355469 48.144531 54.371094 46.871094 54.371094 C 46.871094 54.277344 46.886719 54.171875 46.886719 54.078125 C 47.300781 54.078125 47.820312 53.988281 48.007812 53.558594 C 48.144531 53.191406 48.082031 52.792969 48.097656 52.421875 C 48.097656 50.691406 48.113281 48.957031 48.082031 47.222656 C 48.082031 46.933594 48.082031 46.609375 47.851562 46.410156 C 47.59375 46.148438 47.207031 46.121094 46.855469 46.105469 C 46.886719 45.996094 46.886719 45.90625 46.886719 45.796875 M 49.464844 46.640625 C 49.464844 47.777344 49.464844 48.910156 49.464844 50.046875 C 50.136719 50.046875 50.84375 50.046875 51.472656 49.785156 C 52.054688 49.507812 52.253906 48.820312 52.269531 48.207031 C 52.269531 47.605469 52.148438 46.917969 51.609375 46.5625 C 51.058594 46.210938 50.367188 46.164062 49.722656 46.195312 C 49.480469 46.179688 49.464844 46.457031 49.464844 46.640625 "/>
<path style=" stroke:none;fill-rule:nonzero;fill:rgb(5.098039%,12.54902%,32.54902%);fill-opacity:1;" d="M 56.074219 45.796875 C 58.222656 45.765625 60.382812 45.8125 62.53125 45.78125 C 62.546875 46.441406 62.53125 47.101562 62.53125 47.761719 C 62.421875 47.761719 62.316406 47.761719 62.207031 47.746094 C 62.148438 47.191406 61.933594 46.550781 61.363281 46.335938 C 60.628906 46.074219 59.832031 46.195312 59.0625 46.164062 C 58.910156 46.179688 58.648438 46.105469 58.664062 46.335938 C 58.648438 47.46875 58.664062 48.589844 58.648438 49.722656 C 59.140625 49.738281 59.664062 49.691406 60.105469 49.480469 C 60.566406 49.21875 60.722656 48.648438 60.78125 48.160156 C 60.875 48.160156 60.964844 48.160156 61.074219 48.160156 C 61.074219 49.277344 61.058594 50.414062 61.074219 51.535156 C 60.980469 51.535156 60.890625 51.550781 60.796875 51.550781 C 60.675781 51.089844 60.550781 50.550781 60.09375 50.308594 C 59.632812 50.121094 59.140625 50.121094 58.648438 50.105469 C 58.664062 50.9375 58.636719 51.765625 58.664062 52.605469 C 58.695312 53.007812 58.773438 53.496094 59.140625 53.742188 C 59.554688 53.988281 60.0625 53.988281 60.519531 54.003906 C 61.121094 53.972656 61.765625 53.972656 62.269531 53.636719 C 62.730469 53.328125 62.882812 52.761719 62.960938 52.253906 C 63.066406 52.253906 63.175781 52.253906 63.28125 52.269531 C 63.234375 52.960938 63.191406 53.648438 63.160156 54.339844 C 60.796875 54.371094 58.449219 54.339844 56.089844 54.355469 C 56.089844 54.265625 56.089844 54.171875 56.089844 54.0625 C 56.578125 54.0625 57.238281 53.878906 57.285156 53.296875 C 57.394531 51.519531 57.316406 49.738281 57.332031 47.976562 C 57.285156 47.53125 57.363281 47.070312 57.207031 46.640625 C 57.007812 46.226562 56.488281 46.164062 56.089844 46.136719 C 56.074219 46.027344 56.074219 45.90625 56.074219 45.796875 "/>
<path style=" stroke:none;fill-rule:nonzero;fill:rgb(5.098039%,12.54902%,32.54902%);fill-opacity:1;" d="M 63.894531 45.796875 C 64.722656 45.84375 65.550781 45.84375 66.363281 45.8125 C 67.347656 48.007812 68.265625 50.214844 69.25 52.394531 C 70.199219 50.214844 71.089844 47.992188 72.023438 45.796875 C 72.851562 45.84375 73.695312 45.828125 74.523438 45.796875 C 74.523438 45.890625 74.523438 45.996094 74.523438 46.089844 C 74.035156 46.074219 73.328125 46.257812 73.328125 46.871094 C 73.234375 48.742188 73.3125 50.613281 73.28125 52.484375 C 73.296875 52.914062 73.234375 53.375 73.4375 53.757812 C 73.726562 54.050781 74.1875 54.003906 74.570312 54.078125 C 74.570312 54.171875 74.570312 54.277344 74.570312 54.371094 C 73.265625 54.339844 71.964844 54.339844 70.660156 54.371094 C 70.660156 54.277344 70.660156 54.171875 70.660156 54.078125 C 71.027344 54.003906 71.457031 54.035156 71.765625 53.789062 C 71.933594 53.527344 71.917969 53.191406 71.933594 52.898438 C 71.933594 50.964844 71.933594 49.019531 71.933594 47.085938 C 70.890625 49.492188 69.921875 51.933594 68.851562 54.308594 C 68.835938 54.402344 68.695312 54.402344 68.664062 54.308594 C 67.605469 51.902344 66.59375 49.480469 65.519531 47.070312 C 65.507812 48.851562 65.519531 50.628906 65.519531 52.394531 C 65.519531 52.808594 65.535156 53.265625 65.78125 53.621094 C 65.996094 53.925781 66.394531 54.019531 66.75 54.050781 C 66.75 54.140625 66.765625 54.25 66.765625 54.339844 C 65.828125 54.339844 64.894531 54.324219 63.957031 54.339844 C 63.957031 54.234375 63.957031 54.140625 63.957031 54.050781 C 64.523438 54.078125 65.09375 53.695312 65.105469 53.097656 C 65.136719 51.210938 65.105469 49.324219 65.121094 47.4375 C 65.121094 47.070312 65.121094 46.65625 64.90625 46.351562 C 64.648438 46.058594 64.234375 46.089844 63.894531 46.058594 C 63.894531 46.011719 63.894531 45.90625 63.894531 45.796875 "/>
<path style=" stroke:none;fill-rule:nonzero;fill:rgb(5.098039%,12.54902%,32.54902%);fill-opacity:1;" d="M 75.246094 45.78125 C 76.519531 45.8125 77.792969 45.828125 79.0625 45.78125 C 79.0625 45.890625 79.0625 45.996094 79.0625 46.105469 C 78.710938 46.105469 78.3125 46.148438 78.050781 46.425781 C 77.820312 46.671875 77.867188 47.039062 77.851562 47.363281 C 77.851562 49.171875 77.851562 50.980469 77.851562 52.792969 C 77.867188 53.113281 77.820312 53.480469 78.035156 53.726562 C 78.28125 54.019531 78.695312 54.0625 79.0625 54.078125 C 79.0625 54.171875 79.0625 54.277344 79.0625 54.371094 C 77.792969 54.339844 76.519531 54.355469 75.246094 54.371094 C 75.246094 54.265625 75.246094 54.171875 75.261719 54.0625 C 75.675781 54.0625 76.210938 53.972656 76.394531 53.542969 C 76.503906 53.175781 76.472656 52.792969 76.488281 52.40625 C 76.488281 50.707031 76.503906 48.988281 76.472656 47.285156 C 76.457031 46.980469 76.472656 46.625 76.242188 46.394531 C 75.980469 46.136719 75.582031 46.089844 75.246094 46.089844 C 75.230469 45.996094 75.246094 45.890625 75.246094 45.78125 "/>
<path style=" stroke:none;fill-rule:nonzero;fill:rgb(5.098039%,12.54902%,32.54902%);fill-opacity:1;" d="M 79.707031 45.796875 C 81.855469 45.78125 84.019531 45.78125 86.164062 45.796875 C 86.164062 46.457031 86.179688 47.117188 86.148438 47.761719 C 86.042969 47.761719 85.949219 47.761719 85.84375 47.761719 C 85.734375 47.207031 85.550781 46.5625 84.984375 46.335938 C 84.1875 46.058594 83.34375 46.195312 82.515625 46.164062 C 82.363281 46.136719 82.253906 46.242188 82.269531 46.394531 C 82.269531 47.515625 82.269531 48.621094 82.269531 49.738281 C 82.777344 49.753906 83.3125 49.707031 83.773438 49.464844 C 84.203125 49.1875 84.339844 48.648438 84.402344 48.175781 C 84.492188 48.175781 84.585938 48.175781 84.691406 48.175781 C 84.691406 49.292969 84.679688 50.429688 84.691406 51.550781 C 84.601562 51.550781 84.492188 51.550781 84.402344 51.550781 C 84.339844 51.074219 84.15625 50.535156 83.695312 50.320312 C 83.25 50.152344 82.746094 50.152344 82.285156 50.136719 C 82.285156 50.890625 82.285156 51.640625 82.285156 52.394531 C 82.316406 52.851562 82.316406 53.40625 82.714844 53.726562 C 83.113281 54.019531 83.636719 54.019531 84.109375 54.035156 C 84.722656 54.003906 85.398438 54.019531 85.921875 53.664062 C 86.363281 53.359375 86.519531 52.808594 86.578125 52.285156 C 86.6875 52.285156 86.777344 52.285156 86.886719 52.285156 C 86.855469 52.976562 86.792969 53.679688 86.765625 54.371094 C 84.417969 54.371094 82.054688 54.371094 79.707031 54.371094 C 79.707031 54.277344 79.707031 54.171875 79.707031 54.078125 C 80.09375 54.0625 80.550781 54.003906 80.78125 53.648438 C 80.996094 53.3125 80.90625 52.882812 80.949219 52.5 C 80.949219 50.890625 80.949219 49.277344 80.949219 47.667969 C 80.921875 47.285156 81.011719 46.839844 80.75 46.503906 C 80.507812 46.195312 80.078125 46.164062 79.722656 46.136719 C 79.707031 46.027344 79.707031 45.90625 79.707031 45.796875 "/>
<path style=" stroke:none;fill-rule:nonzero;fill:rgb(5.098039%,12.54902%,32.54902%);fill-opacity:1;" d="M 87.53125 45.796875 C 88.804688 45.765625 90.078125 45.8125 91.335938 45.78125 C 92.085938 45.796875 92.867188 45.84375 93.527344 46.242188 C 94.648438 46.902344 94.679688 48.695312 93.710938 49.507812 C 93.265625 49.921875 92.652344 50.121094 92.070312 50.183594 C 92.652344 50.9375 93.25 51.65625 93.835938 52.394531 C 94.464844 53.082031 95.136719 53.835938 96.058594 54.09375 C 96.058594 54.1875 96.058594 54.277344 96.058594 54.386719 C 95.335938 54.371094 94.632812 54.355469 93.925781 54.386719 C 92.914062 53.160156 91.949219 51.886719 90.921875 50.675781 C 90.734375 50.414062 90.398438 50.382812 90.105469 50.398438 C 90.121094 51.410156 90.0625 52.421875 90.167969 53.421875 C 90.246094 53.894531 90.78125 54.078125 91.210938 54.078125 C 91.394531 54.050781 91.335938 54.265625 91.351562 54.386719 C 90.078125 54.371094 88.789062 54.371094 87.515625 54.386719 C 87.515625 54.277344 87.53125 54.1875 87.53125 54.078125 C 87.992188 54.09375 88.605469 53.941406 88.695312 53.421875 C 88.789062 52.605469 88.742188 51.792969 88.757812 50.980469 C 88.742188 49.601562 88.804688 48.207031 88.710938 46.824219 C 88.648438 46.257812 87.992188 46.089844 87.515625 46.105469 C 87.53125 46.011719 87.53125 45.90625 87.53125 45.796875 M 90.105469 46.578125 C 90.105469 47.730469 90.105469 48.894531 90.105469 50.046875 C 90.734375 50.046875 91.394531 50.046875 91.992188 49.832031 C 92.515625 49.648438 92.808594 49.109375 92.867188 48.574219 C 92.945312 47.914062 92.898438 47.148438 92.394531 46.671875 C 91.839844 46.210938 91.074219 46.164062 90.382812 46.179688 C 90.167969 46.164062 90.09375 46.394531 90.105469 46.578125 "/>
</g>
</svg>
