<svg id="Layer_1" data-name="Layer 1" xmlns="http://www.w3.org/2000/svg" viewBox="0 0 342.67 103.57"><defs><style>.cls-1{fill:#0d2053;}</style></defs><title>Media logos_svg</title><path class="cls-1" d="M7.2,33.51c5.62.11,11.29.16,17,0a5.62,5.62,0,0,1,0,1.42c-2,0-4.52.49-5.12,2.67a37.75,37.75,0,0,0-.33,7v20c.16,1.42-.05,3.05.93,4.25a5.94,5.94,0,0,0,4.52,1.53v1.36c-5.67-.16-11.34-.11-17,0V70.43c1.58-.05,3.38-.21,4.53-1.41s.87-3.17,1-4.8c-.05-8.51.11-17-.11-25.53.06-2.83-3.11-3.82-5.4-3.71V33.51"/><path class="cls-1" d="M127,33.46c4.37,0,8.78,0,13.15,0,3,0,6.16-.22,9.16.71s6.27,2.89,7.42,6.1a10.42,10.42,0,0,1-.82,8.46c-1.47,2.45-4.26,3.76-6.93,4.42-3.43.92-7.09.6-10.58.87-.05,3.92,0,7.85,0,11.83a4.06,4.06,0,0,0,1.8,3.66,11.59,11.59,0,0,0,4.31.87v1.36q-8.76-.24-17.51,0V70.38a6,6,0,0,0,4.37-1.31c1-1.14,1.09-2.78,1.14-4.25V42.29a26.23,26.23,0,0,0-.38-5c-.82-2-3.16-2.34-5.07-2.34a6.59,6.59,0,0,1-.06-1.47m12.71,1.85c-1.09.06-1.25,1.36-1.31,2.24V52.22c2.56.16,5.29.54,7.75-.55a7.06,7.06,0,0,0,4.25-5.78c.44-3,.22-6.54-2.07-8.78s-5.73-2-8.62-1.8"/><path class="cls-1" d="M108.05,36.84c7-1,14,3.92,15.92,10.63,1.64,5.89.38,12.87-4.31,17a15.11,15.11,0,0,1-14.5,3.27,15.33,15.33,0,0,1-8.24-6.32A16.58,16.58,0,0,1,94.68,50.2c.88-6.76,6.55-12.65,13.37-13.36m-.22,1.42a8.22,8.22,0,0,0-5.4,3.81c-2.35,3.66-2.89,8.13-2.67,12.38.21,3.44,1,7,3.21,9.66,3.11,3.82,9.77,4.14,13,.33,2.51-3,3.33-7,3.44-10.86.11-4.25-.49-8.89-3.22-12.38a8.33,8.33,0,0,0-8.34-2.94"/><path class="cls-1" d="M26.45,37.33c2.68.05,5.4.05,8.08,0,6.54,7.85,12.92,15.82,19.52,23.61V45.84a9.6,9.6,0,0,0-.6-5.13,5.11,5.11,0,0,0-3.93-2.29,8,8,0,0,1-.05-1.09c3.38,0,6.71.05,10.09-.06v1.1c-1.36.05-3.05.38-3.49,1.9-1.09,3.88-.93,8-1,12-.06,5.4.27,10.75.43,16.15-.54-.11-1.25.11-1.58-.44C47,59.53,40,51,33,42.62c0,6.71-.16,13.47.11,20.18-.06,2.45,2.4,3.93,4.58,4a7.25,7.25,0,0,1,0,1q-5.25-.08-10.48,0v-1a5.43,5.43,0,0,0,3.66-1.69c.82-1,.65-2.29.71-3.49,0-6.87,0-13.74,0-20.61a6.13,6.13,0,0,0-5-2.78,1.71,1.71,0,0,1-.06-.93"/><path class="cls-1" d="M61.8,37.33c5,.05,10-.06,15,.05a16.57,16.57,0,0,1,12.54,6.44,15.53,15.53,0,0,1,2.79,9.76c0,4-1.37,8.24-4.53,10.8-3.44,2.89-8.18,3.55-12.55,3.49H61.8a3.32,3.32,0,0,1,0-1.09,4.5,4.5,0,0,0,3.71-1.36,5.61,5.61,0,0,0,.65-2.84V42.84c-.11-1.09,0-2.35-.71-3.22a4.85,4.85,0,0,0-3.65-1.15V37.33M72,38.75c-1-.06-.93,1.09-1,1.8v21a5.51,5.51,0,0,0,1.2,3.82,6.18,6.18,0,0,0,4,1.2c2.57.11,5.4-.43,7.26-2.29,2.07-2.07,2.62-5.13,2.89-7.91a29.55,29.55,0,0,0-.93-10.25,10.09,10.09,0,0,0-4.14-5.73c-2.73-1.69-6.11-1.91-9.27-1.63"/><path class="cls-1" d="M159.48,37.33c5.07-.11,10.14-.06,15.21,0,2.73.11,5.73.71,7.64,2.78,1.75,2,1.91,5,1.15,7.47-1.15,3.22-4.59,5-7.86,5.29,2.13,2.73,4.31,5.35,6.44,8.07,2.23,2.35,4.52,5,7.74,5.84a8,8,0,0,1-.05,1.09c-2.51-.11-5.07-.05-7.58-.05-3.55-4.37-7-8.84-10.58-13.09a3.29,3.29,0,0,0-3-1.09,88.73,88.73,0,0,0,.16,10.69c.33,1.91,2.57,2.45,4.2,2.45v1.09c-4.52-.11-9.05-.05-13.58-.05,0-.33.06-.71.06-1,1.47,0,3.32-.33,4-1.85a12.86,12.86,0,0,0,.33-4c0-6.16.05-12.33-.06-18.49a3.59,3.59,0,0,0-.82-2.89,5.05,5.05,0,0,0-3.54-1.09,3.68,3.68,0,0,0,.11-1.09m9.16,3V52.44a18.56,18.56,0,0,0,7.15-.93c2.07-1,2.78-3.44,2.83-5.62s-.43-4.58-2.34-5.83a11.34,11.34,0,0,0-6.71-1.31c-.87-.06-.93.92-.93,1.58"/><path class="cls-1" d="M192.15,37.33c7.63-.11,15.32.05,23-.06,0,2.35,0,4.69,0,7a8.93,8.93,0,0,1-1.15-.05c-.21-2-1-4.26-3-5-2.61-.93-5.45-.49-8.18-.6-.54,0-1.47-.22-1.42.6-.05,4,0,8-.05,12a11.15,11.15,0,0,0,5.18-.87c1.64-.93,2.18-3,2.4-4.69h1c0,4-.06,8,0,12-.33,0-.66.05-1,.05-.44-1.63-.88-3.54-2.51-4.42a15,15,0,0,0-5.13-.71c.05,3-.05,5.89.05,8.89.11,1.42.39,3.17,1.7,4a10.2,10.2,0,0,0,4.9.93c2.13-.11,4.42-.11,6.22-1.31,1.64-1.09,2.18-3.11,2.46-4.91a8.7,8.7,0,0,1,1.14.05c-.16,2.46-.33,4.91-.44,7.37-8.39.11-16.74,0-25.14.05v-1c1.75,0,4.09-.66,4.26-2.73.38-6.33.11-12.65.16-18.93-.16-1.58.11-3.21-.44-4.74-.71-1.47-2.56-1.69-4-1.8a9.63,9.63,0,0,1,0-1.2"/><path class="cls-1" d="M220,37.33c2.95.16,5.89.16,8.78.05,3.49,7.8,6.77,15.66,10.26,23.4,3.38-7.74,6.54-15.65,9.87-23.45,2.94.16,5.94.11,8.89,0v1c-1.75-.06-4.26.59-4.26,2.78-.32,6.65-.05,13.3-.16,20,.06,1.53-.16,3.16.55,4.53,1,1,2.67.87,4,1.14v1q-6.95-.16-13.91,0v-1c1.31-.27,2.84-.16,3.93-1a6.23,6.23,0,0,0,.6-3.16V41.91c-3.71,8.56-7.14,17.23-11,25.69a.34.34,0,0,1-.66,0c-3.76-8.56-7.36-17.18-11.18-25.74-.05,6.32,0,12.65,0,18.92a7.56,7.56,0,0,0,.93,4.36,4.47,4.47,0,0,0,3.44,1.53c0,.33,0,.71,0,1-3.33,0-6.65-.06-10,0v-1a3.71,3.71,0,0,0,4.09-3.38c.11-6.71,0-13.42.06-20.13a6.67,6.67,0,0,0-.77-3.87c-.92-1-2.4-.92-3.6-1v-.93"/><path class="cls-1" d="M260.32,37.27c4.53.11,9.06.17,13.58,0v1.15a4.8,4.8,0,0,0-3.6,1.14c-.81.88-.65,2.19-.71,3.33V62.2c.06,1.14-.1,2.45.66,3.33.87,1,2.34,1.2,3.65,1.25v1c-4.52-.11-9-.06-13.58,0a6.58,6.58,0,0,1,.06-1.09c1.47,0,3.38-.33,4-1.86a16.43,16.43,0,0,0,.33-4c0-6.06.05-12.17-.05-18.22-.06-1.09,0-2.35-.82-3.16a4.93,4.93,0,0,0-3.55-1.09,8.06,8.06,0,0,1,0-1.1"/><path class="cls-1" d="M276.19,37.33c7.64-.06,15.33-.06,23,0,0,2.34.06,4.69,0,7H298c-.38-2-1-4.25-3.05-5.07-2.84-1-5.84-.49-8.79-.6a.7.7,0,0,0-.87.82V51.35a10.63,10.63,0,0,0,5.35-1c1.52-1,2-2.89,2.23-4.58h1c0,4-.06,8,0,12h-1c-.22-1.69-.87-3.6-2.51-4.36a15.81,15.81,0,0,0-5-.66v8c.11,1.64.11,3.6,1.52,4.75s3.28,1,5,1.09c2.18-.11,4.58-.06,6.43-1.31,1.58-1.09,2.13-3.06,2.35-4.91h1.09c-.11,2.45-.33,5-.44,7.42H276.19v-1c1.37,0,3-.27,3.82-1.53s.44-2.72.6-4.09V44c-.11-1.36.22-2.94-.71-4.14s-2.4-1.2-3.65-1.31a8,8,0,0,1-.06-1.2"/><path class="cls-1" d="M304,37.33c4.53-.11,9.05.05,13.52-.06,2.68.06,5.46.22,7.8,1.64,4,2.35,4.09,8.73.66,11.62a10.12,10.12,0,0,1-5.84,2.4c2.08,2.67,4.2,5.23,6.28,7.85,2.23,2.46,4.63,5.13,7.9,6v1c-2.56-.05-5.07-.11-7.58,0-3.6-4.36-7-8.89-10.69-13.2a3.17,3.17,0,0,0-2.89-1c.06,3.6-.16,7.2.22,10.75.27,1.69,2.18,2.34,3.71,2.34.65-.11.43.65.49,1.09-4.53-.05-9.11-.05-13.64,0,0-.38.06-.71.06-1.09,1.64,0,3.82-.49,4.14-2.34.33-2.9.17-5.79.22-8.68-.05-4.91.17-9.87-.16-14.78-.22-2-2.56-2.61-4.26-2.56a6.35,6.35,0,0,0,.06-1.09m9.16,2.78V52.44a19.7,19.7,0,0,0,6.71-.77A5.19,5.19,0,0,0,323,47.2c.27-2.34.11-5.07-1.69-6.76-2-1.64-4.69-1.8-7.15-1.75-.76,0-1,.77-1,1.42"/></svg>