<svg id="Layer_1" data-name="Layer 1" xmlns="http://www.w3.org/2000/svg" viewBox="0 0 342.67 103.57"><defs><style>.cls-1{fill:none;}</style></defs><title>Media logos_svg</title><path d="M33.55,38.92v-.85a3.13,3.13,0,0,0-.24-1.29,1.69,1.69,0,0,0-1-.81l-.77-.31a8.32,8.32,0,0,1-1.29-.73,1.18,1.18,0,0,1-.38-1,1.43,1.43,0,0,1,1-1.39,6.07,6.07,0,0,1,2.41-.43H46.55a6.86,6.86,0,0,1,2.48.37A1.43,1.43,0,0,1,50,33.93q0,.81-.42,1c-.28.16-.7.39-1.26.68l-.76.31a1.64,1.64,0,0,0-1,.81,3.3,3.3,0,0,0-.25,1.34V59.34a19.38,19.38,0,0,1-.7,5.72A7.4,7.4,0,0,1,42.39,69a18.05,18.05,0,0,1-6.29,2.47,36.12,36.12,0,0,1-7.38.8A28.11,28.11,0,0,1,17,70q-5-2.25-5-7.08A6.18,6.18,0,0,1,15,57.65a12.11,12.11,0,0,1,7.2-2,9.88,9.88,0,0,1,4.06.81A2.56,2.56,0,0,1,28,58.77c0,1-1.11,1.79-3.35,2.36s-3.36,1.59-3.36,3.05A3.22,3.22,0,0,0,23,67.05a7.94,7.94,0,0,0,4.17,1q3.84,0,5.1-2.07a10.22,10.22,0,0,0,1.26-5.39Z"/><path d="M87.25,64.11c0,.5,0,1,0,1.61a2.8,2.8,0,0,0,.38,1.43,2.56,2.56,0,0,0,1.39.94,5.61,5.61,0,0,1,1.44.67,1.17,1.17,0,0,1,.38,1,1.33,1.33,0,0,1-1,1.43,10.23,10.23,0,0,1-2.77.29h-7c-1.7,0-2.74-.22-3.16-.66a4,4,0,0,1-.64-2.67,9.83,9.83,0,0,1-4.53,3.08,18.84,18.84,0,0,1-6.28,1A17,17,0,0,1,56.57,70a6.82,6.82,0,0,1-3.65-6.11q0-5.1,6.29-7.3a42.31,42.31,0,0,1,14-2.2h2.38A5.43,5.43,0,0,0,74,50.31a6.86,6.86,0,0,0-4.89-1.53,9.32,9.32,0,0,0-4.65,1.72,9.32,9.32,0,0,1-4.65,1.72,6.85,6.85,0,0,1-3.08-.62,2.06,2.06,0,0,1-1.26-2c0-1.65,1.66-2.8,5-3.47a48.65,48.65,0,0,1,9.51-1,41.86,41.86,0,0,1,6.22.45,22.91,22.91,0,0,1,5.81,1.7,8.8,8.8,0,0,1,4,3.23,9.24,9.24,0,0,1,1.26,5v8.5ZM74.6,57.81a14.75,14.75,0,0,0-7,1.55A5,5,0,0,0,64.67,64a3.66,3.66,0,0,0,1.17,2.73A4.5,4.5,0,0,0,69,67.82a6.51,6.51,0,0,0,3-.7,7.39,7.39,0,0,0,2.4-1.92,5.39,5.39,0,0,0,1.21-2.33,19.45,19.45,0,0,0,.21-3.35V57.81Z"/><path d="M143.61,45.6H145a6.2,6.2,0,0,1,2.17.3,1.18,1.18,0,0,1,.77,1.21,1.34,1.34,0,0,1-.28.8,5.91,5.91,0,0,1-1,1,6.28,6.28,0,0,0-1,1A7.58,7.58,0,0,0,145,51.4l-5.81,13.8a38.92,38.92,0,0,1-2.05,3.33A11.37,11.37,0,0,1,135,71a5.51,5.51,0,0,1-2.06,1,11.92,11.92,0,0,1-2.6.24,11.18,11.18,0,0,1-3.14-.35,6.27,6.27,0,0,1-2.48-1.74,16.7,16.7,0,0,1-2.48-3.32c-.75-1.29-1.66-3-2.73-5.19a53.89,53.89,0,0,1-2.55,4.77,23.38,23.38,0,0,1-2.62,3.45,7.52,7.52,0,0,1-2.56,2,9.3,9.3,0,0,1-3,.4,8.21,8.21,0,0,1-4.48-.92,13.65,13.65,0,0,1-3.18-3.86,53.44,53.44,0,0,1-3.39-6.39A56.44,56.44,0,0,1,95,53.81l-.77-2.68c-.09-.32-.21-.67-.35-1a2,2,0,0,0-.77-.94,7.08,7.08,0,0,1-1-.84,1.35,1.35,0,0,1-.5-1,1.3,1.3,0,0,1,.87-1.34,7.09,7.09,0,0,1,2.41-.33h10.07a9,9,0,0,1,2.7.3,1.32,1.32,0,0,1,.87,1.42c0,.64-.41,1.15-1.22,1.53s-1.23.81-1.23,1.31a12.57,12.57,0,0,0,.45,2.74c.31,1.18.8,2.73,1.47,4.67a39.85,39.85,0,0,0,1.93,4.69,21.34,21.34,0,0,0,2.24,3.51,23.18,23.18,0,0,0,4.19-13v-.64a5.28,5.28,0,0,0-.28-2,3.09,3.09,0,0,0-1.22-1.28,7.55,7.55,0,0,1-1.19-.89,1.31,1.31,0,0,1,.74-2,6.93,6.93,0,0,1,2.23-.33h9.23a11,11,0,0,1,2.87.27,1.29,1.29,0,0,1,.91,1.4c0,.57-.4,1-1.19,1.44s-1.19.86-1.19,1.4a10.28,10.28,0,0,0,.45,2.63c.31,1.07.83,2.62,1.58,4.67l4.19,8.36a41.94,41.94,0,0,0,3.88-7.4,19.89,19.89,0,0,0,1.93-7.13,2.52,2.52,0,0,0-1.58-2.36c-1.05-.54-1.57-1.15-1.57-1.83a1.12,1.12,0,0,1,.84-1.18,7.84,7.84,0,0,1,2.31-.27h4.34Z"/><path d="M183.74,64.11c0,.5,0,1,0,1.61a2.9,2.9,0,0,0,.38,1.43,2.64,2.64,0,0,0,1.4.94,5.67,5.67,0,0,1,1.43.67,1.17,1.17,0,0,1,.39,1,1.34,1.34,0,0,1-1,1.43,10.18,10.18,0,0,1-2.77.29h-7c-1.69,0-2.74-.22-3.17-.66a4.07,4.07,0,0,1-.63-2.67,9.83,9.83,0,0,1-4.53,3.08,18.8,18.8,0,0,1-6.28,1,16.9,16.9,0,0,1-8.88-2.2,6.79,6.79,0,0,1-3.66-6.11q0-5.1,6.29-7.3a42.36,42.36,0,0,1,14-2.2h2.38a5.42,5.42,0,0,0-1.6-4.11,6.9,6.9,0,0,0-4.9-1.53,9.26,9.26,0,0,0-4.64,1.72,9.38,9.38,0,0,1-4.66,1.72,6.88,6.88,0,0,1-3.08-.62,2,2,0,0,1-1.26-2c0-1.65,1.66-2.8,5-3.47a48.65,48.65,0,0,1,9.51-1,42,42,0,0,1,6.22.45,22.79,22.79,0,0,1,5.81,1.7,8.75,8.75,0,0,1,4,3.23,9.24,9.24,0,0,1,1.26,5v8.5Zm-12.65-6.3a14.85,14.85,0,0,0-7,1.55A5,5,0,0,0,161.15,64a3.64,3.64,0,0,0,1.19,2.73,4.46,4.46,0,0,0,3.19,1.12,6.51,6.51,0,0,0,3-.7,7,7,0,0,0,2.39-1.92,5.21,5.21,0,0,0,1.22-2.33,19.45,19.45,0,0,0,.21-3.35V57.81Z"/><path d="M229.89,64.75a3.12,3.12,0,0,0,.17,1,9.22,9.22,0,0,0,.35.89,1.49,1.49,0,0,0,.56.64,6.43,6.43,0,0,0,1.68.65,4.5,4.5,0,0,1,1.67.73,1.4,1.4,0,0,1,.39,1.1,1.37,1.37,0,0,1-1.29,1.43,19.81,19.81,0,0,1-3.46.24H216.88a6.84,6.84,0,0,1-2.48-.38,1.43,1.43,0,0,1-.94-1.46c0-.54.14-.89.41-1s.7-.39,1.26-.68l.77-.32a1.6,1.6,0,0,0,1-.81,3.33,3.33,0,0,0,.24-1.35V38a3.18,3.18,0,0,0-.24-1.3,1.6,1.6,0,0,0-1-.81l-.77-.31a7.8,7.8,0,0,1-1.29-.71,1.11,1.11,0,0,1-.38-1,1.43,1.43,0,0,1,1-1.37,6.5,6.5,0,0,1,2.41-.41h21.6a62.75,62.75,0,0,1,7.25.37,25.74,25.74,0,0,1,6.35,1.64,12.6,12.6,0,0,1,5.08,3.5A7.79,7.79,0,0,1,259,42.81a8.67,8.67,0,0,1-2.9,6.4A20.69,20.69,0,0,1,249,53.62a43.15,43.15,0,0,1-9.13,2.31,69.31,69.31,0,0,1-10,.7v8.12Zm0-12.26a32.68,32.68,0,0,0,10.93-2.85q4.59-2.2,4.59-6.51a6.14,6.14,0,0,0-2.8-5.32,12.44,12.44,0,0,0-7.27-1.94,16.93,16.93,0,0,0-2.62.16,4.2,4.2,0,0,0-1.82.75,2.18,2.18,0,0,0-.91,1.59,15.57,15.57,0,0,0-.1,1.59V52.49Z"/><path d="M262.05,68.9a13.87,13.87,0,0,1-4.62-4.51,10.61,10.61,0,0,1-1.6-5.58,9.93,9.93,0,0,1,1.56-5.31A15.43,15.43,0,0,1,261.84,49a20.43,20.43,0,0,1,6.54-2.89,31.42,31.42,0,0,1,7.86-.94,24.47,24.47,0,0,1,13.53,3.75q5.85,3.76,5.84,9.61,0,6.08-6,9.88a25.51,25.51,0,0,1-14,3.81,32.87,32.87,0,0,1-7.37-.78A19.4,19.4,0,0,1,262.05,68.9Zm21.54-10.68a11.67,11.67,0,0,0-1.78-6.38q-1.79-2.79-6-2.79c-2.84,0-4.88.94-6.12,2.84a11.88,11.88,0,0,0-1.85,6.6,14.3,14.3,0,0,0,1.68,7c1.12,2,3.17,3,6.16,3s5.22-1,6.29-3A15.28,15.28,0,0,0,283.59,58.22Z"/><path d="M319.84,55.38A24.4,24.4,0,0,1,327.38,58a5.41,5.41,0,0,1,2.7,5,6.24,6.24,0,0,1-1.5,4.08,11.21,11.21,0,0,1-3.89,3,20.51,20.51,0,0,1-5.34,1.69,31.87,31.87,0,0,1-5.7.54,26.5,26.5,0,0,1-8.35-1.07,19,19,0,0,1-4.76-2.25,3.32,3.32,0,0,1-1.65-2.67,2.26,2.26,0,0,1,.85-1.71,3,3,0,0,1,2.1-.75,3.3,3.3,0,0,1,1.6.32,14.71,14.71,0,0,1,1.83,1.37,26,26,0,0,0,2.72,2,8.12,8.12,0,0,0,4.26.92,10.52,10.52,0,0,0,4.06-.78,2.55,2.55,0,0,0,1.89-2.38q0-2.14-6.3-3.43a65.56,65.56,0,0,1-9.09-2.33c-1.87-.69-2.8-2.42-2.8-5.16,0-3,1.63-5.31,4.87-6.83A25.91,25.91,0,0,1,316,45.18a36.25,36.25,0,0,1,5.9.53A18.27,18.27,0,0,1,326.55,47a3,3,0,0,1,1.72,1.67,8.18,8.18,0,0,1,.27,2.2,4.31,4.31,0,0,1-.35,1.94c-.23.46-.82.7-1.75.7-.7,0-1.85-.77-3.45-2.32a8.57,8.57,0,0,0-6.24-2.31,8.7,8.7,0,0,0-3.72.75,2.41,2.41,0,0,0-1.61,2.26,2,2,0,0,0,1.4,1.87,18.38,18.38,0,0,0,3.72,1Z"/><rect class="cls-1" x="9" y="27" width="324.16" height="50.34"/></svg>