<?xml version="1.0" encoding="UTF-8"?>
<svg xmlns="http://www.w3.org/2000/svg" xmlns:xlink="http://www.w3.org/1999/xlink" width="99pt" height="22pt" viewBox="0 0 99 22" version="1.1">
<defs>
<linearGradient id="linear0" gradientUnits="userSpaceOnUse" x1="214.708" y1="4.75662" x2="324.359" y2="64.0026" gradientTransform="matrix(0.307453,0,0,0.309859,0,0)">
<stop offset="0" style="stop-color:rgb(98.823529%,90.196078%,0%);stop-opacity:1;"/>
<stop offset="0.1949" style="stop-color:rgb(100%,79.607843%,33.333333%);stop-opacity:1;"/>
<stop offset="0.4153" style="stop-color:rgb(100%,76.862745%,16.470588%);stop-opacity:1;"/>
<stop offset="0.6398" style="stop-color:rgb(96.078431%,50.980392%,20.784314%);stop-opacity:1;"/>
<stop offset="0.7821" style="stop-color:rgb(100%,79.215686%,16.470588%);stop-opacity:1;"/>
<stop offset="1" style="stop-color:rgb(100%,91.764706%,24.705882%);stop-opacity:1;"/>
</linearGradient>
<linearGradient id="linear1" gradientUnits="userSpaceOnUse" x1="204.809" y1="21.3724" x2="315.037" y2="81.3784" gradientTransform="matrix(0.307453,0,0,0.309859,0,0)">
<stop offset="0" style="stop-color:rgb(98.823529%,90.196078%,0%);stop-opacity:1;"/>
<stop offset="0.1949" style="stop-color:rgb(100%,79.607843%,33.333333%);stop-opacity:1;"/>
<stop offset="0.4153" style="stop-color:rgb(100%,76.862745%,16.470588%);stop-opacity:1;"/>
<stop offset="0.6398" style="stop-color:rgb(96.078431%,50.980392%,20.784314%);stop-opacity:1;"/>
<stop offset="0.7821" style="stop-color:rgb(100%,79.215686%,16.470588%);stop-opacity:1;"/>
<stop offset="1" style="stop-color:rgb(100%,91.764706%,24.705882%);stop-opacity:1;"/>
</linearGradient>
<linearGradient id="linear2" gradientUnits="userSpaceOnUse" x1="197.867" y1="35.1246" x2="308.872" y2="96.5323" gradientTransform="matrix(0.307453,0,0,0.309859,0,0)">
<stop offset="0" style="stop-color:rgb(98.823529%,90.196078%,0%);stop-opacity:1;"/>
<stop offset="0.1949" style="stop-color:rgb(100%,79.607843%,33.333333%);stop-opacity:1;"/>
<stop offset="0.4153" style="stop-color:rgb(100%,76.862745%,16.470588%);stop-opacity:1;"/>
<stop offset="0.6398" style="stop-color:rgb(96.078431%,50.980392%,20.784314%);stop-opacity:1;"/>
<stop offset="0.7821" style="stop-color:rgb(100%,79.215686%,16.470588%);stop-opacity:1;"/>
<stop offset="1" style="stop-color:rgb(100%,91.764706%,24.705882%);stop-opacity:1;"/>
</linearGradient>
<linearGradient id="linear3" gradientUnits="userSpaceOnUse" x1="186.258" y1="58.0897" x2="294.13" y2="116.007" gradientTransform="matrix(0.307453,0,0,0.309859,0,0)">
<stop offset="0" style="stop-color:rgb(98.823529%,90.196078%,0%);stop-opacity:1;"/>
<stop offset="0.1949" style="stop-color:rgb(100%,79.607843%,33.333333%);stop-opacity:1;"/>
<stop offset="0.4153" style="stop-color:rgb(100%,76.862745%,16.470588%);stop-opacity:1;"/>
<stop offset="0.6398" style="stop-color:rgb(96.078431%,50.980392%,20.784314%);stop-opacity:1;"/>
<stop offset="0.7821" style="stop-color:rgb(100%,79.215686%,16.470588%);stop-opacity:1;"/>
<stop offset="1" style="stop-color:rgb(100%,91.764706%,24.705882%);stop-opacity:1;"/>
</linearGradient>
</defs>
<g id="surface1">
<path style=" stroke:none;fill-rule:nonzero;fill:rgb(100%,100%,100%);fill-opacity:1;" d="M 5.40625 17.34375 C 6.097656 16.613281 6.234375 15.710938 6.242188 14.792969 C 6.261719 11.960938 6.25 9.128906 6.246094 6.296875 C 6.242188 5.273438 6.574219 4.410156 7.355469 3.730469 C 8.230469 2.964844 9.101562 2.195312 9.96875 1.417969 C 11.746094 -0.175781 14.210938 0.597656 14.761719 2.929688 C 15.09375 4.328125 14.789062 5.625 14.128906 6.863281 C 13.535156 7.980469 12.683594 8.867188 11.65625 9.597656 C 11.605469 9.632812 11.554688 9.671875 11.472656 9.734375 C 12.027344 9.808594 12.546875 9.863281 13.054688 9.957031 C 13.394531 10.023438 13.734375 10.125 14.0625 10.253906 C 15.792969 10.9375 16.675781 12.421875 16.589844 14.300781 C 16.453125 17.195312 14.890625 19.09375 12.417969 20.332031 C 10.976562 21.054688 9.433594 21.5 7.792969 21.410156 C 7.445312 21.390625 7.074219 21.339844 6.769531 21.191406 C 4.992188 20.332031 3.238281 20.542969 1.480469 21.246094 C 1.390625 21.285156 1.296875 21.316406 1.207031 21.351562 C 1.199219 21.355469 1.1875 21.34375 1.144531 21.328125 C 1.679688 20.570312 2.292969 19.894531 3.007812 19.3125 C 4.078125 18.441406 5.269531 17.855469 6.671875 17.761719 C 7.761719 17.691406 8.78125 17.953125 9.761719 18.40625 C 9.878906 18.460938 9.996094 18.519531 10.164062 18.601562 C 10.164062 18.433594 10.164062 18.308594 10.164062 18.183594 C 10.164062 14.308594 10.160156 10.433594 10.167969 6.558594 C 10.167969 6.105469 10.222656 5.640625 9.664062 5.40625 C 9.925781 5.152344 10.140625 4.941406 10.351562 4.738281 C 10.5625 4.949219 10.769531 5.15625 10.988281 5.375 C 10.988281 5.367188 10.992188 5.394531 10.980469 5.402344 C 10.558594 5.703125 10.488281 6.117188 10.503906 6.609375 C 10.539062 7.507812 10.515625 8.40625 10.515625 9.308594 C 10.515625 9.425781 10.515625 9.542969 10.515625 9.660156 C 10.550781 9.679688 10.589844 9.699219 10.625 9.71875 C 10.871094 9.425781 11.15625 9.15625 11.359375 8.832031 C 11.929688 7.933594 12.066406 6.910156 12.113281 5.871094 C 12.152344 5.066406 12.070312 4.269531 11.800781 3.503906 C 11.703125 3.242188 11.574219 2.976562 11.40625 2.753906 C 10.863281 2.039062 9.898438 2.066406 9.460938 2.847656 C 9.246094 3.234375 9.117188 3.71875 9.113281 4.160156 C 9.082031 7 9.066406 9.84375 9.105469 12.6875 C 9.132812 14.617188 8.09375 16.25 6.199219 17.050781 C 5.941406 17.160156 5.671875 17.25 5.40625 17.34375 Z M 10.550781 10.335938 C 10.535156 10.40625 10.519531 10.449219 10.519531 10.488281 C 10.515625 13.195312 10.515625 15.90625 10.519531 18.613281 C 10.519531 18.925781 10.871094 19.121094 11.144531 18.964844 C 11.789062 18.597656 12.28125 18.074219 12.644531 17.433594 C 13.277344 16.308594 13.476562 15.089844 13.402344 13.820312 C 13.355469 12.960938 13.113281 12.15625 12.585938 11.460938 C 12.078125 10.792969 11.398438 10.425781 10.550781 10.335938 Z M 10.550781 10.335938 "/>
<path style=" stroke:none;fill-rule:nonzero;fill:url(#linear0);" d="M 85.265625 10.761719 C 86.113281 10.0625 86.933594 9.386719 87.78125 8.6875 C 88.566406 9.269531 88.765625 10.113281 88.851562 11.066406 C 89.816406 10.261719 90.75 9.488281 91.710938 8.691406 C 92.398438 9.496094 93.316406 10.074219 93.777344 11.132812 C 94.761719 10.316406 95.722656 9.515625 96.722656 8.683594 C 97.234375 9.234375 97.769531 9.742188 98.226562 10.308594 C 98.765625 10.976562 98.996094 11.769531 98.992188 12.632812 C 98.988281 14.503906 98.96875 16.375 99 18.246094 C 99.015625 19.339844 98.597656 20.199219 97.789062 20.894531 C 97.25 21.359375 96.648438 21.730469 95.921875 22 C 95.921875 21.820312 95.921875 21.695312 95.921875 21.566406 C 95.921875 18.601562 95.917969 15.632812 95.921875 12.667969 C 95.925781 12.25 95.867188 11.871094 95.453125 11.664062 C 94.988281 11.4375 94.53125 11.519531 94.09375 11.753906 C 94.03125 11.789062 93.988281 11.914062 93.988281 11.996094 C 93.980469 14.230469 93.980469 16.460938 93.984375 18.695312 C 93.984375 19.125 94.183594 19.472656 94.546875 19.765625 C 93.789062 20.40625 93.042969 21.03125 92.273438 21.679688 C 92.15625 21.570312 92.035156 21.476562 91.9375 21.367188 C 91.277344 20.636719 90.945312 19.78125 90.941406 18.796875 C 90.9375 16.785156 90.929688 14.769531 90.929688 12.753906 C 90.929688 12.300781 90.898438 11.863281 90.40625 11.648438 C 89.882812 11.417969 89.394531 11.554688 88.9375 11.839844 C 88.875 11.878906 88.835938 12.003906 88.835938 12.085938 C 88.828125 14.34375 88.816406 16.597656 88.847656 18.851562 C 88.851562 19.152344 89.089844 19.453125 89.242188 19.816406 C 88.546875 20.386719 87.769531 21.023438 86.941406 21.703125 C 86.710938 21.433594 86.46875 21.195312 86.285156 20.921875 C 85.855469 20.277344 85.667969 19.550781 85.664062 18.777344 C 85.660156 16.535156 85.65625 14.289062 85.664062 12.046875 C 85.664062 11.582031 85.589844 11.152344 85.265625 10.761719 Z M 85.265625 10.761719 "/>
<path style=" stroke:none;fill-rule:nonzero;fill:rgb(100%,100%,100%);fill-opacity:1;" d="M 35.625 8.683594 C 36.25 9.128906 36.476562 9.652344 36.683594 11.128906 C 37.171875 10.710938 37.636719 10.3125 38.105469 9.914062 C 38.574219 9.511719 39.046875 9.109375 39.535156 8.6875 C 40.40625 9.59375 41.410156 10.382812 41.667969 11.730469 C 41.726562 12.035156 41.757812 12.355469 41.761719 12.667969 C 41.769531 14.507812 41.742188 16.34375 41.773438 18.183594 C 41.792969 19.304688 41.394531 20.1875 40.582031 20.902344 C 40.058594 21.367188 39.476562 21.722656 38.789062 22 C 38.789062 21.839844 38.789062 21.714844 38.789062 21.585938 C 38.789062 18.628906 38.789062 15.667969 38.789062 12.707031 C 38.789062 11.746094 38.199219 11.308594 37.300781 11.609375 C 37.203125 11.644531 37.109375 11.695312 37.007812 11.734375 C 36.734375 11.84375 36.632812 12.03125 36.636719 12.351562 C 36.652344 14.363281 36.652344 16.378906 36.640625 18.390625 C 36.636719 18.914062 36.671875 19.398438 37.164062 19.722656 C 36.371094 20.390625 35.613281 21.027344 34.84375 21.675781 C 34.058594 21.011719 33.664062 20.148438 33.605469 19.148438 C 33.546875 18.195312 33.570312 17.234375 33.566406 16.277344 C 33.558594 14.863281 33.558594 13.449219 33.566406 12.035156 C 33.570312 11.574219 33.507812 11.144531 33.191406 10.746094 C 34.007812 10.054688 34.820312 9.367188 35.625 8.683594 Z M 35.625 8.683594 "/>
<path style=" stroke:none;fill-rule:nonzero;fill:url(#linear1);" d="M 83.546875 15.054688 C 83.546875 15.855469 83.539062 16.65625 83.550781 17.457031 C 83.566406 18.605469 83.109375 19.539062 82.238281 20.28125 C 80.429688 21.828125 77.398438 21.796875 75.625 20.210938 C 74.808594 19.480469 74.386719 18.578125 74.394531 17.480469 C 74.402344 15.949219 74.394531 14.414062 74.394531 12.878906 C 74.394531 11.019531 75.285156 9.691406 77.0625 9.058594 C 79.070312 8.347656 80.929688 8.625 82.515625 10.109375 C 83.214844 10.761719 83.546875 11.601562 83.546875 12.558594 C 83.546875 13.390625 83.546875 14.222656 83.546875 15.054688 Z M 77.511719 15.167969 C 77.492188 15.167969 77.472656 15.167969 77.453125 15.167969 C 77.453125 15.992188 77.4375 16.8125 77.457031 17.636719 C 77.472656 18.371094 77.542969 19.105469 77.886719 19.777344 C 78.113281 20.214844 78.457031 20.507812 78.980469 20.503906 C 79.492188 20.5 79.867188 20.230469 80.039062 19.785156 C 80.222656 19.296875 80.410156 18.78125 80.425781 18.273438 C 80.484375 16.390625 80.488281 14.503906 80.480469 12.621094 C 80.476562 11.90625 80.371094 11.195312 80.035156 10.546875 C 79.808594 10.117188 79.5 9.789062 78.960938 9.792969 C 78.4375 9.796875 78.101562 10.105469 77.925781 10.539062 C 77.738281 11.003906 77.558594 11.496094 77.53125 11.984375 C 77.46875 13.042969 77.511719 14.109375 77.511719 15.167969 Z M 77.511719 15.167969 "/>
<path style=" stroke:none;fill-rule:nonzero;fill:url(#linear2);" d="M 73.214844 18.417969 C 73.277344 18.792969 73.296875 19.121094 72.898438 19.382812 C 72.417969 19.703125 71.964844 20.074219 71.53125 20.453125 C 69.964844 21.835938 66.78125 21.832031 65.070312 19.816406 C 63.964844 18.511719 63.550781 16.992188 63.523438 15.339844 C 63.5 13.976562 63.695312 12.65625 64.367188 11.4375 C 65.832031 8.765625 68.582031 8.308594 70.609375 8.933594 C 72.292969 9.453125 73.265625 10.898438 73.074219 12.523438 C 72.976562 13.339844 72.375 13.933594 71.597656 13.988281 C 70.992188 14.027344 70.472656 13.863281 70.148438 13.339844 C 69.800781 12.777344 69.824219 12.183594 70.144531 11.621094 C 70.296875 11.347656 70.539062 11.117188 70.746094 10.875 C 71.046875 10.527344 71.011719 10.296875 70.617188 10.046875 C 69.660156 9.445312 68.347656 9.738281 67.753906 10.695312 C 67.394531 11.277344 67.246094 11.929688 67.167969 12.597656 C 66.96875 14.269531 66.953125 15.9375 67.335938 17.589844 C 67.421875 17.96875 67.566406 18.347656 67.75 18.691406 C 68.230469 19.601562 69.058594 19.964844 70.152344 19.804688 C 71.191406 19.652344 72.09375 19.207031 72.921875 18.601562 C 73 18.539062 73.082031 18.484375 73.164062 18.425781 C 73.171875 18.421875 73.183594 18.421875 73.214844 18.417969 Z M 73.214844 18.417969 "/>
<path style=" stroke:none;fill-rule:nonzero;fill:rgb(100%,100%,100%);fill-opacity:1;" d="M 28.011719 8.683594 C 28.890625 9.984375 30.070312 9.980469 31.398438 9.628906 C 30.746094 10.238281 30.117188 10.875 29.433594 11.445312 C 29.015625 11.796875 28.488281 11.867188 27.949219 11.730469 C 27.457031 11.609375 27.125 11.300781 26.929688 10.828125 C 26.308594 11.316406 26.347656 12.183594 27.0625 12.664062 C 27.714844 13.105469 28.425781 13.457031 29.105469 13.859375 C 29.570312 14.136719 30.058594 14.394531 30.46875 14.742188 C 31.070312 15.25 31.464844 15.925781 31.472656 16.738281 C 31.476562 17.164062 31.414062 17.621094 31.253906 18.007812 C 30.542969 19.703125 29.332031 20.851562 27.558594 21.3125 C 26.222656 21.65625 25.121094 21.179688 24.386719 19.980469 C 23.886719 19.15625 23.886719 19.15625 24.59375 18.554688 C 25.269531 17.980469 25.949219 17.40625 26.644531 16.8125 C 26.707031 17.171875 26.738281 17.503906 26.824219 17.824219 C 27.0625 18.738281 27.714844 19.269531 28.503906 19.222656 C 29.25 19.179688 29.644531 18.457031 29.261719 17.800781 C 29.140625 17.59375 28.957031 17.398438 28.757812 17.273438 C 28.0625 16.851562 27.355469 16.453125 26.644531 16.070312 C 25.875 15.652344 25.207031 15.140625 24.777344 14.347656 C 24.101562 13.109375 24.335938 11.84375 25.398438 10.933594 C 26.261719 10.191406 27.121094 9.449219 28.011719 8.683594 Z M 28.011719 8.683594 "/>
<path style=" stroke:none;fill-rule:nonzero;fill:rgb(100%,100%,100%);fill-opacity:1;" d="M 57.058594 9.566406 C 56.53125 10.125 56.023438 10.699219 55.476562 11.222656 C 55.109375 11.578125 54.652344 11.792969 54.125 11.785156 C 53.449219 11.773438 52.949219 11.480469 52.667969 10.832031 C 52.238281 11.160156 52.109375 11.644531 52.367188 12.128906 C 52.488281 12.355469 52.671875 12.589844 52.882812 12.722656 C 53.523438 13.128906 54.175781 13.507812 54.847656 13.851562 C 55.46875 14.171875 56.066406 14.515625 56.515625 15.070312 C 57.199219 15.910156 57.433594 16.855469 57.023438 17.890625 C 56.3125 19.6875 55.050781 20.878906 53.191406 21.332031 C 51.863281 21.65625 50.746094 21.09375 50.050781 19.824219 C 49.667969 19.125 49.667969 19.125 50.257812 18.621094 C 50.890625 18.078125 51.527344 17.535156 52.164062 16.996094 C 52.234375 16.9375 52.308594 16.886719 52.382812 16.832031 C 52.460938 17.226562 52.5 17.605469 52.609375 17.960938 C 52.875 18.808594 53.5 19.269531 54.257812 19.214844 C 54.957031 19.167969 55.351562 18.503906 55.023438 17.863281 C 54.90625 17.632812 54.710938 17.410156 54.5 17.277344 C 53.792969 16.839844 53.066406 16.433594 52.339844 16.039062 C 51.371094 15.511719 50.582031 14.8125 50.261719 13.695312 C 49.96875 12.660156 50.222656 11.757812 51.019531 11.046875 C 51.914062 10.25 52.828125 9.476562 53.746094 8.683594 C 54.609375 9.96875 55.78125 9.992188 57.058594 9.566406 Z M 57.058594 9.566406 "/>
<path style=" stroke:none;fill-rule:nonzero;fill:rgb(100%,100%,100%);fill-opacity:1;" d="M 5.722656 5.210938 C 5.480469 5.949219 5.457031 6.699219 5.460938 7.449219 C 5.464844 9.664062 5.433594 11.878906 5.46875 14.089844 C 5.503906 16.148438 4.460938 17.476562 2.605469 18.300781 C 2.417969 18.382812 2.222656 18.453125 2.03125 18.523438 C 2.015625 18.53125 1.992188 18.519531 1.933594 18.515625 C 2.640625 17.890625 2.664062 17.078125 2.664062 16.257812 C 2.664062 15.242188 2.664062 14.226562 2.664062 13.207031 C 2.664062 13.09375 2.664062 12.976562 2.664062 12.867188 C 1.957031 12.742188 1.585938 13.09375 1.082031 14.359375 C 0.644531 13.113281 0.3125 11.921875 0.851562 10.683594 C 1.148438 10.007812 1.652344 9.703125 2.664062 9.535156 C 2.664062 9.285156 2.667969 9.027344 2.664062 8.765625 C 2.65625 8.203125 2.828125 7.691406 3.203125 7.269531 C 3.921875 6.453125 4.796875 5.804688 5.722656 5.210938 Z M 5.722656 5.210938 "/>
<path style=" stroke:none;fill-rule:nonzero;fill:rgb(100%,100%,100%);fill-opacity:1;" d="M 21.753906 8.683594 C 21.753906 8.878906 21.753906 8.992188 21.753906 9.101562 C 21.753906 12.199219 21.753906 15.296875 21.75 18.394531 C 21.746094 18.851562 21.90625 19.226562 22.316406 19.539062 C 21.550781 20.167969 20.800781 20.789062 20.03125 21.421875 C 19.175781 20.683594 18.710938 19.773438 18.703125 18.671875 C 18.683594 16.671875 18.691406 14.671875 18.699219 12.671875 C 18.699219 12.25 18.609375 11.871094 18.3125 11.519531 C 19.441406 10.589844 20.566406 9.664062 21.753906 8.683594 Z M 21.753906 8.683594 "/>
<path style=" stroke:none;fill-rule:nonzero;fill:rgb(100%,100%,100%);fill-opacity:1;" d="M 47.488281 8.683594 C 47.488281 8.902344 47.488281 9.027344 47.488281 9.152344 C 47.488281 12.15625 47.492188 15.160156 47.484375 18.164062 C 47.484375 18.695312 47.574219 19.179688 48.070312 19.535156 C 47.296875 20.171875 46.550781 20.785156 45.78125 21.421875 C 44.914062 20.667969 44.460938 19.742188 44.457031 18.613281 C 44.453125 16.644531 44.453125 14.671875 44.457031 12.703125 C 44.460938 12.273438 44.371094 11.878906 44.0625 11.511719 C 45.183594 10.585938 46.300781 9.664062 47.488281 8.683594 Z M 47.488281 8.683594 "/>
<path style=" stroke:none;fill-rule:nonzero;fill:rgb(100%,100%,100%);fill-opacity:1;" d="M 0 3.226562 C 0.582031 1.734375 1.28125 0.375 2.976562 0.0390625 C 3.507812 -0.0664062 4.003906 0.0429688 4.476562 0.289062 C 4.828125 0.472656 5.1875 0.664062 5.488281 0.921875 C 6.394531 1.6875 7.332031 1.65625 8.320312 1.144531 C 8.398438 1.105469 8.476562 1.0625 8.566406 1.015625 C 8.574219 1.058594 8.589844 1.097656 8.582031 1.117188 C 8.070312 1.996094 7.472656 2.796875 6.652344 3.390625 C 5.441406 4.269531 4.390625 4.269531 3.175781 3.402344 C 3.121094 3.363281 3.070312 3.324219 3.015625 3.28125 C 1.980469 2.472656 1.257812 2.4375 0.140625 3.140625 C 0.09375 3.167969 0.046875 3.195312 0 3.226562 Z M 0 3.226562 "/>
<path style=" stroke:none;fill-rule:nonzero;fill:rgb(100%,100%,100%);fill-opacity:1;" d="M 46.066406 4.050781 C 46.722656 4.714844 47.414062 5.414062 48.070312 6.082031 C 47.417969 6.738281 46.726562 7.4375 46.066406 8.105469 C 45.417969 7.449219 44.71875 6.742188 44.0625 6.078125 C 44.714844 5.421875 45.40625 4.722656 46.066406 4.050781 Z M 46.066406 4.050781 "/>
<path style=" stroke:none;fill-rule:nonzero;fill:rgb(100%,100%,100%);fill-opacity:1;" d="M 22.316406 6.074219 C 21.65625 6.75 20.964844 7.449219 20.320312 8.105469 C 19.671875 7.449219 18.972656 6.742188 18.3125 6.078125 C 18.972656 5.410156 19.671875 4.703125 20.320312 4.050781 C 20.964844 4.707031 21.65625 5.40625 22.316406 6.074219 Z M 22.316406 6.074219 "/>
<path style=" stroke:none;fill-rule:nonzero;fill:url(#linear3);" d="M 59.515625 19.964844 C 59.515625 19.15625 60.144531 18.527344 60.945312 18.527344 C 61.765625 18.527344 62.382812 19.15625 62.375 19.992188 C 62.371094 20.796875 61.734375 21.429688 60.933594 21.421875 C 60.148438 21.414062 59.511719 20.761719 59.515625 19.964844 Z M 59.515625 19.964844 "/>
</g>
</svg>
