<?xml version="1.0" encoding="UTF-8"?>
<svg width="95px" height="50px" viewBox="0 0 95 50" version="1.1" xmlns="http://www.w3.org/2000/svg" xmlns:xlink="http://www.w3.org/1999/xlink">
    <!-- Generator: sketchtool 53.1 (72631) - https://sketchapp.com -->
    <title>459E76BE-05FC-4663-867B-BCC944A6568F</title>
    <desc>Created with sketchtool.</desc>
    <g id="Symbols" stroke="none" stroke-width="1" fill="none" fill-rule="evenodd">
        <g id="-g-BRIAGRO" fill-rule="nonzero">
            <g id="Untitled-4_Artboard-6-copy" transform="translate(4.000000, 4.000000)">
                <g id="BRIagro_Logo">
                    <path d="M1.37,30.91 C1.66702725,31.1881416 2.05350756,31.3512433 2.46,31.37 C2.64331792,31.3925208 2.82768521,31.3371979 2.9683186,31.2174695 C3.10895198,31.097741 3.19298289,30.9245627 3.2,30.74 C3.2,29.81 1.13,30.01 1.13,28.74 C1.14767562,28.3955289 1.30470262,28.073064 1.5649844,27.8467321 C1.82526617,27.6204001 2.16641166,27.5096715 2.51,27.54 C2.95309449,27.5258263 3.38521692,27.6793904 3.72,27.97 L3.45,28.47 C3.18759376,28.2437996 2.85618689,28.1133522 2.51,28.1 C2.12081176,28.059163 1.77195632,28.3409308 1.73,28.73 C1.73,29.61 3.81,29.37 3.81,30.73 C3.8032676,31.0755148 3.65265444,31.4025457 3.39446921,31.6322546 C3.13628398,31.8619636 2.79395197,31.9735088 2.45,31.94 C1.90803795,31.9511585 1.38475974,31.7418472 1,31.36 L1.37,30.91 Z" id="Path" fill="#00529B"></path>
                    <path d="M6.34,28.72 C6.94365471,28.6723142 7.52301461,28.9673709 7.8394561,29.4836439 C8.1558976,29.9999168 8.1558976,30.6500832 7.8394561,31.1663561 C7.52301461,31.6826291 6.94365471,31.9776858 6.34,31.93 C5.73634529,31.9776858 5.15698539,31.6826291 4.8405439,31.1663561 C4.5241024,30.6500832 4.5241024,29.9999168 4.8405439,29.4836439 C5.15698539,28.9673709 5.73634529,28.6723142 6.34,28.72 Z M6.34,31.42 C6.78727462,31.436254 7.19980193,31.1798867 7.38327526,30.7716511 C7.5667486,30.3634155 7.48458156,29.8847178 7.17547608,29.5610319 C6.8663706,29.2373459 6.39196537,29.133218 5.9757125,29.2976939 C5.55945963,29.4621698 5.28436406,29.8624514 5.28,30.31 C5.26632005,30.5996882 5.37192945,30.882331 5.57222,31.0920692 C5.77251055,31.3018074 6.04998911,31.4203228 6.34,31.42 Z" id="Shape" fill="#00529B"></path>
                    <path d="M9,27.58 L9.59,27.58 L9.59,30.91 C9.59,31.28 9.74,31.35 9.92,31.35 L10,31.35 L10,31.87 C9.93681021,31.8760303 9.87318979,31.8760303 9.81,31.87 C9.47,31.87 8.98,31.78 8.98,31.01 L9,27.58 Z" id="Path" fill="#00529B"></path>
                    <path d="M11,28.79 L11.58,28.79 L11.58,30.62 C11.58,31.04 11.67,31.38 12.16,31.38 C12.4487914,31.3649583 12.7189001,31.2325809 12.907719,31.0135509 C13.096538,30.7945209 13.1876729,30.5078557 13.16,30.22 L13.16,28.79 L13.75,28.79 L13.75,31.85 L13.18,31.85 L13.18,31.45 C13.18,31.32 13.18,31.22 13.18,31.22 L13.18,31.22 C12.9717502,31.6547596 12.5320611,31.9310245 12.05,31.93 C11.36,31.93 11.05,31.56 11.05,30.75 L11,28.79 Z" id="Path" fill="#00529B"></path>
                    <path d="M15,31.06 C15.2373536,31.2868118 15.5517328,31.4154215 15.88,31.42 C16.13,31.42 16.39,31.28 16.39,31.03 C16.39,30.47 14.81,30.59 14.81,29.59 C14.81,29.03 15.31,28.72 15.92,28.72 C16.283308,28.6977699 16.6412806,28.8159009 16.92,29.05 L16.68,29.5 C16.4714985,29.3134035 16.1997247,29.2132763 15.92,29.22 C15.67,29.22 15.42,29.33 15.42,29.6 C15.45,30.15 17,30 17,31 C17,31.51 16.56,31.9 15.89,31.9 C15.4565484,31.9065693 15.0373352,31.7453334 14.72,31.45 L15,31.06 Z" id="Path" fill="#00529B"></path>
                    <path d="M18.07,27.58 L18.67,27.58 L18.67,28.18 L18.07,28.18 L18.07,27.58 Z M18.07,28.79 L18.66,28.79 L18.66,31.85 L18.07,31.85 L18.07,28.79 Z" id="Shape" fill="#00529B"></path>
                    <polygon id="Path" fill="#00529B" points="22 27.58 22.6 27.58 22.6 29.37 23.24 29.37 24.31 27.58 25 27.58 23.76 29.58 23.76 29.58 25 31.85 24.32 31.85 23.19 29.85 22.55 29.85 22.55 31.85 22 31.85"></polygon>
                    <path d="M27.28,28.72 C27.651996,28.7124029 28.009418,28.8645639 28.2617881,29.1379649 C28.5141582,29.4113658 28.6372849,29.7797992 28.6,30.15 C28.6,30.23 28.6,30.4 28.6,30.4 L26.35,30.4 C26.35,30.9522847 26.7977153,31.4 27.35,31.4 C27.6858862,31.3890803 28.0075503,31.2618286 28.26,31.04 L28.5,31.47 C28.1724796,31.7539681 27.7534829,31.9102041 27.32,31.91 C26.8862787,31.9267369 26.4649805,31.763172 26.1561764,31.4581568 C25.8473722,31.1531417 25.6786187,30.7338948 25.69,30.3 C25.6663472,29.8723775 25.8266109,29.4550375 26.1304017,29.1531574 C26.4341925,28.8512772 26.8525352,28.6936498 27.28,28.72 L27.28,28.72 Z M28,30 C28.0172149,29.7953507 27.9462173,29.5930898 27.8048678,29.4440998 C27.6635183,29.2951098 27.4652715,29.2135724 27.26,29.22 C26.8067002,29.2119195 26.4214475,29.5495567 26.37,30 L28,30 Z" id="Shape" fill="#00529B"></path>
                    <path d="M29.64,28.79 L30.23,28.79 L30.23,30.62 C30.23,31.04 30.31,31.38 30.8,31.38 C31.0887914,31.3649583 31.3589001,31.2325809 31.547719,31.0135509 C31.736538,30.7945209 31.8276729,30.5078557 31.8,30.22 L31.8,28.79 L32.39,28.79 L32.39,31.85 L31.82,31.85 L31.82,31.45 C31.82,31.32 31.82,31.22 31.82,31.22 L31.82,31.22 C31.617131,31.6548828 31.1798694,31.9320755 30.7,31.93 C30.01,31.93 29.7,31.56 29.7,30.75 L29.64,28.79 Z" id="Path" fill="#00529B"></path>
                    <path d="M35.26,29.94 L35.4,29.94 L35.4,29.88 C35.4230512,29.6961996 35.3599124,29.5120569 35.2289277,29.3810723 C35.0979431,29.2500876 34.9138004,29.1869488 34.73,29.21 C34.419642,29.2209997 34.1198607,29.3255747 33.87,29.51 L33.63,29.08 C33.9620059,28.8417394 34.3613719,28.7156238 34.77,28.72 C35.1015703,28.6713294 35.4369486,28.779338 35.6778006,29.0123574 C35.9186525,29.2453768 36.037686,29.5770023 36,29.91 L36,31.85 L35.46,31.85 L35.46,31.56 C35.46,31.42 35.46,31.32 35.46,31.32 L35.46,31.32 C35.2794891,31.7057708 34.8856127,31.9460355 34.46,31.93 C33.9303227,31.9309542 33.4917798,31.5187239 33.46,30.99 C33.42,30 34.75,29.94 35.26,29.94 Z M34.59,31.45 C35.0842703,31.3874411 35.4414432,30.9464869 35.4,30.45 L35.4,30.35 L35.25,30.35 C34.81,30.35 34.01,30.35 34.01,30.93 C34.0056273,31.0800396 34.0675733,31.2243865 34.1793356,31.3245872 C34.2910979,31.4247879 34.4413261,31.4706661 34.59,31.45 L34.59,31.45 Z" id="Shape" fill="#00529B"></path>
                    <path d="M37.23,28.79 L37.8,28.79 L37.8,29.19 C37.8060901,29.2665457 37.8060901,29.3434543 37.8,29.42 L37.8,29.42 C38.0102779,28.9789686 38.4616596,28.7042145 38.95,28.72 C39.67,28.72 39.95,29.11 39.95,29.89 L39.95,31.89 L39.36,31.89 L39.36,30 C39.36,29.57 39.27,29.23 38.78,29.23 C38.3093028,29.2162864 37.8928155,29.5328167 37.78,29.99 C37.7634593,30.1261662 37.7634593,30.2638338 37.78,30.4 L37.78,31.83 L37.2,31.83 L37.23,28.79 Z" id="Path" fill="#00529B"></path>
                    <path d="M42.36,32.61 C42.89,32.61 43.36,32.38 43.36,31.76 L43.36,31.53 C43.36,31.43 43.36,31.34 43.36,31.34 L43.36,31.34 C43.1685492,31.6557362 42.8186889,31.8402778 42.45,31.82 C42.0396962,31.8343274 41.6435246,31.6691105 41.3649743,31.3675078 C41.086424,31.065905 40.9531623,30.6578734 41,30.25 C40.9514034,29.86435 41.0701433,29.4763364 41.3262392,29.1839284 C41.5823351,28.8915204 41.9513093,28.7226663 42.34,28.72 C42.7331915,28.6575682 43.1259613,28.8343146 43.34,29.17 L43.34,29.17 L43.34,28.79 L43.9,28.79 L43.9,31.72 C43.9118779,32.1199988 43.7482709,32.505195 43.4521653,32.7743819 C43.1560598,33.0435688 42.7570602,33.1698331 42.36,33.12 C42.0125811,33.1094475 41.6715119,33.0241802 41.36,32.87 L41.55,32.41 C41.8029376,32.5328686 42.0789423,32.6010179 42.36,32.61 Z M43.36,30.25 C43.36,29.45 42.97,29.25 42.49,29.25 C42.01,29.25 41.65,29.64 41.65,30.25 C41.65,30.86 41.99,31.32 42.54,31.32 C43.09,31.32 43.34,31.05 43.34,30.25 L43.36,30.25 Z" id="Shape" fill="#00529B"></path>
                    <path d="M46.79,29.94 L46.93,29.94 L46.93,29.88 C46.9530512,29.6961996 46.8899124,29.5120569 46.7589277,29.3810723 C46.6279431,29.2500876 46.4438004,29.1869488 46.26,29.21 C45.949642,29.2209997 45.6498607,29.3255747 45.4,29.51 L45.16,29.08 C45.4920059,28.8417394 45.8913719,28.7156238 46.3,28.72 C46.6283755,28.6781493 46.957807,28.7892057 47.1938241,29.0213217 C47.4298412,29.2534377 47.5463723,29.5809727 47.51,29.91 L47.51,31.85 L47,31.85 L47,31.56 C47,31.42 47,31.32 47,31.32 L47,31.32 C46.8194891,31.7057708 46.4256127,31.9460355 46,31.93 C45.4739358,31.9312903 45.036823,31.5247754 45,31 C45,30 46.28,29.94 46.79,29.94 Z M46.12,31.45 C46.6142703,31.3874411 46.9714432,30.9464869 46.93,30.45 L46.93,30.35 L46.78,30.35 C46.34,30.35 45.54,30.35 45.54,30.93 C45.5356273,31.0800396 45.5975733,31.2243865 45.7093356,31.3245872 C45.8210979,31.4247879 45.9713261,31.4706661 46.12,31.45 L46.12,31.45 Z" id="Shape" fill="#00529B"></path>
                    <path d="M48.76,28.79 L49.33,28.79 L49.33,29.19 C49.3360901,29.2665457 49.3360901,29.3434543 49.33,29.42 L49.33,29.42 C49.5402779,28.9789686 49.9916596,28.7042145 50.48,28.72 C51.2,28.72 51.53,29.11 51.53,29.89 L51.53,31.89 L50.94,31.89 L50.94,30 C50.94,29.57 50.85,29.23 50.36,29.23 C49.8893028,29.2162864 49.4728155,29.5328167 49.36,29.99 C49.3434593,30.1261662 49.3434593,30.2638338 49.36,30.4 L49.36,31.83 L48.78,31.83 L48.76,28.79 Z" id="Path" fill="#00529B"></path>
                    <polygon id="Path" fill="#00529B" points="55.73 28.1 54.26 28.1 54.26 27.58 57.79 27.58 57.79 28.1 56.33 28.1 56.33 31.85 55.73 31.85"></polygon>
                    <path d="M59.44,28.72 C59.811996,28.7124029 60.169418,28.8645639 60.4217881,29.1379649 C60.6741582,29.4113658 60.7972849,29.7797992 60.76,30.15 C60.76,30.23 60.76,30.4 60.76,30.4 L58.51,30.4 C58.5096571,30.6741113 58.6218495,30.9363464 58.820344,31.1253888 C59.0188386,31.3144311 59.2862314,31.4137058 59.56,31.4 C59.8958862,31.3890803 60.2175503,31.2618286 60.47,31.04 L60.72,31.47 C60.3880428,31.7531105 59.9662869,31.9090539 59.53,31.91 C59.0971424,31.9268943 58.6767502,31.763043 58.3694938,31.4576832 C58.0622374,31.1523235 57.8957862,30.7329539 57.91,30.3 C57.8876449,29.8832388 58.0399372,29.4760067 58.3302734,29.1761824 C58.6206095,28.8763582 59.0227355,28.7110537 59.44,28.72 Z M60.16,30 C60.176996,29.7971276 60.1073124,29.5965424 59.9682004,29.4479022 C59.8290884,29.299262 59.6335523,29.2164618 59.43,29.22 C58.972906,29.2066671 58.5817702,29.5456515 58.53,30 L60.16,30 Z" id="Shape" fill="#00529B"></path>
                    <path d="M61.84,28.79 L62.41,28.79 L62.41,29.32 C62.41,29.45 62.41,29.55 62.41,29.55 L62.41,29.55 C62.5233148,29.0873964 62.9338054,28.7590039 63.41,28.75 L63.56,28.75 L63.56,29.34 C63.5034983,29.3338852 63.4465017,29.3338852 63.39,29.34 C62.9745806,29.3606831 62.623406,29.6546897 62.53,30.06 C62.4812449,30.2391943 62.4576852,30.4243059 62.46,30.61 L62.46,31.86 L61.87,31.86 L61.84,28.79 Z" id="Path" fill="#00529B"></path>
                    <path d="M64.48,28.79 L65,28.79 L65,29.05 C65.0064659,29.1231908 65.0064659,29.1968092 65,29.27 L65,29.27 C65.2063409,28.9162214 65.5907261,28.7048095 66,28.72 C66.82,28.72 67.34,29.37 67.34,30.32 C67.3875664,30.7135454 67.2707953,31.1092939 67.0172063,31.4139792 C66.7636173,31.7186645 66.3956415,31.9053357 66,31.93 C65.6180882,31.9400039 65.2598166,31.7456225 65.06,31.42 L65.06,31.42 C65.06,31.42 65.06,31.53 65.06,31.69 L65.06,33.06 L64.48,33.06 L64.48,28.79 Z M65.91,31.42 C66.4,31.42 66.8,31.02 66.8,30.33 C66.8,29.64 66.44,29.23 65.93,29.23 C65.42,29.23 65.05,29.55 65.05,30.33 C65.05,30.88 65.35,31.42 65.91,31.42 L65.91,31.42 Z" id="Shape" fill="#00529B"></path>
                    <path d="M69.79,28.72 C70.163717,28.7094834 70.5238711,28.8603723 70.7784881,29.1341335 C71.0331051,29.4078946 71.1575344,29.778024 71.12,30.15 C71.12,30.23 71.12,30.4 71.12,30.4 L68.87,30.4 C68.87,30.9522847 69.3177153,31.4 69.87,31.4 C70.2058862,31.3890803 70.5275503,31.2618286 70.78,31.04 L71.02,31.47 C70.6894131,31.7554403 70.2667618,31.9117147 69.83,31.91 C69.3971424,31.9268943 68.9767502,31.763043 68.6694938,31.4576832 C68.3622374,31.1523235 68.1957862,30.7329539 68.21,30.3 C68.1866158,29.8742189 68.3455563,29.4586091 68.6470827,29.1570827 C68.9486091,28.8555563 69.3642189,28.6966158 69.79,28.72 Z M70.52,30 C70.5340228,29.7961336 70.461954,29.5957229 70.3213093,29.4474758 C70.1806646,29.2992287 69.9843218,29.216719 69.78,29.22 C69.322906,29.2066671 68.9317702,29.5456515 68.88,30 L70.52,30 Z" id="Shape" fill="#00529B"></path>
                    <path d="M72.2,28.79 L72.77,28.79 L72.77,29.32 C72.7767954,29.3965161 72.7767954,29.4734839 72.77,29.55 L72.77,29.55 C72.8664736,29.0768768 73.2872392,28.7402643 73.77,28.75 L73.93,28.75 L73.93,29.34 C73.8734983,29.3338852 73.8165017,29.3338852 73.76,29.34 C73.3432658,29.3573066 72.9903133,29.6528017 72.9,30.06 C72.8427991,30.2375777 72.815758,30.4234851 72.82,30.61 L72.82,31.86 L72.2,31.86 L72.2,28.79 Z" id="Path" fill="#00529B"></path>
                    <path d="M76.24,28.72 C76.6674482,28.7027818 77.0832119,28.8618566 77.39,29.16 L77.11,29.58 C76.8835555,29.355081 76.579105,29.2261372 76.26,29.22 C75.9664891,29.1981282 75.6782477,29.3066685 75.4720646,29.5167056 C75.2658814,29.7267426 75.162697,30.0169444 75.19,30.31 C75.1789405,30.6041523 75.2895503,30.8898688 75.4957936,31.0998964 C75.7020369,31.309924 75.9856953,31.4257099 76.28,31.42 C76.6362659,31.408594 76.9738137,31.2577748 77.22,31 L77.46,31.43 C77.1404872,31.7589646 76.6984799,31.9401151 76.24,31.93 C75.6363453,31.9776858 75.0569854,31.6826291 74.7405439,31.1663561 C74.4241024,30.6500832 74.4241024,29.9999168 74.7405439,29.4836439 C75.0569854,28.9673709 75.6363453,28.6723142 76.24,28.72 L76.24,28.72 Z" id="Path" fill="#00529B"></path>
                    <path d="M80.09,29.94 L80.22,29.94 L80.22,29.88 C80.2473322,29.6952673 80.1855944,29.5085011 80.0535467,29.3764533 C79.9214989,29.2444056 79.7347327,29.1826678 79.55,29.21 C79.2429696,29.2223757 78.9467794,29.3269134 78.7,29.51 L78.45,29.08 C78.7872066,28.8446253 79.1887721,28.7189178 79.6,28.72 C79.9274896,28.6821066 80.2545341,28.7944689 80.4895837,29.0256334 C80.7246333,29.2567979 80.8424304,29.5819244 80.81,29.91 L80.81,31.85 L80.26,31.85 L80.26,31.56 C80.2528748,31.4801587 80.2528748,31.3998413 80.26,31.32 L80.26,31.32 C80.0930984,31.7177129 79.6900031,31.963601 79.26,31.93 C78.7303227,31.9309542 78.2917798,31.5187239 78.26,30.99 C78.24,30 79.57,29.94 80.09,29.94 Z M79.41,31.45 C79.9082886,31.3923545 80.2710791,30.9499271 80.23,30.45 L80.23,30.35 L80.08,30.35 C79.63,30.35 78.8299884,30.35 78.83,30.93 C78.8290046,31.0789666 78.8919465,31.2212064 79.002865,31.3206506 C79.1137835,31.4200948 79.2620254,31.4671922 79.41,31.45 L79.41,31.45 Z" id="Shape" fill="#00529B"></path>
                    <path d="M81.83,32.49 C81.9328389,32.5625527 82.0542782,32.6041891 82.18,32.61 C82.439189,32.5976921 82.6610971,32.4201656 82.73,32.17 L82.89,31.82 L81.6,28.82 L82.26,28.82 L83.03,30.82 C83.09,30.98 83.15,31.19 83.15,31.19 L83.15,31.19 C83.15,31.19 83.15,30.99 83.25,30.83 L84,28.83 L84.63,28.83 L83.21,32.4 C83.0673401,32.8309243 82.6639225,33.1213849 82.21,33.12 C82.000191,33.1174989 81.7954741,33.0550429 81.62,32.94 L81.83,32.49 Z" id="Path" fill="#00529B"></path>
                    <path d="M87.1,29.94 L87.23,29.94 L87.23,29.88 C87.2573322,29.6952673 87.1955944,29.5085011 87.0635467,29.3764533 C86.9314989,29.2444056 86.7447327,29.1826678 86.56,29.21 C86.2529696,29.2223757 85.9567794,29.3269134 85.71,29.51 L85.47,29.08 C85.8020059,28.8417394 86.2013719,28.7156238 86.61,28.72 C86.9374896,28.6821066 87.2645341,28.7944689 87.4995837,29.0256334 C87.7346333,29.2567979 87.8524304,29.5819244 87.82,29.91 L87.82,31.85 L87.28,31.85 L87.28,31.56 C87.28,31.42 87.28,31.32 87.28,31.32 L87.28,31.32 C87.097446,31.7039354 86.7049157,31.9433789 86.28,31.93 C85.7503227,31.9309542 85.3117798,31.5187239 85.28,30.99 C85.25,30 86.59,29.94 87.1,29.94 Z M86.42,31.45 C86.9182886,31.3923545 87.2810791,30.9499271 87.24,30.45 L87.24,30.35 L87.09,30.35 C86.65,30.35 85.85,30.35 85.85,30.93 C85.8460611,31.0780572 85.9066807,31.2205135 86.016099,31.3203338 C86.1255173,31.420154 86.2729252,31.467477 86.42,31.45 L86.42,31.45 Z" id="Shape" fill="#00529B"></path>
                    <g id="BRIagro_Logo-2">
                        <path d="M60.32,13.07 L60.69,13.07 L60.69,12.91 C60.7680018,12.3851839 60.5934983,11.8543634 60.2193069,11.4782025 C59.8451155,11.1020417 59.3152183,10.9247542 58.79,11 C57.913142,11.0335208 57.0665672,11.3296478 56.36,11.85 L55.67,10.62 C56.6198945,9.95048961 57.7580382,9.60029157 58.92,9.62 C59.8503434,9.51288252 60.7792479,9.832077 61.4472461,10.4884241 C62.1152443,11.1447711 62.4507325,12.067916 62.36,13 L62.36,18.5 L60.81,18.5 L60.81,17.67 C60.7960254,17.4435487 60.7960254,17.2164513 60.81,16.99 L60.81,16.99 C60.3001228,18.0723803 59.1958488,18.748306 58,18.71 C57.2435032,18.7884506 56.4887142,18.5465888 55.9186996,18.0430759 C55.348685,17.539563 55.0155162,16.8203954 55,16.06 C55,13.19 58.78,13.06 60.25,13.06 M58.32,17.36 C59.73,17.36 60.64,15.88 60.64,14.59 L60.64,14.31 L60.21,14.31 C58.96,14.31 56.69,14.4 56.69,15.96 C56.7039731,16.3680324 56.8881561,16.7515739 57.1978706,17.0175864 C57.5075851,17.2835988 57.9145336,17.4077777 58.32,17.36" id="Shape" fill="#F26F21"></path>
                        <path d="M67.33,20.67 C68.84,20.67 70.08,20 70.08,18.23 L70.08,17.59 C70.08,17.31 70.08,17.04 70.08,17.04 L70.08,17.04 C69.5526367,17.9461875 68.555879,18.4736547 67.51,18.4 C65.08,18.4 63.62,16.45 63.62,13.94 C63.62,11.43 65.01,9.59 67.42,9.59 C68.5001403,9.47264111 69.554836,9.97101377 70.15,10.88 L70.15,10.88 C70.1433516,10.7901228 70.1433516,10.6998772 70.15,10.61 L70.15,9.8 L71.75,9.8 L71.75,18.14 C71.75,21.01 69.57,22.14 67.37,22.14 C66.3280005,22.1333754 65.3015054,21.8870166 64.37,21.42 L64.92,20.11 C65.6624554,20.4830987 66.4792116,20.6847247 67.31,20.7 M70.12,14 C70.12,11.73 69.02,11.08 67.66,11.08 C66.14,11.08 65.28,12.18 65.28,13.95 C65.28,15.72 66.28,16.95 67.81,16.95 C69.02,16.95 70.12,16.23 70.12,13.95" id="Shape" fill="#F26F21"></path>
                        <path d="M73.68,9.8 L75.29,9.8 L75.29,11.31 C75.29,11.67 75.29,11.97 75.29,11.97 L75.29,11.97 C75.6042427,10.7049371 76.6994364,9.78756084 78,9.7 C78.1431771,9.69053673 78.2868229,9.69053673 78.43,9.7 L78.43,11.35 C78.2720657,11.3173815 78.1112663,11.3006316 77.95,11.3 C76.7851915,11.3571442 75.7946505,12.169063 75.51,13.3 C75.3640388,13.806922 75.2932845,14.3325254 75.3,14.86 L75.3,18.5 L73.68,18.5 L73.68,9.8 Z" id="Path" fill="#F26F21"></path>
                        <path d="M83.46,9.59 C85.9628449,9.66140189 87.939946,11.7375449 87.8890206,14.2408901 C87.8380952,16.7442354 85.778195,18.7382539 83.274517,18.7078084 C80.7708389,18.6773629 78.7600364,16.6338433 78.77,14.13 C78.7665131,12.8985924 79.2644864,11.718829 80.1492604,10.8623527 C81.0340344,10.0058764 82.229356,9.54650147 83.46,9.59 M83.46,17.26 C84.2786942,17.260769 85.0621385,16.9269162 85.6286386,16.3358677 C86.1951388,15.7448192 86.4954771,14.9479255 86.46,14.13 C86.46,12.4731458 85.1168542,11.13 83.46,11.13 C81.8031458,11.13 80.46,12.4731458 80.46,14.13 C80.4245229,14.9479255 80.7248612,15.7448192 81.2913614,16.3358677 C81.8578615,16.9269162 82.6413058,17.260769 83.46,17.26" id="Shape" fill="#F26F21"></path>
                        <path d="M28.78,6.32 L34.36,6.32 C36.61,6.32 38.3,7.32 38.3,9.4 C38.3761868,10.7401785 37.4702471,11.9382202 36.16,12.23 L36.16,12.23 C37.78,12.56 38.61,13.43 38.61,14.9 C38.61,17.81 36.06,18.41 33.89,18.41 L28.78,18.41 L28.78,6.32 Z M32,11.12 L32.9,11.12 C33.96,11.12 35.06,10.86 35.06,9.83 C35.06,8.8 34,8.62 33,8.62 L32,8.62 L32,11.12 Z M32,16.12 L33,16.12 C34.18,16.12 35.41,15.94 35.41,14.71 C35.41,13.48 34.11,13.31 33,13.31 L32,13.31 L32,16.12 Z" id="Shape" fill="#00529B"></path>
                        <path d="M39.33,6.32 L45.1,6.32 C47.25,6.32 49.01,7.32 49.01,9.38 C49.147284,10.8507209 48.1342547,12.181137 46.68,12.44 L46.68,12.44 C47.68,12.72 47.79,13.64 48.4,15.12 L49.58,18.42 L46.21,18.42 L45.51,16.23 C44.85,14.15 44.44,13.63 43.24,13.63 L42.56,13.63 L42.56,18.42 L39.33,18.42 L39.33,6.32 Z M42.56,11.32 L43.41,11.32 C44.41,11.32 45.78,11.32 45.78,9.91 C45.78,8.79 44.65,8.58 43.41,8.58 L42.56,8.58 L42.56,11.32 Z" id="Shape" fill="#00529B"></path>
                        <rect id="Rectangle" fill="#00529B" x="50.47" y="6.32" width="3.23" height="12.13"></rect>
                        <path d="M21.49,0.21 L4.58,0.21 C2.50962446,0.237430863 0.848833901,1.92947286 0.86,4 L0.86,20.77 C0.837319099,22.8254094 2.46533699,24.5201493 4.52,24.58 L21.52,24.58 C22.5189856,24.569461 23.4727066,24.1617867 24.1706421,23.4469656 C24.8685777,22.7321444 25.2533407,21.7689521 25.24,20.77 L25.24,4 C25.2533407,3.00104787 24.8685777,2.03785557 24.1706421,1.32303445 C23.4727066,0.608213318 22.5189856,0.200539021 21.52,0.19 L21.49,0.21 Z M6.59,22.62 L5.67,22.62 C5.1290058,22.6202435 4.61098946,22.4013136 4.23414321,22.0131619 C3.85729696,21.6250103 3.65377012,21.1007508 3.67,20.56 L3.67,4.12 C3.67,3.0154305 4.5654305,2.12 5.67,2.12 L7.55,2.12 C8.80779005,2.18307735 9.91422503,2.97145283 10.3845343,4.13970955 C10.8548435,5.30796628 10.6032553,6.64304593 9.74,7.56 L4.89,12.43 L9.38,17 C9.97100593,17.5963153 10.3048631,18.4004444 10.31,19.24 C10.2129144,21.1991019 8.54941434,22.7105617 6.59,22.62 L6.59,22.62 Z M20.38,22.62 L12,22.62 C12.5140044,21.554856 12.8517283,20.413349 13,19.24 C13.037217,17.813324 12.5577953,16.4212254 11.65,15.32 L8.79,12.41 L11.71,9.41 C12.6950754,8.34795471 13.2168216,6.93744085 13.16,5.49 C13.1671811,4.31119941 12.8186726,3.15763635 12.16,2.18 L14.16,2.18 C15.4221785,2.23473253 16.5357366,3.02251319 17.0075373,4.19447486 C17.4793381,5.36643654 17.2222015,6.7060226 16.35,7.62 L11.66,12.42 L21.41,22.42 C21.0787161,22.6102927 20.7019821,22.7070684 20.32,22.7 L20.38,22.62 Z M22.32,19.59 L15.32,12.47 L18.76,9 C19.5137682,7.97266889 19.9042799,6.72373488 19.87,5.45 C19.89309,4.26689349 19.5622851,3.10385311 18.92,2.11 L20.41,2.11 C21.5145695,2.11 22.41,3.0054305 22.41,4.11 L22.32,19.59 Z" id="Shape" fill="#00529B"></path>
                    </g>
                </g>
                <polygon id="Path" fill="#00529B" points="1.53 35.89 2.39 35.89 3.73 39.09 3.73 39.09 5.06 35.89 5.91 35.89 5.91 40.11 5.36 40.11 5.36 36.64 5.36 36.64 3.92 40.11 3.54 40.11 2.12 36.64 2.12 36.64 2.12 40.11 1.53 40.11"></polygon>
                <path d="M7.25,38.89 C7.24408858,39.0086082 7.27182122,39.1264719 7.33,39.23 C7.37955293,39.3313587 7.45133501,39.4202318 7.54,39.49 C7.63053406,39.5619479 7.73175511,39.6193065 7.84,39.66 C7.95595614,39.6993746 8.07754161,39.7196389 8.2,39.72 C8.35513283,39.7229682 8.50785402,39.6813169 8.64,39.6 C8.7675051,39.5133693 8.88199287,39.4089834 8.98,39.29 L9.38,39.6 C9.08424193,39.9873486 8.61674728,40.2042661 8.13,40.18 C7.92164378,40.1810252 7.71487418,40.1437388 7.52,40.07 C7.34861403,39.9963712 7.19257721,39.891216 7.06,39.76 C6.93476992,39.6190979 6.83647375,39.4564008 6.77,39.28 C6.7052463,39.0934173 6.67146648,38.8974943 6.67,38.7 C6.66983213,38.4982201 6.70713093,38.2981629 6.78,38.11 C6.85357317,37.9356145 6.95866247,37.7762856 7.09,37.64 C7.21984076,37.5054842 7.37658266,37.3998538 7.55,37.33 C7.73256286,37.249094 7.93032109,37.2081785 8.13,37.21 C8.35023257,37.2064507 8.56860555,37.2508077 8.77,37.34 C8.93423641,37.4283355 9.08016484,37.5471144 9.2,37.69 C9.30907143,37.8300357 9.39051816,37.9895356 9.44,38.16 C9.48784212,38.3359671 9.51139368,38.5176505 9.51,38.7 L9.51,38.89 L7.25,38.89 Z M8.94,38.46 C8.94031472,38.3505081 8.91995834,38.2419407 8.88,38.14 C8.85243666,38.0421922 8.80087567,37.9528199 8.73,37.88 C8.65982814,37.8035629 8.57474727,37.7423046 8.48,37.7 C8.36469655,37.658086 8.24266457,37.6377473 8.12,37.64 C7.99562695,37.6403213 7.87280342,37.6676154 7.76,37.72 C7.65572216,37.7654768 7.56078331,37.8298996 7.48,37.91 C7.40924825,37.9903216 7.35185118,38.0814817 7.31,38.18 C7.27119068,38.2682896 7.25077553,38.3635603 7.25,38.46 L8.94,38.46 Z" id="Shape" fill="#00529B"></path>
                <path d="M10.16,37.28 L10.66,37.28 L10.66,37.73 L10.66,37.73 C10.6791397,37.6742375 10.7098047,37.6231291 10.75,37.58 C10.8037115,37.5134201 10.8678803,37.456006 10.94,37.41 C11.0254048,37.3489232 11.1198957,37.3016777 11.22,37.27 C11.3321529,37.2292798 11.4506881,37.2089595 11.57,37.21 C11.7548317,37.2076927 11.9372142,37.252428 12.1,37.34 C12.2506132,37.4393199 12.3715519,37.5775356 12.45,37.74 C12.5336988,37.5682641 12.6704377,37.428019 12.84,37.34 C12.9943919,37.2586378 13.1655308,37.2141417 13.34,37.21 C13.5260961,37.2042788 13.7109708,37.2419384 13.88,37.32 C14.0109163,37.3854375 14.1241174,37.481487 14.21,37.6 C14.289414,37.7213607 14.3438097,37.8573498 14.37,38 C14.4014433,38.1513651 14.4181877,38.3054142 14.42,38.46 L14.42,40.11 L13.88,40.11 L13.88,38.54 C13.8853425,38.4367357 13.8853425,38.3332643 13.88,38.23 C13.8668123,38.1352421 13.8363046,38.0437189 13.79,37.96 C13.7458395,37.8860138 13.6839862,37.8241605 13.61,37.78 C13.5101284,37.7323901 13.4006282,37.7084369 13.29,37.71 C13.0775844,37.6900397 12.869828,37.780697 12.74,37.95 C12.6217105,38.1346183 12.5624162,38.3508681 12.57,38.57 L12.57,40.11 L12,40.11 L12,38.63 C12.0105338,38.5068916 12.0105338,38.3831084 12,38.26 C11.9914452,38.159227 11.9643222,38.0609061 11.92,37.97 C11.8791999,37.8909013 11.8167794,37.825013 11.74,37.78 C11.5529393,37.6930708 11.3370607,37.6930708 11.15,37.78 C11.0582317,37.8178937 10.9761951,37.876003 10.91,37.95 C10.8409177,38.037101 10.7868428,38.1351117 10.75,38.24 C10.7076892,38.3724603 10.6874194,38.5109702 10.69,38.65 L10.69,40.12 L10.16,40.12 L10.16,37.28 Z" id="Path" fill="#00529B"></path>
                <path d="M15.24,35.6 L15.77,35.6 L15.77,37.69 L15.77,37.69 C15.8720512,37.5380018 16.0138712,37.4169359 16.18,37.34 C16.358734,37.2570357 16.5529685,37.2127366 16.75,37.21 C16.9531017,37.2060877 17.1545626,37.2470628 17.34,37.33 C17.5134173,37.3998538 17.6701592,37.5054842 17.8,37.64 C17.92511,37.7772266 18.0234658,37.9366309 18.09,38.11 C18.1547887,38.3000235 18.1885542,38.4992404 18.19,38.7 C18.1885335,38.8974943 18.1547537,39.0934173 18.09,39.28 C18.0234658,39.4533691 17.92511,39.6127734 17.8,39.75 C17.6705421,39.8874414 17.513884,39.996421 17.34,40.07 C17.1523781,40.1447552 16.951955,40.1821222 16.75,40.18 C16.5569957,40.1796005 16.3662213,40.1387203 16.19,40.06 C16.0202069,39.9846114 15.8747711,39.8634149 15.77,39.71 L15.77,39.71 L15.77,40.11 L15.24,40.11 L15.24,35.6 Z M16.7,39.68 C16.833497,39.684642 16.9664503,39.6607786 17.09,39.61 C17.2016426,39.563434 17.3009248,39.49154 17.38,39.4 C17.4681288,39.314076 17.5334333,39.2075266 17.57,39.09 C17.6108578,38.9640761 17.6311184,38.8323818 17.63,38.7 C17.6318477,38.5642936 17.6115824,38.4291919 17.57,38.3 C17.5286738,38.184693 17.4639909,38.0791577 17.38,37.99 C17.2978017,37.9044684 17.1991588,37.8364388 17.09,37.79 C16.9672988,37.7354941 16.8342506,37.7082022 16.7,37.71 C16.4376601,37.7111046 16.1862606,37.8152558 16,38 C15.9191313,38.089718 15.8578303,38.195292 15.82,38.31 C15.726713,38.5650715 15.726713,38.8449285 15.82,39.1 C15.853302,39.2166878 15.9151671,39.3232333 16,39.41 C16.0826581,39.5019833 16.1852804,39.5738189 16.3,39.62 C16.4272316,39.6694251 16.5638666,39.6899203 16.7,39.68 Z" id="Shape" fill="#00529B"></path>
                <path d="M19.29,38.89 C19.2840886,39.0086082 19.3118212,39.1264719 19.37,39.23 C19.4195529,39.3313587 19.491335,39.4202318 19.58,39.49 C19.6705341,39.5619479 19.7717551,39.6193065 19.88,39.66 C19.9959561,39.6993746 20.1175416,39.7196389 20.24,39.72 C20.3951328,39.7229682 20.547854,39.6813169 20.68,39.6 C20.8075051,39.5133693 20.9219929,39.4089834 21.02,39.29 L21.42,39.6 C21.1242419,39.9873486 20.6567473,40.2042661 20.17,40.18 C19.9616438,40.1810252 19.7548742,40.1437388 19.56,40.07 C19.388614,39.9963712 19.2325772,39.891216 19.1,39.76 C18.97439,39.6211484 18.8790369,39.4576859 18.82,39.28 C18.7472204,39.0952944 18.7099025,38.8985271 18.71,38.7 C18.7098321,38.4982201 18.7471309,38.2981629 18.82,38.11 C18.8935732,37.9356145 18.9986625,37.7762856 19.13,37.64 C19.2598408,37.5054842 19.4165827,37.3998538 19.59,37.33 C19.7757331,37.2479878 19.9769874,37.2070547 20.18,37.21 C20.3970222,37.2062903 20.612173,37.2506865 20.81,37.34 C20.9760048,37.4256601 21.1224255,37.5448398 21.24,37.69 C21.3490714,37.8300357 21.4305182,37.9895356 21.48,38.16 C21.5278421,38.3359671 21.5513937,38.5176505 21.55,38.7 L21.55,38.89 L19.29,38.89 Z M21,38.46 C21.0003147,38.3505081 20.9799583,38.2419407 20.94,38.14 C20.9124367,38.0421922 20.8608757,37.9528199 20.79,37.88 C20.7198281,37.8035629 20.6347473,37.7423046 20.54,37.7 C20.4246965,37.658086 20.3026646,37.6377473 20.18,37.64 C20.055627,37.6403213 19.9328034,37.6676154 19.82,37.72 C19.7173212,37.7630669 19.6252041,37.8278901 19.55,37.91 C19.4721853,37.9867585 19.4109252,38.0786485 19.37,38.18 C19.3311907,38.2682896 19.3107755,38.3635603 19.31,38.46 L21,38.46 Z" id="Shape" fill="#00529B"></path>
                <path d="M22.2,37.28 L22.73,37.28 L22.73,37.72 L22.73,37.72 C22.7635575,37.6420957 22.8109951,37.5709394 22.87,37.51 C22.9278051,37.4491628 22.9954108,37.3984585 23.07,37.36 C23.1440134,37.3114733 23.2249237,37.2743894 23.31,37.25 C23.3964384,37.2411052 23.4835616,37.2411052 23.57,37.25 C23.6492107,37.234107 23.7307893,37.234107 23.81,37.25 L23.81,37.83 L23.68,37.83 L23.54,37.83 C23.3177586,37.8142767 23.0994012,37.8943411 22.94,38.05 C22.7835827,38.240383 22.7081718,38.4845706 22.73,38.73 L22.73,40.15 L22.2,40.15 L22.2,37.28 Z" id="Path" fill="#00529B"></path>
                <path d="M25.92,38.7 C25.9207997,38.3053333 26.0791997,37.9273331 26.36,37.65 C26.4950742,37.509994 26.6588121,37.4008354 26.84,37.33 C27.0261045,37.2491602 27.2271035,37.208279 27.43,37.21 C27.6328114,37.2091519 27.8336329,37.2499969 28.02,37.33 C28.1969061,37.4033946 28.3568714,37.5123071 28.49,37.65 C28.6308173,37.7804683 28.7402257,37.9411619 28.81,38.12 C28.890906,38.3025629 28.9318215,38.5003211 28.93,38.7 C28.9309149,38.8995892 28.8900382,39.0971597 28.81,39.28 C28.7402257,39.4588381 28.6308173,39.6195317 28.49,39.75 C28.3542595,39.8845583 28.1949471,39.9930263 28.02,40.07 C27.8315897,40.1419949 27.6316957,40.1792633 27.43,40.18 C27.2282201,40.1801679 27.0281629,40.1428691 26.84,40.07 C26.6606814,39.9956215 26.4976258,39.8869178 26.36,39.75 C26.2223071,39.6168714 26.1133946,39.4569061 26.04,39.28 C25.9599618,39.0971597 25.9190851,38.8995892 25.92,38.7 L25.92,38.7 Z M26.5,38.7 C26.4988816,38.8323818 26.5191422,38.9640761 26.56,39.09 C26.6005161,39.2056935 26.665297,39.3113887 26.75,39.4 C26.8290752,39.49154 26.9283574,39.563434 27.04,39.61 C27.1635497,39.6607786 27.296503,39.684642 27.43,39.68 C27.5601937,39.6838292 27.6897166,39.6599697 27.81,39.61 C27.9247196,39.5638189 28.0273419,39.4919833 28.11,39.4 C28.1948329,39.3132333 28.256698,39.2066878 28.29,39.09 C28.3391127,38.9659703 28.3629131,38.8333677 28.36,38.7 C28.3642691,38.5632825 28.3404446,38.4271426 28.29,38.3 C28.2521697,38.185292 28.1908687,38.079718 28.11,37.99 C27.8240398,37.718047 27.4048859,37.6397005 27.04,37.79 C26.9308412,37.8364388 26.8321983,37.9044684 26.75,37.99 C26.6696027,38.0818533 26.6053591,38.1866717 26.56,38.3 C26.5184176,38.4291919 26.4981523,38.5642936 26.5,38.7 Z" id="Shape" fill="#00529B"></path>
                <path d="M29.81,37.75 L29.2,37.75 L29.2,37.28 L29.81,37.28 L29.81,36.65 C29.7895746,36.3534826 29.8668483,36.0584377 30.03,35.81 C30.2215441,35.6031499 30.4997636,35.4992813 30.78,35.53 L31,35.53 L31.21,35.53 L31.15,36.01 L31,36 L30.84,36 C30.764375,35.9821271 30.685625,35.9821271 30.61,36 C30.5499893,36.0262764 30.5006435,36.0720975 30.47,36.13 C30.4303487,36.1897838 30.4062848,36.2585379 30.4,36.33 C30.3948033,36.4165888 30.3948033,36.5034112 30.4,36.59 L30.4,37.24 L31,37.24 L31,37.71 L30.36,37.71 L30.36,40.07 L29.82,40.07 L29.81,37.75 Z" id="Path" fill="#00529B"></path>
                <path d="M33.38,35.8899687 L34.85,35.89 C35.0218144,35.8890612 35.1930947,35.9092118 35.36,35.95 C35.5073118,35.9921748 35.6460821,36.0598676 35.77,36.15 C35.8854091,36.2364981 35.978068,36.3497479 36.04,36.48 C36.1033129,36.6248959 36.1340364,36.781927 36.13,36.94 C36.1419643,37.1581435 36.0704576,37.3726638 35.93,37.54 C35.7895673,37.6948447 35.6099013,37.8088634 35.41,37.87 L35.41,37.87 C35.5317243,37.8748721 35.6510245,37.9055493 35.76,37.96 C35.8701366,38.017953 35.9684877,38.0959556 36.05,38.19 C36.1338902,38.2885932 36.2014153,38.4000096 36.25,38.52 C36.2951553,38.6485808 36.3188057,38.783726 36.32,38.92 C36.3233118,39.2642441 36.1592413,39.5886563 35.88,39.79 C35.7389063,39.8928206 35.5793352,39.9675135 35.41,40.01 C35.2222894,40.0679665 35.0263938,40.0949866 34.83,40.09 L33.38,40.09 L33.38,35.8899687 Z M34,37.64 L34.78,37.64 C34.8797072,37.650823 34.9802928,37.650823 35.08,37.64 C35.1702777,37.6217496 35.2555527,37.5842286 35.33,37.53 C35.4019777,37.4780307 35.4603054,37.4094099 35.5,37.33 C35.546589,37.2404716 35.5706179,37.1409232 35.57,37.04 C35.5694684,36.8773997 35.5089324,36.7207182 35.4,36.6 C35.2687983,36.4679943 35.0852355,36.4019117 34.9,36.42 L34,36.42 L34,37.64 Z M34,39.64 L34.84,39.64 L35.13,39.64 C35.2323952,39.6264543 35.3310187,39.5924462 35.42,39.54 C35.5114808,39.4802695 35.5925551,39.4059515 35.66,39.32 C35.7262635,39.2084166 35.7576088,39.0795524 35.75,38.95 C35.7644073,38.7356513 35.6751541,38.5273938 35.51,38.39 C35.312239,38.2577096 35.0777667,38.1912175 34.84,38.2 L34,38.2 L34,39.64 Z" id="Shape" fill="#00529B"></path>
                <path d="M37.14,35.89 L38.63,35.89 C38.8550272,35.883876 39.0791226,35.9212252 39.29,36 C39.4498116,36.0595151 39.593597,36.155372 39.71,36.28 C39.8069843,36.389759 39.8786737,36.5194827 39.92,36.66 C39.9587458,36.7932601 39.9789358,36.9312255 39.98,37.07 C39.982094,37.3399418 39.8820774,37.6006993 39.7,37.8 C39.6057244,37.9049502 39.4940965,37.9928995 39.37,38.06 C39.2375407,38.1318919 39.0905447,38.172914 38.94,38.18 L40.14,40.11 L39.43,40.11 L38.35,38.25 L37.71,38.25 L37.71,40.11 L37.14,40.11 L37.14,35.89 Z M37.71,37.75 L38.47,37.75 C38.579778,37.759884 38.690222,37.759884 38.8,37.75 C38.9016289,37.7333172 38.9996885,37.6995035 39.09,37.65 C39.1752412,37.6049342 39.2449342,37.5352412 39.29,37.45 C39.3960276,37.2287115 39.3960276,36.9712885 39.29,36.75 C39.2449342,36.6647588 39.1752412,36.5950658 39.09,36.55 C39.0016389,36.4962221 38.9027277,36.4621148 38.8,36.45 C38.690222,36.440116 38.579778,36.440116 38.47,36.45 L37.71,36.45 L37.71,37.75 Z" id="Shape" fill="#00529B"></path>
                <polygon id="Path" fill="#00529B" points="40.79 35.89 41.36 35.89 41.36 40.11 40.79 40.11"></polygon>
                <path d="M47.7,37.75 L47.7,39.83 C47.5873423,39.8945739 47.4704032,39.9513729 47.35,40 C47.2161871,40.0491738 47.0792095,40.0892648 46.94,40.12 C46.7984173,40.1530442 46.6547532,40.1764314 46.51,40.19 L46.1,40.19 C45.7576847,40.2014419 45.4168396,40.1400898 45.1,40.01 C44.8331233,39.9000047 44.5915206,39.7366677 44.39,39.53 C44.1987382,39.3240606 44.0493036,39.0829276 43.95,38.82 C43.8492565,38.5480019 43.7984417,38.2600514 43.8,37.97 C43.796003,37.6690865 43.8503372,37.3702481 43.96,37.09 C44.0642792,36.8278877 44.2207854,36.5897261 44.42,36.39 C44.6143761,36.1865385 44.849498,36.026383 45.11,35.92 C45.3928298,35.8061354 45.6951143,35.7483957 46,35.75 C46.3400443,35.7319221 46.680225,35.7829492 47,35.9 C47.2353389,35.9825335 47.4477982,36.119604 47.62,36.3 L47.22,36.73 C47.0604645,36.5770505 46.8692992,36.4609858 46.66,36.39 C46.4641063,36.3211445 46.2576249,36.2872951 46.05,36.29 C45.8232463,36.2857671 45.5982108,36.3300923 45.39,36.42 C45.2020867,36.5073345 45.0324267,36.6294897 44.89,36.78 C44.7489381,36.9372622 44.6402053,37.1207487 44.57,37.32 C44.4922486,37.5276776 44.4549119,37.7483034 44.46,37.97 C44.457316,38.1956588 44.4980559,38.4197281 44.58,38.63 C44.6607812,38.8308711 44.7796277,39.0142343 44.93,39.17 C45.0757418,39.3231843 45.2532214,39.4426418 45.45,39.52 C45.6546612,39.6100031 45.8764654,39.6543639 46.1,39.65 C46.2916225,39.6509048 46.4827659,39.6307845 46.67,39.59 C46.8316064,39.5643597 46.9873649,39.5101829 47.13,39.43 L47.13,38.29 L46.2,38.29 L46.2,37.75 L47.7,37.75 Z" id="Path" fill="#00529B"></path>
                <path d="M48.6,37.28 L49.14,37.28 L49.14,37.72 L49.14,37.72 C49.1807198,37.643815 49.2311395,37.5732273 49.29,37.51 C49.3478051,37.4491628 49.4154108,37.3984585 49.49,37.36 C49.5640134,37.3114733 49.6449237,37.2743894 49.73,37.25 C49.8163563,37.2396266 49.9036437,37.2396266 49.99,37.25 C50.0692107,37.234107 50.1507893,37.234107 50.23,37.25 L50.23,37.83 C50.1868513,37.8243427 50.1431487,37.8243427 50.1,37.83 L50,37.83 C49.7777586,37.8142767 49.5594012,37.8943411 49.4,38.05 C49.2435827,38.240383 49.1681718,38.4845706 49.19,38.73 L49.19,40.15 L48.6,40.15 L48.6,37.28 Z" id="Path" fill="#00529B"></path>
                <path d="M50.57,38.7 C50.565025,38.5010458 50.6025253,38.3033172 50.68,38.12 C50.7569737,37.9450529 50.8654417,37.7857405 51,37.65 C51.4375088,37.2170784 52.0929131,37.0907354 52.66,37.33 C52.8386151,37.4056896 53.0014346,37.5142359 53.14,37.65 C53.2745342,37.7836984 53.3800636,37.9436945 53.45,38.12 C53.530906,38.3025629 53.5718215,38.5003211 53.57,38.7 C53.5709149,38.8995892 53.5300382,39.0971597 53.45,39.28 C53.3800636,39.4563055 53.2745342,39.6163016 53.14,39.75 C52.9988041,39.8824858 52.8366007,39.9906214 52.66,40.07 C52.2802903,40.2164052 51.8597097,40.2164052 51.48,40.07 C51.3020389,39.9931023 51.139429,39.8846958 51,39.75 C50.8654417,39.6142595 50.7569737,39.4549471 50.68,39.28 C50.6033917,39.0964219 50.5659268,38.8988798 50.57,38.7 L50.57,38.7 Z M51.14,38.7 C51.1388816,38.8323818 51.1591422,38.9640761 51.2,39.09 C51.2842692,39.3203985 51.4570684,39.5075976 51.68,39.61 C51.9316011,39.7034603 52.2083989,39.7034603 52.46,39.61 C52.5703293,39.5611211 52.6691371,39.4895706 52.75,39.4 C52.8348329,39.3132333 52.896698,39.2066878 52.93,39.09 C52.9791127,38.9659703 53.0029131,38.8333677 53,38.7 C53.0042691,38.5632825 52.9804446,38.4271426 52.93,38.3 C52.8921697,38.185292 52.8308687,38.079718 52.75,37.99 C52.3664468,37.6342828 51.7735532,37.6342828 51.39,37.99 C51.3096027,38.0818533 51.2453591,38.1866717 51.2,38.3 C51.1584176,38.4291919 51.1381523,38.5642936 51.14,38.7 L51.14,38.7 Z" id="Shape" fill="#00529B"></path>
                <path d="M56.75,40.11 L56.21,40.11 L56.21,39.68 L56.21,39.68 C56.1374861,39.8361857 56.0140815,39.9631161 55.86,40.04 C55.6830675,40.138727 55.4824873,40.187143 55.28,40.18 C55.1476182,40.1811184 55.0159239,40.1608578 54.89,40.12 C54.7688458,40.078388 54.656815,40.0138854 54.56,39.93 C54.4620596,39.8346299 54.3868645,39.7184193 54.34,39.59 C54.2803032,39.4338026 54.2530821,39.2670732 54.26,39.1 L54.26,37.28 L54.79,37.28 L54.79,39 C54.7859468,39.1162861 54.806389,39.2321252 54.85,39.34 C54.898161,39.5058997 55.0255657,39.6370515 55.19,39.69 C55.2726382,39.7052226 55.3573618,39.7052226 55.44,39.69 C55.542775,39.7051917 55.647225,39.7051917 55.75,39.69 C55.8447215,39.6522202 55.9300445,39.5942005 56,39.52 C56.0727663,39.4316441 56.1271625,39.3296512 56.16,39.22 C56.2023447,39.0841124 56.2226024,38.9423086 56.22,38.8 L56.22,37.28 L56.76,37.28 L56.75,40.11 Z" id="Path" fill="#00529B"></path>
                <path d="M57.56,37.28 L58.1,37.28 L58.1,37.69 L58.1,37.69 C58.2074798,37.5351364 58.356543,37.4138059 58.53,37.34 C58.7003691,37.2534974 58.8889315,37.2089281 59.08,37.21 C59.2862309,37.2071708 59.4907211,37.2480688 59.68,37.33 C59.850416,37.4000133 60.0038581,37.5057178 60.13,37.64 C60.2565737,37.7799075 60.3550317,37.9428726 60.42,38.12 C60.5534969,38.4951442 60.5534969,38.9048558 60.42,39.28 C60.3574654,39.458285 60.2587305,39.6217084 60.13,39.76 C60.0011607,39.8911076 59.848411,39.9963352 59.68,40.07 C59.488639,40.1438664 59.2851192,40.1811784 59.08,40.18 C58.8823951,40.182333 58.6870526,40.1377812 58.51,40.05 C58.3451089,39.9758168 58.2034158,39.8583152 58.1,39.71 L58.1,39.71 L58.1,41.79 L57.56,41.79 L57.56,37.28 Z M59.03,37.71 C58.895952,37.7102577 58.7633241,37.7374635 58.64,37.79 C58.5322598,37.8389805 58.4340699,37.9066977 58.35,37.99 C58.2696027,38.0818533 58.2053591,38.1866717 58.16,38.3 C58.1184176,38.4291919 58.0981523,38.5642936 58.1,38.7 C58.0988816,38.8323818 58.1191422,38.9640761 58.16,39.09 C58.2442692,39.3203985 58.4170684,39.5075976 58.64,39.61 C58.7640297,39.6591127 58.8966323,39.6829131 59.03,39.68 C59.1633677,39.6829131 59.2959703,39.6591127 59.42,39.61 C59.5303293,39.5611211 59.6291371,39.4895706 59.71,39.4 C59.7948329,39.3132333 59.856698,39.2066878 59.89,39.09 C59.9528975,38.968869 59.9903326,38.8361446 60,38.7 C60.0042691,38.5632825 59.9804446,38.4271426 59.93,38.3 C59.8921697,38.185292 59.8308687,38.079718 59.75,37.99 C59.570762,37.8081962 59.3252852,37.7071176 59.07,37.71 L59.03,37.71 Z" id="Shape" fill="#00529B"></path>
            </g>
        </g>
    </g>
</svg>