<?xml version="1.0" encoding="UTF-8"?>
<svg width="20px" height="20px" viewBox="0 0 20 20" version="1.1" xmlns="http://www.w3.org/2000/svg" xmlns:xlink="http://www.w3.org/1999/xlink">
    <!-- Generator: sketchtool 53.1 (72631) - https://sketchapp.com -->
    <title>8ED2B56B-7978-48C1-8C5A-DFD549702B8C</title>
    <desc>Created with sketchtool.</desc>
    <g id="Page-1" stroke="none" stroke-width="1" fill="none" fill-rule="evenodd">
        <g id="Pinang---HiFi-3" transform="translate(-532.000000, -8069.000000)" fill="#269045">
            <g id="Footer" transform="translate(0.000000, 7943.000000)">
                <g id="-g-facebook" transform="translate(532.000000, 126.000000)">
                    <g id="facebook">
                        <path d="M17.3048913,0 L2.69505975,0 C1.20664897,0 0,1.20659119 0,2.69503997 L0,17.3048622 C0,18.793311 1.20660005,19.9999021 2.69505975,19.9999021 L9.90055897,19.9999021 L9.91283927,12.8530192 L8.05606859,12.8530192 C7.81476815,12.8530192 7.61891948,12.6579058 7.6179899,12.4166071 L7.60908546,10.1128702 C7.60815588,9.87025059 7.80459166,9.67308238 8.04721308,9.67308238 L9.9006079,9.67308238 L9.9006079,7.44708749 C9.9006079,4.8638414 11.4783077,3.45724434 13.7827464,3.45724434 L15.673716,3.45724434 C15.9156525,3.45724434 16.1118436,3.65338513 16.1118436,3.89536875 L16.1118436,5.83789152 C16.1118436,6.07977729 15.9157993,6.27586915 15.6739606,6.27601593 L14.5134973,6.27655411 C13.2602713,6.27655411 13.0176009,6.87207061 13.0176009,7.74601994 L13.0176009,9.67313131 L15.7713713,9.67313131 C16.0337586,9.67313131 16.2373375,9.90224762 16.2064166,10.1628228 L15.9333635,12.4665597 C15.9072373,12.6870163 15.7202931,12.853117 15.4983182,12.853117 L13.0298812,12.853117 L13.0176009,20 L17.3049892,20 C18.7934,20 20,18.7934088 20,17.305009 L20,2.69503997 C19.9999511,1.20659119 18.793351,0 17.3048913,0 Z" id="Path" fill-rule="nonzero"></path>
                    </g>
                </g>
            </g>
        </g>
    </g>
</svg>