<?xml version="1.0" encoding="UTF-8"?>
<svg width="80px" height="80px" viewBox="0 0 80 80" version="1.1" xmlns="http://www.w3.org/2000/svg" xmlns:xlink="http://www.w3.org/1999/xlink">
    <!-- Generator: sketchtool 53.1 (72631) - https://sketchapp.com -->
    <title>EEDD3AAC-08BD-42B0-B0E6-6ECEC8B5B4EE</title>
    <desc>Created with sketchtool.</desc>
    <g id="Page-1" stroke="none" stroke-width="1" fill="none" fill-rule="evenodd">
        <g id="Pinang---HiFi-3" transform="translate(-679.000000, -4962.000000)">
            <g id="Features" transform="translate(135.000000, 4431.000000)">
                <g id="-g-icon-5" transform="translate(544.000000, 531.000000)">
                    <circle id="Oval" fill="#278F45" cx="40" cy="40" r="40"></circle>
                    <g id="Untitled-4_Artboard-1-copy" stroke-width="1" transform="translate(17.000000, 12.000000)">
                        <path d="M43.19,9.44 L23.75,9.44 L17.33,15.86 L17.33,41 C17.33,41.9499298 18.1000702,42.72 19.05,42.72 L43.19,42.72 C44.1399298,42.72 44.91,41.9499298 44.91,41 L44.91,11.16 C44.91,10.2100702 44.1399298,9.44 43.19,9.44 L43.19,9.44 Z" id="Path" fill="#E7ECEC" fill-rule="nonzero"></path>
                        <path d="M21.7,12.37 L43.88,41.77 L44.88,32.77 L44.88,11.16 C44.88,10.2100702 44.1099298,9.44 43.16,9.44 L23.75,9.44 L21.4,11.78 L21.7,12.37 Z" id="Path" fill="#FFFFFF" fill-rule="nonzero"></path>
                        <path d="M43.19,43.92 L19.05,43.92 C17.4127046,43.892708 16.0997726,42.5575228 16.1,40.92 L16.1,15.35 L23.24,8.21 L43.19,8.21 C44.8275228,8.20977255 46.162708,9.5227046 46.19,11.16 L46.19,41 C46.1466372,42.6255304 44.8161085,43.9205783 43.19,43.92 Z M18.56,16.37 L18.56,41 C18.56,41.2706195 18.7793805,41.49 19.05,41.49 L43.19,41.49 C43.3199561,41.49 43.4445895,41.4383751 43.5364823,41.3464823 C43.6283751,41.2545895 43.68,41.1299561 43.68,41 L43.68,11.16 C43.68,11.0300439 43.6283751,10.9054105 43.5364823,10.8135177 C43.4445895,10.7216249 43.3199561,10.67 43.19,10.67 L24.26,10.67 L18.56,16.37 Z" id="Shape" fill="#4AB7DF" fill-rule="nonzero"></path>
                        <rect id="Rectangle" fill="#4AB7DF" fill-rule="nonzero" x="34.95" y="34.73" width="4.1" height="2.99" rx="0.75"></rect>
                        <path d="M39.46,36.22 C39.46,37.15 40.27,37.49 40.99,37.49 L40.99,34.94 C40.27,34.94 39.46,35.29 39.46,36.22 Z" id="Path" fill="#4AB7DF" fill-rule="nonzero"></path>
                        <path d="M38.54,35.72 C38.54,35.9961424 38.3161424,36.22 38.04,36.22 C37.7638576,36.22 37.54,35.9961424 37.54,35.72 C37.54,35.4438576 37.7638576,35.22 38.04,35.22 C38.3139085,35.2253201 38.5346799,35.4460915 38.54,35.72 Z" id="Path" fill="#E7ECEC" fill-rule="nonzero"></path>
                        <polygon id="Path" fill="#4AB7DF" fill-rule="nonzero" points="24.92 9.44 24.92 16.35 17.33 16.35"></polygon>
                        <path d="M24.92,17.32 L17.33,17.32 C16.9336123,17.3100412 16.5805498,17.0668203 16.43,16.7 C16.2967453,16.3282974 16.3946961,15.912986 16.68,15.64 L24.27,8.72 C24.5616176,8.48835694 24.9578016,8.43795956 25.2981266,8.5892151 C25.6384516,8.74047065 25.8665274,9.06831685 25.89,9.44 L25.89,16.35 C25.8743515,16.8790988 25.4490988,17.3043515 24.92,17.32 L24.92,17.32 Z M19.82,15.39 L24,15.39 L24,11.62 L19.82,15.39 Z" id="Shape" fill="#4AB7DF" fill-rule="nonzero"></path>
                        <rect id="Rectangle" fill="#4AB7DF" fill-rule="nonzero" x="22.11" y="14.03" width="17.24" height="17.24" rx="2.76"></rect>
                        <path d="M36.38,20.39 C36.38,23.2121751 34.0921751,25.5 31.27,25.5 C28.4478249,25.5 26.16,23.2121751 26.16,20.39 C26.16,17.5678249 28.4478249,15.28 31.27,15.28 C34.0921751,15.28 36.38,17.5678249 36.38,20.39 Z" id="Path" fill="#FFFFFF" fill-rule="nonzero"></path>
                        <path d="M38.76,32.57 C38.76,35.39 35.41,37.68 31.27,37.68 C27.13,37.68 23.79,35.39 23.79,32.57 C23.79,29.75 27.14,27.46 31.27,27.46 C35.4,27.46 38.76,29.74 38.76,32.57 Z" id="Path" fill="#FFFFFF" fill-rule="nonzero"></path>
                        <path d="M19.79,28.43 C19.7940455,32.4189053 17.3943003,36.017287 13.7101929,37.5465789 C10.0260855,39.0758709 5.78348452,38.2347613 2.96147043,35.4156093 C0.139456349,32.5964573 -0.705957859,28.354712 0.81959501,24.6690547 C2.34514788,20.9833974 5.94109269,18.5800021 9.93,18.58 C15.3716248,18.5799972 19.7844811,22.988378 19.79,28.43 Z" id="Path" fill="#288E45" fill-rule="nonzero"></path>
                        <g id="Group" opacity="0.5" transform="translate(3.000000, 16.000000)" fill="#8BC53F" fill-rule="nonzero">
                            <path d="M12.16,6 L7.42,1.26 C7.04400823,0.891806036 6.48205719,0.788913591 6,1 C5.77749153,1.0845768 5.58576492,1.23447215 5.45,1.43 L0.83,6 C0.321898069,6.5108634 0.324136664,7.336898 0.835000041,7.84499996 C1.34586342,8.35310191 2.17189802,8.35086335 2.68,7.84 L5.2,5.32 L5.2,12.74 C5.2,13.4579702 5.78202983,14.04 6.5,14.04 C7.21797017,14.04 7.8,13.4579702 7.8,12.74 L7.8,5.31 L10.32,7.83 C10.6392724,8.19313038 11.1337052,8.34905857 11.6035353,8.23478571 C12.0733653,8.12051284 12.4409535,7.75492243 12.557785,7.28572211 C12.6746165,6.81652179 12.5213851,6.32124658 12.16,6 Z" id="Path"></path>
                        </g>
                        <path d="M5.68,17.25 L8.2,14.73 L8.2,17.64 L8.45,17.39 C8.59150058,17.2092746 8.78263777,17.073741 9,17 C9.48603774,16.7939964 10.0485435,16.904913 10.42,17.28 L10.8,17.66 L10.8,14.71 L13.32,17.23 C13.6486843,17.5586843 14.1277522,17.6870502 14.5767434,17.5667434 C15.0257345,17.4464366 15.3764366,17.0957345 15.4967434,16.6467434 C15.6170502,16.1977522 15.4886843,15.7186843 15.16,15.39 L10.42,10.64 C10.045871,10.2699247 9.48660775,10.1596475 9,10.36 C8.77954841,10.4481883 8.58877344,10.5973396 8.45,10.79 L3.83,15.41 C3.50131566,15.7404707 3.3739028,16.2211892 3.49575663,16.6710735 C3.61761045,17.1209578 3.97021846,17.4716598 4.42075663,17.5910735 C4.8712948,17.7104872 5.35131566,17.5804707 5.68,17.25 Z" id="Path" fill="#8BC53F" fill-rule="nonzero" opacity="0.2"></path>
                        <path d="M15.16,28.14 L10.42,23.4 C10.0508337,23.0214462 9.48803469,22.9065084 9,23.11 C8.77884924,23.201878 8.58818236,23.3544115 8.45,23.55 L3.83,28.16 C3.39768747,28.6816725 3.43448887,29.4469195 3.91486599,29.9247 C4.39524311,30.4024804 5.16067826,30.4351337 5.68,30 L8.2,27.48 L8.2,34.9 C8.2,35.6179702 8.78202983,36.2 9.5,36.2 C10.2179702,36.2 10.8,35.6179702 10.8,34.9 L10.8,27.46 L13.32,30 C13.828102,30.508102 14.651898,30.508102 15.16,30 C15.668102,29.491898 15.668102,28.668102 15.16,28.16 L15.16,28.14 Z" id="Path" fill="#8BC53F" fill-rule="nonzero"></path>
                        <rect id="Rectangle" fill="#B0B6B8" fill-rule="nonzero" x="2.84" y="34.82" width="31.44" height="20.79" rx="1.22"></rect>
                        <rect id="Rectangle" fill="#E7ECEC" fill-rule="nonzero" x="1.83" y="33.3" width="31.44" height="20.79" rx="1.22"></rect>
                        <path d="M33,34.44 C33.0026921,34.1156181 32.8750214,33.8037397 32.6456409,33.5743591 C32.4162603,33.3449786 32.1043819,33.2173079 31.78,33.22 L5.73,33.2199583 L33.0000417,50.49 L33,34.44 Z" id="Path" fill="#FFFFFF" fill-rule="nonzero"></path>
                        <rect id="Rectangle" fill="#F1A421" fill-rule="nonzero" x="23.13" y="38.88" width="7.61" height="7.61" rx="1.22"></rect>
                        <rect id="Rectangle" fill="#F1A421" fill-rule="nonzero" x="23.13" y="49.02" width="4.56" height="1.01"></rect>
                        <rect id="Rectangle" fill="#F1A421" fill-rule="nonzero" x="3.86" y="34.82" width="26.88" height="1.52"></rect>
                        <rect id="Rectangle" fill="#F1A421" fill-rule="nonzero" x="3.86" y="36.34" width="26.88" height="1.01"></rect>
                        <path d="M29.32,42 C29.32,43.2481635 28.3081635,44.26 27.06,44.26 C25.8118365,44.26 24.8,43.2481635 24.8,42 C24.8,40.7518365 25.8118365,39.74 27.06,39.74 C27.6593893,39.74 28.2342291,39.9781065 28.6580613,40.4019387 C29.0818935,40.8257709 29.32,41.4006107 29.32,42 Z" id="Path" fill="#FFFFFF" fill-rule="nonzero"></path>
                        <path d="M30.37,47.39 C30.37,48.64 28.89,49.65 27.06,49.65 C25.23,49.65 23.75,48.65 23.75,47.39 C23.75,46.13 25.23,45.13 27.06,45.13 C28.89,45.13 30.37,46.14 30.37,47.39 Z" id="Path" fill="#E7ECEC" fill-rule="nonzero"></path>
                        <text id="KTP" fill="#F1A421" font-family="Neris-Light, Neris" font-size="9.23" font-weight="300">
                            <tspan x="3.43" y="47.56">KTP</tspan>
                        </text>
                        <path d="M29.92,48.53 C30.2057032,48.2186537 30.3660081,47.8125481 30.37,47.39 C30.37,46.14 28.89,45.13 27.06,45.13 C26.4117744,45.1257485 25.7703471,45.2622224 25.18,45.53 L29.92,48.53 Z" id="Path" fill="#FFFFFF" fill-rule="nonzero"></path>
                        <path d="M24.68,10.3 C24.68,13.4977287 22.0877287,16.09 18.89,16.09 C15.6922713,16.09 13.1,13.4977287 13.1,10.3 C13.1,7.1022713 15.6922713,4.51 18.89,4.51 C22.0877287,4.51 24.68,7.1022713 24.68,10.3 L24.68,10.3 Z" id="Path" fill="#FFFFFF" fill-rule="nonzero"></path>
                        <path d="M18.89,17.05 C16.1540194,17.0540443 13.685379,15.4085073 12.6364955,12.8815627 C11.5876119,10.354618 12.165333,7.44459808 14.0999655,5.50996554 C16.0345981,3.57533301 18.944618,2.99761193 21.4715627,4.04649546 C23.9985073,5.09537899 25.6440443,7.56401942 25.64,10.3 C25.6344928,14.0256385 22.6156385,17.0444928 18.89,17.05 Z M18.89,5.47 C16.9355424,5.4659535 15.1712824,6.64017618 14.4205384,8.44469941 C13.6697943,10.2492226 14.0805566,12.3283298 15.4611369,13.7117744 C16.8417172,15.0952189 18.9199686,15.5102894 20.7260439,14.7632869 C22.5321192,14.0162844 23.7099958,12.2544618 23.71,10.3 C23.7100057,7.63636503 21.5536293,5.47551477 18.89,5.47 Z" id="Shape" fill="#4AB7DF" fill-rule="nonzero"></path>
                        <path d="M19.36,8.77 C19.3600269,8.90435918 19.305978,9.03307541 19.2100357,9.12713643 C19.1140935,9.22119745 18.9843323,9.27268719 18.85,9.27 L18.85,9.27 C18.5738576,9.27 18.35,9.04614237 18.35,8.77 L18.35,6.92 C18.35,6.64385763 18.5738576,6.42 18.85,6.42 L18.85,6.42 C18.9843323,6.41731281 19.1140935,6.46880255 19.2100357,6.56286357 C19.305978,6.65692459 19.3600269,6.78564082 19.36,6.92 L19.36,8.77 Z" id="Path" fill="#4AB7DF" fill-rule="nonzero"></path>
                        <path d="M18.2,10 C18.4780703,9.91181305 18.7682881,9.86794291 19.06,9.87 C19.94,9.87 20.41,10.26 20.41,10.87 C20.443601,11.3000031 20.1977129,11.7030984 19.8,11.87 C19.72,11.87 19.71,11.94 19.8,11.99 C20.0911577,12.1499902 20.2570102,12.4698486 20.22,12.8 C20.22,13.47 19.76,14.2 18.42,14.2 C18.0783996,14.2024027 17.7393215,14.1413686 17.42,14.02 L17.02,13.86 C16.97,13.86 16.95,13.81 16.97,13.76 L17.3,13.15 C17.3131662,13.1365623 17.3311872,13.1289898 17.35,13.1289898 C17.3688128,13.1289898 17.3868338,13.1365623 17.4,13.15 L17.75,13.29 C17.9637349,13.3720109 18.1910875,13.4127307 18.42,13.41 C18.92,13.41 19.22,13.17 19.22,12.79 C19.2180001,12.6684876 19.164675,12.5534957 19.0732152,12.4734683 C18.9817554,12.393441 18.8607026,12.3558523 18.74,12.37 L18.4,12.37 C18.4,12.37 18.32,12.37 18.34,12.29 L18.45,11.62 C18.4524923,11.5987114 18.4634231,11.5793133 18.4803421,11.5661541 C18.497261,11.5529949 18.5187529,11.5471754 18.54,11.55 L18.86,11.55 C19.23,11.55 19.46,11.36 19.46,11.09 C19.46,10.82 19.3,10.72 19.03,10.72 C18.8057199,10.723265 18.5832158,10.760349 18.37,10.83 L18,10.9 C17.9799609,10.9060882 17.9582485,10.9028838 17.9408224,10.8912664 C17.9233963,10.879649 17.9120875,10.8608393 17.91,10.84 L17.8,10.15 C17.7936161,10.1089758 17.8196762,10.0698858 17.86,10.06 L18.2,10 Z" id="Path" fill="#4AB7DF" fill-rule="nonzero"></path>
                        <path d="M22,1.28 C21.9682202,1.80872388 21.5296773,2.22095423 21,2.22 L16.77,2.22 C16.2403227,2.22095423 15.8017798,1.80872388 15.77,1.28 L15.77,1.28 C15.7966663,0.747333155 16.2366665,0.329332936 16.77,0.33 L21,0.33 C21.5333335,0.329332936 21.9733337,0.747333155 22,1.28 Z" id="Path" fill="#4AB7DF" fill-rule="nonzero"></path>
                    </g>
                </g>
            </g>
        </g>
    </g>
</svg>