<?xml version="1.0" encoding="UTF-8"?>
<svg width="80px" height="80px" viewBox="0 0 80 80" version="1.1" xmlns="http://www.w3.org/2000/svg" xmlns:xlink="http://www.w3.org/1999/xlink">
    <!-- Generator: sketchtool 53.1 (72631) - https://sketchapp.com -->
    <title>A0134273-8F52-4201-8036-4717AABC11FF</title>
    <desc>Created with sketchtool.</desc>
    <defs>
        <polygon id="path-1" points="0 84 67.8028861 84 67.8028861 0.118201147 0 0.118201147"></polygon>
        <path d="M1.6896,0.255217391 C0.78452,0.255217391 0.05104,0.980434783 0.05104,1.87478261 L0.05104,1.87478261 L0.05104,18.27 C0.05104,19.163913 0.78452,19.8895652 1.6896,19.8895652 L1.6896,19.8895652 L31.2598,19.8895652 C32.16576,19.8895652 32.89924,19.163913 32.89924,18.27 L32.89924,18.27 L32.89924,1.87478261 C32.89924,0.980434783 32.16576,0.255217391 31.2598,0.255217391 L31.2598,0.255217391 L1.6896,0.255217391 Z" id="path-3"></path>
        <path d="M1.6896,0.255217391 C0.78452,0.255217391 0.05104,0.980434783 0.05104,1.87478261 L0.05104,1.87478261 L0.05104,18.27 C0.05104,19.163913 0.78452,19.8895652 1.6896,19.8895652 L1.6896,19.8895652 L31.2598,19.8895652 C32.16576,19.8895652 32.89924,19.163913 32.89924,18.27 L32.89924,18.27 L32.89924,1.87478261 C32.89924,0.980434783 32.16576,0.255217391 31.2598,0.255217391 L31.2598,0.255217391 L1.6896,0.255217391 Z" id="path-5"></path>
        <polygon id="path-7" points="0.119824658 0.0908418015 3.3856407 0.0908418015 3.3856407 9.89395193 0.119824658 9.89395193"></polygon>
    </defs>
    <g id="Page-1" stroke="none" stroke-width="1" fill="none" fill-rule="evenodd">
        <g id="Pinang---HiFi-3" transform="translate(-316.000000, -5231.000000)">
            <g id="Features" transform="translate(135.000000, 4431.000000)">
                <g id="icon-1-copy-2" transform="translate(181.000000, 800.000000)">
                    <circle id="Oval" fill="#278F45" cx="40" cy="40" r="40"></circle>
                    <g id="Group-64" stroke-width="1" transform="translate(12.000000, -2.000000)">
                        <g id="Group-44">
                            <path d="M42.5034,65.4095551 C42.5034,66.7060199 41.4726405,67.7575871 40.2012987,67.7575871 L12.7852481,67.7575871 C11.5130456,67.7575871 10.4827165,66.7060199 10.4827165,65.4095551 L10.4827165,48.7437942 C10.4827165,47.4468905 11.5130456,46.396201 12.7852481,46.396201 L40.2012987,46.396201 C41.4726405,46.396201 42.5034,47.4468905 42.5034,48.7437942 L42.5034,65.4095551 Z" id="Fill-1" fill="#FFFFFF"></path>
                            <path d="M12.7853342,48.1516512 C12.4647013,48.1516512 12.2038911,48.4171763 12.2038911,48.7441453 L12.2038911,65.4094673 C12.2038911,65.7359973 12.4647013,66.0019614 12.7853342,66.0019614 L40.2013848,66.0019614 C40.521157,66.0019614 40.7819671,65.7359973 40.7819671,65.4094673 L40.7819671,48.7441453 C40.7819671,48.4171763 40.521157,48.1516512 40.2013848,48.1516512 L12.7853342,48.1516512 Z M40.2013848,69.5130373 L12.7853342,69.5130373 C10.5662962,69.5130373 8.76085316,67.6723557 8.76085316,65.4094673 L8.76085316,48.7441453 C8.76085316,46.4812568 10.5662962,44.6405753 12.7853342,44.6405753 L40.2013848,44.6405753 C42.4199924,44.6405753 44.2250051,46.4812568 44.2250051,48.7441453 L44.2250051,65.4094673 C44.2250051,67.6723557 42.4199924,69.5130373 40.2013848,69.5130373 L40.2013848,69.5130373 Z" id="Fill-3" fill="#F2A421"></path>
                            <path d="M22.8710684,39.702247 C22.2319544,39.702247 21.7142076,39.1742689 21.7142076,38.5225254 L21.7142076,19.5701763 C21.7142076,18.9188718 22.2319544,18.3904548 22.8710684,18.3904548 C23.5097519,18.3904548 24.0279291,18.9188718 24.0279291,19.5701763 L24.0279291,38.5225254 C24.0279291,39.1742689 23.5097519,39.702247 22.8710684,39.702247" id="Fill-5" fill="#278F45"></path>
                            <path d="M27.5867823,47.2704151 C26.9476684,47.2704151 26.4299215,46.742437 26.4299215,46.0906935 L26.4299215,27.1392222 C26.4299215,26.4870399 26.9476684,25.9590618 27.5867823,25.9590618 C28.2250354,25.9590618 28.743643,26.4870399 28.743643,27.1392222 L28.743643,46.0906935 C28.743643,46.742437 28.2250354,47.2704151 27.5867823,47.2704151" id="Fill-7" fill="#278F45"></path>
                            <path d="M34.0975241,36.0154417 L34.0975241,36.0154417 C33.4592709,36.0154417 32.9410937,35.4870247 32.9410937,34.8357201 L32.9410937,22.9990053 C32.9410937,22.3472619 33.4592709,21.8192838 34.0983848,21.8192838 C34.7370684,21.8192838 35.2548152,22.3472619 35.2548152,22.9990053 L35.2543848,34.8357201 C35.2543848,35.4874636 34.7362076,36.0154417 34.0975241,36.0154417" id="Fill-9" fill="#278F45"></path>
                            <path d="M34.0975241,18.8741055 C33.4592709,18.8741055 32.9410937,18.3461275 32.9410937,17.694384 L32.9410937,16.6599333 C32.9410937,16.0086287 33.4592709,15.4806506 34.0975241,15.4806506 C34.7362076,15.4806506 35.2543848,16.0086287 35.2543848,16.6599333 L35.2543848,17.694384 C35.2543848,18.3461275 34.7362076,18.8741055 34.0975241,18.8741055" id="Fill-11" fill="#278F45"></path>
                            <path d="M37.6948101,29.4278732 C38.1247595,40.3424917 38.0860253,50.9617409 37.579038,61.8728483 C37.5372911,62.7751948 36.8813924,63.4199161 36.1256456,63.3150227 C31.0880506,62.6321184 25.9643797,62.4091651 20.8127342,62.6005188 C20.0402025,62.6303629 19.4441266,61.968964 19.4845823,61.1166503 C19.9756456,50.7975981 20.0113671,40.3732136 19.593038,30.0524058 C19.5586076,29.1996532 20.1607089,28.5413265 20.9336709,28.5764373 C26.0831646,28.805535 31.2068354,28.6185702 36.2504557,27.9738489 C37.0062025,27.8764165 37.6573671,28.5250878 37.6948101,29.4278732" id="Fill-13" fill="#278F45"></path>
                            <path d="M35.8182253,58.7838475 C35.7713139,58.7772643 35.7231114,58.774631 35.6740481,58.7741921 C34.4840481,58.7698032 33.5191367,59.7493934 33.5148329,60.9624702 C33.5148329,60.9931921 33.5148329,61.0234751 33.5208582,61.0515637 C30.0821241,60.6987006 26.6812633,60.5516743 23.3595924,60.5714241 C23.4082253,60.396748 23.4336177,60.2089055 23.4340481,60.0162352 C23.4379215,58.8031584 22.4773139,57.8165461 21.2877443,57.813035 C21.2425544,57.8125961 21.1977949,57.8125961 21.1556177,57.8187405 C21.5528582,49.609845 21.5812633,41.4114826 21.2339468,33.2056592 C21.2795671,33.2122425 21.3238962,33.2122425 21.3699468,33.2122425 C22.5586557,33.2166313 23.525719,32.2370412 23.5295924,31.0244033 C23.5308835,30.8861547 23.5179722,30.7544893 23.4908582,30.6254573 C26.7221494,30.6640791 30.0322,30.5495303 33.3805544,30.2388001 C33.3779722,30.2603054 33.3779722,30.2818107 33.3779722,30.3028772 C33.373238,31.5155151 34.3347063,32.5016885 35.5234152,32.5060774 C35.6559722,32.5060774 35.7855165,32.4942275 35.9124785,32.4670166 C36.2830354,41.3171224 36.2520481,49.936375 35.8182253,58.7838475" id="Fill-15" fill="#BDDB91"></path>
                            <path d="M27.0744152,55.2076411 C27.0765671,54.4237934 27.7027696,53.7904831 28.4718582,53.7926775 C29.2405165,53.7961886 29.8624152,54.4334489 29.8594025,55.2181743 C29.8563899,56.0020221 29.2310481,56.6362101 28.4615291,56.6326991 C27.6924405,56.6300658 27.0714025,55.9923666 27.0744152,55.2076411" id="Fill-17" fill="#86AC63"></path>
                            <path d="M27.1416835,36.0154417 C27.1446962,35.2311551 27.7704684,34.5982836 28.5391266,34.6009169 C29.3086456,34.6031114 29.9301139,35.2412494 29.9275316,36.025536 C29.9240886,36.8102615 29.2996076,37.442694 28.5296582,37.4404996 C27.7601392,37.4383052 27.1386709,36.7997282 27.1416835,36.0154417" id="Fill-19" fill="#86AC63"></path>
                            <path d="M28.7782886,39.4810931 C32.1029722,39.4938207 34.787681,42.251332 34.7760608,45.6390814 C34.762719,49.0285863 32.0599342,51.76547 28.7352506,51.7536202 C25.4118582,51.7417703 22.7258582,48.9838201 22.7387696,45.5956318 C22.7503899,42.2065658 25.4536051,39.4692432 28.7782886,39.4810931" id="Fill-21" fill="#86AC63"></path>
                            <path d="M28.230243,48.2321865 L28.2306734,47.7805744 C28.2323949,47.6216982 28.1734329,47.4882773 28.0568,47.3763618 C27.9328506,47.2556685 27.7830785,47.1959802 27.6079139,47.1951025 C27.4331797,47.1942247 27.2829772,47.253913 27.1581671,47.3732896 C27.0376608,47.4830107 26.9769772,47.6177482 26.9769772,47.7761855 L26.9752557,48.2269199 L28.230243,48.2321865 Z M29.9113063,45.8696713 C30.0490278,45.7884777 30.1944962,45.7669723 30.3468506,45.8064719 C30.5004962,45.8472882 30.6188506,45.9407706 30.7023443,46.0856025 L30.7092304,46.0956968 C30.7931544,46.2479897 30.814243,46.406427 30.7707747,46.5710087 C30.7277367,46.7382237 30.6352051,46.8650613 30.4940405,46.9506438 L29.1762177,47.7358082 L29.1788,48.2392087 L30.189762,48.2422809 C30.3520152,48.2422809 30.4905975,48.3032858 30.6072304,48.4235402 C30.7260152,48.5442334 30.7845468,48.6916986 30.7836861,48.8681302 L30.7836861,48.8786634 C30.7823949,49.0577283 30.7208506,49.2060712 30.5990532,49.3258867 C30.4845722,49.4452633 30.3468506,49.5049516 30.1854582,49.5036349 L26.6955089,49.4913461 C26.5315342,49.4913461 26.3903696,49.431219 26.2733063,49.3114035 C26.1515089,49.1854437 26.0916861,49.0344674 26.0925468,48.8554025 L26.0955595,47.5694709 C26.0955595,47.5036383 26.1020152,47.4316612 26.1136354,47.3522231 L26.1175089,47.3219401 C26.1781924,46.9357217 26.3529266,46.6144583 26.6425722,46.360783 C26.931357,46.1079856 27.2661924,45.9820257 27.645357,45.9837813 C27.9522177,45.984659 28.2539139,46.083408 28.5521671,46.281345 C28.6644962,46.3524442 28.7565975,46.4310046 28.8245975,46.5170259 L29.9113063,45.8696713 Z" id="Fill-23" fill="#BDDB91"></path>
                            <path d="M29.0695696,42.9244491 C28.8294177,42.9244491 28.6267089,42.9863318 28.4601519,43.1131695 C28.3069367,43.2343016 28.229038,43.3786946 28.229038,43.5459096 C28.2135443,43.6494863 28.2212911,43.7535019 28.2544304,43.8579564 C28.3164051,44.0515045 28.470481,44.1506924 28.7201013,44.1581534 L29.5416962,44.1612256 C29.6535949,44.1186538 29.7444051,44.0106883 29.8119747,43.8364511 C29.8868608,43.6376364 29.8782532,43.4388218 29.7831392,43.2400071 C29.7418228,43.1465247 29.6583291,43.0719143 29.5313671,43.0139816 C29.4074177,42.9560488 29.2671139,42.9253269 29.1087342,42.9253269 L29.0695696,42.9244491 Z M30.6387342,44.1656145 L31.6070886,44.1682478 C31.7646076,44.1691256 31.9027595,44.2292527 32.0185316,44.349946 C32.1338734,44.467567 32.1911139,44.6132767 32.1902532,44.7848805 L32.1902532,44.7984859 C32.1902532,44.9696509 32.1312911,45.1144828 32.0163797,45.2321038 C31.8975949,45.3514804 31.7598734,45.4102909 31.6032152,45.4111687 L27.5671139,45.3966855 C27.4917975,45.3966855 27.4263797,45.3672802 27.3721519,45.3106641 C27.3166329,45.2500981 27.2882278,45.1772432 27.2882278,45.0929774 L27.2916709,44.4552782 C27.2916709,44.3679402 27.3183544,44.2968409 27.3721519,44.2419804 C27.428962,44.1836087 27.4948101,44.1542035 27.5679747,44.1537646 L27.4423038,44.1542035 C27.3415949,43.981283 27.292962,43.7464798 27.2942532,43.4480383 C27.2955443,42.970532 27.4676962,42.5663194 27.8107089,42.2354005 C28.1550127,41.9014094 28.5673165,41.735511 29.0467595,41.7372666 C29.5270633,41.7390221 29.9397975,41.9079926 30.2819494,42.2428615 C30.6232405,42.5764137 30.7932405,42.9828208 30.791519,43.4598882 C30.7897975,43.7583297 30.739443,43.9935718 30.6387342,44.1656145 L30.6387342,44.1656145 Z" id="Fill-25" fill="#BDDB91"></path>
                            <path d="M46.9349342,68.6317572 C46.9349342,69.5564869 46.1985544,70.3065405 45.2926051,70.3065405 L15.6773139,70.3065405 C14.7705038,70.3065405 14.0354152,69.5564869 14.0354152,68.6317572 L14.0354152,51.6868658 C14.0354152,50.7616973 14.7705038,50.0125215 15.6773139,50.0125215 L45.2926051,50.0125215 C46.1985544,50.0125215 46.9349342,50.7616973 46.9349342,51.6868658 L46.9349342,68.6317572 Z" id="Fill-27" fill="#F58521"></path>
                            <path d="M45.9522911,67.7702709 C45.9522911,68.6730563 45.2344177,69.4055545 44.3482658,69.4055545 L15.4245949,69.4055545 C14.5397342,69.4055545 13.8218608,68.6730563 13.8218608,67.7702709 L13.8218608,51.2203755 C13.8218608,50.3175901 14.5397342,49.5855308 15.4245949,49.5855308 L44.3482658,49.5855308 C45.2344177,49.5855308 45.9522911,50.3175901 45.9522911,51.2203755 L45.9522911,67.7702709 Z" id="Fill-29" fill="#F2A421"></path>
                            <mask id="mask-2" fill="white">
                                <use xlink:href="#path-1"></use>
                            </mask>
                            <g id="Clip-32"></g>
                            <polygon id="Fill-31" fill="#FFFFFF" mask="url(#mask-2)" points="15.2324304 65.4685411 20.4438987 65.4685411 20.4438987 63.9846727 15.2324304 63.9846727"></polygon>
                            <polygon id="Fill-33" fill="#FFFFFF" mask="url(#mask-2)" points="21.6907089 65.4685411 26.9021772 65.4685411 26.9021772 63.9846727 21.6907089 63.9846727"></polygon>
                            <polygon id="Fill-34" fill="#FFFFFF" mask="url(#mask-2)" points="28.1498481 65.4685411 33.3608861 65.4685411 33.3608861 63.9846727 28.1498481 63.9846727"></polygon>
                            <polygon id="Fill-35" fill="#FFFFFF" mask="url(#mask-2)" points="34.6081266 65.4685411 39.8195949 65.4685411 39.8195949 63.9846727 34.6081266 63.9846727"></polygon>
                            <polygon id="Fill-36" fill="#FFFFFF" mask="url(#mask-2)" points="15.232 54.0825607 35.4103544 54.0825607 35.4103544 52.4468382 15.232 52.4468382"></polygon>
                            <polygon id="Fill-37" fill="#FCD600" mask="url(#mask-2)" points="37.668557 56.0351578 44.3187848 56.0351578 44.3187848 52.4468382 37.668557 52.4468382"></polygon>
                            <polygon id="Fill-38" fill="#DCA827" mask="url(#mask-2)" points="41.2006835 53.4259895 42.503443 53.4259895 42.503443 52.6855914 41.2006835 52.6855914"></polygon>
                            <polygon id="Fill-39" fill="#DCA827" mask="url(#mask-2)" points="41.2002532 54.4942344 44.0403291 54.4942344 44.0403291 53.7533973 41.2002532 53.7533973"></polygon>
                            <polygon id="Fill-40" fill="#DCA827" mask="url(#mask-2)" points="38.0825823 55.6265564 44.0403291 55.6265564 44.0403291 54.8861582 38.0825823 54.8861582"></polygon>
                            <polygon id="Fill-41" fill="#DCA827" mask="url(#mask-2)" points="42.7371392 53.4259895 44.0403291 53.4259895 44.0403291 52.6855914 42.7371392 52.6855914"></polygon>
                            <path d="M40.7158608,53.8699651 C40.7158608,54.2342392 40.4257848,54.5309251 40.0677089,54.5309251 L38.6861899,54.5309251 C38.3285443,54.5309251 38.0376076,54.2342392 38.0376076,53.8699651 L38.0376076,53.3463759 C38.0376076,52.9816629 38.3285443,52.6854158 38.6861899,52.6854158 L40.0677089,52.6854158 C40.4257848,52.6854158 40.7158608,52.9816629 40.7158608,53.3463759 L40.7158608,53.8699651 Z" id="Fill-42" fill="#DCA827" mask="url(#mask-2)"></path>
                            <polygon id="Fill-43" fill="#DCA827" mask="url(#mask-2)" points="39.0397468 54.9335578 39.6637975 54.9335578 39.6637975 54.5306618 39.0397468 54.5306618"></polygon>
                        </g>
                        <g id="Group-51" transform="translate(13.000000, 49.000000)">
                            <g id="Group-47">
                                <mask id="mask-4" fill="white">
                                    <use xlink:href="#path-3"></use>
                                </mask>
                                <g id="Clip-46"></g>
                                <polygon id="Fill-45" fill="#FFFFFF" mask="url(#mask-4)" points="17.112744 -0.374913043 -4.426576 10.0720435 -2.855776 20.5194348 29.493024 -0.780130435"></polygon>
                            </g>
                            <g id="Group-50">
                                <mask id="mask-6" fill="white">
                                    <use xlink:href="#path-5"></use>
                                </mask>
                                <g id="Clip-49"></g>
                                <polygon id="Fill-48" fill="#FFFFFF" mask="url(#mask-6)" points="42.857892 -0.374913043 2.682812 23.9007391 4.254932 34.3476957 55.238612 -0.780130435"></polygon>
                            </g>
                        </g>
                        <g id="Group-63" transform="translate(5.000000, 9.000000)">
                            <path d="M10,23.5001582 C10,24.3288683 9.2670537,25 8.36166978,25 L1.63833022,25 C0.733291865,25 0,24.3288683 0,23.5001582 C0,22.6717646 0.733291865,22 1.63833022,22 L8.36166978,22 C9.2670537,22 10,22.6717646 10,23.5001582" id="Fill-52" fill="#F2A421"></path>
                            <g id="Group-56" transform="translate(22.000000, 0.000000)">
                                <mask id="mask-8" fill="white">
                                    <use xlink:href="#path-7"></use>
                                </mask>
                                <g id="Clip-55"></g>
                                <path d="M1.75273268,9.89395193 C0.851378474,9.89395193 0.119824658,9.1747715 0.119824658,8.28790652 L0.119824658,1.69671783 C0.119824658,0.809514094 0.851378474,0.0906724231 1.75273268,0.0906724231 C2.65443131,0.0906724231 3.3856407,0.809514094 3.3856407,1.69671783 L3.3856407,8.28790652 C3.3856407,9.1747715 2.65443131,9.89395193 1.75273268,9.89395193" id="Fill-54" fill="#F2A421" mask="url(#mask-8)"></path>
                            </g>
                            <path d="M13.5221068,13.5221222 C12.8845715,14.1592926 11.8511586,14.1592926 11.2139676,13.5221222 L6.47789324,8.78585643 C5.84070225,8.14834178 5.84070225,7.11496219 6.47789324,6.47813599 C7.11508423,5.84062134 8.14884141,5.84062134 8.7860324,6.47813599 L13.5221068,11.2137133 C14.1592977,11.8508837 14.1592977,12.8846075 13.5221068,13.5221222" id="Fill-57" fill="#F2A421"></path>
                            <path d="M37,23.5001582 C37,24.3288683 37.7332919,25 38.6379847,25 L45.3616698,25 C46.266017,25 47,24.3288683 47,23.5001582 C47,22.6717646 46.266017,22 45.3616698,22 L38.6379847,22 C37.7332919,22 37,22.6717646 37,23.5001582" id="Fill-59" fill="#F2A421"></path>
                            <path d="M33.4784045,13.5221222 C34.1152444,14.1592926 35.1486462,14.1592926 35.7858303,13.5221222 L40.5218537,8.78585643 C41.1593821,8.14834178 41.1593821,7.11496219 40.5218537,6.47813599 C39.8850138,5.84062134 38.8509235,5.84062134 38.2144279,6.47813599 L33.4784045,11.2137133 C32.8405318,11.8508837 32.8405318,12.8846075 33.4784045,13.5221222" id="Fill-61" fill="#F2A421"></path>
                        </g>
                    </g>
                </g>
            </g>
        </g>
    </g>
</svg>