<?xml version="1.0" encoding="UTF-8"?>
<svg width="80px" height="80px" viewBox="0 0 80 80" version="1.1" xmlns="http://www.w3.org/2000/svg" xmlns:xlink="http://www.w3.org/1999/xlink">
    <!-- Generator: sketchtool 53.1 (72631) - https://sketchapp.com -->
    <title>C0D6751E-E7F1-450E-8236-DA7FE79093CF</title>
    <desc>Created with sketchtool.</desc>
    <g id="Page-1" stroke="none" stroke-width="1" fill="none" fill-rule="evenodd">
        <g id="Pinang---HiFi-3" transform="translate(-316.000000, -4962.000000)">
            <g id="Features" transform="translate(135.000000, 4431.000000)">
                <g id="-g-icon-4" transform="translate(181.000000, 531.000000)">
                    <circle id="Oval" fill="#278F45" cx="40" cy="40" r="40"></circle>
                    <g id="Untitled-4_Artboard-1-copy-2" stroke-width="1" transform="translate(16.000000, 10.000000)">
                        <rect id="Rectangle" fill="#E7ECEC" fill-rule="nonzero" x="0.67" y="43" width="35.98" height="10.72" rx="2.33"></rect>
                        <rect id="Rectangle" fill="#F2A421" fill-rule="nonzero" x="6.23" y="24.79" width="25.4" height="26.18" rx="2.33"></rect>
                        <path d="M29.29,24.79 L8.56,24.79 C7.27317653,24.79 6.23,25.8331765 6.23,27.12 L6.23,28.12 L31.63,28.12 L31.63,27.12 C31.6244938,25.8315606 30.5784511,24.7899882 29.29,24.79 Z" id="Path" fill="#F58521" fill-rule="nonzero"></path>
                        <path d="M21,30 C20.83,25.72 20.85,21.55 21,17.28 C20.9941355,17.1253404 21.0537057,16.9753675 21.1640927,16.8668838 C21.2744796,16.7584001 21.4254658,16.7014468 21.58,16.71 C23.6081731,16.9789189 25.6557444,17.0725986 27.7,16.99 C27.850696,16.9860883 27.9956732,17.0477652 28.0973626,17.1590479 C28.1990521,17.2703307 28.2474446,17.420266 28.23,17.57 C28.04,21.62 28.02,25.71 28.23,29.75 C28.2443284,29.900764 28.1934776,30.0504559 28.0902813,30.1612964 C27.987085,30.2721368 27.841402,30.3335368 27.69,30.33 C25.6468922,30.2343399 23.5993421,30.314636 21.57,30.57 C21.4180034,30.5727393 21.2714246,30.513566 21.1639293,30.4060707 C21.056434,30.2985754 20.9972607,30.1519966 21,30 Z" id="Path" fill="#278F45" fill-rule="nonzero"></path>
                        <path d="M21.75,18.46 L21.81,18.46 C22.038906,18.4627092 22.259228,18.3729726 22.4211003,18.2111003 C22.5829726,18.049228 22.6727092,17.828906 22.67,17.6 L22.67,17.6 C24.0188992,17.7367401 25.3742259,17.8001667 26.73,17.79 C26.7196062,17.862965 26.7196062,17.937035 26.73,18.01 C26.7354029,18.4827088 27.1172912,18.8645971 27.59,18.87 L27.59,18.87 C27.44,22.08 27.42,25.3 27.59,28.52 L27.59,28.52 C27.3406211,28.5292808 27.1065948,28.6428341 26.9449732,28.8329772 C26.7833515,29.0231203 26.7089839,29.2723834 26.74,29.52 C25.4049524,29.499244 24.0697435,29.5493144 22.74,29.67 L22.74,29.67 C22.74,29.1950351 22.3549649,28.81 21.88,28.81 L21.73,28.81 C21.57,25.31 21.58,21.93 21.75,18.46 Z" id="Path" fill="#BDDB91" fill-rule="nonzero"></path>
                        <path d="M25.25,19.86 C25.25,20.1692795 24.9992795,20.42 24.69,20.42 C24.3807205,20.42 24.13,20.1692795 24.13,19.86 C24.13,19.5507205 24.3807205,19.3 24.69,19.3 C24.8385212,19.3 24.9809594,19.3589998 25.0859798,19.4640202 C25.1910002,19.5690406 25.25,19.7114788 25.25,19.86 Z" id="Path" fill="#86AC63" fill-rule="nonzero"></path>
                        <path d="M25.22,27.38 C25.2490685,27.5960691 25.1500953,27.8093678 24.9663333,27.926681 C24.7825713,28.0439942 24.5474287,28.0439942 24.3636667,27.926681 C24.1799047,27.8093678 24.0809315,27.5960691 24.11,27.38 C24.107147,27.2315221 24.1655672,27.0884226 24.271518,26.9843638 C24.3774688,26.880305 24.5215976,26.8244724 24.67,26.83 C24.9737566,26.83 25.22,27.0762434 25.22,27.38 L25.22,27.38 Z" id="Path" fill="#86AC63" fill-rule="nonzero"></path>
                        <path d="M24.57,26 C23.5934982,25.991762 22.7184891,25.3950604 22.354249,24.4889959 C21.9900089,23.5829314 22.2085438,22.5466225 22.9076363,21.8647916 C23.6067287,21.1829607 24.6481764,20.9903978 25.5448531,21.3771722 C26.4415299,21.7639465 27.0161733,22.6535974 27,23.63 C26.9727161,24.9508614 25.8911306,26.005741 24.57,26 Z" id="Path" fill="#86AC63" fill-rule="nonzero"></path>
                        <path d="M24.11,23.52 C24.0550731,23.5398582 23.9949269,23.5398582 23.94,23.52 C23.8818419,23.5009523 23.8322667,23.4620003 23.8,23.41 L23.8,23.41 C23.7714743,23.3533905 23.7714743,23.2866095 23.8,23.23 C23.8160083,23.1677126 23.8554047,23.1139903 23.91,23.08 L24.44,22.77 L24.44,22.57 L24,22.57 C23.9387583,22.5724149 23.8797904,22.5466165 23.84,22.5 C23.7940486,22.4555284 23.7686861,22.3939338 23.77,22.33 L23.77,22.33 C23.765971,22.2655875 23.7917836,22.2028997 23.84,22.16 C23.8830701,22.1192581 23.9407608,22.0976241 24,22.1 L25.4,22.1 C25.4633005,22.1018514 25.5237492,22.1267421 25.57,22.17 C25.6175105,22.21755 25.6429029,22.2828448 25.64,22.35 L25.64,22.86 C25.6442943,22.8864938 25.6442943,22.9135062 25.64,22.94 L25.64,22.94 C25.5955339,23.2431105 25.33635,23.468303 25.03,23.47 C24.9007353,23.4666985 24.7753927,23.4249176 24.67,23.35 C24.6294589,23.3250747 24.5924597,23.2948026 24.56,23.26 L24.11,23.52 Z M24.79,22.6 L24.79,22.77 C24.7875851,22.8312417 24.8133835,22.8902096 24.86,22.93 C24.8970476,22.9689834 24.9465847,22.9937519 25,23 C25.0667621,23.0006432 25.1312131,22.9755789 25.18,22.93 C25.2244094,22.888609 25.2497415,22.830707 25.25,22.77 L25.25,22.6 L24.79,22.6 Z" id="Shape" fill="#BDDB91" fill-rule="nonzero"></path>
                        <path d="M23.82,24.19 L23.44,24.19 C23.3766995,24.1881486 23.3162508,24.1632579 23.27,24.12 C23.2369564,24.0865156 23.2128821,24.0452453 23.2,24 L23.2,24 C23.2018514,23.9366995 23.2267421,23.8762508 23.27,23.83 C23.3144716,23.7840486 23.3760662,23.7586861 23.44,23.76 L25.05,23.76 C25.0757215,23.7499593 25.1042785,23.7499593 25.13,23.76 C25.141676,23.7888639 25.141676,23.8211361 25.13,23.85 L25.13,24.1 C25.1331896,24.1300388 25.1226298,24.1599097 25.1012697,24.1812697 C25.0799097,24.2026298 25.0500388,24.2131896 25.02,24.21 L25.07,24.21 C25.1143723,24.2963983 25.135074,24.3930061 25.13,24.49 C25.1631533,24.6708249 25.1156688,24.8571102 25,25 C24.8693587,25.1274229 24.692393,25.1960422 24.51,25.19 C24.3263604,25.1922378 24.1496239,25.1201005 24.02,24.99 C23.8851948,24.8711701 23.8085791,24.6996969 23.81,24.52 C23.7794605,24.4115715 23.7829511,24.2963804 23.82,24.19 Z M24.45,24.68 C24.5370438,24.6832463 24.6223127,24.6548233 24.69,24.6 C24.7508995,24.5648518 24.7888679,24.5003054 24.79,24.43 C24.7949165,24.3901511 24.7949165,24.3498489 24.79,24.31 C24.7624804,24.2305227 24.6835909,24.1806978 24.6,24.19 L24.27,24.19 C24.2192496,24.219125 24.1803232,24.2651289 24.16,24.32 C24.1257129,24.3928332 24.1257129,24.4771668 24.16,24.55 C24.1772562,24.5941045 24.2143278,24.6274689 24.26,24.64 C24.316102,24.6513132 24.373898,24.6513132 24.43,24.64 L24.45,24.68 Z" id="Shape" fill="#BDDB91" fill-rule="nonzero"></path>
                        <path d="M22.27,2.85 C20.77,3.77 19.27,4.59 17.71,5.37 C17.6583202,5.40490657 17.5937992,5.41503764 17.5339081,5.39764992 C17.474017,5.38026219 17.4249524,5.33715463 17.4,5.28 C17.0878529,4.48969391 16.7098567,3.72701139 16.27,3 C16.2396734,2.94493858 16.2343488,2.87953424 16.25537,2.82029259 C16.2763913,2.76105095 16.3217502,2.71363108 16.38,2.69 C17.86,1.95 19.32,1.14 20.73,0.28 C20.7807093,0.243461594 20.8445665,0.230216819 20.9056246,0.243573279 C20.9666827,0.25692974 21.0191777,0.295626553 21.05,0.35 C21.4224394,1.09859053 21.857312,1.8144577 22.35,2.49 C22.4020842,2.5431579 22.4237629,2.61904399 22.4076187,2.69169305 C22.3914745,2.76434211 22.3396961,2.82390438 22.27,2.85 L22.27,2.85 Z" id="Path" fill="#278F45" fill-rule="nonzero"></path>
                        <path d="M18,4.88 C17.9037886,4.7117115 17.6915974,4.6498224 17.52,4.74 L17.52,4.74 C17.2961771,4.2305836 17.0458344,3.7332361 16.77,3.25 L16.86,3.25 C16.9412252,3.20390082 17.0006569,3.12725029 17.0250718,3.03710278 C17.0494868,2.94695527 17.0368597,2.85078883 16.99,2.77 L16.99,2.77 C18.17,2.19 19.32,1.55 20.44,0.86 L20.44,0.86 C20.4860992,0.941225173 20.5627497,1.00065686 20.6528972,1.02507181 C20.7430447,1.04948676 20.8392112,1.03685967 20.92,0.99 L20.98,0.99 C21.235694,1.46436183 21.5160788,1.92499385 21.82,2.37 L21.82,2.37 C21.6517115,2.46621143 21.5898224,2.67840262 21.68,2.85 C21.6771281,2.8698969 21.6771281,2.8901031 21.68,2.91 C20.49,3.58 19.28,4.25 18,4.88 Z" id="Path" fill="#BDDB91" fill-rule="nonzero"></path>
                        <path d="M17.81,3.35 C17.8914461,3.30439911 17.9923755,3.31254499 18.0654542,3.37061737 C18.138533,3.42868976 18.1692666,3.52517055 18.1432417,3.6148121 C18.1172167,3.70445365 18.0395949,3.76947642 17.9467795,3.77938597 C17.853964,3.78929552 17.764364,3.74212639 17.72,3.66 C17.660272,3.54943183 17.7003477,3.41139326 17.81,3.35 Z" id="Path" fill="#86AC63" fill-rule="nonzero"></path>
                        <path d="M20.5,1.86 C20.5814461,1.81439911 20.6823755,1.82254499 20.7554542,1.88061737 C20.828533,1.93868976 20.8592666,2.03517055 20.8332417,2.1248121 C20.8072167,2.21445365 20.7295949,2.27947642 20.6367795,2.28938597 C20.543964,2.29929552 20.454364,2.25212639 20.41,2.17 C20.350272,2.05943183 20.3903477,1.92139326 20.5,1.86 L20.5,1.86 Z" id="Path" fill="#86AC63" fill-rule="nonzero"></path>
                        <path d="M20.15,2.36 C20.4046955,2.83854082 20.2317169,3.43287772 19.76,3.7 C19.2927084,3.91118959 18.7413987,3.73468119 18.4836556,3.29136303 C18.2259125,2.84804486 18.3452779,2.28160911 18.76,1.98 C18.993495,1.84077559 19.2736091,1.80261372 19.5358382,1.87430226 C19.7980673,1.94599079 20.0198087,2.12135055 20.15,2.36 Z" id="Path" fill="#86AC63" fill-rule="nonzero"></path>
                        <path d="M19.34,3 C19.3562386,2.99465789 19.3737614,2.99465789 19.39,3 C19.3948892,3.02644256 19.3948892,3.05355744 19.39,3.08 L19.39,3.08 C19.3710138,3.08900593 19.3489862,3.08900593 19.33,3.08 C19.3090843,3.09502137 19.2809157,3.09502137 19.26,3.08 L19,3.07 L18.93,3.07 L19.01,3.21 C19.0242906,3.23475209 19.0242906,3.26524791 19.01,3.29 C18.9998772,3.31465215 18.9824226,3.33559768 18.96,3.35 L18.88,3.35 C18.8635182,3.35351074 18.8464818,3.35351074 18.83,3.35 L18.55,2.85 C18.5405542,2.82762264 18.5405542,2.80237736 18.55,2.78 C18.5607642,2.75296851 18.5779208,2.7289493 18.6,2.71 L18.78,2.61 L18.78,2.61 C18.8349269,2.59014181 18.8950731,2.59014181 18.95,2.61 C19.0081581,2.62904766 19.0577333,2.66799966 19.09,2.72 C19.0994589,2.76955265 19.0994589,2.82044735 19.09,2.87 C19.0917174,2.88996313 19.0917174,2.91003687 19.09,2.93 L19.34,3 Z M18.88,3 L18.94,3 C18.94,3 18.94,3 18.94,2.94 C18.9542906,2.91524791 18.9542906,2.88475209 18.94,2.86 C18.9276045,2.83588923 18.9059508,2.81784448 18.88,2.81 C18.8590843,2.79497863 18.8309157,2.79497863 18.81,2.81 L18.75,2.81 L18.88,3 Z" id="Shape" fill="#BDDB91" fill-rule="nonzero"></path>
                        <path d="M19.64,3 L19.72,3.14 C19.73075,3.16209516 19.73075,3.18790484 19.72,3.21 C19.72,3.21 19.72,3.21 19.72,3.27 L19.6,3.27 C19.5740492,3.26215552 19.5523955,3.24411077 19.54,3.22 L19.22,2.64 L19.22,2.64 L19.22,2.64 L19.31,2.59 L19.31,2.59 L19.31,2.59 L19.31,2.59 C19.31,2.59 19.31,2.59 19.39,2.51 C19.4578682,2.48556825 19.5321318,2.48556825 19.6,2.51 C19.6723657,2.53342784 19.7331306,2.58346948 19.77,2.65 C19.8000162,2.72026184 19.8000162,2.79973816 19.77,2.87 C19.7543335,2.94085486 19.7061474,3.00016081 19.64,3.03 C19.6392093,3.02001563 19.6392093,3.00998437 19.64,3 L19.64,3 Z M19.69,2.68 C19.6715888,2.64618945 19.6438105,2.61841119 19.61,2.6 L19.53,2.6 L19.53,2.6 C19.5081587,2.62602465 19.5081587,2.66397535 19.53,2.69 L19.59,2.81 C19.6120952,2.82075004 19.6379048,2.82075004 19.66,2.81 C19.685505,2.82113131 19.714495,2.82113131 19.74,2.81 C19.7461554,2.79390166 19.7461554,2.77609834 19.74,2.76 C19.7443353,2.73686804 19.7443353,2.71313196 19.74,2.69 L19.69,2.68 Z" id="Shape" fill="#BDDB91" fill-rule="nonzero"></path>
                        <path d="M18.41,32 C16.65,28.09 15.11,24.23 13.69,20.19 C13.6286135,20.0472638 13.6292892,19.8854394 13.6918654,19.7432208 C13.7544416,19.6010021 13.8732926,19.4911749 14.02,19.44 C16.0002758,18.9397176 17.9340215,18.2706015 19.8,17.44 C19.9387778,17.3828871 20.0952623,17.3872844 20.2306138,17.4521006 C20.3659652,17.5169168 20.4674939,17.6360751 20.51,17.78 C21.84,21.61 23.36,25.4 25.03,29.09 C25.0999053,29.2239707 25.1093001,29.3814105 25.0558227,29.5227437 C25.0023452,29.6640769 24.8910815,29.7758622 24.75,29.83 C22.8204715,30.5106665 20.9507278,31.3502115 19.16,32.34 C19.0162585,32.4042491 18.8518742,32.4038147 18.7084743,32.3388067 C18.5650744,32.2737988 18.4564106,32.1504514 18.41,32 Z" id="Path" fill="#278F45" fill-rule="nonzero"></path>
                        <path d="M14.8,21.07 L14.85,21.07 C15.0642332,20.987711 15.2360888,20.8222912 15.3264908,20.6113532 C15.4168928,20.4004152 15.4181585,20.1618854 15.33,19.95 C16.6333468,19.5693857 17.9152097,19.1187307 19.17,18.6 C19.1723626,18.6726518 19.189369,18.7440788 19.22,18.81 C19.302289,19.0242332 19.4677088,19.1960888 19.6786468,19.2864908 C19.8895848,19.3768928 20.1281146,19.3781585 20.34,19.29 L20.39,19.29 C21.4366667,22.33 22.63,25.33 23.97,28.29 L23.92,28.29 C23.7075431,28.3745166 23.537489,28.5401597 23.4474192,28.7503225 C23.3573494,28.9604853 23.3546797,29.1978646 23.44,29.41 L23.51,29.55 C22.2794611,30.0272075 21.0745084,30.5679343 19.9,31.17 L19.9,31.17 C19.7197565,30.7316164 19.2217561,30.5181877 18.78,30.69 L18.64,30.77 C17.19,27.48 15.94,24.35 14.8,21.07 Z" id="Path" fill="#BDDB91" fill-rule="nonzero"></path>
                        <path d="M18.57,21.06 C18.685324,21.3467487 18.5465333,21.6727114 18.2598951,21.7883097 C17.9732569,21.903908 17.6471616,21.7654291 17.5312891,21.4789016 C17.4154167,21.1923741 17.5535835,20.8661465 17.84,20.75 C17.9778932,20.6940821 18.1323716,20.6953433 18.2693334,20.7535051 C18.4062953,20.811667 18.514478,20.9219469 18.57,21.06 Z" id="Path" fill="#86AC63" fill-rule="nonzero"></path>
                        <path d="M21.36,28 C21.475324,28.2867487 21.3365333,28.6127114 21.0498951,28.7283097 C20.7632569,28.843908 20.4371616,28.7054291 20.3212891,28.4189016 C20.2054167,28.1323741 20.3435835,27.8061465 20.63,27.69 C20.9171193,27.5793598 21.2402258,27.7165694 21.36,28 L21.36,28 Z" id="Path" fill="#86AC63" fill-rule="nonzero"></path>
                        <path d="M20.24,27 C19.3350582,27.3634532 18.3002717,27.1457166 17.618534,26.4483991 C16.9367964,25.7510816 16.7424933,24.7116401 17.1262983,23.8151405 C17.5101032,22.9186408 18.3963597,22.3418031 19.3714872,22.3538144 C20.3466147,22.3658258 21.2183938,22.9643185 21.58,23.87 C21.8194642,24.4625816 21.8126727,25.1262023 21.5611309,25.7137589 C21.3095891,26.3013155 20.8340769,26.7642699 20.24,27 Z" id="Path" fill="#86AC63" fill-rule="nonzero"></path>
                        <path d="M18.89,24.88 C18.8496467,24.9271642 18.7919434,24.9560159 18.73,24.96 C18.6758664,24.9839618 18.6141336,24.9839618 18.56,24.96 L18.56,24.96 C18.503235,24.9254866 18.4661488,24.8661485 18.46,24.8 C18.4547171,24.7359619 18.4724457,24.6721389 18.51,24.62 L18.88,24.14 L18.81,23.95 L18.43,24.1 C18.3738062,24.130224 18.3061938,24.130224 18.25,24.1 C18.1911291,24.0756397 18.1443603,24.0288709 18.12,23.97 L18.12,23.97 C18.0949955,23.9091347 18.0949955,23.8408653 18.12,23.78 C18.1446321,23.7235709 18.1917838,23.6800463 18.25,23.66 L19.55,23.14 C19.6061938,23.109776 19.6738062,23.109776 19.73,23.14 C19.7915823,23.1656106 19.8390149,23.2166919 19.86,23.28 L20.05,23.75 L20.05,23.83 L20.05,23.83 C20.0807136,23.975946 20.0594917,24.1280361 19.99,24.26 C19.9258224,24.3891994 19.8150427,24.4892584 19.68,24.54 C19.5565643,24.5804599 19.4234357,24.5804599 19.3,24.54 L19.16,24.54 L18.89,24.88 Z M19.16,23.77 L19.23,23.93 C19.2474508,23.9875295 19.2924705,24.0325492 19.35,24.05 C19.4097119,24.0802891 19.4802881,24.0802891 19.54,24.05 C19.6041974,24.026438 19.6575527,23.9801967 19.69,23.92 C19.7144532,23.8624915 19.7144532,23.7975085 19.69,23.74 L19.63,23.58 L19.16,23.77 Z" id="Shape" fill="#BDDB91" fill-rule="nonzero"></path>
                        <path d="M18.87,25.6 L18.51,25.75 C18.4524915,25.7744532 18.3875085,25.7744532 18.33,25.75 C18.2689927,25.728945 18.221055,25.6810073 18.2,25.62 L18.2,25.62 C18.1697109,25.5602881 18.1697109,25.4897119 18.2,25.43 C18.2223237,25.3719666 18.270369,25.3276171 18.33,25.31 L19.82,24.71 C19.8491823,24.7000943 19.8808177,24.7000943 19.91,24.71 C19.9413402,24.7205401 19.9643771,24.7474165 19.97,24.78 L20.06,25.01 C20.078475,25.0371556 20.078475,25.0728444 20.06,25.1 C20.0521555,25.1259508 20.0341108,25.1476045 20.01,25.16 L20.01,25.16 C20.0810274,25.2227074 20.1359081,25.3015983 20.17,25.39 C20.2448711,25.5552482 20.2448711,25.7447518 20.17,25.91 C20.0935218,26.0796841 19.9534716,26.2125522 19.78,26.28 C19.6101619,26.3494661 19.4198381,26.3494661 19.25,26.28 C19.0781142,26.2173023 18.9426977,26.0818858 18.88,25.91 C18.8431878,25.8104754 18.8396786,25.7016902 18.87,25.6 L18.87,25.6 Z M19.63,25.82 C19.7104695,25.7866762 19.7798249,25.7311919 19.83,25.66 C19.8587582,25.5999313 19.8587582,25.5300687 19.83,25.47 C19.8200932,25.4286673 19.7993875,25.3907069 19.77,25.36 C19.7097928,25.307636 19.6202072,25.307636 19.56,25.36 L19.25,25.48 C19.2137993,25.5251445 19.1959458,25.5822758 19.2,25.64 C19.1984186,25.7218385 19.2354687,25.7996437 19.3,25.85 C19.342344,25.8630953 19.387656,25.8630953 19.43,25.85 C19.4829051,25.8595576 19.5370949,25.8595576 19.59,25.85 L19.63,25.82 Z" id="Shape" fill="#BDDB91" fill-rule="nonzero"></path>
                        <path d="M20.29,23.56 C20.5899541,24.4457501 20.326279,25.4249651 19.6221155,26.0403345 C18.9179521,26.6557039 17.9122388,26.7858092 17.0746613,26.3698889 C16.2370839,25.9539686 15.7329047,25.0740879 15.7975843,24.1411666 C15.8622638,23.2082453 16.4830402,22.4063579 17.37,22.11 C18.5765504,21.706858 19.881966,22.3550952 20.29,23.56 Z" id="Path" fill="#F2A421" fill-rule="nonzero"></path>
                        <path d="M18.75,26.26 C17.9564604,26.5280064 17.0796174,26.2913959 16.5286206,25.6605749 C15.9776239,25.0297539 15.8610748,24.1290572 16.2333572,23.378765 C16.6056396,22.6284729 17.3933766,22.1764677 18.2289969,22.2336628 C19.0646171,22.2908579 19.78342,22.8459801 20.05,23.64 C20.2273151,24.1597594 20.1897544,24.7288038 19.9456603,25.2207475 C19.7015661,25.7126911 19.2711471,26.0868058 18.75,26.26 L18.75,26.26 Z M17.51,22.57 C16.552704,22.8933422 16.0386274,23.9313573 16.3616314,24.8887675 C16.6846353,25.8461778 17.7224687,26.360621 18.679993,26.0379554 C19.6375173,25.7152898 20.1523273,24.6776383 19.83,23.72 C19.6750671,23.2596924 19.3435065,22.879854 18.9083513,22.6641521 C18.4731962,22.4484502 17.9701431,22.4145792 17.51,22.57 L17.51,22.57 Z" id="Shape" fill="#F1F1F2" fill-rule="nonzero"></path>
                        <path d="M18.61,25.82 C18.61,25.82 18.61,25.82 18.61,25.82 L18.61,25.71 L18.61,25.71 C18.61,25.71 18.61,25.71 18.61,25.71 L18.61,25.82 C18.61,25.82 18.63,25.81 18.61,25.82 Z" id="Path" fill="#F58621" fill-rule="nonzero"></path>
                        <path d="M17.63,22.88 L17.63,22.77 C17.63,22.77 17.63,22.77 17.63,22.77 C17.63,22.77 17.63,22.77 17.63,22.77 L17.63,22.88 C17.63,22.88 17.64,22.88 17.63,22.88 Z" id="Path" fill="#F58621" fill-rule="nonzero"></path>
                        <path d="M18.77,25.76 C18.77,25.76 18.77,25.76 18.77,25.76 L18.77,25.66 L18.82,25.76 C18.82,25.76 18.82,25.76 18.82,25.76 L18.77,25.76 Z" id="Path" fill="#F58621" fill-rule="nonzero"></path>
                        <path d="M17.48,22.94 C17.48,22.94 17.48,22.94 17.48,22.94 L17.43,22.83 C17.43,22.83 17.43,22.83 17.43,22.83 L17.43,22.83 L17.48,22.94 C17.48,22.94 17.48,22.94 17.48,22.94 Z" id="Path" fill="#F58621" fill-rule="nonzero"></path>
                        <path d="M18.92,25.68 L18.92,25.68 L18.86,25.58 L18.86,25.58 L18.92,25.68 C18.92,25.68 18.92,25.68 18.92,25.68 Z" id="Path" fill="#F58621" fill-rule="nonzero"></path>
                        <path d="M17.34,23 C17.34,23 17.34,23 17.34,23 L17.34,22.9 C17.34,22.9 17.34,22.9 17.34,22.9 C17.34,22.9 17.34,22.9 17.34,22.9 L17.4,23 L17.34,23 Z" id="Path" fill="#F58621" fill-rule="nonzero"></path>
                        <path d="M19.06,25.59 C19.06,25.59 19.06,25.59 19.06,25.59 L19,25.49 C19,25.49 19,25.49 19,25.49 C19,25.49 19,25.49 19,25.49 L19.07,25.58 L19.06,25.59 Z" id="Path" fill="#F58621" fill-rule="nonzero"></path>
                        <polygon id="Path" fill="#F58621" fill-rule="nonzero" points="17.21 23.1 17.21 23.1 17.12 23 17.12 23 17.18 23.09"></polygon>
                        <path d="M19.18,25.48 L19.18,25.48 L19.1,25.4 C19.1,25.4 19.1,25.4 19.1,25.4 L19.17,25.48 C19.17,25.48 19.17,25.48 19.17,25.48 L19.18,25.48 Z" id="Path" fill="#F58621" fill-rule="nonzero"></path>
                        <path d="M17.09,23.2 C17.09,23.2 17.09,23.2 17.09,23.2 L17,23.11 C17,23.11 17,23.11 17,23.11 L17.07,23.19 L17.09,23.2 Z" id="Path" fill="#F58621" fill-rule="nonzero"></path>
                        <path d="M19.3,25.36 L19.3,25.36 L19.21,25.28 C19.21,25.28 19.21,25.28 19.21,25.28 L19.3,25.36 Z" id="Path" fill="#F58621" fill-rule="nonzero"></path>
                        <path d="M17,23.31 L17,23.31 L16.91,23.23 L16.91,23.23 L16.99,23.31 C16.99,23.31 16.99,23.31 16.99,23.31 L17,23.31 Z" id="Path" fill="#F58621" fill-rule="nonzero"></path>
                        <path d="M19.41,25.23 L19.41,25.23 L19.32,25.16 C19.32,25.16 19.32,25.16 19.32,25.16 L19.41,25.23 Z" id="Path" fill="#F58621" fill-rule="nonzero"></path>
                        <path d="M16.89,23.44 L16.89,23.44 L16.8,23.38 L16.8,23.38 L16.89,23.45 C16.89,23.45 16.89,23.45 16.89,23.45 L16.89,23.44 Z" id="Path" fill="#F58621" fill-rule="nonzero"></path>
                        <polygon id="Path" fill="#F58621" fill-rule="nonzero" points="19.49 25.09 19.49 25.09 19.39 25.03 19.49 25.03"></polygon>
                        <path d="M16.8,23.57 L16.8,23.57 L16.7,23.51 C16.7,23.51 16.7,23.51 16.7,23.51 C16.7,23.51 16.7,23.51 16.7,23.51 L16.8,23.56 C16.8,23.56 16.8,23.56 16.8,23.56 L16.8,23.57 Z" id="Path" fill="#F58621" fill-rule="nonzero"></path>
                        <path d="M19.57,24.94 L19.57,24.94 L19.47,24.94 C19.47,24.94 19.47,24.94 19.47,24.94 C19.47,24.94 19.47,24.94 19.47,24.94 L19.57,24.94 C19.57,24.94 19.57,24.94 19.57,24.94 Z" id="Path" fill="#F58621" fill-rule="nonzero"></path>
                        <path d="M16.73,23.71 L16.73,23.71 L16.63,23.66 C16.63,23.66 16.63,23.66 16.63,23.66 C16.63,23.66 16.63,23.66 16.63,23.66 L16.73,23.66 C16.73,23.66 16.73,23.66 16.73,23.66 L16.73,23.71 Z" id="Path" fill="#F58621" fill-rule="nonzero"></path>
                        <path d="M19.63,24.78 L19.63,24.78 L19.52,24.78 C19.52,24.78 19.52,24.78 19.52,24.78 L19.63,24.78 C19.63,24.78 19.63,24.78 19.63,24.78 Z" id="Path" fill="#F58621" fill-rule="nonzero"></path>
                        <path d="M16.68,23.86 L16.68,23.86 L16.57,23.86 C16.57,23.86 16.57,23.86 16.57,23.86 L16.57,23.86 L16.68,23.86 Z" id="Path" fill="#F58621" fill-rule="nonzero"></path>
                        <path d="M19.67,24.62 L19.67,24.62 L19.55,24.62 C19.55,24.62 19.55,24.62 19.55,24.62 L19.55,24.62 L19.67,24.62 L19.67,24.62 Z" id="Path" fill="#F58621" fill-rule="nonzero"></path>
                        <path d="M16.64,24 L16.64,24 L16.53,24 C16.53,24 16.53,24 16.53,24 L16.64,24 C16.64,24 16.64,24 16.64,24 Z" id="Path" fill="#F58621" fill-rule="nonzero"></path>
                        <path d="M19.69,24.46 L19.57,24.46 C19.57,24.46 19.57,24.46 19.57,24.46 L19.69,24.46 L19.69,24.46 C19.69,24.46 19.7,24.45 19.69,24.46 Z" id="Path" fill="#F58621" fill-rule="nonzero"></path>
                        <path d="M16.61,24.16 L16.49,24.16 C16.49,24.16 16.49,24.16 16.49,24.16 L16.49,24.16 L16.61,24.16 C16.61,24.16 16.61,24.16 16.61,24.16 Z" id="Path" fill="#F58621" fill-rule="nonzero"></path>
                        <path d="M19.7,24.29 L19.58,24.29 C19.58,24.29 19.58,24.29 19.58,24.29 L19.69,24.29 L19.7,24.29 Z" id="Path" fill="#F58621" fill-rule="nonzero"></path>
                        <path d="M16.61,24.32 L16.48,24.32 C16.48,24.32 16.48,24.32 16.48,24.32 L16.6,24.32 L16.6,24.32 C16.6,24.32 16.62,24.32 16.61,24.32 Z" id="Path" fill="#F58621" fill-rule="nonzero"></path>
                        <polygon id="Path" fill="#F58621" fill-rule="nonzero" points="19.69 24.12 19.69 24.12 19.57 24.12 19.57 24.12 19.68 24.12"></polygon>
                        <path d="M16.62,24.47 L16.5,24.47 C16.5,24.47 16.5,24.47 16.5,24.47 C16.5,24.47 16.5,24.47 16.5,24.47 L16.62,24.47 C16.62,24.47 16.62,24.47 16.62,24.47 C16.62,24.47 16.63,24.47 16.62,24.47 Z" id="Path" fill="#F58621" fill-rule="nonzero"></path>
                        <path d="M19.66,24 L19.66,24 L19.55,24 C19.55,24 19.55,24 19.55,24 C19.55,24 19.55,24 19.55,24 L19.66,24 L19.66,24 C19.66,24 19.68,24 19.66,24 Z" id="Path" fill="#F58621" fill-rule="nonzero"></path>
                        <path d="M16.64,24.63 L16.64,24.63 L16.53,24.63 C16.53,24.63 16.53,24.63 16.53,24.63 C16.53,24.63 16.53,24.63 16.53,24.63 L16.64,24.63 L16.64,24.63 C16.64,24.63 16.65,24.63 16.64,24.63 Z" id="Path" fill="#F58621" fill-rule="nonzero"></path>
                        <path d="M19.62,23.8 L19.51,23.8 C19.51,23.8 19.51,23.8 19.51,23.8 L19.62,23.8 C19.62,23.8 19.62,23.8 19.62,23.8 C19.62,23.8 19.63,23.79 19.62,23.8 Z" id="Path" fill="#F58621" fill-rule="nonzero"></path>
                        <path d="M16.68,24.78 L16.58,24.78 L16.58,24.78 C16.58,24.78 16.58,24.78 16.58,24.78 L16.69,24.78 L16.69,24.78 C16.69,24.78 16.7,24.78 16.68,24.78 Z" id="Path" fill="#F58621" fill-rule="nonzero"></path>
                        <path d="M16.64,25 L16.74,25 C16.74,25 16.74,25 16.74,25 L16.64,25 Z" id="Path" fill="#F58621" fill-rule="nonzero"></path>
                        <path d="M19.45,23.69 L19.45,23.69 C19.45,23.69 19.45,23.69 19.45,23.69 L19.56,23.69 C19.56,23.69 19.56,23.69 19.56,23.69 L19.46,23.69 L19.45,23.69 Z" id="Path" fill="#F58621" fill-rule="nonzero"></path>
                        <path d="M16.72,25.12 C16.72,25.12 16.72,25.12 16.72,25.12 L16.82,25.06 C16.82,25.06 16.82,25.06 16.82,25.06 L16.72,25.12 Z" id="Path" fill="#F58621" fill-rule="nonzero"></path>
                        <path d="M19.38,23.55 C19.38,23.55 19.38,23.55 19.38,23.55 L19.48,23.49 C19.48,23.49 19.48,23.49 19.48,23.49 L19.39,23.55 L19.38,23.55 Z" id="Path" fill="#F58621" fill-rule="nonzero"></path>
                        <path d="M16.81,25.26 C16.81,25.26 16.81,25.26 16.81,25.26 L16.9,25.19 C16.9,25.19 16.9,25.19 16.9,25.19 L16.81,25.26 Z" id="Path" fill="#F58621" fill-rule="nonzero"></path>
                        <path d="M19.3,23.42 L19.4,23.35 C19.4,23.35 19.4,23.35 19.4,23.35 C19.4,23.35 19.4,23.35 19.4,23.35 L19.31,23.42 L19.3,23.42 Z" id="Path" fill="#F58621" fill-rule="nonzero"></path>
                        <polygon id="Path" fill="#F58621" fill-rule="nonzero" points="16.92 25.39 16.92 25.39 17.01 25.32 17.01 25.32 16.92 25.4"></polygon>
                        <path d="M19.2,23.3 C19.2,23.3 19.2,23.3 19.2,23.3 L19.29,23.22 C19.29,23.22 19.29,23.22 19.29,23.22 L19.21,23.3 L19.2,23.3 Z" id="Path" fill="#F58621" fill-rule="nonzero"></path>
                        <path d="M17,25.51 C17,25.51 17,25.51 17,25.51 L17.08,25.43 L17.08,25.43 L17.01,25.52 L17,25.51 Z" id="Path" fill="#F58621" fill-rule="nonzero"></path>
                        <polygon id="Path" fill="#F58621" fill-rule="nonzero" points="19.09 23.19 19.17 23.11 19.17 23.11 19.1 23.2"></polygon>
                        <path d="M17.17,25.62 L17.17,25.62 C17.17,25.62 17.17,25.62 17.17,25.62 L17.24,25.53 C17.24,25.53 17.24,25.53 17.24,25.53 C17.24,25.53 17.24,25.53 17.24,25.53 L17.17,25.62 Z" id="Path" fill="#F58621" fill-rule="nonzero"></path>
                        <path d="M19,23.1 L19,23.1 C19,23.1 19,23.1 19,23.1 L19,23 L18.94,23.1 L19,23.1 Z" id="Path" fill="#F58621" fill-rule="nonzero"></path>
                        <path d="M17.31,25.71 L17.31,25.71 L17.37,25.61 L17.37,25.61 C17.37,25.61 17.37,25.61 17.37,25.61 L17.31,25.71 Z" id="Path" fill="#F58621" fill-rule="nonzero"></path>
                        <path d="M18.83,23 C18.83,23 18.83,23 18.83,23 C18.83,23 18.83,23 18.83,23 L18.89,22.9 C18.89,22.9 18.89,22.9 18.89,22.9 C18.89,22.9 18.89,22.9 18.89,22.9 L18.89,23 L18.83,23 Z" id="Path" fill="#F58621" fill-rule="nonzero"></path>
                        <path d="M17.46,25.78 L17.46,25.78 C17.46,25.78 17.46,25.78 17.46,25.78 L17.51,25.67 L17.51,25.67 C17.51,25.67 17.51,25.67 17.51,25.67 L17.51,25.78 L17.46,25.78 Z" id="Path" fill="#F58621" fill-rule="nonzero"></path>
                        <path d="M18.7,23 C18.7,23 18.7,23 18.7,23 C18.7,23 18.7,23 18.7,23 L18.75,22.9 C18.75,22.9 18.75,22.9 18.75,22.9 L18.7,23 C18.7,23 18.7,22.94 18.7,23 Z" id="Path" fill="#F58621" fill-rule="nonzero"></path>
                        <path d="M17.62,25.84 L17.62,25.84 C17.62,25.84 17.62,25.84 17.62,25.84 L17.62,25.73 C17.62,25.73 17.62,25.73 17.62,25.73 C17.62,25.73 17.62,25.73 17.62,25.73 L17.62,25.84 Z" id="Path" fill="#F58621" fill-rule="nonzero"></path>
                        <path d="M18.55,22.89 L18.55,22.89 L18.55,22.78 L18.55,22.78 C18.55,22.78 18.55,22.78 18.55,22.78 L18.55,22.88 L18.55,22.89 Z" id="Path" fill="#F58621" fill-rule="nonzero"></path>
                        <path d="M17.78,25.88 L17.78,25.88 L17.78,25.88 L17.78,25.76 C17.78,25.76 17.78,25.76 17.78,25.76 L17.78,25.88 C17.78,25.88 17.79,25.88 17.78,25.88 Z" id="Path" fill="#F58621" fill-rule="nonzero"></path>
                        <path d="M18.4,22.85 L18.4,22.85 C18.4,22.85 18.4,22.85 18.4,22.85 L18.4,22.74 L18.4,22.74 C18.4,22.74 18.4,22.74 18.4,22.74 L18.4,22.85 Z" id="Path" fill="#F58621" fill-rule="nonzero"></path>
                        <path d="M18,25.91 L18,25.91 C18,25.91 18,25.91 18,25.91 L18,25.8 C18,25.8 18,25.8 18,25.8 L18,25.92 L18,25.91 Z" id="Path" fill="#F58621" fill-rule="nonzero"></path>
                        <path d="M18.25,22.83 L18.25,22.83 L18.25,22.72 L18.25,22.72 C18.25,22.72 18.25,22.72 18.25,22.72 L18.25,22.84 C18.25,22.84 18.26,22.83 18.25,22.83 Z" id="Path" fill="#F58621" fill-rule="nonzero"></path>
                        <path d="M18.12,25.92 L18.12,25.92 C18.12,25.92 18.12,25.92 18.12,25.92 L18.12,25.81 C18.12,25.81 18.12,25.81 18.12,25.81 L18.12,25.92 Z" id="Path" fill="#F58621" fill-rule="nonzero"></path>
                        <path d="M18.09,22.82 L18.09,22.82 L18.09,22.7 L18.09,22.7 C18.09,22.7 18.09,22.7 18.09,22.7 L18.09,22.82 Z" id="Path" fill="#F58621" fill-rule="nonzero"></path>
                        <path d="M18.29,25.91 L18.29,25.91 C18.29,25.91 18.29,25.91 18.29,25.91 L18.29,25.79 C18.29,25.79 18.29,25.79 18.29,25.79 L18.29,25.9 L18.29,25.91 Z" id="Path" fill="#F58621" fill-rule="nonzero"></path>
                        <path d="M17.94,22.83 L17.94,22.83 C17.94,22.83 17.94,22.83 17.94,22.83 L17.94,22.7 C17.94,22.7 17.94,22.7 17.94,22.7 C17.94,22.7 17.94,22.7 17.94,22.7 L17.94,22.82 C17.94,22.82 18,22.83 17.94,22.83 Z" id="Path" fill="#F58621" fill-rule="nonzero"></path>
                        <path d="M18.46,25.88 L18.46,25.88 L18.46,25.88 L18.46,25.77 C18.46,25.77 18.46,25.77 18.46,25.77 C18.46,25.77 18.46,25.77 18.46,25.77 L18.46,25.88 Z" id="Path" fill="#F58621" fill-rule="nonzero"></path>
                        <path d="M17.78,22.86 L17.78,22.86 L17.78,22.86 L17.78,22.75 C17.78,22.75 17.78,22.75 17.78,22.75 C17.78,22.75 17.78,22.75 17.78,22.75 L17.78,22.86 C17.78,22.86 17.8,22.85 17.78,22.86 Z" id="Path" fill="#F58621" fill-rule="nonzero"></path>
                        <path d="M18.17,24.47 C18.1823107,24.5021967 18.1823107,24.5378033 18.17,24.57 C18.1800256,24.6025795 18.1800256,24.6374205 18.17,24.67 L18.17,24.67 C18.1480105,24.7046679 18.1109374,24.7269118 18.07,24.73 C18.0346563,24.7439295 17.9953437,24.7439295 17.96,24.73 L17.68,24.49 L17.57,24.49 L17.64,24.73 C17.6550081,24.7651309 17.6550081,24.8048691 17.64,24.84 C17.6200738,24.8762081 17.5882946,24.9044563 17.55,24.92 L17.55,24.92 C17.5113299,24.934587 17.4686701,24.934587 17.43,24.92 C17.396332,24.9045277 17.3708662,24.8754239 17.36,24.84 L17.1,24 C17.0849919,23.9648691 17.0849919,23.9251309 17.1,23.89 C17.1203863,23.8564065 17.152422,23.8314899 17.19,23.82 L17.49,23.72 L17.54,23.72 C17.6239707,23.6894286 17.7160293,23.6894286 17.8,23.72 C17.9045011,23.7794889 17.977619,23.8818539 18,24 C18.0198947,24.0787631 18.0198947,24.1612369 18,24.24 C18.0056777,24.2663645 18.0056777,24.2936355 18,24.32 L18.17,24.47 Z M17.5,24.26 L17.61,24.26 C17.6423191,24.2478267 17.6678267,24.2223191 17.68,24.19 C17.694587,24.1513299 17.694587,24.1086701 17.68,24.07 C17.6682563,24.0294785 17.6388652,23.9964136 17.6,23.98 C17.5682545,23.9654495 17.5317455,23.9654495 17.5,23.98 L17.4,23.98 L17.5,24.26 Z" id="Shape" fill="#F58621" fill-rule="nonzero"></path>
                        <path d="M18.62,24.51 L18.69,24.73 C18.7096496,24.7640341 18.7096496,24.8059659 18.69,24.84 C18.69,24.84 18.69,24.9 18.61,24.92 L18.61,24.92 C18.5713299,24.934587 18.5286701,24.934587 18.49,24.92 C18.4570564,24.9035734 18.4319082,24.8748326 18.42,24.84 L18.11,23.9 L18.26,23.9 L18.31,23.9 L18.31,23.9 L18.31,23.9 C18.348627,23.8541854 18.4013979,23.8225229 18.46,23.81 C18.5583521,23.764625 18.6716479,23.764625 18.77,23.81 C18.8682995,23.8413041 18.9507032,23.9093768 19,24 C19.0450243,24.1053928 19.0450243,24.2246072 19,24.33 C18.9507201,24.4288307 18.8644977,24.5042753 18.76,24.54 C18.7118252,24.5392108 18.6642682,24.52902 18.62,24.51 Z M18.78,24.05 C18.7648541,23.9980711 18.733274,23.9524555 18.69,23.92 C18.6513299,23.905413 18.6086701,23.905413 18.57,23.92 L18.5,23.92 C18.4679912,23.9574224 18.4679912,24.0125776 18.5,24.05 L18.56,24.24 C18.5914068,24.2560272 18.6285932,24.2560272 18.66,24.24 C18.701622,24.257223 18.748378,24.257223 18.79,24.24 C18.8011313,24.214495 18.8011313,24.185505 18.79,24.16 C18.8000256,24.1274205 18.8000256,24.0925795 18.79,24.06 L18.78,24.05 Z" id="Shape" fill="#F58621" fill-rule="nonzero"></path>
                        <path d="M17.08,32.35 C13.08,30.93 9.17,29.35 5.27,27.62 C5.12292794,27.5698499 5.0045872,27.458775 4.94523095,27.3151712 C4.88587469,27.1715674 4.89125631,27.009354 4.96,26.87 C5.95174389,25.083718 6.79137439,23.2171291 7.47,21.29 C7.52413782,21.1489185 7.63592312,21.0376548 7.77725629,20.9841773 C7.91858946,20.9306999 8.07602932,20.9400947 8.21,21.01 C11.9,22.68 15.69,24.2 19.51,25.53 C19.6557494,25.5702745 19.777356,25.6708863 19.8442147,25.8065139 C19.9110734,25.9421415 19.916817,26.0998688 19.86,26.24 C19.0296267,28.1060686 18.3605174,30.0397944 17.86,32.02 C17.8161094,32.179114 17.7018587,32.309417 17.5498471,32.3737296 C17.3978355,32.4380422 17.2247584,32.4293009 17.08,32.35 L17.08,32.35 Z" id="Path" fill="#278F45" fill-rule="nonzero"></path>
                        <path d="M6.65,27.41 L6.65,27.41 C6.73532031,27.1978646 6.73265057,26.9604853 6.64258079,26.7503225 C6.55251101,26.5401597 6.38245688,26.3745166 6.17,26.29 L6.17,26.29 C6.79052016,25.0864937 7.34794174,23.8514878 7.84,22.59 C7.89642677,22.6350684 7.96090377,22.6690036 8.03,22.69 C8.24188542,22.7781585 8.48041524,22.7768928 8.69135321,22.6864908 C8.90229117,22.5960888 9.067711,22.4242332 9.15,22.21 C12.09,23.5433333 15.09,24.74 18.15,25.8 C18.15,25.8 18.15,25.8 18.15,25.85 C18.0650233,26.0607298 18.0679549,26.2967099 18.1581403,26.5052637 C18.2483257,26.7138175 18.4182565,26.8775816 18.63,26.96 L18.78,26.96 C18.2790279,28.1798062 17.8417718,29.4248178 17.47,30.69 L17.47,30.69 C17.2592702,30.6050233 17.0232901,30.6079549 16.8147363,30.6981403 C16.6061825,30.7883257 16.4424184,30.9582565 16.36,31.17 C16.3388661,31.2183984 16.3221319,31.268601 16.31,31.32 C13,30.11 9.82,28.85 6.65,27.41 Z" id="Path" fill="#BDDB91" fill-rule="nonzero"></path>
                        <path d="M9.25,24.68 C9.3855333,24.7353629 9.4934003,24.8424781 9.5497098,24.9776209 C9.60601929,25.1127637 9.60612373,25.26478 9.55,25.4 C9.49889011,25.5391585 9.39281748,25.6511849 9.25665456,25.7098106 C9.12049164,25.7684363 8.96621492,25.7685048 8.83,25.71 C8.54791131,25.59439 8.41012568,25.2743718 8.52,24.99 C8.57552195,24.8519469 8.68370472,24.741667 8.82066657,24.6835051 C8.95762842,24.6253433 9.11210678,24.6240821 9.25,24.68 Z" id="Path" fill="#86AC63" fill-rule="nonzero"></path>
                        <path d="M16.23,27.48 C16.3673411,27.5334244 16.4774982,27.6397295 16.5357753,27.7750828 C16.5940525,27.9104362 16.5955744,28.0635147 16.54,28.2 C16.42439,28.4820887 16.1043718,28.6198743 15.82,28.51 C15.6032641,28.4656321 15.4342075,28.2957237 15.3909294,28.0787675 C15.3476513,27.8618113 15.4385767,27.6400422 15.6217007,27.5159108 C15.8048246,27.3917795 16.0444985,27.3894506 16.23,27.51 L16.23,27.48 Z" id="Path" fill="#86AC63" fill-rule="nonzero"></path>
                        <path d="M14.73,27.58 C14.3714493,28.4881644 13.5003729,29.090255 12.5240985,29.1047257 C11.547824,29.1191964 10.6592854,28.5431875 10.2739758,27.6460488 C9.88866628,26.7489102 10.0827317,25.7079367 10.7654243,25.0099023 C11.4481169,24.3118679 12.4845213,24.09472 13.39,24.46 C13.9816139,24.6958173 14.4552376,25.1571152 14.7065698,25.7423066 C14.957902,26.3274979 14.9663308,26.988591 14.73,27.58 L14.73,27.58 Z" id="Path" fill="#86AC63" fill-rule="nonzero"></path>
                        <path d="M12.23,27.08 C12.2552818,27.1338468 12.2552818,27.1961532 12.23,27.25 C12.1965799,27.3032296 12.1419889,27.3396236 12.08,27.35 L12.08,27.35 C12.0156284,27.3595483 11.9502247,27.3413807 11.9,27.3 C11.843235,27.2654866 11.8061488,27.2061485 11.8,27.14 L11.71,26.54 L11.53,26.47 L11.38,26.84 C11.3556397,26.8988709 11.3088709,26.9456397 11.25,26.97 C11.1825668,27.0343898 11.0807529,27.0466075 11,27 L11,27 C10.9366919,26.9790149 10.8856106,26.9315823 10.86,26.87 C10.829776,26.8138062 10.829776,26.7461938 10.86,26.69 L11.37,25.39 C11.3967916,25.3327934 11.4427934,25.2867916 11.5,25.26 C11.565159,25.2399487 11.634841,25.2399487 11.7,25.26 L12.16,25.45 L12.24,25.45 L12.24,25.45 C12.3686516,25.5263856 12.4647429,25.6473894 12.51,25.79 C12.5644881,25.9246983 12.5644881,26.0753017 12.51,26.21 C12.4664044,26.3343612 12.3817583,26.4401689 12.27,26.51 L12.14,26.58 L12.23,27.08 Z M11.62,26.08 L11.78,26.14 C11.8338468,26.1652818 11.8961532,26.1652818 11.95,26.14 C12.0127106,26.1127444 12.0627444,26.0627106 12.09,26 C12.1100513,25.934841 12.1100513,25.865159 12.09,25.8 C12.0725492,25.7424705 12.0275295,25.6974508 11.97,25.68 L11.8,25.61 L11.62,26.08 Z" id="Shape" fill="#BDDB91" fill-rule="nonzero"></path>
                        <path d="M12.74,27.6 L12.6,28 C12.578945,28.0610073 12.5310073,28.108945 12.47,28.13 C12.4116354,28.1498114 12.3483646,28.1498114 12.29,28.13 L12.29,28.13 C12.2273288,28.1137226 12.1756709,28.0694444 12.15,28.01 C12.1301886,27.9516354 12.1301886,27.8883646 12.15,27.83 L12.75,26.33 C12.7587254,26.3012353 12.7812353,26.2787254 12.81,26.27 L12.9,26.27 L13.13,26.36 C13.1573092,26.3748315 13.1811663,26.3952805 13.2,26.42 C13.2099057,26.4491823 13.2099057,26.4808177 13.2,26.51 L13.2,26.46 C13.2959469,26.4547436 13.3918024,26.4718606 13.48,26.51 C13.6473419,26.576249 13.7783597,26.7109062 13.84,26.88 C13.9193158,27.0477643 13.9193158,27.2422357 13.84,27.41 C13.7764919,27.5802418 13.6465629,27.717389 13.48,27.79 C13.3147518,27.8648711 13.1252482,27.8648711 12.96,27.79 C12.8736458,27.7435299 12.7985451,27.6786702 12.74,27.6 Z M13.43,27.2 C13.4544485,27.1150576 13.4544485,27.0249424 13.43,26.94 C13.4137941,26.8748901 13.3699645,26.8201031 13.31,26.79 L13.19,26.79 C13.11,26.79 13.05,26.79 13.01,26.92 L12.89,27.22 C12.8915635,27.2798066 12.9212046,27.3353837 12.97,27.37 C13.0275237,27.4278243 13.1096385,27.4539517 13.19,27.44 C13.2365342,27.4372973 13.2799173,27.4156057 13.31,27.38 C13.3534966,27.3435342 13.3848835,27.2947101 13.4,27.24 L13.43,27.2 Z" id="Shape" fill="#BDDB91" fill-rule="nonzero"></path>
                        <path d="M30.32,27.84 C29.7040487,28.9567358 28.2996315,29.3630115 27.1825976,28.747601 C26.0655637,28.1321904 25.6586081,26.72797 26.2734779,25.6106383 C26.8883476,24.4933067 28.2923708,24.0856713 29.41,24.7 C29.9473977,24.9953921 30.3452871,25.4923438 30.5159833,26.0813392 C30.6866794,26.6703347 30.6161723,27.3030319 30.32,27.84 L30.32,27.84 Z" id="Path" fill="#F2A421" fill-rule="nonzero"></path>
                        <path d="M27.29,28.53 C26.5557898,28.1275715 26.1363049,27.3224792 26.2271618,26.4901581 C26.3180188,25.657837 26.9013235,24.9622102 27.7050663,24.7276661 C28.508809,24.4931219 29.3746951,24.7658532 29.8989399,25.4186784 C30.4231848,26.0715036 30.5025399,26.9758508 30.1,27.71 C29.5467139,28.7076998 28.2930429,29.0735398 27.29,28.53 L27.29,28.53 Z M29.17,25.12 C28.747216,24.8841735 28.2478982,24.8265037 27.7824878,24.9597462 C27.3170774,25.0929887 26.9239287,25.406163 26.69,25.83 C26.3409254,26.403961 26.3343875,27.1230412 26.6729682,27.7032544 C27.0115489,28.2834676 27.6408123,28.6315289 28.3122435,28.6099786 C28.9836747,28.5884282 29.5893231,28.2007309 29.89,27.6 C30.1250381,27.1759986 30.1812027,26.6757474 30.0460387,26.2101823 C29.9108746,25.7446173 29.5955531,25.3522169 29.17,25.12 L29.17,25.12 Z" id="Shape" fill="#F1F1F2" fill-rule="nonzero"></path>
                        <path d="M27.52,28.13 L27.58,28.03 L27.58,28.03 C27.58,28.03 27.58,28.03 27.58,28.03 L27.58,28.13 L27.52,28.13 Z" id="Path" fill="#F58621" fill-rule="nonzero"></path>
                        <path d="M29,25.42 C29,25.42 29,25.42 29,25.42 L29.05,25.32 L29.05,25.32 C29.05,25.32 29.05,25.32 29.05,25.32 L28.99,25.42 C28.99,25.42 29,25.42 29,25.42 Z" id="Path" fill="#F58621" fill-rule="nonzero"></path>
                        <path d="M27.67,28.2 L27.72,28.09 L27.72,28.2 C27.72,28.2 27.72,28.2 27.72,28.2 L27.67,28.2 Z" id="Path" fill="#F58621" fill-rule="nonzero"></path>
                        <path d="M28.88,25.35 C28.88,25.35 28.88,25.35 28.88,25.35 L28.88,25.24 C28.88,25.24 28.88,25.24 28.88,25.24 C28.88,25.24 28.88,25.24 28.88,25.24 L28.83,25.35 L28.88,25.35 Z" id="Path" fill="#F58621" fill-rule="nonzero"></path>
                        <path d="M27.83,28.26 L27.83,28.15 C27.83,28.15 27.83,28.15 27.83,28.15 C27.83,28.15 27.83,28.15 27.83,28.15 L27.83,28.26 L27.83,28.26 Z" id="Path" fill="#F58621" fill-rule="nonzero"></path>
                        <path d="M28.73,25.29 C28.73,25.29 28.73,25.29 28.73,25.29 L28.73,25.18 C28.73,25.18 28.73,25.18 28.73,25.18 C28.73,25.18 28.73,25.18 28.73,25.18 L28.73,25.29 L28.73,25.29 Z" id="Path" fill="#F58621" fill-rule="nonzero"></path>
                        <path d="M28,28.3 L28,28.19 C28,28.19 28,28.19 28,28.19 C28,28.19 28,28.19 28,28.19 L28,28.3 L28,28.3 Z" id="Path" fill="#F58621" fill-rule="nonzero"></path>
                        <path d="M28.58,25.26 C28.58,25.26 28.58,25.26 28.58,25.26 L28.58,25.15 C28.58,25.15 28.58,25.15 28.58,25.15 C28.58,25.15 28.58,25.15 28.58,25.15 L28.58,25.26 C28.58,25.26 28.58,25.26 28.58,25.26 Z" id="Path" fill="#F58621" fill-rule="nonzero"></path>
                        <path d="M28.16,28.32 L28.16,28.21 L28.16,28.21 C28.16,28.21 28.16,28.21 28.16,28.21 L28.16,28.33 L28.16,28.33 L28.16,28.32 Z" id="Path" fill="#F58621" fill-rule="nonzero"></path>
                        <path d="M28.42,25.24 L28.42,25.1 L28.42,25.1 L28.42,25.22 C28.42,25.22 28.42,25.22 28.42,25.22 L28.42,25.24 Z" id="Path" fill="#F58621" fill-rule="nonzero"></path>
                        <path d="M28.33,28.32 L28.33,28.21 C28.33,28.21 28.33,28.21 28.33,28.21 L28.33,28.32 C28.33,28.32 28.33,28.32 28.33,28.32 Z" id="Path" fill="#F58621" fill-rule="nonzero"></path>
                        <path d="M28.27,25.23 L28.27,25.23 L28.27,25.11 C28.27,25.11 28.27,25.11 28.27,25.11 L28.27,25.23 L28.27,25.23 Z" id="Path" fill="#F58621" fill-rule="nonzero"></path>
                        <path d="M28.49,28.31 L28.49,28.18 C28.49,28.18 28.49,28.18 28.49,28.18 L28.49,28.18 L28.49,28.3 L28.49,28.31 Z" id="Path" fill="#F58621" fill-rule="nonzero"></path>
                        <path d="M28.11,25.24 C28.11,25.24 28.11,25.24 28.11,25.24 L28.11,25.13 C28.11,25.13 28.11,25.13 28.11,25.13 C28.11,25.13 28.11,25.13 28.11,25.13 L28.11,25.25 C28.11,25.25 28.11,25.25 28.11,25.25 L28.11,25.24 Z" id="Path" fill="#F58621" fill-rule="nonzero"></path>
                        <path d="M28.66,28.28 L28.66,28.28 L28.66,28.16 C28.66,28.16 28.66,28.16 28.66,28.16 L28.66,28.16 L28.66,28.28 C28.66,28.28 28.66,28.28 28.66,28.28 Z" id="Path" fill="#F58621" fill-rule="nonzero"></path>
                        <path d="M28,25.27 L28,25.27 L28,25.16 C28,25.16 28,25.16 28,25.16 L28,25.27 C28,25.27 28,25.27 28,25.27 Z" id="Path" fill="#F58621" fill-rule="nonzero"></path>
                        <path d="M28.82,28.24 L28.82,28.24 L28.82,28.13 C28.82,28.13 28.82,28.13 28.82,28.13 C28.82,28.13 28.82,28.13 28.82,28.13 L28.82,28.24 C28.82,28.24 28.82,28.24 28.82,28.24 Z" id="Path" fill="#F58621" fill-rule="nonzero"></path>
                        <path d="M27.8,25.31 L27.8,25.2 C27.8,25.2 27.8,25.2 27.8,25.2 L27.8,25.31 C27.8,25.31 27.8,25.31 27.8,25.31 Z" id="Path" fill="#F58621" fill-rule="nonzero"></path>
                        <path d="M29,28.17 L28.95,28.07 C28.95,28.07 28.95,28.07 28.95,28.07 C28.95,28.07 28.95,28.07 28.95,28.07 L28.95,28.17 C28.95,28.17 28.95,28.17 28.95,28.17 L29,28.17 Z" id="Path" fill="#F58621" fill-rule="nonzero"></path>
                        <path d="M27.66,25.37 L27.66,25.37 L27.66,25.27 C27.66,25.27 27.66,25.27 27.66,25.27 L27.66,25.27 L27.66,25.38 C27.66,25.38 27.67,25.38 27.66,25.37 Z" id="Path" fill="#F58621" fill-rule="nonzero"></path>
                        <path d="M29.12,28.09 L29.12,28.09 L29.06,27.99 C29.06,27.99 29.06,27.99 29.06,27.99 L29.06,27.99 L29.12,28.09 C29.12,28.09 29.12,28.09 29.12,28.09 Z" id="Path" fill="#F58621" fill-rule="nonzero"></path>
                        <path d="M27.52,25.45 L27.52,25.45 L27.46,25.35 C27.46,25.35 27.46,25.35 27.46,25.35 C27.46,25.35 27.46,25.35 27.46,25.35 L27.52,25.45 C27.52,25.45 27.52,25.45 27.52,25.45 Z" id="Path" fill="#F58621" fill-rule="nonzero"></path>
                        <path d="M29.26,28 L29.26,28 L29.19,27.91 C29.19,27.91 29.19,27.91 29.19,27.91 L29.19,27.91 L29.26,28 C29.26,28 29.26,28 29.26,28 Z" id="Path" fill="#F58621" fill-rule="nonzero"></path>
                        <path d="M27.39,25.53 L27.39,25.53 L27.32,25.44 C27.32,25.44 27.32,25.44 27.32,25.44 C27.32,25.44 27.32,25.44 27.32,25.44 L27.39,25.53 Z" id="Path" fill="#F58621" fill-rule="nonzero"></path>
                        <polygon id="Path" fill="#F58621" fill-rule="nonzero" points="29.39 27.89 29.39 27.89 29.31 27.8 29.39 27.88"></polygon>
                        <polygon id="Path" fill="#F58621" fill-rule="nonzero" points="27.27 25.63 27.27 25.63 27.2 25.55 27.2 25.55 27.28 25.64"></polygon>
                        <path d="M29.5,27.77 L29.5,27.77 L29.41,27.69 C29.41,27.69 29.41,27.69 29.41,27.69 L29.41,27.69 L29.5,27.76 L29.5,27.77 Z" id="Path" fill="#F58621" fill-rule="nonzero"></path>
                        <polygon id="Path" fill="#F58621" fill-rule="nonzero" points="27.16 25.75 27.16 25.75 27.07 25.68 27.16 25.76"></polygon>
                        <path d="M29.6,27.64 L29.6,27.64 L29.51,27.57 L29.51,27.57 L29.6,27.64 C29.6,27.64 29.6,27.64 29.6,27.64 C29.6,27.64 29.62,27.65 29.6,27.64 Z" id="Path" fill="#F58621" fill-rule="nonzero"></path>
                        <path d="M27.07,25.87 L27.07,25.87 L27,25.8 C27,25.8 27,25.8 27,25.8 L27,25.8 L27.09,25.87 C27.09,25.87 27.09,25.87 27.09,25.87 C27.09,25.87 27.08,25.88 27.07,25.87 Z" id="Path" fill="#F58621" fill-rule="nonzero"></path>
                        <path d="M29.69,27.5 L29.59,27.44 C29.59,27.44 29.59,27.44 29.59,27.44 C29.59,27.44 29.59,27.44 29.59,27.44 L29.69,27.5 C29.69,27.5 29.69,27.5 29.69,27.5 C29.69,27.5 29.7,27.51 29.69,27.5 Z" id="Path" fill="#F58621" fill-rule="nonzero"></path>
                        <path d="M27,26 L26.9,26 C26.9,26 26.9,26 26.9,26 L27,26 C27,26 27,26 27,26 Z" id="Path" fill="#F58621" fill-rule="nonzero"></path>
                        <path d="M26.81,26.1 C26.81,26.1 26.81,26.1 26.81,26.1 L26.92,26.1 C26.92,26.1 26.92,26.1 26.92,26.1 L26.81,26.1 Z" id="Path" fill="#F58621" fill-rule="nonzero"></path>
                        <path d="M29.66,27.3 L29.77,27.3 C29.77,27.3 29.77,27.3 29.77,27.3 L29.66,27.3 Z" id="Path" fill="#F58621" fill-rule="nonzero"></path>
                        <path d="M26.75,26.26 L26.75,26.26 L26.86,26.26 C26.86,26.26 26.86,26.26 26.86,26.26 C26.86,26.26 26.86,26.26 26.86,26.26 L26.75,26.26 Z" id="Path" fill="#F58621" fill-rule="nonzero"></path>
                        <path d="M29.71,27.16 L29.71,27.16 L29.82,27.16 C29.82,27.16 29.82,27.16 29.82,27.16 C29.82,27.16 29.82,27.16 29.82,27.16 L29.71,27.16 Z" id="Path" fill="#F58621" fill-rule="nonzero"></path>
                        <path d="M26.71,26.42 C26.71,26.42 26.71,26.42 26.71,26.42 C26.71,26.42 26.71,26.42 26.71,26.42 L26.82,26.42 C26.82,26.42 26.82,26.42 26.82,26.42 L26.82,26.42 L26.71,26.42 Z" id="Path" fill="#F58621" fill-rule="nonzero"></path>
                        <path d="M29.75,27 C29.75,27 29.75,27 29.75,27 L29.86,27 L29.86,27 C29.86,27 29.86,27 29.86,27 L29.75,27 Z" id="Path" fill="#F58621" fill-rule="nonzero"></path>
                        <path d="M26.69,26.59 C26.69,26.59 26.69,26.59 26.69,26.59 L26.81,26.59 L26.81,26.59 C26.81,26.59 26.81,26.59 26.81,26.59 L26.69,26.59 Z" id="Path" fill="#F58621" fill-rule="nonzero"></path>
                        <path d="M29.77,26.85 C29.77,26.85 29.77,26.85 29.77,26.85 C29.77,26.85 29.77,26.85 29.77,26.85 L29.88,26.85 C29.88,26.85 29.88,26.85 29.88,26.85 L29.75,26.85 L29.77,26.85 Z" id="Path" fill="#F58621" fill-rule="nonzero"></path>
                        <path d="M26.68,26.76 L26.68,26.76 C26.68,26.76 26.68,26.76 26.68,26.76 L26.8,26.76 C26.8,26.76 26.8,26.76 26.8,26.76 L26.8,26.76 L26.67,26.76 L26.68,26.76 Z" id="Path" fill="#F58621" fill-rule="nonzero"></path>
                        <path d="M29.78,26.7 L29.78,26.7 L29.89,26.7 C29.89,26.7 29.89,26.7 29.89,26.7 L29.77,26.7 L29.78,26.7 Z" id="Path" fill="#F58621" fill-rule="nonzero"></path>
                        <path d="M26.69,26.93 C26.69,26.93 26.69,26.93 26.69,26.93 C26.69,26.93 26.69,26.93 26.69,26.93 L26.81,26.93 L26.81,26.93 C26.81,26.93 26.81,26.93 26.81,26.93 L26.68,26.93 L26.69,26.93 Z" id="Path" fill="#F58621" fill-rule="nonzero"></path>
                        <path d="M29.77,26.54 L29.77,26.54 C29.77,26.54 29.77,26.54 29.77,26.54 L29.89,26.54 L29.89,26.54 C29.89,26.54 29.89,26.54 29.89,26.54 L29.78,26.54 L29.77,26.54 Z" id="Path" fill="#F58621" fill-rule="nonzero"></path>
                        <path d="M26.72,27.09 L26.72,27.09 C26.72,27.09 26.72,27.09 26.72,27.09 L26.83,27.09 C26.83,27.09 26.83,27.09 26.83,27.09 C26.83,27.09 26.83,27.09 26.83,27.09 L26.72,27.09 Z" id="Path" fill="#F58621" fill-rule="nonzero"></path>
                        <path d="M29.74,26.39 L29.74,26.39 C29.74,26.39 29.74,26.39 29.74,26.39 L29.86,26.39 L29.86,26.39 L29.86,26.39 L29.75,26.39 L29.74,26.39 Z" id="Path" fill="#F58621" fill-rule="nonzero"></path>
                        <path d="M26.77,27.26 L26.77,27.26 C26.77,27.26 26.77,27.26 26.77,27.26 L26.88,27.26 C26.88,27.26 26.88,27.26 26.88,27.26 L26.77,27.26 Z" id="Path" fill="#F58621" fill-rule="nonzero"></path>
                        <path d="M29.69,26.24 C29.69,26.24 29.69,26.24 29.69,26.24 L29.8,26.24 C29.8,26.24 29.8,26.24 29.8,26.24 C29.8,26.24 29.8,26.24 29.8,26.24 L29.7,26.24 L29.69,26.24 Z" id="Path" fill="#F58621" fill-rule="nonzero"></path>
                        <path d="M26.83,27.41 L26.83,27.41 C26.83,27.41 26.83,27.41 26.83,27.41 L26.93,27.41 L26.83,27.41 Z" id="Path" fill="#F58621" fill-rule="nonzero"></path>
                        <path d="M29.64,26.1 L29.64,26.1 C29.64,26.1 29.64,26.1 29.64,26.1 L29.74,26.1 C29.74,26.1 29.74,26.1 29.74,26.1 L29.64,26.15 L29.64,26.1 Z" id="Path" fill="#F58621" fill-rule="nonzero"></path>
                        <path d="M26.91,27.56 L26.91,27.56 L27.01,27.5 C27.01,27.5 27.01,27.5 27.01,27.5 L26.91,27.56 Z" id="Path" fill="#F58621" fill-rule="nonzero"></path>
                        <path d="M29.56,26 L29.56,26 L29.66,25.94 C29.66,25.94 29.66,25.94 29.66,25.94 L29.56,26 Z" id="Path" fill="#F58621" fill-rule="nonzero"></path>
                        <path d="M27,27.7 L27,27.7 C27,27.7 27,27.7 27,27.7 L27.09,27.63 C27.09,27.63 27.09,27.63 27.09,27.63 L27,27.7 Z" id="Path" fill="#F58621" fill-rule="nonzero"></path>
                        <path d="M29.48,25.83 L29.48,25.83 L29.57,25.76 C29.57,25.76 29.57,25.76 29.57,25.76 L29.47,25.83 C29.47,25.83 29.48,25.84 29.48,25.83 Z" id="Path" fill="#F58621" fill-rule="nonzero"></path>
                        <path d="M27.12,27.83 L27.12,27.83 L27.21,27.75 L27.21,27.75 L27.13,27.83 C27.13,27.83 27.13,27.84 27.12,27.83 Z" id="Path" fill="#F58621" fill-rule="nonzero"></path>
                        <path d="M29.38,25.71 L29.38,25.71 C29.38,25.71 29.38,25.71 29.38,25.71 L29.47,25.63 L29.47,25.63 L29.39,25.71 L29.38,25.71 Z" id="Path" fill="#F58621" fill-rule="nonzero"></path>
                        <path d="M27.24,28 L27.24,28 C27.24,28 27.24,28 27.24,28 L27.32,27.91 L27.32,27.91 C27.32,27.91 27.32,27.91 27.32,27.91 L27.24,27.99 L27.24,28 Z" id="Path" fill="#F58621" fill-rule="nonzero"></path>
                        <path d="M29.26,25.61 L29.26,25.61 C29.26,25.61 29.26,25.61 29.26,25.61 L29.33,25.52 L29.33,25.52 C29.33,25.52 29.33,25.52 29.33,25.52 L29.25,25.6 L29.26,25.61 Z" id="Path" fill="#F58621" fill-rule="nonzero"></path>
                        <polygon id="Path" fill="#F58621" fill-rule="nonzero" points="27.37 28.05 27.37 28.05 27.44 27.95 27.44 27.95 27.4 28"></polygon>
                        <path d="M29.14,25.51 L29.14,25.51 L29.21,25.41 C29.21,25.41 29.21,25.41 29.21,25.41 L29.14,25.5 C29.14,25.5 29.15,25.52 29.14,25.51 Z" id="Path" fill="#F58621" fill-rule="nonzero"></path>
                        <path d="M28.22,26.89 C28.2333333,26.922 28.2333333,26.958 28.22,26.99 C28.1872647,26.9989293 28.1527353,26.9989293 28.12,26.99 L28.12,26.99 C28.0823342,27.0070108 28.0399619,27.0105418 28,27 C27.9869997,26.9644857 27.9869997,26.9255143 28,26.89 L28,26.52 L27.89,26.46 L27.77,26.68 C27.7535734,26.7129436 27.7248326,26.7380918 27.69,26.75 C27.6513299,26.764587 27.6086701,26.764587 27.57,26.75 L27.57,26.75 C27.5340537,26.7323785 27.508231,26.6991779 27.5,26.66 C27.4849919,26.6248691 27.4849919,26.5851309 27.5,26.55 L27.91,25.8 C27.9303863,25.7664065 27.962422,25.7414899 28,25.73 C28.0386701,25.715413 28.0813299,25.715413 28.12,25.73 L28.39,25.88 L28.39,25.88 L28.39,25.88 C28.4599313,25.935636 28.5092183,26.013087 28.53,26.1 C28.5644459,26.183244 28.5644459,26.276756 28.53,26.36 C28.4915255,26.4298499 28.4320514,26.4858256 28.36,26.52 C28.3339963,26.5284091 28.3060037,26.5284091 28.28,26.52 L28.22,26.89 Z M27.92,26.26 L28.01,26.31 C28.084564,26.3457992 28.1740352,26.3144842 28.21,26.24 C28.2296496,26.2059659 28.2296496,26.1640341 28.21,26.13 C28.2071502,26.0915596 28.1843874,26.0574154 28.15,26.04 L28.06,26.04 L27.92,26.26 Z" id="Shape" fill="#F58621" fill-rule="nonzero"></path>
                        <path d="M28.49,27.24 L28.38,27.45 C28.3623785,27.4859463 28.3291779,27.511769 28.29,27.52 C28.2548691,27.5350081 28.2151309,27.5350081 28.18,27.52 L28.18,27.52 C28.145814,27.4976368 28.1182009,27.4665722 28.1,27.43 C28.0849919,27.3948691 28.0849919,27.3551309 28.1,27.32 L28.57,26.45 L28.57,26.45 C28.5889862,26.4409941 28.6110138,26.4409941 28.63,26.45 L28.76,26.52 C28.7646785,26.5397264 28.7646785,26.5602736 28.76,26.58 L28.76,26.58 C28.8156302,26.5646726 28.8743698,26.5646726 28.93,26.58 C29.0273073,26.6309937 29.096922,26.722592 29.12,26.83 C29.1645253,26.9320202 29.1645253,27.0479798 29.12,27.15 C29.0675163,27.2501453 28.9777013,27.32559 28.87,27.36 C28.7671139,27.4001626 28.6528861,27.4001626 28.55,27.36 C28.5230411,27.3238752 28.5027246,27.283242 28.49,27.24 L28.49,27.24 Z M28.94,27.05 C28.9584661,27.001705 28.9584661,26.948295 28.94,26.9 C28.9354958,26.8595267 28.9135921,26.8230205 28.88,26.8 C28.8554155,26.7736816 28.8210147,26.7587412 28.785,26.7587412 C28.7489853,26.7587412 28.7145845,26.7736816 28.69,26.8 L28.59,26.98 C28.578324,27.0088639 28.578324,27.0411361 28.59,27.07 C28.6221245,27.1099048 28.6690018,27.1351464 28.72,27.14 C28.7427108,27.1476223 28.7672892,27.1476223 28.79,27.14 C28.8184041,27.1182355 28.8421985,27.0910418 28.86,27.06 L28.94,27.05 Z" id="Shape" fill="#F58621" fill-rule="nonzero"></path>
                        <rect id="Rectangle" fill="#F58521" fill-rule="nonzero" x="6.23" y="28.1" width="25.4" height="2.01"></rect>
                        <rect id="Rectangle" fill="#F2A421" fill-rule="nonzero" x="6.23" y="30.11" width="25.4" height="9.75"></rect>
                        <rect id="Rectangle" fill="#FFFFFF" fill-rule="nonzero" x="16.46" y="30.11" width="4.93" height="19.5"></rect>
                        <path d="M39.49,22.81 L37.22,18.16 C36.6132622,16.615784 36.3637011,14.9543223 36.49,13.3 L37.59,14.14 L39.52,13.33 C39.52,13.33 37.66,18.22 39.49,22.81 Z" id="Path" fill="#FFFFFF" fill-rule="nonzero"></path>
                        <path d="M41.05,26 L44.68,33.44 C45.38,34.88 49.26,38.06 49.26,38.06 L48.17,35.81 C48.17,35.81 54.17,36.29 51.17,35.49 C48.17,34.69 41.64,25.71 41.05,26 Z" id="Path" fill="#FFFFFF" fill-rule="nonzero"></path>
                        <path d="M52.91,31.76 C52.81,30.76 54.52,30.01 55.32,26.87 C56.12,23.73 44.16,24.51 44.16,24.51 C44.16,24.51 46.04,23.59 50.33,18.89 C54.62,14.19 47.55,15.17 46.52,13.89 C45.49,12.61 42.86,10.32 41.07,13.39 C39.28,16.46 39.49,22.8 39.49,22.8 L41.71,27.34 C41.71,27.34 45.41,32.12 48.59,33.85 C51.77,35.58 53,32.8 52.91,31.76 Z M41.68,23.64 C41.68,23.64 41.36,18.1 42.77,15.45 C44.18,12.8 44.56,16.13 45.58,16.12 C46.6,16.11 51.65,15.12 48.43,18.62 C46.5077386,20.6940632 44.219474,22.3958541 41.68,23.64 Z M50.51,33 C47.85,33.11 42.79,25.94 42.79,25.94 C44.92,25.1 52.61,26.24 53.79,27.12 C54.97,28 51.39,30.12 51.39,30.12 C51.39,30.12 53.16,32.86 50.51,33 Z" id="Shape" fill="#FFFFFF" fill-rule="nonzero"></path>
                        <path d="M46.79,36.47 L36.45,16.09 C35.7976813,14.8370551 34.2537701,14.3492686 33,15 L29.8,16.62 L42.47,41.62 L45.66,40 C46.2901421,39.6944185 46.7675822,39.1440228 46.9810937,38.4770356 C47.1946051,37.8100485 47.1255443,37.0847105 46.79,36.47 Z" id="Path" fill="#F2A421" fill-rule="nonzero"></path>
                        <rect id="Rectangle" fill="#FFFFFF" fill-rule="nonzero" transform="translate(38.870719, 27.671790) rotate(-26.900000) translate(-38.870719, -27.671790) " x="35.7957189" y="25.2117897" width="6.15" height="4.92"></rect>
                        <rect id="Rectangle" fill="#FFFFFF" fill-rule="nonzero" x="16.46" y="28.1" width="4.93" height="2.01"></rect>
                        <path d="M20.32,13 L19.87,13 L19.87,12.54 C19.87,12.3356547 19.7043453,12.17 19.5,12.17 C19.2956547,12.17 19.13,12.3356547 19.13,12.54 L19.13,13 L18.67,13 C18.4711775,13 18.31,13.1611775 18.31,13.36 C18.3099268,13.560503 18.4695703,13.724581 18.67,13.73 L19.13,13.73 L19.13,14.19 C19.13,14.3943454 19.2956546,14.56 19.5,14.56 C19.7043454,14.56 19.87,14.3943454 19.87,14.19 L19.87,13.73 L20.32,13.73 C20.4181301,13.73 20.512241,13.691018 20.5816295,13.6216295 C20.651018,13.552241 20.69,13.4581301 20.69,13.36 C20.6900375,13.2627639 20.6507394,13.1696478 20.5810478,13.1018397 C20.5113562,13.0340317 20.4171986,12.997299 20.32,13 L20.32,13 Z" id="Path" fill="#F2A421" fill-rule="nonzero"></path>
                        <path d="M19.5,15.75 C18.1745166,15.75 17.1,14.6754834 17.1,13.35 C17.1,12.0245166 18.1745166,10.95 19.5,10.95 C20.8254834,10.95 21.9,12.0245166 21.9,13.35 C21.8945208,14.6732072 20.8232072,15.7445208 19.5,15.75 L19.5,15.75 Z M19.5,11.6 C18.7863426,11.5959565 18.1408908,12.0232775 17.8659148,12.6818452 C17.5909388,13.3404129 17.7408802,14.0998396 18.2455203,14.6044797 C18.7501604,15.1091198 19.5095871,15.2590612 20.1681548,14.9840852 C20.8267225,14.7091092 21.2540435,14.0636574 21.25,13.35 C21.25,12.8858711 21.0656255,12.4407518 20.7374369,12.1125631 C20.4092482,11.7843745 19.9641289,11.6 19.5,11.6 Z" id="Shape" fill="#F2A421" fill-rule="nonzero"></path>
                        <path d="M13.28,5.8 L13,5.8 L13,5.5 C13.0201699,5.40066976 12.9783693,5.29899097 12.8941686,5.24256792 C12.8099679,5.18614486 12.7000321,5.18614486 12.6158314,5.24256792 C12.5316307,5.29899097 12.4898301,5.40066976 12.51,5.5 L12.51,5.8 L12.21,5.8 C12.1030824,5.81205682 12.0172549,5.89379736 12,6 C12,6.13254834 12.1074517,6.24 12.24,6.24 L12.54,6.24 L12.54,6.55 C12.5636596,6.6665162 12.6661059,6.75025063 12.785,6.75025063 C12.9038941,6.75025063 13.0063404,6.6665162 13.03,6.55 L13.03,6.24 L13.33,6.24 C13.3953663,6.24272599 13.4590123,6.21864896 13.5062077,6.17334138 C13.5534031,6.12803381 13.5800568,6.06542306 13.58,6 C13.5679938,5.93302876 13.52921,5.87384398 13.4725982,5.83610276 C13.4159863,5.79836155 13.3464374,5.78532452 13.28,5.8 Z" id="Path" fill="#F2A421" fill-rule="nonzero"></path>
                        <path d="M12.74,7.63 C11.8658553,7.63522081 11.1514424,6.93379618 11.1406257,6.0597028 C11.1298089,5.18560942 11.8266457,4.46672084 12.7006519,4.45030862 C13.5746582,4.43389639 14.297993,5.12611675 14.32,6 C14.3307494,6.42685221 14.1693645,6.84008996 13.8721777,7.14668144 C13.5749908,7.45327293 13.1669799,7.62744987 12.74,7.63 Z M12.74,4.88 C12.2672436,4.88028115 11.841956,5.16743103 11.6650081,5.60582372 C11.4880602,6.04421641 11.5948585,6.54613142 11.9349602,6.87450549 C12.2750619,7.20287956 12.7804142,7.29200646 13.2123303,7.09978998 C13.6442465,6.90757351 13.9163019,6.47247535 13.9,6 C13.8733821,5.37728459 13.3632659,4.88475858 12.74,4.88 Z" id="Shape" fill="#F2A421" fill-rule="nonzero"></path>
                        <path d="M4.16,17.49 L3.71,17.49 L3.71,17 C3.66372619,16.8424752 3.51918081,16.7342833 3.355,16.7342833 C3.19081919,16.7342833 3.04627381,16.8424752 3,17 L3,17.46 L2.55,17.46 C2.34565464,17.46 2.18,17.6256546 2.18,17.83 C2.17996248,17.9272361 2.21926057,18.0203522 2.28895219,18.0881603 C2.35864381,18.1559683 2.45280144,18.192701 2.55,18.19 L3,18.19 L3,18.65 C3,18.8543454 3.16565464,19.02 3.37,19.02 C3.57434536,19.02 3.74,18.8543454 3.74,18.65 L3.74,18.19 L4.19,18.19 C4.28719856,18.192701 4.38135619,18.1559683 4.45104781,18.0881603 C4.52073943,18.0203522 4.56003752,17.9272361 4.56,17.83 C4.5523584,17.7317451 4.50583422,17.6405987 4.43074387,17.5767719 C4.35565352,17.5129451 4.25820255,17.4817126 4.16,17.49 L4.16,17.49 Z" id="Path" fill="#F2A421" fill-rule="nonzero"></path>
                        <path d="M3.34,20.26 C2.0145166,20.26 0.94,19.1854834 0.94,17.86 C0.94,16.5345166 2.0145166,15.46 3.34,15.46 C4.6654834,15.46 5.74,16.5345166 5.74,17.86 C5.73452081,19.1832072 4.6632072,20.2545208 3.34,20.26 Z M3.34,16.1 C2.36797884,16.1 1.58,16.8879788 1.58,17.86 C1.58,18.8320212 2.36797884,19.62 3.34,19.62 C4.31202116,19.62 5.1,18.8320212 5.1,17.86 C5.1,16.8879788 4.31202116,16.1 3.34,16.1 L3.34,16.1 Z" id="Shape" fill="#F2A421" fill-rule="nonzero"></path>
                        <path d="M25.82,6.23 L25.5,6.23 L25.5,5.91 C25.5,5.77192881 25.3880712,5.66 25.25,5.66 C25.1119288,5.66 25,5.77192881 25,5.91 L25,6.23 L24.68,6.23 C24.5419288,6.23 24.43,6.34192881 24.43,6.48 C24.43,6.61807119 24.5419288,6.73 24.68,6.73 L25,6.73 L25,7.05 C25,7.18807119 25.1119288,7.3 25.25,7.3 C25.3880712,7.3 25.5,7.18807119 25.5,7.05 L25.5,6.73 L25.82,6.73 C25.9580712,6.73 26.07,6.61807119 26.07,6.48 C26.07,6.34192881 25.9580712,6.23 25.82,6.23 Z" id="Path" fill="#F2A421" fill-rule="nonzero"></path>
                        <path d="M25.25,8.13 C24.3387302,8.13 23.6,7.39126984 23.6,6.48 C23.6,5.56873016 24.3387302,4.83 25.25,4.83 C26.1612698,4.83 26.9,5.56873016 26.9,6.48 C26.9,7.39126984 26.1612698,8.13 25.25,8.13 Z M25.25,5.27 C24.5817355,5.27 24.04,5.81173545 24.04,6.48 C24.04,7.14826455 24.5817355,7.69 25.25,7.69 C25.9182645,7.69 26.46,7.14826455 26.46,6.48 C26.46,6.15908805 26.3325182,5.85131981 26.1055992,5.62440079 C25.8786802,5.39748178 25.570912,5.27 25.25,5.27 Z" id="Shape" fill="#F2A421" fill-rule="nonzero"></path>
                        <path d="M12.84,16.76 C12.2257282,17.2976347 11.346361,17.4079891 10.6182903,17.038809 C9.89021955,16.6696289 9.45958819,15.8950184 9.53030581,15.0817657 C9.60102344,14.268513 10.1588952,13.5798593 10.9397614,13.3418911 C11.7206276,13.1039229 12.567748,13.3644067 13.08,14 C13.7533096,14.8354307 13.6474055,16.0533271 12.84,16.76 Z" id="Path" fill="#F2A421" fill-rule="nonzero"></path>
                        <path d="M10.24,16.39 C9.61862034,15.6506969 9.71359995,14.5477787 10.4522263,13.9255947 C11.1908527,13.3034108 12.2938736,13.3971899 12.9168611,14.1351386 C13.5398487,14.8730873 13.4472702,15.9762096 12.71,16.6 C12.3549218,16.900425 11.8948541,17.0471377 11.4314071,17.0077353 C10.9679601,16.9683329 10.5392639,16.7460573 10.24,16.39 L10.24,16.39 Z M12.76,14.26 C12.3553087,13.780424 11.7013892,13.5921686 11.1036505,13.7831572 C10.5059118,13.9741458 10.0823018,14.5066919 10.0306648,15.1320732 C9.97902781,15.7574546 10.309553,16.3522687 10.8678708,16.6387115 C11.4261885,16.9251543 12.1021296,16.8467039 12.58,16.44 C13.2299684,15.8868277 13.3104349,14.9122881 12.76,14.26 L12.76,14.26 Z" id="Shape" fill="#F1F1F2" fill-rule="nonzero"></path>
                        <path d="M10.54,16.14 L10.62,16.08 C10.62,16.08 10.62,16.08 10.62,16.08 L10.54,16.14 Z" id="Path" fill="#F58621" fill-rule="nonzero"></path>
                        <polygon id="Path" fill="#F58621" fill-rule="nonzero" points="12.55 14.45 12.63 14.39 12.63 14.39 12.56 14.45"></polygon>
                        <path d="M10.64,16.25 L10.71,16.18 L10.71,16.18 L10.71,16.18 L10.64,16.25 C10.64,16.25 10.64,16.25 10.64,16.25 Z" id="Path" fill="#F58621" fill-rule="nonzero"></path>
                        <path d="M12.46,14.35 L12.53,14.28 C12.53,14.28 12.53,14.28 12.53,14.28 L12.53,14.28 L12.46,14.35 Z" id="Path" fill="#F58621" fill-rule="nonzero"></path>
                        <path d="M10.74,16.34 L10.74,16.34 L10.8,16.26 C10.8,16.26 10.8,16.26 10.8,16.26 L10.74,16.34 Z" id="Path" fill="#F58621" fill-rule="nonzero"></path>
                        <path d="M12.36,14.27 L12.42,14.19 C12.42,14.19 12.42,14.19 12.42,14.19 L12.36,14.26 C12.36,14.26 12.36,14.26 12.36,14.26 L12.36,14.27 Z" id="Path" fill="#F58621" fill-rule="nonzero"></path>
                        <path d="M10.86,16.42 C10.86,16.42 10.86,16.42 10.86,16.42 L10.91,16.34 L10.91,16.34 L10.86,16.43 L10.86,16.43 L10.86,16.42 Z" id="Path" fill="#F58621" fill-rule="nonzero"></path>
                        <polygon id="Path" fill="#F58621" fill-rule="nonzero" points="12.25 14.19 12.3 14.11 12.3 14.11 12.3 14.2"></polygon>
                        <path d="M11,16.49 L11.05,16.41 C11.05,16.41 11.05,16.41 11.05,16.41 L11.05,16.49 L11,16.49 Z" id="Path" fill="#F58621" fill-rule="nonzero"></path>
                        <path d="M12.13,14.13 C12.13,14.13 12.13,14.13 12.13,14.13 L12.13,14.04 L12.13,14.04 L12.13,14.13 C12.13,14.13 12.13,14.13 12.13,14.13 Z" id="Path" fill="#F58621" fill-rule="nonzero"></path>
                        <path d="M11.12,16.54 C11.12,16.54 11.12,16.54 11.12,16.54 L11.12,16.45 C11.12,16.45 11.12,16.45 11.12,16.45 C11.12,16.45 11.12,16.45 11.12,16.45 L11.12,16.54 C11.12,16.54 11.12,16.54 11.12,16.54 Z" id="Path" fill="#F58621" fill-rule="nonzero"></path>
                        <path d="M12,14.07 C12,14.07 12,14.07 12,14.07 L12,14 C12,14 12,14 12,14 C12,14 12,14 12,14 L12,14.09 L12,14.09 L12,14.07 Z" id="Path" fill="#F58621" fill-rule="nonzero"></path>
                        <path d="M11.25,16.58 L11.25,16.58 L11.25,16.48 C11.25,16.48 11.25,16.48 11.25,16.48 C11.25,16.48 11.25,16.48 11.25,16.48 L11.25,16.58 C11.25,16.58 11.25,16.58 11.25,16.58 Z" id="Path" fill="#F58621" fill-rule="nonzero"></path>
                        <path d="M11.88,14 L11.88,14 L11.88,13.9 C11.88,13.9 11.88,13.9 11.88,13.9 C11.88,13.9 11.88,13.9 11.88,13.9 L11.88,14 L11.88,14 Z" id="Path" fill="#F58621" fill-rule="nonzero"></path>
                        <path d="M11.39,16.61 L11.39,16.5 L11.39,16.6 C11.39,16.6 11.39,16.6 11.39,16.6 L11.39,16.61 Z" id="Path" fill="#F58621" fill-rule="nonzero"></path>
                        <path d="M11.75,14 C11.75,14 11.75,14 11.75,14 L11.75,13.9 C11.75,13.9 11.75,13.9 11.75,13.9 L11.75,13.9 L11.75,14 C11.75,14 11.75,14 11.75,14 Z" id="Path" fill="#F58621" fill-rule="nonzero"></path>
                        <polygon id="Path" fill="#F58621" fill-rule="nonzero" points="11.53 16.62 11.53 16.62 11.53 16.52"></polygon>
                        <path d="M11.62,14 L11.62,13.89 C11.62,13.89 11.62,13.89 11.62,13.89 L11.62,14 C11.62,14 11.62,14 11.62,14 Z" id="Path" fill="#F58621" fill-rule="nonzero"></path>
                        <path d="M11.67,16.62 L11.67,16.62 L11.67,16.52 L11.67,16.61 C11.67,16.61 11.67,16.61 11.67,16.61 L11.67,16.62 Z" id="Path" fill="#F58621" fill-rule="nonzero"></path>
                        <polygon id="Path" fill="#F58621" fill-rule="nonzero" points="11.48 14 11.48 14 11.48 13.9 11.48 13.9"></polygon>
                        <path d="M11.82,16.6 L11.82,16.6 L11.82,16.51 C11.82,16.51 11.82,16.51 11.82,16.51 L11.82,16.6 C11.82,16.6 11.82,16.6 11.82,16.6 Z" id="Path" fill="#F58621" fill-rule="nonzero"></path>
                        <path d="M11.35,14 L11.35,14 L11.35,13.9 L11.35,13.9 L11.35,14 C11.35,14 11.36,14 11.35,14 Z" id="Path" fill="#F58621" fill-rule="nonzero"></path>
                        <path d="M12,16.57 L12,16.57 L12,16.48 L12,16.48 L12,16.57 C12,16.57 12,16.57 12,16.57 Z" id="Path" fill="#F58621" fill-rule="nonzero"></path>
                        <path d="M11.22,14.05 L11.22,14.05 L11.22,13.96 C11.22,13.96 11.22,13.96 11.22,13.96 L11.22,13.96 L11.22,14.06 C11.22,14.06 11.22,14.06 11.22,14.06 L11.22,14.05 Z" id="Path" fill="#F58621" fill-rule="nonzero"></path>
                        <path d="M12.09,16.52 L12.09,16.52 L12.09,16.43 L12.09,16.43 L12.09,16.52 C12.09,16.52 12.09,16.52 12.09,16.52 C12.09,16.52 12.09,16.53 12.09,16.52 Z" id="Path" fill="#F58621" fill-rule="nonzero"></path>
                        <path d="M11.1,14.09 L11.1,14.09 L11.1,14 C11.1,14 11.1,14 11.1,14 C11.1,14 11.1,14 11.1,14 L11.1,14.09 C11.1,14.09 11.1,14.09 11.1,14.09 C11.1,14.09 11.1,14.1 11.1,14.09 Z" id="Path" fill="#F58621" fill-rule="nonzero"></path>
                        <path d="M12.22,16.46 L12.22,16.46 L12.22,16.37 C12.22,16.37 12.22,16.37 12.22,16.37 C12.22,16.37 12.22,16.37 12.22,16.37 L12.27,16.46 C12.27,16.46 12.27,16.46 12.27,16.46 L12.22,16.46 Z" id="Path" fill="#F58621" fill-rule="nonzero"></path>
                        <path d="M11,14.15 L11,14.15 L11,14.07 C11,14.07 11,14.07 11,14.07 C11,14.07 11,14.07 11,14.07 L11,14.15 C11,14.15 11,14.16 11,14.15 Z" id="Path" fill="#F58621" fill-rule="nonzero"></path>
                        <polygon id="Path" fill="#F58621" fill-rule="nonzero" points="12.34 16.39 12.34 16.39 12.28 16.31 12.33 16.39"></polygon>
                        <path d="M10.86,14.22 L10.86,14.22 L10.81,14.14 L10.81,14.14 L10.87,14.22 C10.87,14.22 10.87,14.22 10.86,14.22 Z" id="Path" fill="#F58621" fill-rule="nonzero"></path>
                        <polygon id="Path" fill="#F58621" fill-rule="nonzero" points="12.45 16.3 12.39 16.23 12.39 16.23 12.45 16.31"></polygon>
                        <polygon id="Path" fill="#F58621" fill-rule="nonzero" points="10.76 14.3 10.69 14.22 10.69 14.22 10.75 14.29"></polygon>
                        <polygon id="Path" fill="#F58621" fill-rule="nonzero" points="10.59 14.32 10.59 14.32 10.66 14.39 10.66 14.39"></polygon>
                        <polygon id="Path" fill="#F58621" fill-rule="nonzero" points="12.48 16.14 12.48 16.14 12.48 16.14 12.55 16.21 12.55 16.21"></polygon>
                        <polygon id="Path" fill="#F58621" fill-rule="nonzero" points="10.5 14.43 10.5 14.43 10.58 14.49"></polygon>
                        <path d="M12.57,16 L12.64,16.06 C12.64,16.06 12.64,16.06 12.64,16.06 L12.64,16.06 L12.57,16 Z" id="Path" fill="#F58621" fill-rule="nonzero"></path>
                        <path d="M10.41,14.55 L10.41,14.55 L10.41,14.55 L10.49,14.61 C10.49,14.61 10.49,14.61 10.49,14.61 C10.49,14.61 10.49,14.61 10.49,14.61 L10.41,14.56 L10.41,14.55 Z" id="Path" fill="#F58621" fill-rule="nonzero"></path>
                        <path d="M12.64,15.93 L12.64,15.93 C12.64,15.93 12.64,15.93 12.64,15.93 L12.72,15.98 C12.72,15.98 12.72,15.98 12.72,15.98 L12.72,15.98 L12.64,15.98 L12.64,15.93 Z" id="Path" fill="#F58621" fill-rule="nonzero"></path>
                        <path d="M10.35,14.67 C10.35,14.67 10.35,14.67 10.35,14.67 C10.35,14.67 10.35,14.67 10.35,14.67 L10.44,14.67 L10.44,14.67 L10.35,14.67 Z" id="Path" fill="#F58621" fill-rule="nonzero"></path>
                        <polygon id="Path" fill="#F58621" fill-rule="nonzero" points="12.71 15.82 12.71 15.82 12.8 15.82 12.8 15.82 12.71 15.77"></polygon>
                        <path d="M10.29,14.8 C10.29,14.8 10.29,14.8 10.29,14.8 L10.38,14.8 C10.38,14.8 10.38,14.8 10.38,14.8 C10.38,14.8 10.38,14.8 10.38,14.8 L10.29,14.8 Z" id="Path" fill="#F58621" fill-rule="nonzero"></path>
                        <path d="M12.76,15.7 C12.76,15.7 12.76,15.7 12.76,15.7 C12.76,15.7 12.76,15.7 12.76,15.7 L12.85,15.7 L12.85,15.7 L12.85,15.7 L12.76,15.7 Z" id="Path" fill="#F58621" fill-rule="nonzero"></path>
                        <path d="M10.25,14.94 C10.25,14.94 10.25,14.94 10.25,14.94 C10.25,14.94 10.25,14.94 10.25,14.94 L10.34,14.94 C10.34,14.94 10.34,14.94 10.34,14.94 L10.34,14.94 L10.25,14.94 Z" id="Path" fill="#F58621" fill-rule="nonzero"></path>
                        <path d="M12.8,15.57 L12.8,15.57 C12.8,15.57 12.8,15.57 12.8,15.57 L12.89,15.57 C12.89,15.57 12.89,15.57 12.89,15.57 L12.8,15.57 Z" id="Path" fill="#F58621" fill-rule="nonzero"></path>
                        <path d="M10.22,15.08 L10.22,15.08 C10.22,15.08 10.22,15.08 10.22,15.08 L10.32,15.08 C10.32,15.08 10.32,15.08 10.32,15.08 C10.32,15.08 10.32,15.08 10.32,15.08 L10.21,15.08 L10.22,15.08 Z" id="Path" fill="#F58621" fill-rule="nonzero"></path>
                        <path d="M12.82,15.44 L12.82,15.44 C12.82,15.44 12.82,15.44 12.82,15.44 L12.92,15.44 C12.92,15.44 12.92,15.44 12.92,15.44 C12.92,15.44 12.92,15.44 12.92,15.44 L12.81,15.44 L12.82,15.44 Z" id="Path" fill="#F58621" fill-rule="nonzero"></path>
                        <path d="M10.21,15.22 L10.21,15.22 C10.21,15.22 10.21,15.22 10.21,15.22 L10.3,15.22 C10.3,15.22 10.3,15.22 10.3,15.22 L10.2,15.22 L10.21,15.22 Z" id="Path" fill="#F58621" fill-rule="nonzero"></path>
                        <path d="M12.83,15.31 L12.83,15.31 C12.83,15.31 12.83,15.31 12.83,15.31 L13,15.31 L12.88,15.31 L12.83,15.31 Z" id="Path" fill="#F58621" fill-rule="nonzero"></path>
                        <path d="M10.21,15.37 L10.21,15.37 C10.21,15.37 10.21,15.37 10.21,15.37 L10.3,15.37 C10.3,15.37 10.3,15.37 10.3,15.37 L10.18,15.37 L10.21,15.37 Z" id="Path" fill="#F58621" fill-rule="nonzero"></path>
                        <path d="M12.83,15.18 L12.83,15.18 C12.83,15.18 12.83,15.18 12.83,15.18 L12.92,15.18 C12.92,15.18 12.92,15.18 12.92,15.18 L12.8,15.18 L12.83,15.18 Z" id="Path" fill="#F58621" fill-rule="nonzero"></path>
                        <path d="M10.23,15.51 L10.23,15.51 C10.23,15.51 10.23,15.51 10.23,15.51 L10.35,15.51 C10.35,15.51 10.35,15.51 10.35,15.51 L10.25,15.51 L10.23,15.51 Z" id="Path" fill="#F58621" fill-rule="nonzero"></path>
                        <path d="M12.81,15.05 L12.81,15.05 L12.81,15.05 L12.9,15.05 C12.9,15.05 12.9,15.05 12.9,15.05 C12.9,15.05 12.9,15.05 12.9,15.05 L12.8,15.05 L12.81,15.05 Z" id="Path" fill="#F58621" fill-rule="nonzero"></path>
                        <path d="M10.26,15.65 L10.26,15.65 C10.26,15.65 10.26,15.65 10.26,15.65 L10.36,15.65 C10.36,15.65 10.36,15.65 10.36,15.65 C10.36,15.65 10.36,15.65 10.36,15.65 L10.26,15.65 Z" id="Path" fill="#F58621" fill-rule="nonzero"></path>
                        <path d="M12.78,14.92 L12.78,14.92 C12.78,14.92 12.78,14.92 12.78,14.92 L12.88,14.92 C12.88,14.92 12.88,14.92 12.88,14.92 L12.79,14.92 L12.78,14.92 Z" id="Path" fill="#F58621" fill-rule="nonzero"></path>
                        <path d="M10.31,15.78 L10.31,15.78 C10.31,15.78 10.31,15.78 10.31,15.78 L10.4,15.78 C10.4,15.78 10.4,15.78 10.4,15.78 L10.31,15.78 Z" id="Path" fill="#F58621" fill-rule="nonzero"></path>
                        <path d="M12.74,14.79 L12.74,14.79 C12.74,14.79 12.74,14.79 12.74,14.79 L12.83,14.79 L12.83,14.79 C12.83,14.79 12.83,14.79 12.83,14.79 L12.74,14.79 Z" id="Path" fill="#F58621" fill-rule="nonzero"></path>
                        <path d="M10.37,15.91 L10.37,15.91 C10.37,15.91 10.37,15.91 10.37,15.91 L10.45,15.91 C10.45,15.91 10.45,15.91 10.45,15.91 L10.37,15.96 L10.37,15.91 Z" id="Path" fill="#F58621" fill-rule="nonzero"></path>
                        <path d="M12.69,14.68 L12.69,14.68 L12.78,14.68 C12.78,14.68 12.78,14.68 12.78,14.68 C12.78,14.68 12.78,14.68 12.78,14.68 L12.69,14.73 L12.69,14.68 Z" id="Path" fill="#F58621" fill-rule="nonzero"></path>
                        <path d="M10.44,16 L10.44,16 C10.44,16 10.44,16 10.44,16 L10.52,15.94 C10.52,15.94 10.52,15.94 10.52,15.94 L10.44,15.99 C10.44,15.99 10.45,16 10.44,16 Z" id="Path" fill="#F58621" fill-rule="nonzero"></path>
                        <path d="M12.62,14.56 L12.62,14.56 L12.7,14.51 C12.7,14.51 12.7,14.51 12.7,14.51 C12.7,14.51 12.7,14.51 12.7,14.51 L12.62,14.57 C12.62,14.57 12.62,14.57 12.62,14.56 Z" id="Path" fill="#F58621" fill-rule="nonzero"></path>
                        <path d="M11.47,15.37 C11.4584769,15.3994384 11.4373297,15.4241102 11.41,15.44 C11.3782545,15.4545505 11.3417455,15.4545505 11.31,15.44 L11.31,15.44 C11.2798535,15.4246532 11.2553468,15.4001465 11.24,15.37 C11.2239728,15.3385932 11.2239728,15.3014068 11.24,15.27 L11.35,14.98 L11.28,14.9 L11.12,15.03 C11.090618,15.0386113 11.059382,15.0386113 11.03,15.03 C11.0007072,15.0392122 10.9692928,15.0392122 10.94,15.03 L10.94,15.03 C10.9300943,15.0008177 10.9300943,14.9691823 10.94,14.94 C10.9308494,14.9141183 10.9308494,14.8858817 10.94,14.86 L11.5,14.39 C11.5288639,14.378324 11.5611361,14.378324 11.59,14.39 C11.6191823,14.3800943 11.6508177,14.3800943 11.68,14.39 L11.85,14.59 L11.85,14.59 L11.85,14.59 C11.8743811,14.6613068 11.8743811,14.7386932 11.85,14.81 C11.8396499,14.8853016 11.8001495,14.9535296 11.74,15 C11.6883309,15.0424413 11.6261264,15.0700877 11.56,15.08 L11.48,15.08 L11.47,15.37 Z M11.47,14.78 L11.53,14.85 C11.5552011,14.8625032 11.5847989,14.8625032 11.61,14.85 C11.6425795,14.8600256 11.6774205,14.8600256 11.71,14.85 C11.7207159,14.8209569 11.7207159,14.7890431 11.71,14.76 C11.7242629,14.7316952 11.7242629,14.6983048 11.71,14.67 L11.65,14.6 L11.47,14.78 Z" id="Shape" fill="#F58621" fill-rule="nonzero"></path>
                        <path d="M11.58,15.74 L11.42,15.87 C11.3921539,15.886077 11.3578461,15.886077 11.33,15.87 C11.3047989,15.8825032 11.2752011,15.8825032 11.25,15.87 L11.25,15.87 C11.233923,15.8421539 11.233923,15.8078461 11.25,15.78 C11.2357371,15.7516952 11.2357371,15.7183048 11.25,15.69 L11.89,15.15 L11.89,15.15 L11.98,15.25 C11.9847226,15.2663321 11.9847226,15.2836679 11.98,15.3 L11.98,15.3 C12.0285884,15.3164084 12.0706432,15.3479495 12.1,15.39 C12.1616858,15.4617579 12.1906763,15.5559769 12.18,15.65 C12.1698497,15.7439628 12.1231566,15.8301656 12.05,15.89 C11.9776177,15.9514235 11.8848661,15.9835298 11.79,15.98 C11.6947796,15.9719782 11.605818,15.9292767 11.54,15.86 C11.5446532,15.8176117 11.5582896,15.7767025 11.58,15.74 Z M11.99,15.74 C12.0255777,15.7127378 12.0503718,15.6737755 12.06,15.63 C12.0745505,15.5982545 12.0745505,15.5617455 12.06,15.53 C12.06,15.53 12.06,15.53 12.01,15.48 C11.96,15.43 11.94,15.48 11.9,15.48 L11.77,15.59 C11.7600943,15.6191823 11.7600943,15.6508177 11.77,15.68 C11.7817437,15.7205215 11.8111348,15.7535864 11.85,15.77 C11.8720952,15.78075 11.8979048,15.78075 11.92,15.77 C11.9516482,15.7630906 11.979921,15.7454201 12,15.72 L11.99,15.74 Z" id="Shape" fill="#F58621" fill-rule="nonzero"></path>
                        <path d="M9.6,23.83 C9.59366703,23.7331273 9.52458701,23.6518567 9.43,23.63 C9.06990643,23.5404388 8.80786174,23.2300166 8.78,22.86 C8.77493039,22.8015568 8.74672957,22.7475586 8.70166363,22.7100036 C8.65659768,22.6724487 8.59839936,22.6544476 8.54,22.66 C8.44595949,22.6650293 8.36554968,22.7293572 8.34,22.82 C8.25043881,23.1800936 7.94001663,23.4421383 7.57,23.47 C7.44675642,23.4856434 7.35820834,23.5963285 7.37,23.72 C7.37614476,23.8114677 7.44091223,23.8883791 7.53,23.91 C7.88838397,24.0022953 8.14915605,24.3112099 8.18,24.68 C8.18507957,24.7410904 8.21433624,24.7976253 8.26127485,24.8370538 C8.30821346,24.8764822 8.36894979,24.8955414 8.43,24.89 C8.5230596,24.8795462 8.59930239,24.811329 8.62,24.72 C8.70956119,24.3599064 9.01998337,24.0978617 9.39,24.07 C9.45022914,24.0675143 9.50680008,24.0404238 9.54649501,23.9950581 C9.58618994,23.9496925 9.60553131,23.8900261 9.6,23.83 L9.6,23.83 Z" id="Path" fill="#F2A421" fill-rule="nonzero"></path>
                        <path d="M30,12.79 C29.9895462,12.6969404 29.921329,12.6206976 29.83,12.6 C29.4699064,12.5104388 29.2078617,12.2000166 29.18,11.83 C29.1504878,11.7332128 29.0611867,11.667082 28.96,11.667082 C28.8588133,11.667082 28.7695122,11.7332128 28.74,11.83 C28.6516268,12.1868308 28.3462189,12.448035 27.98,12.48 C27.8584974,12.48 27.76,12.5784974 27.76,12.7 C27.76,12.8215026 27.8584974,12.92 27.98,12.92 C28.3400936,13.0095612 28.6021383,13.3199834 28.63,13.69 C28.6350696,13.7484432 28.6632704,13.8024414 28.7083364,13.8399964 C28.7534023,13.8775513 28.8116006,13.8955524 28.87,13.89 C28.9652389,13.8881992 29.047337,13.8225207 29.07,13.73 C29.1595612,13.3699064 29.4699834,13.1078617 29.84,13.08 C29.9003256,13.0637713 29.9514548,13.0237021 29.9816329,12.9690043 C30.0118109,12.9143066 30.0184414,12.8496864 30,12.79 Z" id="Path" fill="#F2A421" fill-rule="nonzero"></path>
                        <path d="M7.59,11.34 C7.59194714,11.2434478 7.52462464,11.1592947 7.43,11.14 C7.06990643,11.0504388 6.80786174,10.7400166 6.78,10.37 C6.77493039,10.3115568 6.74672957,10.2575586 6.70166363,10.2200036 C6.65659768,10.1824487 6.59839936,10.1644476 6.54,10.17 C6.44176806,10.1728887 6.35867647,10.2435166 6.34,10.34 C6.24411042,10.6944501 5.93600754,10.9505356 5.57,10.98 C5.44675642,10.9956434 5.35820834,11.1063285 5.37,11.23 C5.37277448,11.322791 5.43903463,11.401475 5.53,11.42 C5.88838397,11.5122953 6.14915605,11.8212099 6.18,12.19 C6.18,12.3115026 6.27849736,12.41 6.4,12.41 C6.52150264,12.41 6.62,12.3115026 6.62,12.19 C6.70956119,11.8299064 7.01998337,11.5678617 7.39,11.54 C7.49636671,11.5306993 7.58069926,11.4463667 7.59,11.34 Z" id="Path" fill="#F2A421" fill-rule="nonzero"></path>
                    </g>
                </g>
            </g>
        </g>
    </g>
</svg>