<?xml version="1.0" encoding="UTF-8"?>
<svg width="80px" height="80px" viewBox="0 0 80 80" version="1.1" xmlns="http://www.w3.org/2000/svg" xmlns:xlink="http://www.w3.org/1999/xlink">
    <!-- Generator: sketchtool 53.1 (72631) - https://sketchapp.com -->
    <title>B13F8BB9-D01E-4609-A63C-576D04EB13F2</title>
    <desc>Created with sketchtool.</desc>
    <defs>
        <radialGradient cx="50.4349244%" cy="50.1551191%" fx="50.4349244%" fy="50.1551191%" r="84.0261086%" gradientTransform="translate(0.504349,0.501551),scale(0.551407,1.000000),translate(-0.504349,-0.501551)" id="radialGradient-1">
            <stop stop-color="#E20613" offset="0%"></stop>
            <stop stop-color="#E20613" offset="18%"></stop>
            <stop stop-color="#731A13" offset="76%"></stop>
            <stop stop-color="#6E1912" offset="100%"></stop>
        </radialGradient>
        <linearGradient x1="-40.4797601%" y1="61.8580859%" x2="141.829085%" y2="36.0741948%" id="linearGradient-2">
            <stop stop-color="#801A14" offset="0%"></stop>
            <stop stop-color="#E31918" offset="19%"></stop>
            <stop stop-color="#ED7556" offset="33%"></stop>
            <stop stop-color="#F0886A" offset="37%"></stop>
            <stop stop-color="#ED7556" offset="42%"></stop>
            <stop stop-color="#E31517" offset="53%"></stop>
            <stop stop-color="#801A14" offset="100%"></stop>
        </linearGradient>
        <linearGradient x1="-333.113674%" y1="93.2258523%" x2="430.971993%" y2="5.05029387%" id="linearGradient-3">
            <stop stop-color="#6F6F6E" offset="0%"></stop>
            <stop stop-color="#D9D9D9" offset="27%"></stop>
            <stop stop-color="#FFFFFF" offset="41%"></stop>
            <stop stop-color="#C7C7C7" offset="65%"></stop>
            <stop stop-color="#6F6F6E" offset="100%"></stop>
        </linearGradient>
    </defs>
    <g id="Page-1" stroke="none" stroke-width="1" fill="none" fill-rule="evenodd">
        <g id="Pinang---HiFi-3" transform="translate(-679.000000, -5231.000000)">
            <g id="Features" transform="translate(135.000000, 4431.000000)">
                <g id="-g-icon-8" transform="translate(544.000000, 800.000000)">
                    <circle id="Oval" fill="#278F45" cx="40" cy="40" r="40"></circle>
                    <g id="Untitled-4_Artboard-1-copy-4" stroke-width="1" transform="translate(15.000000, 17.000000)">
                        <path d="M33,41.85 C33,43.4405801 31.7105801,44.73 30.12,44.73 L4.64,44.73 C3.05332656,44.7244907 1.76999044,43.436683 1.77,41.85 L1.77,5.53 C1.77548629,3.94722083 3.05722083,2.66548629 4.64,2.66 L24.29,2.66 L33,11.21 L33,41.85 Z" id="Path" fill="#FFFFFF" fill-rule="nonzero"></path>
                        <path d="M30.1,45.83 L4.64,45.83 C2.430861,45.83 0.64,44.039139 0.64,41.83 L0.64,5.53 C0.64,3.320861 2.430861,1.53 4.64,1.53 L24.74,1.53 L34.08,10.71 L34.08,41.85 C34.0690594,44.0435456 32.2935456,45.8190594 30.1,45.83 Z M4.64,3.76 C3.66472815,3.76546384 2.87546384,4.55472815 2.87,5.53 L2.87,41.85 C2.87,42.827544 3.66245599,43.62 4.64,43.62 L30.1,43.62 C30.5694332,43.62 31.0196396,43.4335184 31.351579,43.101579 C31.6835184,42.7696396 31.87,42.3194332 31.87,41.85 L31.87,11.67 L23.87,3.76 L4.64,3.76 Z" id="Shape" fill="#F1A421" fill-rule="nonzero"></path>
                        <path d="M23.67,2.66 L23.67,10 C23.67,11.38 23.96,11.87 25.54,11.87 L33,11.87 L23.67,2.66 Z" id="Path" fill="#F1A421" fill-rule="nonzero"></path>
                        <rect id="Rectangle" fill="#F1A421" fill-rule="nonzero" x="6.22" y="14.52" width="22.1" height="1.66"></rect>
                        <rect id="Rectangle" fill="#F1A421" fill-rule="nonzero" x="6.22" y="18.75" width="22.1" height="1.66"></rect>
                        <rect id="Rectangle" fill="#F1A421" fill-rule="nonzero" x="6.22" y="22.99" width="22.1" height="1.66"></rect>
                        <rect id="Rectangle" fill="#F1A421" fill-rule="nonzero" x="6.22" y="27.22" width="22.1" height="1.66"></rect>
                        <rect id="Rectangle" fill="#F1A421" fill-rule="nonzero" x="17.27" y="37.86" width="11.05" height="1.56"></rect>
                        <path d="M12.05,42.49 C11.8724312,42.4924809 11.7195804,42.3651052 11.69,42.19 C11.4833999,40.1616611 12.1612416,38.1427131 13.55,36.65 C14.84,35.05 16.63,33.76 17.62,33.72 C17.8952496,33.6752991 18.1725746,33.7869994 18.34,34.01 C18.57,34.36 18.34,34.79 18.16,35.26 C18.05,35.52 17.83,36 17.91,36.13 C17.99,36.26 18.02,36.26 18.6,36.24 C19.3869329,36.2921858 20.1310576,35.8770425 20.5,35.18 C20.66,34.94 20.82,34.68 21.12,34.63 C21.3946704,34.6176335 21.6623152,34.7189045 21.86,34.91 C21.9800512,35.0165831 22.1413009,35.0642251 22.3,35.04 C22.9474762,34.8259047 23.51089,34.4129678 23.91,33.86 C23.9709785,33.7830563 24.0600373,33.7335023 24.1575672,33.7222488 C24.255097,33.7109954 24.3531009,33.7389653 24.43,33.8 C24.5852272,33.9297293 24.611604,34.1583286 24.49,34.32 C23.9676892,35.02474 23.2251355,35.5350257 22.38,35.77 C22.0208217,35.8168716 21.6583746,35.711762 21.38,35.48 L21.24,35.38 L21.12,35.57 C20.6288447,36.4821592 19.6543692,37.0278656 18.62,36.97 C17.95,36.97 17.51,36.86 17.29,36.54 C17.07,36.22 17.29,35.48 17.48,34.96 C17.5586907,34.7983982 17.6255334,34.6312914 17.68,34.46 L17.68,34.46 C16.2549091,34.9519714 15.0202027,35.8788757 14.15,37.11 C13.36,38.11 12.09,40.02 12.45,42.11 C12.4674442,42.2068289 12.4456046,42.3066182 12.389309,42.3873086 C12.3330134,42.467999 12.2468982,42.5229449 12.15,42.54 L12.05,42.49 Z" id="Path" fill="#288E45" fill-rule="nonzero"></path>
                        <path d="M37.45,24 C35.9752789,25.832206 33.3021309,26.139618 31.45,24.69 L31.45,24.69 C29.617794,23.2152789 29.310382,20.5421309 30.76,18.69 L43.56,2.56 C45.031891,0.722666806 47.7094615,0.41474619 49.56,1.87 L49.56,1.87 C51.392206,3.34472109 51.699618,6.01786915 50.25,7.87 L37.45,24 Z" id="Path" fill="#4AB7DF" fill-rule="nonzero"></path>
                        <path d="M31.56,17.63 C27.17,23.15 23.23,33.42 24,34 C24.77,34.58 32.56,30.18 38.29,23 C44.02,15.82 31.56,17.63 31.56,17.63 Z" id="Path" fill="#4AB7DF" fill-rule="nonzero"></path>
                        <rect id="Rectangle" fill="#FFFFFF" fill-rule="nonzero" transform="translate(34.632035, 20.660769) rotate(-51.490000) translate(-34.632035, -20.660769) " x="33.742035" y="16.2407689" width="1.78" height="8.84"></rect>
                        <path d="M45,20.19 C44.8563089,20.3729101 44.6453574,20.4906643 44.4142485,20.5169694 C44.1831397,20.5432745 43.9511211,20.4759396 43.77,20.33 L43.77,20.33 C43.5870899,20.1863089 43.4693357,19.9753574 43.4430306,19.7442485 C43.4167255,19.5131397 43.4840604,19.2811211 43.63,19.1 L51.76,8.88 C51.9054934,8.69645292 52.1181549,8.57847912 52.3508938,8.55220215 C52.5836327,8.52592518 52.8172447,8.59351326 53,8.74 L53,8.74 C53.1919939,8.88410663 53.3159108,9.1011402 53.3424209,9.33973101 C53.368931,9.57832183 53.2956779,9.81726317 53.14,10 L45,20.19 Z" id="Path" fill="#4AB7DF" fill-rule="nonzero"></path>
                        <rect id="Rectangle" fill="#4AB7DF" fill-rule="nonzero" transform="translate(46.696661, 13.247804) rotate(-51.490000) translate(-46.696661, -13.247804) " x="44.4566609" y="11.9878045" width="4.48" height="2.52"></rect>
                        <path d="M13.49,8.36 C13.3895729,8.36183718 13.2947753,8.40673233 13.2297229,8.4832645 C13.1646706,8.55979668 13.1356341,8.66058872 13.15,8.76 C13.15,9 13.28,9.16 13.47,9.16 C13.66,9.16 13.81,9.02 13.81,8.75 C13.81,8.48 13.69,8.36 13.49,8.36 L13.49,8.36 Z M13.49,8.45 C13.63,8.45 13.7,8.61 13.7,8.76 C13.7,8.91 13.63,9.06 13.49,9.06 C13.35,9.06 13.28,8.92 13.28,8.76 C13.28,8.6 13.35,8.45 13.49,8.45 Z M14.4,8.37 L13.87,8.37 L13.87,8.47 L14.07,8.47 L14.07,9.15 L14.19,9.15 L14.19,8.47 L14.4,8.47 L14.4,8.37 Z M14.78,8.37 C14.59,8.37 14.45,8.53 14.45,8.77 C14.45,9.01 14.58,9.17 14.77,9.17 C14.96,9.17 15.11,9.03 15.11,8.76 C15.11,8.49 14.99,8.37 14.78,8.37 L14.78,8.37 Z M14.78,8.46 C14.92,8.46 14.99,8.62 14.99,8.77 C14.99,8.92 14.92,9.07 14.78,9.07 C14.64,9.07 14.57,8.93 14.57,8.77 C14.57,8.61 14.64,8.46 14.78,8.46 Z M15.56,8.79 C15.6446046,8.76009236 15.7008575,8.67973112 15.7,8.59 C15.7033118,8.53356365 15.6813198,8.47858369 15.64,8.44 C15.5795153,8.38722405 15.4998609,8.36187945 15.42,8.37 L15.23,8.37 L15.23,9.14 L15.35,9.14 L15.35,8.81 L15.42,8.81 C15.5,8.81 15.54,8.81 15.56,8.95 C15.5709132,9.01470932 15.5876479,9.07830091 15.61,9.14 L15.73,9.14 L15.67,8.93 C15.67,8.84 15.62,8.79 15.56,8.77 L15.56,8.79 Z M15.35,8.74 L15.35,8.47 L15.43,8.47 C15.51,8.47 15.59,8.47 15.59,8.6 C15.5874345,8.63981543 15.5691124,8.67696826 15.5390861,8.70324127 C15.5090598,8.72951429 15.4698036,8.74274243 15.43,8.74 L15.35,8.74 Z M15.84,9.16 L15.95,9.16 L15.95,8.38 L15.84,8.38 L15.84,9.16 Z M16.58,8.38 L16,8.38 L16,8.48 L16.21,8.48 L16.21,9.16 L16.33,9.16 L16.33,8.48 L16.54,8.48 L16.54,8.38 L16.58,8.38 Z M16.97,8.38 L16.83,8.38 L16.59,9.16 L16.71,9.16 L16.78,8.93 L17,8.93 L17.07,9.16 L17.19,9.16 L17,8.37 L16.97,8.38 Z M16.8,8.84 L16.86,8.63 L16.86,8.48 L16.86,8.48 C16.8554727,8.52989752 16.8554727,8.58010248 16.86,8.63 L16.92,8.84 L16.8,8.84 Z M17.71,8.4 C17.6570124,8.39141134 17.6029876,8.39141134 17.55,8.4 C17.39,8.4 17.29,8.49 17.29,8.61 C17.29,8.73 17.37,8.79 17.49,8.84 C17.61,8.89 17.62,8.92 17.62,8.98 C17.62,9.04 17.57,9.1 17.48,9.1 C17.4246057,9.11698212 17.3653943,9.11698212 17.31,9.1 L17.31,9.2 C17.3667881,9.23557044 17.4330591,9.25301021 17.5,9.25 C17.5669583,9.25847502 17.6343905,9.23836466 17.6857687,9.19459802 C17.7371469,9.15083138 17.767722,9.08745407 17.77,9.02 C17.77,8.91 17.71,8.85 17.58,8.79 C17.45,8.73 17.44,8.72 17.44,8.65 C17.44,8.58 17.44,8.55 17.57,8.55 C17.6160946,8.53966653 17.6639054,8.53966653 17.71,8.55 L17.71,8.45 L17.71,8.4 Z M13.46,9.4 L13.34,9.4 L13.34,9.92 C13.34,10.06 13.34,10.09 13.21,10.09 L13.14,10.09 L13.14,10.19 L13.24,10.19 C13.38,10.19 13.48,10.13 13.48,9.92 L13.48,9.4 L13.46,9.4 Z M13.94,9.4 L13.79,9.4 L13.56,10.18 L13.68,10.18 L13.74,9.95 L14,9.95 L14.07,10.18 L14.2,10.18 L13.96,9.4 L13.94,9.4 Z M13.76,9.86 L13.82,9.66 C13.8245473,9.60676359 13.8245473,9.55323641 13.82,9.5 L13.82,9.5 C13.82,9.55 13.82,9.61 13.82,9.66 L13.88,9.86 L13.76,9.86 Z M14.68,9.43 C14.6241945,9.41602896 14.5658055,9.41602896 14.51,9.43 C14.446657,9.42127803 14.3826533,9.44054569 14.3346523,9.48278665 C14.2866512,9.52502761 14.2594023,9.58606216 14.26,9.65 C14.26,9.75 14.34,9.82 14.45,9.87 C14.56,9.92 14.59,9.95 14.59,10.01 C14.59,10.07 14.53,10.13 14.44,10.13 C14.383898,10.1413132 14.326102,10.1413132 14.27,10.13 L14.27,10.23 C14.3292208,10.2436753 14.3907792,10.2436753 14.45,10.23 C14.63,10.23 14.73,10.13 14.73,10 C14.73,9.87 14.67,9.83 14.54,9.77 C14.41,9.71 14.4,9.7 14.4,9.63 C14.4,9.56 14.4,9.53 14.53,9.53 C14.576338,9.52216745 14.623662,9.52216745 14.67,9.53 L14.67,9.44 L14.68,9.43 Z M15.16,9.43 L15,9.43 L14.77,10.21 L14.89,10.21 L14.95,9.98 L15.19,9.98 L15.26,10.21 L15.39,10.21 L15.15,9.43 L15.16,9.43 Z M14.98,9.89 L15.05,9.69 L15.05,9.53 L15.05,9.53 C15.0545473,9.58323641 15.0545473,9.63676359 15.05,9.69 L15.11,9.89 L14.98,9.89 Z M13.47,10.77 L13.72,10.44 L13.58,10.44 L13.38,10.71 L13.32,10.8 L13.32,10.8 L13.32,10.44 L13.2,10.44 L13.2,11.21 L13.32,11.21 L13.32,10.93 L13.38,10.85 L13.6,11.21 L13.74,11.21 L13.47,10.77 Z M14.24,11.12 L13.93,11.12 L13.93,10.8 L14.2,10.8 L14.2,10.7 L13.93,10.7 L13.93,10.47 L14.22,10.47 L14.22,10.38 L13.8,10.38 L13.8,11.15 L14.23,11.15 L14.23,11.06 L14.24,11.12 Z M14.9,10.44 L14.79,10.44 L14.79,10.91 C14.79,11.06 14.73,11.13 14.63,11.13 C14.53,11.13 14.47,11.06 14.47,10.91 L14.47,10.44 L14.36,10.44 L14.36,10.9 C14.36,11.13 14.46,11.23 14.62,11.23 C14.78,11.23 14.9,11.13 14.9,10.9 L14.9,10.44 L14.9,10.44 Z M15.39,10.44 L15.25,10.44 L15.01,11.21 L15.13,11.21 L15.2,10.99 L15.44,10.99 L15.51,11.21 L15.63,11.21 L15.39,10.44 L15.39,10.44 Z M15.22,10.9 L15.28,10.69 L15.28,10.54 L15.28,10.54 C15.2754727,10.5898975 15.2754727,10.6401025 15.28,10.69 L15.34,10.9 L15.22,10.9 Z M16.3,10.44 L16.19,10.44 L16.19,10.72 C16.19,10.85 16.19,10.95 16.19,11.05 L16.19,11.05 C16.19,10.97 16.11,10.88 16.06,10.8 L15.86,10.44 L15.73,10.44 L15.73,11.21 L15.84,11.21 L15.84,10.92 C15.84,10.79 15.84,10.69 15.84,10.59 L15.84,10.59 L15.97,10.85 L16.18,11.21 L16.3,11.21 L16.3,10.44 L16.3,10.44 Z M17.02,10.8 L16.77,10.8 L16.77,10.89 L16.9,10.89 L16.9,11.11 L16.8,11.11 C16.7235188,11.1109114 16.6505161,11.0781005 16.6004226,11.0203004 C16.5503292,10.9625003 16.5282274,10.8855752 16.54,10.81 C16.5311572,10.7315787 16.5570674,10.6532141 16.6109148,10.5955204 C16.6647622,10.5378268 16.7411558,10.5065801 16.82,10.51 C16.8692461,10.4977208 16.9207539,10.4977208 16.97,10.51 L16.97,10.41 C16.9106123,10.3978775 16.8493877,10.3978775 16.79,10.41 C16.6813447,10.4007668 16.5741495,10.439934 16.4970418,10.5170418 C16.419934,10.5941495 16.3807668,10.7013447 16.39,10.81 C16.3774595,10.9149934 16.4130575,11.0200282 16.4868495,11.0957621 C16.5606414,11.1714959 16.6647164,11.2098097 16.77,11.2 C16.842747,11.2131148 16.917253,11.2131148 16.99,11.2 L16.99,10.82 L17.02,10.8 Z M17.49,10.44 L17.34,10.44 L17.1,11.21 L17.22,11.21 L17.29,10.99 L17.53,10.99 L17.6,11.21 L17.72,11.21 L17.49,10.44 L17.49,10.44 Z M17.31,10.9 L17.37,10.69 C17.37,10.64 17.37,10.59 17.37,10.54 L17.37,10.54 C17.3654727,10.5898975 17.3654727,10.6401025 17.37,10.69 L17.43,10.9 L17.31,10.9 Z M18.39,10.44 L18.28,10.44 L18.28,10.72 C18.28,10.85 18.28,10.95 18.28,11.05 L18.28,11.05 C18.2446614,10.9627471 18.2011335,10.8790396 18.15,10.8 L17.95,10.44 L17.82,10.44 L17.82,11.21 L17.93,11.21 L17.93,10.92 C17.93,10.79 17.93,10.69 17.93,10.59 L17.93,10.59 C17.9652519,10.6804772 18.0087693,10.7675122 18.06,10.85 L18.26,11.21 L18.38,11.21 L18.39,10.44 Z" id="Shape" fill="#6F6F6E"></path>
                        <path d="M7.74,8.35 C7.36314652,8.36160954 7.00831874,8.53028446 6.7613888,8.81520363 C6.51445886,9.10012279 6.39792874,9.47532235 6.44,9.85 C6.44,10.64 6.85,11.33 7.7,11.33 C7.9107632,11.3356294 8.11984506,11.2910709 8.31,11.2 C8.46768547,11.2725103 8.63696584,11.3165231 8.81,11.33 C9.36,11.33 9.81,11.12 9.81,10.33 L9.81,8.33 L9.23,8.33 L9.23,10.33 C9.23,10.74 9.08,10.83 8.86,10.83 L8.79,10.83 C8.96742878,10.5275065 9.05420494,10.1804019 9.04,9.83 C9.08550754,9.46628725 8.97413749,9.10038844 8.73371058,8.82370667 C8.49328366,8.5470249 8.14650449,8.3856885 7.78,8.38 L7.74,8.35 Z M10.83,9.48 L11.83,8.32 L11,8.26 L10,9.49 L10,10.4 L10.4,9.99 L11.19,11.33 L12,11.33 L10.8,9.49 L10.83,9.48 Z M7.72,8.86 C8.19,8.86 8.42,9.3 8.42,9.86 C8.42,10.42 8.18,10.86 7.72,10.86 C7.26,10.86 7,10.45 7,9.86 C7,9.27 7.23,8.86 7.72,8.86 Z" id="Shape" fill="url(#radialGradient-1)"></path>
                        <rect id="Rectangle" fill="#931A15" fill-rule="nonzero" x="12.52" y="8.28" width="1" height="3.15"></rect>
                        <path d="M6.64,8 C6.79371667,8.28851546 6.88887449,8.60457538 6.92,8.93 C8.24,7.55 9.56,8.03 10.92,8.33 C11.5786028,8.51657908 12.286403,8.32424207 12.76,7.83 C12.2807717,8.14378565 11.6855546,8.2246176 11.14,8.05 C10.59,8.05 9.69,7.3 8.45,7.16 C7.73597503,7.07274043 7.03431959,7.39837058 6.64,8 L6.64,8 Z" id="Path" fill="#6F6F6E"></path>
                        <path d="M6,7.13 C6.50235857,7.55713065 6.81810837,8.16351379 6.88,8.82 C8.2,7.44 9.49,7.96 10.83,8.26 C11.4885884,8.44890452 12.1975923,8.25624042 12.67,7.76 C10.96,8.69 10.31,7.3 9.24,6.82 C8.19293688,6.27757146 6.92520994,6.39886632 6,7.13 Z" id="Path" fill="url(#linearGradient-2)"></path>
                        <path d="M6.64,7.88 C6.80384978,8.16785778 6.89962942,8.48940373 6.92,8.82 C8.24,7.44 9.53,7.96 10.87,8.26 C11.5285884,8.44890452 12.2375923,8.25624042 12.71,7.76 C12.2349712,8.07347328 11.6458024,8.1612997 11.1,8 C10.54,8 9.64,7.24 8.4,7.1 C7.71461815,7.01712414 7.03894995,7.316568 6.64,7.88 L6.64,7.88 Z" id="Path" fill="url(#linearGradient-3)"></path>
                    </g>
                </g>
            </g>
        </g>
    </g>
</svg>