<?xml version="1.0" encoding="UTF-8"?>
<svg width="80px" height="80px" viewBox="0 0 80 80" version="1.1" xmlns="http://www.w3.org/2000/svg" xmlns:xlink="http://www.w3.org/1999/xlink">
    <!-- Generator: sketchtool 53.1 (72631) - https://sketchapp.com -->
    <title>F9BF4226-893E-4F58-A319-F6F6EBFD4262</title>
    <desc>Created with sketchtool.</desc>
    <defs>
        <path d="M3.14162536,0.352802817 C1.45928164,0.352802817 0.096343277,1.68480282 0.096343277,3.32947887 L0.096343277,3.32947887 L0.096343277,33.7799577 C0.096343277,35.4246338 1.45928164,36.7571549 3.14162536,36.7571549 L3.14162536,36.7571549 L47.905299,36.7571549 C49.5876427,36.7571549 50.9516475,35.4246338 50.9516475,33.7799577 L50.9516475,33.7799577 L50.9516475,3.32947887 C50.9516475,1.68480282 49.5876427,0.352802817 47.905299,0.352802817 L47.905299,0.352802817 L3.14162536,0.352802817 Z" id="path-1"></path>
        <path d="M3.14162536,0.352802817 C1.45928164,0.352802817 0.096343277,1.68480282 0.096343277,3.32947887 L0.096343277,3.32947887 L0.096343277,33.7799577 C0.096343277,35.4246338 1.45928164,36.7571549 3.14162536,36.7571549 L3.14162536,36.7571549 L47.905299,36.7571549 C49.5876427,36.7571549 50.9516475,35.4246338 50.9516475,33.7799577 L50.9516475,33.7799577 L50.9516475,3.32947887 C50.9516475,1.68480282 49.5876427,0.352802817 47.905299,0.352802817 L47.905299,0.352802817 L3.14162536,0.352802817 Z" id="path-3"></path>
        <path d="M3.14162536,0.352802817 C1.45928164,0.352802817 0.096343277,1.68480282 0.096343277,3.32947887 L0.096343277,3.32947887 L0.096343277,33.7799577 C0.096343277,35.4246338 1.45928164,36.7571549 3.14162536,36.7571549 L3.14162536,36.7571549 L47.905299,36.7571549 C49.5876427,36.7571549 50.9516475,35.4246338 50.9516475,33.7799577 L50.9516475,33.7799577 L50.9516475,3.32947887 C50.9516475,1.68480282 49.5876427,0.352802817 47.905299,0.352802817 L47.905299,0.352802817 L3.14162536,0.352802817 Z" id="path-5"></path>
        <path d="M3.14162536,0.352802817 C1.45928164,0.352802817 0.096343277,1.68480282 0.096343277,3.32947887 L0.096343277,3.32947887 L0.096343277,33.7799577 C0.096343277,35.4246338 1.45928164,36.7571549 3.14162536,36.7571549 L3.14162536,36.7571549 L47.905299,36.7571549 C49.5876427,36.7571549 50.9516475,35.4246338 50.9516475,33.7799577 L50.9516475,33.7799577 L50.9516475,3.32947887 C50.9516475,1.68480282 49.5876427,0.352802817 47.905299,0.352802817 L47.905299,0.352802817 L3.14162536,0.352802817 Z" id="path-7"></path>
        <path d="M3.14162536,0.352802817 C1.45928164,0.352802817 0.096343277,1.68480282 0.096343277,3.32947887 L0.096343277,3.32947887 L0.096343277,33.7799577 C0.096343277,35.4246338 1.45928164,36.7571549 3.14162536,36.7571549 L3.14162536,36.7571549 L47.905299,36.7571549 C49.5876427,36.7571549 50.9516475,35.4246338 50.9516475,33.7799577 L50.9516475,33.7799577 L50.9516475,3.32947887 C50.9516475,1.68480282 49.5876427,0.352802817 47.905299,0.352802817 L47.905299,0.352802817 L3.14162536,0.352802817 Z" id="path-9"></path>
        <path d="M3.14162536,0.352802817 C1.45928164,0.352802817 0.096343277,1.68480282 0.096343277,3.32947887 L0.096343277,3.32947887 L0.096343277,33.7799577 C0.096343277,35.4246338 1.45928164,36.7571549 3.14162536,36.7571549 L3.14162536,36.7571549 L47.905299,36.7571549 C49.5876427,36.7571549 50.9516475,35.4246338 50.9516475,33.7799577 L50.9516475,33.7799577 L50.9516475,3.32947887 C50.9516475,1.68480282 49.5876427,0.352802817 47.905299,0.352802817 L47.905299,0.352802817 L3.14162536,0.352802817 Z" id="path-11"></path>
        <path d="M3.14162536,0.352802817 C1.45928164,0.352802817 0.096343277,1.68480282 0.096343277,3.32947887 L0.096343277,3.32947887 L0.096343277,33.7799577 C0.096343277,35.4246338 1.45928164,36.7571549 3.14162536,36.7571549 L3.14162536,36.7571549 L47.905299,36.7571549 C49.5876427,36.7571549 50.9516475,35.4246338 50.9516475,33.7799577 L50.9516475,33.7799577 L50.9516475,3.32947887 C50.9516475,1.68480282 49.5876427,0.352802817 47.905299,0.352802817 L47.905299,0.352802817 L3.14162536,0.352802817 Z" id="path-13"></path>
        <polygon id="path-15" points="0 47 110.647009 47 110.647009 0.030989011 0 0.030989011"></polygon>
    </defs>
    <g id="Page-1" stroke="none" stroke-width="1" fill="none" fill-rule="evenodd">
        <g id="Pinang---HiFi-3" transform="translate(-679.000000, -4694.000000)">
            <g id="Features" transform="translate(135.000000, 4431.000000)">
                <g id="icon-2" transform="translate(544.000000, 263.000000)">
                    <circle id="Oval" fill="#278F45" cx="40" cy="40" r="40"></circle>
                    <g id="Group-48" stroke-width="1" transform="translate(-15.000000, 17.000000)">
                        <g id="Group-7" transform="translate(27.000000, 2.000000)">
                            <path d="M48.5193834,38.815696 C48.5193834,42.2314933 45.7175251,45 42.2617435,45 L9.44146496,45 C5.98620478,45 3.18382503,42.2314933 3.18382503,38.815696 L3.18382503,33.4796724 C3.18382503,30.0638752 5.98620478,27.2953684 9.44146496,27.2953684 L42.2617435,27.2953684 C45.7175251,27.2953684 48.5193834,30.0638752 48.5193834,33.4796724 L48.5193834,38.815696 Z" id="Fill-1" fill="#F58521"></path>
                            <path d="M51.3900236,34.6007321 C51.3900236,36.2272041 50.0561033,37.5449762 48.4108655,37.5449762 L4.63502388,37.5449762 C2.98978605,37.5449762 1.65638727,36.2272041 1.65638727,34.6007321 L1.65638727,4.48729461 C1.65638727,2.86082267 2.98978605,1.54305056 4.63502388,1.54305056 L48.4108655,1.54305056 C50.0561033,1.54305056 51.3900236,2.86082267 51.3900236,4.48729461 L51.3900236,34.6007321 Z" id="Fill-3" fill="#F58521"></path>
                            <path d="M4.63491959,3.05310298 C3.83498462,3.05310298 3.18419006,3.6962706 3.18419006,4.48734615 L3.18419006,34.6007836 C3.18419006,35.3918592 3.83498462,36.0350268 4.63491959,36.0350268 L48.4107612,36.0350268 C49.2112176,36.0350268 49.8620122,35.3918592 49.8620122,34.6007836 L49.8620122,4.48734615 C49.8620122,3.6962706 49.2112176,3.05310298 48.4107612,3.05310298 L4.63491959,3.05310298 Z M48.4107612,39.0545132 L4.63491959,39.0545132 C2.14959359,39.0545132 0.128375898,37.0564677 0.128375898,34.6007836 L0.128375898,4.48734615 C0.128375898,2.03166211 2.14959359,0.0336165661 4.63491959,0.0336165661 L48.4107612,0.0336165661 C50.8966086,0.0336165661 52.9178263,2.03166211 52.9178263,4.48734615 L52.9178263,34.6007836 C52.9178263,37.0564677 50.8966086,39.0545132 48.4107612,39.0545132 L48.4107612,39.0545132 Z" id="Fill-5" fill="#F1A421"></path>
                        </g>
                        <g id="Group-29" transform="translate(28.000000, 3.000000)">
                            <g id="Group-10">
                                <mask id="mask-2" fill="white">
                                    <use xlink:href="#path-1"></use>
                                </mask>
                                <g id="Clip-9"></g>
                                <polygon id="Fill-8" fill="#F1A421" mask="url(#mask-2)" points="11.2615599 41.2030958 -29.1562812 1.70220845 -26.4634648 -0.928960563 13.9538431 38.5714056"></polygon>
                            </g>
                            <g id="Group-13">
                                <mask id="mask-4" fill="white">
                                    <use xlink:href="#path-3"></use>
                                </mask>
                                <g id="Clip-12"></g>
                                <polygon id="Fill-11" fill="#F1A421" mask="url(#mask-4)" points="22.7692709 41.2030958 -17.6491036 1.70220845 -14.9568204 -0.928960563 25.461554 38.5714056"></polygon>
                            </g>
                            <g id="Group-16">
                                <mask id="mask-6" fill="white">
                                    <use xlink:href="#path-5"></use>
                                </mask>
                                <g id="Clip-15"></g>
                                <polygon id="Fill-14" fill="#F1A421" mask="url(#mask-6)" points="34.2759153 41.2030958 -6.14139263 1.70220845 -3.44910945 -0.928960563 36.9681985 38.5714056"></polygon>
                            </g>
                            <g id="Group-19">
                                <mask id="mask-8" fill="white">
                                    <use xlink:href="#path-7"></use>
                                </mask>
                                <g id="Clip-18"></g>
                                <polygon id="Fill-17" fill="#F1A421" mask="url(#mask-8)" points="45.783093 41.2030958 5.36578506 1.70220845 8.05753501 -0.928960563 48.4759094 38.5714056"></polygon>
                            </g>
                            <g id="Group-22">
                                <mask id="mask-10" fill="white">
                                    <use xlink:href="#path-9"></use>
                                </mask>
                                <g id="Clip-21"></g>
                                <polygon id="Fill-20" fill="#F1A421" mask="url(#mask-10)" points="57.2907506 41.2030958 16.8729094 1.70220845 19.5651926 -0.928960563 59.983567 38.5714056"></polygon>
                            </g>
                            <g id="Group-25">
                                <mask id="mask-12" fill="white">
                                    <use xlink:href="#path-11"></use>
                                </mask>
                                <g id="Clip-24"></g>
                                <polygon id="Fill-23" fill="#F1A421" mask="url(#mask-12)" points="68.7984615 41.2030958 28.3800871 1.70220845 31.0723703 -0.928960563 71.4907447 38.5714056"></polygon>
                            </g>
                            <g id="Group-28">
                                <mask id="mask-14" fill="white">
                                    <use xlink:href="#path-13"></use>
                                </mask>
                                <g id="Clip-27"></g>
                                <polygon id="Fill-26" fill="#F1A421" mask="url(#mask-14)" points="80.3056392 41.2030958 39.8872648 1.70220845 42.579548 -0.928960563 82.9979224 38.5714056"></polygon>
                            </g>
                        </g>
                        <g id="Group-47">
                            <path d="M39.1148744,43.0673396 C37.1805284,43.0673396 35.607064,41.5230538 35.607064,39.6234275 L35.607064,17.016944 C35.607064,15.118867 37.1805284,13.5740648 39.1148744,13.5740648 L68.6487654,13.5740648 C70.5825853,13.5740648 72.1560498,15.118867 72.1560498,17.016944 L72.1560498,39.6234275 C72.1560498,41.5230538 70.5825853,43.0673396 68.6487654,43.0673396 L39.1148744,43.0673396 Z" id="Fill-30" fill="#F1A421"></path>
                            <path d="M68.648555,12.2503176 L39.114664,12.2503176 C36.4375123,12.2503176 34.2585455,14.3890758 34.2585455,17.016944 L34.2585455,39.6234275 C34.2585455,42.2528451 36.4375123,44.3916033 39.114664,44.3916033 L68.648555,44.3916033 C71.3262327,44.3916033 73.5046735,42.2528451 73.5046735,39.6234275 L73.5046735,17.016944 C73.5046735,14.3890758 71.3262327,12.2503176 68.648555,12.2503176 M68.648555,14.8983286 C69.8411474,14.8983286 70.8075313,15.8471088 70.8075313,17.016944 L70.8075313,39.6234275 C70.8075313,40.7948121 69.8411474,41.7435923 68.648555,41.7435923 L39.114664,41.7435923 C37.9225976,41.7435923 36.9556877,40.7948121 36.9556877,39.6234275 L36.9556877,17.016944 C36.9556877,15.8471088 37.9225976,14.8983286 39.114664,14.8983286 L68.648555,14.8983286" id="Fill-32" fill="#FFFFFF"></path>
                            <mask id="mask-16" fill="white">
                                <use xlink:href="#path-15"></use>
                            </mask>
                            <g id="Clip-35"></g>
                            <polygon id="Fill-34" fill="#FFFFFF" mask="url(#mask-16)" points="40.2114597 38.870033 68.7621327 38.870033 68.7621327 35.674033 40.2114597 35.674033"></polygon>
                            <polygon id="Fill-36" fill="#FFFFFF" mask="url(#mask-16)" points="40.2114597 35.674033 43.4667583 35.674033 43.4667583 18.2205055 40.2114597 18.2205055"></polygon>
                            <polygon id="Fill-37" fill="#288E45" mask="url(#mask-16)" points="46.7225829 35.6735165 49.9784076 35.6735165 49.9784076 32.5637692 46.7225829 32.5637692"></polygon>
                            <polygon id="Fill-38" fill="#288E45" mask="url(#mask-16)" points="53.2347583 35.6745495 56.4900569 35.6745495 56.4900569 27.7284505 53.2347583 27.7284505"></polygon>
                            <polygon id="Fill-39" fill="#288E45" mask="url(#mask-16)" points="59.7458815 35.6745495 63.0017062 35.6745495 63.0017062 22.6462527 59.7458815 22.6462527"></polygon>
                            <polygon id="Fill-40" fill="#FFFFFF" mask="url(#mask-16)" points="65.0891374 18.9993626 68.7626588 18.9993626 68.7626588 17.4013626 65.0891374 17.4013626"></polygon>
                            <polygon id="Fill-41" fill="#FFFFFF" mask="url(#mask-16)" points="65.0891374 21.4273516 68.7626588 21.4273516 68.7626588 19.8293516 65.0891374 19.8293516"></polygon>
                            <polygon id="Fill-42" fill="#FFFFFF" mask="url(#mask-16)" points="65.0891374 23.8553407 68.7626588 23.8553407 68.7626588 22.2573407 65.0891374 22.2573407"></polygon>
                            <path d="M72.6736991,3.44840549 C72.6736991,4.90695495 71.4690071,6.09073516 69.9828697,6.09073516 L37.8738839,6.09073516 C36.3866943,6.09073516 35.1820024,4.90695495 35.1820024,3.44840549 C35.1820024,1.98882308 36.3866943,0.805559341 37.8738839,0.805559341 L69.9828697,0.805559341 C71.4690071,0.805559341 72.6736991,1.98882308 72.6736991,3.44840549" id="Fill-43" fill="#FFFFFF" mask="url(#mask-16)"></path>
                            <path d="M37.8736735,1.58023297 C36.8246972,1.58023297 35.9714175,2.41848571 35.9714175,3.44835385 C35.9714175,4.47822198 36.8246972,5.31595824 37.8736735,5.31595824 L69.9826592,5.31595824 C71.0311095,5.31595824 71.8843891,4.47822198 71.8843891,3.44835385 C71.8843891,2.41848571 71.0311095,1.58023297 69.9826592,1.58023297 L37.8736735,1.58023297 Z M69.9826592,6.86540879 L37.8736735,6.86540879 C35.9545834,6.86540879 34.3932185,5.3330022 34.3932185,3.44835385 C34.3932185,1.56422198 35.9545834,0.0307824176 37.8736735,0.0307824176 L69.9826592,0.0307824176 C71.9017493,0.0307824176 73.4625882,1.56422198 73.4625882,3.44835385 C73.4625882,5.3330022 71.9017493,6.86540879 69.9826592,6.86540879 L69.9826592,6.86540879 Z" id="Fill-44" fill="#288E45" mask="url(#mask-16)"></path>
                            <path d="M60.7087934,0.805507692 L37.8738313,0.805507692 C36.3871678,0.805507692 35.1824758,1.98877143 35.1824758,3.44835385 C35.1824758,4.9069033 36.3871678,6.09068352 37.8738313,6.09068352 L60.7087934,6.09068352 L60.7087934,0.805507692 Z" id="Fill-45" fill="#288E45" mask="url(#mask-16)"></path>
                            <path d="M55.4080436,23.3123615 C55.4080436,23.5427132 55.5463991,23.7105703 55.7489346,23.7105703 C55.9835602,23.7105703 56.1134986,23.5427132 56.1134986,23.3123615 C56.1134986,23.0654824 55.9835602,22.9306802 55.7489346,22.9306802 C55.5463991,22.9306802 55.4080436,23.0654824 55.4080436,23.3123615 L55.4080436,23.3123615 Z M57.0456882,23.3123615 C57.0456882,24.0927681 56.5354038,24.5539879 55.7489346,24.5539879 C54.9787735,24.5539879 54.467963,24.0927681 54.467963,23.3123615 C54.467963,22.5402187 54.9787735,22.0712516 55.7489346,22.0712516 C56.5354038,22.0712516 57.0456882,22.5402187 57.0456882,23.3123615 L57.0456882,23.3123615 Z M52.2300768,20.0409549 C52.2300768,20.2635593 52.3594891,20.4391637 52.5867498,20.4391637 C52.7977024,20.4391637 52.9355318,20.2635593 52.9355318,20.0409549 C52.9355318,19.7780648 52.7977024,19.6349989 52.5867498,19.6349989 C52.3594891,19.6349989 52.2300768,19.7780648 52.2300768,20.0409549 L52.2300768,20.0409549 Z M52.8624085,24.4026582 C52.8303185,24.4424275 52.7892853,24.4667022 52.7324701,24.4667022 L51.8492047,24.4667022 C51.7597273,24.4667022 51.7361005,24.4104055 51.7839725,24.3386143 L55.4727498,18.9506582 C55.5058919,18.910889 55.5463991,18.8866143 55.6026882,18.8866143 L56.4859536,18.8866143 C56.5753848,18.8866143 56.60011,18.9423945 56.5517118,19.0147022 L52.8624085,24.4026582 Z M53.8845555,20.0409549 C53.8845555,20.8130978 53.357437,21.2903286 52.5867498,21.2903286 C51.8086976,21.2903286 51.2899962,20.8130978 51.2899962,20.0409549 C51.2899962,19.2528011 51.8086976,18.7915813 52.5867498,18.7915813 C53.357437,18.7915813 53.8845555,19.2528011 53.8845555,20.0409549 L53.8845555,20.0409549 Z" id="Fill-46" fill="#FFFFFF" mask="url(#mask-16)"></path>
                        </g>
                    </g>
                </g>
            </g>
        </g>
    </g>
</svg>