<?xml version="1.0" encoding="UTF-8"?>
<svg width="80px" height="80px" viewBox="0 0 80 80" version="1.1" xmlns="http://www.w3.org/2000/svg" xmlns:xlink="http://www.w3.org/1999/xlink">
    <!-- Generator: sketchtool 53.1 (72631) - https://sketchapp.com -->
    <title>B281388F-BB99-4CCB-85B3-AB53B667315A</title>
    <desc>Created with sketchtool.</desc>
    <g id="Page-1" stroke="none" stroke-width="1" fill="none" fill-rule="evenodd">
        <g id="Pinang---HiFi-3" transform="translate(-1044.000000, -4694.000000)">
            <g id="Features" transform="translate(135.000000, 4431.000000)">
                <g id="-g-icon-3" transform="translate(909.000000, 263.000000)">
                    <circle id="Oval" fill="#278F45" cx="40" cy="40" r="40"></circle>
                    <g id="Untitled-4_Artboard-1" stroke-width="1" transform="translate(12.000000, 15.000000)">
                        <rect id="Rectangle" fill="#FFFFFF" fill-rule="nonzero" x="2.26" y="19.14" width="40.38" height="27.88" rx="1.99"></rect>
                        <path d="M40.65,49.28 L4.25,49.28 C3.11761278,49.2800282 2.03203727,48.8281458 1.23413965,48.024616 C0.436242027,47.2210862 -0.00799332192,46.132359 -5.99519078e-15,45 L-5.99519078e-15,21.13 C0.00549809774,18.785071 1.90507098,16.8854981 4.25,16.88 L40.65,16.88 C42.994929,16.8854981 44.8945019,18.785071 44.9,21.13 L44.9,45 C44.9079933,46.132359 44.463758,47.2210862 43.6658604,48.024616 C42.8679627,48.8281458 41.7823872,49.2800282 40.65,49.28 L40.65,49.28 Z M4.52,44.76 L40.38,44.76 L40.38,21.4 L4.52,21.4 L4.52,44.76 Z" id="Shape" fill="#E7ECEC" fill-rule="nonzero"></path>
                        <rect id="Rectangle" fill="#E7ECEC" fill-rule="nonzero" x="9.16" y="3.73" width="28.93" height="39.79" rx="2.58"></rect>
                        <rect id="Rectangle" fill="#E7ECEC" fill-rule="nonzero" x="6" y="0.57" width="28.93" height="39.79" rx="2.58"></rect>
                        <path d="M10,1.92 C8.58,1.92 7.38,2.62 7.38,4.05 L7.38,38.49 C7.3906637,38.9504675 7.47506768,39.406249 7.63,39.84 C7.96,39.98 8.33,40.35 8.71,40.35 L32.57,40.35 C34,40.35 35.39,38.62 35.39,37.2 L35.39,2.76 C35.39,2.38 35.19,2.25 35.04,1.93 C34.6536301,1.85474718 34.2563699,1.85474718 33.87,1.93 L10,1.92 Z" id="Path" fill="#FFFFFF" fill-rule="nonzero"></path>
                        <rect id="Rectangle" fill="#F1A421" fill-rule="nonzero" x="10.97" y="34.02" width="9.49" height="2.26" rx="1.03"></rect>
                        <rect id="Rectangle" fill="#F1A421" fill-rule="nonzero" x="22.27" y="34.02" width="9.49" height="2.26" rx="1.03"></rect>
                        <rect id="Rectangle" fill="#4AB7DF" fill-rule="nonzero" x="9.97" y="4.64" width="6.39" height="6.39"></rect>
                        <rect id="Rectangle" fill="#F1A421" fill-rule="nonzero" x="18.33" y="4.52" width="6.39" height="2.66"></rect>
                        <rect id="Rectangle" fill="#F1A421" fill-rule="nonzero" x="26.05" y="4.52" width="6.39" height="2.66"></rect>
                        <rect id="Rectangle" fill="#F1A421" fill-rule="nonzero" x="18.33" y="8.14" width="14.11" height="2.66"></rect>
                        <rect id="Rectangle" fill="#F1A421" fill-rule="nonzero" x="9.97" y="12.42" width="22.47" height="1.13"></rect>
                        <rect id="Rectangle" fill="#F1A421" fill-rule="nonzero" x="14.89" y="14.99" width="17.55" height="1.13"></rect>
                        <path d="M20.94,31.79 C18.3545769,31.7899968 16.0239209,30.2320391 15.0354591,27.8430318 C14.0469973,25.4540245 14.5955339,22.7047888 16.4251352,20.8780508 C18.2547364,19.0513127 21.0048279,18.5070826 23.3922842,19.4992847 C25.7797404,20.4914869 27.334046,22.8245801 27.33,25.41 C27.3300021,27.1038152 26.6564529,28.7281105 25.4578071,29.9248805 C24.2591613,31.1216505 22.6338132,31.7926549 20.94,31.79 L20.94,31.79 Z M20.94,21.28 C18.659064,21.28 16.81,23.129064 16.81,25.41 C16.81,27.690936 18.659064,29.54 20.94,29.54 C23.220936,29.54 25.07,27.690936 25.07,25.41 C25.07,23.129064 23.220936,21.28 20.94,21.28 L20.94,21.28 Z" id="Shape" fill="#F1A421" fill-rule="nonzero"></path>
                        <path d="M20.49,27.94 C20,27.33 19.44,26.7 19,26.08 L18.89,25.93 C18.8,25.82 18.72,25.71 18.64,25.59 L18.52,25.42 L18.29,25.09 L18.17,24.92 L17.95,24.58 C17.84,24.4 17.73,24.23 17.63,24.04 L17.51,23.83 L17.97,23.38 L18.18,23.5 C18.36,23.6 18.54,23.72 18.71,23.83 L19.04,24.05 L19.22,24.17 L19.54,24.41 L19.71,24.53 L20.07,24.81 L20.19,24.9 C20.5525779,25.1808918 20.9920384,25.3448176 21.45,25.37 C21.5888227,25.3796695 21.7266898,25.3407839 21.84,25.26 C22.18,24.98 22.54,24.71 22.84,24.45 L23.14,24.22 L24.46,23.22 L25.78,22.16 L26.4,21.68 C27.08,21.14 27.77,20.61 28.46,20.08 L29.8,19.08 L30.8,18.34 L31.41,17.88 L31.9,18.45 L31.38,18.98 L30.5,19.87 L29.32,21 L27.4,22.89 L26.9,23.37 L25.68,24.54 C25.28,24.93 24.87,25.32 24.48,25.72 L24.22,25.99 C23.91,26.3 23.59,26.62 23.27,26.92 C22.95,27.22 22.44,27.65 22,28 L21.17,28.63 L20.49,27.94 Z" id="Path" fill="#288E45" fill-rule="nonzero"></path>
                        <path d="M31.38,18.26 L31.47,18.37 C31.08,18.78 30.69,19.18 30.29,19.58 L29.09,20.77 C28.29,21.57 27.48,22.35 26.68,23.14 L25.46,24.31 L24.25,25.49 C23.85,25.89 23.46,26.3 23.05,26.68 C22.6388536,27.0650766 22.2082918,27.4288846 21.76,27.77 L21.16,28.22 L20.74,27.73 C20.21,27.14 19.74,26.52 19.23,25.89 C19.12,25.73 18.99,25.57 18.88,25.4 C18.77,25.23 18.65,25.08 18.54,24.91 C18.43,24.74 18.31,24.58 18.21,24.41 L17.89,23.89 L18,23.78 C18.18,23.88 18.35,23.99 18.52,24.1 L19.02,24.44 L19.5,24.79 L19.98,25.16 C20.3963109,25.4834205 20.9032528,25.6687165 21.43,25.69 C21.64173,25.7013737 21.8506771,25.6376271 22.02,25.51 C22.46,25.16 22.91,24.82 23.36,24.51 C23.81,24.2 24.25,23.82 24.69,23.51 L26,22.38 L28.67,20.31 L30.02,19.31 L31.37,18.31 L31.38,18.26 Z M31.46,17.43 L30.98,17.79 L30.61,18.07 L29.61,18.82 L28.27,19.82 C27.58,20.34 26.88,20.89 26.21,21.42 L25.6,21.89 L24.27,22.95 C23.88,23.26 23.42,23.63 22.95,23.95 L22.65,24.18 C22.3,24.44 21.94,24.72 21.59,25.01 C21.5303093,25.0186156 21.4696907,25.0186156 21.41,25.01 C21.0459812,24.9793733 20.6986385,24.8439097 20.41,24.62 L20.28,24.52 L19.91,24.24 L19.74,24.12 L19.42,23.88 L19.24,23.76 L18.9,23.53 C18.74,23.43 18.55,23.3 18.35,23.19 L17.9,23 L17.55,23.34 L17.44,23.44 L17.09,23.79 L17.33,24.22 C17.44,24.41 17.55,24.6 17.66,24.77 C17.77,24.94 17.81,25 17.89,25.12 L18,25.29 L18.24,25.63 L18.35,25.79 L18.61,26.15 L18.71,26.29 C19.19,26.92 19.71,27.56 20.25,28.18 L20.68,28.67 L21.07,29.12 L21.55,28.75 L22.15,28.3 C22.65,27.92 23.08,27.55 23.49,27.17 C23.9,26.79 24.14,26.55 24.44,26.23 L24.71,25.97 L25.9,24.8 L27.12,23.63 L27.62,23.14 C28.26,22.52 28.91,21.88 29.54,21.25 L30.74,20.05 C31.04,19.76 31.33,19.46 31.62,19.16 L31.93,18.85 L32.35,18.42 L32,18 L31.9,17.88 L31.51,17.43 L31.46,17.43 Z" id="Shape" fill="#FFFFFF" fill-rule="nonzero"></path>
                        <path d="M10.89,14.3 C11.28,14.3 11.52,14.5 11.52,14.84 C11.5217547,15.0487865 11.3883395,15.2347593 11.19,15.3 C11.19,15.3 11.19,15.3 11.19,15.35 C11.293151,15.4223342 11.3730579,15.5230863 11.42,15.64 L11.61,16.08 C11.61,16.08 11.61,16.08 11.61,16.08 L11.3,16.08 C11.3,16.08 11.3,16.08 11.3,16.08 L11.18,15.78 C11.08,15.55 10.98,15.43 10.71,15.43 L10.5,15.43 L10.5,16.08 L10.21,16.08 L10.21,14.33 L10.89,14.3 Z M10.81,15.13 C11.04,15.13 11.16,15.04 11.16,14.87 C11.1631035,14.798361 11.1352961,14.7288382 11.0836447,14.6790998 C11.0319933,14.6293613 10.961471,14.6041963 10.89,14.61 L10.5,14.61 L10.5,15.13 L10.81,15.13 Z" id="Shape" fill="#F1A421" fill-rule="nonzero"></path>
                        <path d="M12.1,15 C12.1933302,14.9085286 12.3193323,14.8581278 12.45,14.86 C12.79,14.86 13,15.11 13,15.52 C13.0207095,15.6890903 12.9660354,15.8587353 12.8504878,15.9839118 C12.7349402,16.1090883 12.5702042,16.1771378 12.4,16.17 C12.3337453,16.180481 12.2662547,16.180481 12.2,16.17 L12.14,16.17 L12.14,16.74 C12.14,16.74 12.14,16.74 12.14,16.74 L11.86,16.74 L11.86,14.89 L12,14.89 L12,14.89 L12.1,15 Z M12.26,15.83 C12.3195438,15.8404636 12.3804562,15.8404636 12.44,15.83 C12.61,15.83 12.71,15.7 12.71,15.49 C12.71,15.28 12.61,15.14 12.44,15.14 C12.27,15.14 12.19,15.27 12.19,15.46 L12.19,15.77 L12.26,15.83 Z" id="Shape" fill="#F1A421" fill-rule="nonzero"></path>
                        <path d="M13.66,15.93 C13.6664436,15.9874301 13.646399,16.044671 13.605535,16.085535 C13.564671,16.126399 13.5074301,16.1464436 13.45,16.14 C13.3340202,16.14 13.24,16.0459798 13.24,15.93 C13.24,15.8140202 13.3340202,15.72 13.45,15.72 C13.5074301,15.7135564 13.564671,15.733601 13.605535,15.774465 C13.646399,15.815329 13.6664436,15.8725699 13.66,15.93 L13.66,15.93 Z" id="Path" fill="#F1A421" fill-rule="nonzero"></path>
                        <path d="M51.9896651,1.12581931 L52.9896651,1.12581931 C53.9175035,1.12581931 54.6696651,1.87798093 54.6696651,2.80581931 L54.6696651,7.13581931 C54.6696651,8.06365768 53.9175035,8.81581931 52.9896651,8.81581931 L51.9896651,8.81581931 C51.0673496,8.81581931 50.3196651,8.06813484 50.3196651,7.14581931 L50.3196651,2.80581931 C50.3196488,1.88187218 51.0657344,1.13131899 51.9896651,1.12581931 Z" id="Path" fill="#F58521" fill-rule="nonzero" transform="translate(52.494665, 4.970819) rotate(-45.000000) translate(-52.494665, -4.970819) "></path>
                        <rect id="Rectangle" fill="#F1A421" fill-rule="nonzero" transform="translate(42.476883, 14.937600) rotate(-45.000000) translate(-42.476883, -14.937600) " x="28.8618834" y="11.0625996" width="27.23" height="7.75"></rect>
                        <rect id="Rectangle" fill="#F58521" fill-rule="nonzero" transform="translate(42.476883, 14.937600) rotate(-45.000000) translate(-42.476883, -14.937600) " x="28.8618834" y="13.4125996" width="27.23" height="3.05"></rect>
                        <polygon id="Path" fill="#F8CD9C" fill-rule="nonzero" points="30.11 21.82 28.98 28.39 35.54 27.25"></polygon>
                        <polygon id="Path" fill="#424A60" fill-rule="nonzero" points="29.34 26.03 31.33 28.02 28.95 28.41"></polygon>
                    </g>
                </g>
            </g>
        </g>
    </g>
</svg>