<?xml version="1.0" encoding="UTF-8"?>
<svg width="80px" height="80px" viewBox="0 0 80 80" version="1.1" xmlns="http://www.w3.org/2000/svg" xmlns:xlink="http://www.w3.org/1999/xlink">
    <!-- Generator: sketchtool 53.1 (72631) - https://sketchapp.com -->
    <title>AE932DE2-727A-4738-A850-BF827C780B49</title>
    <desc>Created with sketchtool.</desc>
    <g id="Page-1" stroke="none" stroke-width="1" fill="none" fill-rule="evenodd">
        <g id="Pinang---HiFi-3" transform="translate(-1044.000000, -5231.000000)">
            <g id="Features" transform="translate(135.000000, 4431.000000)">
                <g id="-g-icon-9" transform="translate(909.000000, 800.000000)">
                    <circle id="Oval" fill="#278F45" cx="40" cy="40" r="40"></circle>
                    <g id="Untitled-4_Artboard-1-copy-3" stroke-width="1" transform="translate(13.000000, 10.000000)">
                        <path d="M16.17,10.1 C14.940241,9.61422211 13.5392526,9.90937416 12.61,10.85 C11.3165007,12.1652626 11.3165007,14.2747374 12.61,15.59 C13.5364605,16.5275672 14.9308965,16.8260943 16.16,16.35 L16.17,10.1 Z" id="Path" fill="#F7CD9C" fill-rule="nonzero"></path>
                        <path d="M16.16,16.88 C14.9354997,16.3906329 13.5369963,16.6821519 12.61,17.62 C11.3153096,18.9386665 11.3153096,21.0513335 12.61,22.37 C13.5360711,23.3088954 14.9332993,23.6040845 16.16,23.12 L16.16,16.88 Z" id="Path" fill="#F7CD9C" fill-rule="nonzero"></path>
                        <path d="M16.15,23.65 C14.92307,23.1686612 13.5273914,23.4635229 12.6,24.4 C11.3053096,25.7186665 11.3053096,27.8313335 12.6,29.15 C13.5260711,30.0888954 14.9232993,30.3840845 16.15,29.9 L16.15,23.65 Z" id="Path" fill="#F7CD9C" fill-rule="nonzero"></path>
                        <path d="M16.14,30.43 C14.9132993,29.9459155 13.5160711,30.2411046 12.59,31.18 C11.2911063,32.4930499 11.2911063,34.6069501 12.59,35.92 C13.5164605,36.8575672 14.9108965,37.1560943 16.14,36.68 L16.14,30.43 Z" id="Path" fill="#F7CD9C" fill-rule="nonzero"></path>
                        <rect id="Rectangle" fill="#F7CD9C" fill-rule="nonzero" x="14.89" y="12.78" width="4.27" height="20.49"></rect>
                        <path d="M37,5.86 L37,2.86 C37.0053587,2.27928518 36.7777254,1.72065357 36.3680213,1.30907009 C35.9583172,0.8974866 35.4007333,0.667299057 34.82,0.67 L18.29,0.67 C17.0844054,0.680997655 16.1144446,1.66436807 16.12,2.87 L16.1199763,5.87 L37,5.86 Z" id="Path" fill="#E7ECEC" fill-rule="nonzero"></path>
                        <path d="M37,38.66 L37,34.16 L16.179977,34.16 L16.18,38.66 C16.1773399,39.2399026 16.4058429,39.7969666 16.8149609,40.2079613 C17.2240789,40.618956 17.7800913,40.8500061 18.36,40.85 L34.82,40.85 C36.0255965,40.8444949 37.0000126,39.8656091 37,38.66 L37,38.66 Z" id="Path" fill="#E7ECEC" fill-rule="nonzero"></path>
                        <polygon id="Path" fill="#F1A421" fill-rule="nonzero" points="36.98 36.17 36.95 3.85 16.13 3.87 16.13 10.65 16.13 10.65 16.13 30.84 16.15 30.84 16.16 36.19"></polygon>
                        <path d="M26.93,2.34 C26.9327271,2.38775743 26.9163325,2.43463623 26.8844362,2.47028502 C26.8525399,2.50593381 26.8077656,2.52742029 26.76,2.53 L24.69,2.53 C24.5929453,2.51972816 24.519458,2.43759524 24.52,2.34 L24.52,2.34 C24.5141086,2.23861366 24.5889889,2.15051922 24.69,2.14 L26.76,2.14 C26.8096564,2.14244742 26.8560892,2.16532395 26.8882882,2.20320505 C26.9204871,2.24108616 26.9355844,2.29059793 26.93,2.34 L26.93,2.34 Z" id="Path" fill="#424A60" fill-rule="nonzero"></path>
                        <path d="M28.14,2.34 C28.140542,2.43759524 28.0670547,2.51972816 27.97,2.53 L25.9,2.53 C25.8522344,2.52742029 25.8074601,2.50593381 25.7755638,2.47028502 C25.7436675,2.43463623 25.7272729,2.38775743 25.73,2.34 L25.73,2.34 C25.7244156,2.29059793 25.7395129,2.24108616 25.7717118,2.20320505 C25.8039108,2.16532395 25.8503436,2.14244742 25.9,2.14 L28,2.14 C28.1010111,2.15051922 28.1758914,2.23861366 28.17,2.34 L28.14,2.34 Z" id="Path" fill="#424A60" fill-rule="nonzero"></path>
                        <path d="M34.52,2.34 C34.522711,2.42128307 34.4923048,2.50018381 34.4357474,2.55862647 C34.3791899,2.61706914 34.3013283,2.6500452 34.22,2.65 C34.0674267,2.62270772 33.9563471,2.48999509 33.9563471,2.335 C33.9563471,2.18000491 34.0674267,2.04729228 34.22,2.02 C34.3022316,2.0226098 34.380053,2.05780103 34.4363229,2.11782224 C34.4925928,2.17784346 34.5226954,2.25777116 34.52,2.34 L34.52,2.34 Z" id="Path" fill="#424A60" fill-rule="nonzero"></path>
                        <path d="M30,2.34 C29.9945198,2.50979837 29.8533959,2.64355378 29.6835478,2.6399294 C29.5136996,2.63630502 29.37841,2.49665123 29.3801781,2.32677365 C29.3819462,2.15689606 29.5201132,2.02008841 29.69,2.02 C29.7739794,2.01995629 29.8543833,2.05398604 29.9128158,2.11430344 C29.9712483,2.17462085 30.002709,2.25606428 30,2.34 L30,2.34 Z" id="Path" fill="#424A60" fill-rule="nonzero"></path>
                        <path d="M28.56,38.6 C28.5600496,38.8998938 28.3198443,39.1445474 28.02,39.15 L24.64,39.15 C24.3401557,39.1445474 24.0999504,38.8998938 24.1,38.6 L24.1,38.35 C24.0999504,38.0501062 24.3401557,37.8054526 24.64,37.8 L28,37.8 C28.2998443,37.8054526 28.5400496,38.0501062 28.54,38.35 L28.56,38.6 Z" id="Path" fill="#424A60" fill-rule="nonzero"></path>
                        <path d="M30.54,17.36 L29.06,17.36 L29.06,12.57 C29.06,11.7840157 28.6406824,11.0577362 27.96,10.664744 C27.2793176,10.2717518 26.4406824,10.2717518 25.76,10.664744 C25.0793176,11.0577362 24.66,11.7840157 24.66,12.57 L24.66,16.38 L23.19,16.38 L23.19,12.57 C23.119101,11.2113079 23.8036333,9.92435648 24.9698969,9.22371387 C26.1361604,8.52307126 27.5938396,8.52307126 28.7601031,9.22371387 C29.9263667,9.92435648 30.610899,11.2113079 30.54,12.57 L30.54,17.36 Z" id="Path" fill="#288D45" fill-rule="nonzero"></path>
                        <path d="M32,24.79 C32.0003392,25.8753343 31.1349951,26.7628667 30.05,26.79 L23.45,26.79 C22.3454305,26.79 21.45,25.8945695 21.45,24.79 L21.45,18.14 C21.45,17.0354305 22.3454305,16.14 23.45,16.14 L30.09,16.14 C31.1749951,16.1671333 32.0403392,17.0546657 32.04,18.14 L32,24.79 Z" id="Path" fill="#288D45" fill-rule="nonzero"></path>
                        <path d="M23.55,22.62 C23.4404139,22.633495 23.3295861,22.633495 23.22,22.62 C22.7834297,22.572717 22.4526013,22.2041233 22.4526013,21.765 C22.4526013,21.3258767 22.7834297,20.957283 23.22,20.91 C23.63,20.91 23.87,21.13 23.87,21.46 C23.87,21.79 23.71,21.89 23.36,21.94 L22.9,22 C22.9387683,22.140447 23.0757251,22.2303249 23.22,22.21 L23.46,22.21 L23.63,22.21 L23.71,22.52 C23.71,22.52 23.71,22.52 23.71,22.52 L23.55,22.62 Z M23.29,21.62 C23.38,21.62 23.42,21.56 23.42,21.5 C23.42,21.44 23.34,21.34 23.2,21.34 C23.06,21.34 22.89,21.44 22.86,21.68 L23.29,21.62 Z" id="Shape" fill="#FFFFFF" fill-rule="nonzero"></path>
                        <path d="M25,21.55 C25,21.55 25,21.55 25,21.55 L25,21.87 C25,21.87 25,21.87 25,21.87 L24.1,21.87 L24.1,21.55 L25,21.55 Z" id="Path" fill="#FFFFFF" fill-rule="nonzero"></path>
                        <path d="M26.78,21 C26.6931253,21.1893325 26.5349861,21.3366895 26.34,21.41 C26.5387263,21.5052198 26.7004361,21.6634141 26.8,21.86 L27.2,22.57 C27.2,22.57 27.2,22.57 27.2,22.57 L26.78,22.57 L26.78,22.57 L26.48,22.04 C26.3794559,21.7965088 26.1599905,21.62245 25.9,21.58 L25.83,21.58 L25.83,22.58 L25.45,22.58 L25.45,20.3 L25.83,20.3 L25.83,21.21 L25.9,21.21 C26.1452679,21.1727208 26.355537,21.015019 26.46,20.79 L26.74,20.29 L27.14,20.29 C27.14,20.29 27.19,20.29 27.14,20.29 L26.78,21 Z" id="Path" fill="#FFFFFF" fill-rule="nonzero"></path>
                        <path d="M28.88,21.12 C28.6524353,21.4347431 28.5267941,21.8116666 28.52,22.2 L28.52,22.58 C28.52,22.58 28.52,22.58 28.52,22.58 L28.15,22.58 C28.15,22.58 28.15,22.58 28.15,22.58 L28.15,22.2 C28.1401044,21.8137497 28.0185392,21.4386343 27.8,21.12 L27.35,20.31 C27.35,20.31 27.35,20.31 27.35,20.31 L27.77,20.31 C27.77,20.31 27.77,20.31 27.77,20.31 L28.06,20.82 C28.1447994,20.9779396 28.2183163,21.1416819 28.28,21.31 C28.28,21.31 28.28,21.31 28.34,21.31 C28.3974039,21.1399714 28.4710785,20.9758778 28.56,20.82 L28.85,20.31 L29.26,20.31 C29.26,20.31 29.26,20.31 29.26,20.31 L28.88,21.12 Z" id="Path" fill="#FFFFFF" fill-rule="nonzero"></path>
                        <path d="M30.85,22.58 C30.6894723,22.6364072 30.5201136,22.6635046 30.35,22.66 C29.71,22.66 29.35,22.19 29.35,21.44 C29.35,20.69 29.75,20.23 30.35,20.23 C30.51605,20.2265833 30.6815486,20.250226 30.84,20.3 L30.99,20.35 C30.99,20.35 30.99,20.35 30.99,20.35 L30.89,20.67 L30.73,20.67 C30.6123761,20.6392731 30.4915456,20.6224911 30.37,20.62 C30.01,20.62 29.79,20.92 29.79,21.42 C29.79,21.92 30.01,22.22 30.37,22.22 C30.4920468,22.2254637 30.6140617,22.2085172 30.73,22.17 L30.88,22.17 C30.88,22.17 30.88,22.17 30.88,22.17 L31,22.49 C31,22.49 31,22.49 31,22.54 L30.85,22.58 Z" id="Path" fill="#FFFFFF" fill-rule="nonzero"></path>
                        <path d="M23,16.17 C24.17,17.08 29.1,17.07 30.55,16.17 L23,16.17 Z" id="Path" fill="#8BC541" fill-rule="nonzero"></path>
                        <path d="M32.18,14.72 C32.1657478,14.8077643 32.1156227,14.885642 32.0416418,14.9349627 C31.9676608,14.9842833 31.8764948,15.0005996 31.79,14.98 L31.79,14.98 C31.7022357,14.9657478 31.624358,14.9156227 31.5750373,14.8416418 C31.5257167,14.7676608 31.5094004,14.6764948 31.53,14.59 L31.71,13.68 C31.7268856,13.5936145 31.7775824,13.5175546 31.8508198,13.4687297 C31.9240571,13.4199048 32.0137651,13.4023615 32.1,13.42 L32.1,13.42 C32.1877643,13.4342522 32.265642,13.4843773 32.3149627,13.5583582 C32.3642833,13.6323392 32.3805996,13.7235052 32.36,13.81 L32.18,14.72 Z" id="Path" fill="#F58521" fill-rule="nonzero"></path>
                        <path d="M33.27,17.22 C33.0886352,17.1800506 32.9728795,17.0019649 33.01,16.82 L33.01,16.82 C33.0268856,16.7336145 33.0775824,16.6575546 33.1508198,16.6087297 C33.2240571,16.5599048 33.3137651,16.5423615 33.4,16.56 L34.31,16.77 C34.4913648,16.8099494 34.6071205,16.9880351 34.57,17.17 L34.57,17.17 C34.5531144,17.2563855 34.5024176,17.3324454 34.4291802,17.3812703 C34.3559429,17.4300952 34.2662349,17.4476385 34.18,17.43 L33.27,17.22 Z" id="Path" fill="#F58521" fill-rule="nonzero"></path>
                        <path d="M33.33,15.64 C33.2559597,15.6885154 33.1655325,15.7052508 33.0790333,15.6864467 C32.9925342,15.6676425 32.9172162,15.6148754 32.87,15.54 L32.87,15.54 C32.7726283,15.387182 32.8122145,15.1848524 32.96,15.08 L34.39,14.08 C34.4640403,14.0314846 34.5544675,14.0147492 34.6409667,14.0335533 C34.7274658,14.0523575 34.8027838,14.1051246 34.85,14.18 L34.85,14.18 C34.9473717,14.332818 34.9077855,14.5351476 34.76,14.64 L33.33,15.64 Z" id="Path" fill="#F58521" fill-rule="nonzero"></path>
                        <polygon id="Path" fill="#8BC541" fill-rule="nonzero" points="8.59 16.41 1.28 24.35 5.04 25.03 6.39 27.77 11.67 18.27"></polygon>
                        <path d="M6.36,28.93 L4.68,25.52 L0.2,24.71 L8.49,15.71 L12.4,18.08 L6.36,28.93 Z M2.36,23.99 L5.42,24.54 L6.42,26.6 L10.94,18.47 L8.69,17.1 L2.36,23.99 Z" id="Shape" fill="#288D45" fill-rule="nonzero"></path>
                        <polygon id="Path" fill="#8BC541" fill-rule="nonzero" points="14.45 17.46 18.6 27.47 14.84 26.79 12.64 28.89 10.92 18.14"></polygon>
                        <path d="M12.27,30 L10.27,17.7 L14.75,16.84 L19.45,28.18 L15,27.38 L12.27,30 Z M11.54,18.57 L13,27.79 L14.65,26.21 L17.71,26.76 L14.11,18.08 L11.54,18.57 Z" id="Shape" fill="#288D45" fill-rule="nonzero"></path>
                        <polygon id="Path" fill="#288D45" fill-rule="nonzero" points="13.85 3.7 15.84 2.99 16.83 4.88 18.94 4.99 19.14 7.12 21.05 8.04 20.42 10.08 21.84 11.67 20.48 13.31 21.19 15.33 19.32 16.32 19.21 18.46 17.1 18.66 16.19 20.58 14.18 19.95 12.6 21.38 10.98 20.02 8.98 20.73 8 18.84 5.89 18.73 5.69 16.6 3.79 15.68 4.41 13.64 2.99 12.05 4.34 10.41 3.64 8.39 5.51 7.39 5.62 5.26 7.73 5.06 8.64 3.13 10.66 3.77 12.23 2.34"></polygon>
                        <path d="M11.23,18.58 C7.54421575,17.8868172 5.10685655,14.3513072 5.77,10.66 C6.07279964,8.8878973 7.06901428,7.30940159 8.53837174,6.27353273 C10.0077292,5.23766388 11.8291855,4.82975554 13.6,5.14 C17.2857843,5.83318278 19.7231434,9.36869282 19.06,13.06 C18.7572004,14.8321027 17.7609857,16.4105984 16.2916283,17.4464673 C14.8222708,18.4823361 13.0008145,18.8902445 11.23,18.58 Z" id="Path" fill="#FFFFFF" fill-rule="nonzero"></path>
                        <path d="M13.5,5.68 C16.008663,6.0970181 18.0169622,7.98803918 18.5839939,10.4671054 C19.1510257,12.9461716 18.1644658,15.5222007 16.0865251,16.9883033 C14.0085844,18.4544059 11.2508856,18.5201593 9.10543167,17.1547576 C6.95997774,15.789356 5.85176516,13.2632738 6.3,10.76 C6.90497512,7.3813729 10.1140992,5.11715759 13.5,5.68 L13.5,5.68 Z M13.69,4.6 C10.7554335,4.05175063 7.77999092,5.32796655 6.15461897,7.83204799 C4.52924702,10.3361294 4.57503795,13.5733951 6.27058563,16.0305023 C7.9661333,18.4876095 10.9764823,19.6791568 13.8943679,19.0481248 C16.8122535,18.4170929 19.0612475,16.088142 19.59,13.15 C19.9540837,11.2323578 19.5350344,9.24877834 18.4264382,7.64225321 C17.3178419,6.03572807 15.6120443,4.94008024 13.69,4.6 L13.69,4.6 Z" id="Shape" fill="#8BC541" fill-rule="nonzero"></path>
                        <path d="M17,12.68 C16.5256764,15.1913549 14.1098378,16.8463018 11.5967082,16.3814728 C9.08357855,15.9166439 7.4195132,13.5070773 7.87484078,10.9922088 C8.33016836,8.47734038 10.7334287,6.80418028 13.25,7.25 C14.470715,7.46625409 15.5541271,8.16201485 16.2586166,9.18211562 C16.9631061,10.2022164 17.2300805,11.4618153 17,12.68 L17,12.68 Z" id="Path" fill="#FFFFFF" fill-rule="nonzero"></path>
                        <path d="M11.5,17.05 C9.38474784,16.7031332 7.68910804,15.1118766 7.20872578,13.0228957 C6.72834351,10.9339148 7.55856078,8.76181192 9.30981467,7.52580298 C11.0610686,6.28979404 13.3857858,6.23519111 15.1931392,7.38761552 C17.0004926,8.54003994 17.9317747,10.6707688 17.55,12.78 C17.041595,15.6190915 14.3453615,17.522053 11.5,17.05 Z M13.13,7.83 C12.0676393,7.64433545 10.9750608,7.88897706 10.0933161,8.50995042 C9.2115715,9.13092378 8.61312148,10.077198 8.43,11.14 C8.09055221,13.3056922 9.55746456,15.3411299 11.7193287,15.7041606 C13.8811928,16.0671912 15.9324969,14.6225494 16.3190672,12.4647702 C16.7056376,10.306991 15.283438,8.24006419 13.13,7.83 L13.13,7.83 Z" id="Shape" fill="#288D45" fill-rule="nonzero"></path>
                        <polygon id="Path" fill="#288D45" fill-rule="nonzero" points="11.19 9.64 12.73 9.06 13.51 9.2 12.51 15 11.4 14.8 12.19 10.29 11 10.7"></polygon>
                        <path d="M13.93,10.35 C13.74,10.27 13.67,10.15 13.7,9.99 C13.73,9.83 13.91,9.67 14.17,9.72 C14.2675557,9.7347908 14.3620968,9.76517902 14.45,9.81 L14.55,9.81 C14.55,9.81 14.55,9.81 14.55,9.81 L14.46,10.01 C14.46,10.01 14.46,10.01 14.46,10.01 L14.36,9.96 L14.16,9.9 C14.08,9.9 14.03,9.9 14.02,9.95 C14.01,10 14.02,10.01 14.08,10.04 L14.28,10.12 C14.47,10.21 14.55,10.33 14.52,10.5 C14.49,10.67 14.3,10.82 14.03,10.77 C13.9154975,10.7539011 13.8041785,10.7201681 13.7,10.67 L13.6,10.62 L13.7,10.42 C13.7,10.42 13.7,10.42 13.7,10.42 L13.79,10.42 C13.8763479,10.4577228 13.9670396,10.4845944 14.06,10.5 C14.14,10.5 14.19,10.5 14.2,10.45 C14.21,10.4 14.2,10.38 14.13,10.35 L13.93,10.35 Z" id="Path" fill="#288D45" fill-rule="nonzero"></path>
                        <path d="M15.34,10 C15.34,10 15.34,10 15.34,10 L15.34,10.22 C15.34,10.22 15.34,10.22 15.34,10.22 L15.09,10.22 L15.01,10.7 C15.01,10.7733333 15.03,10.8133333 15.07,10.82 L15.12,10.82 C15.12,10.82 15.12,10.82 15.12,10.82 L15.17,11.02 C15.17,11.02 15.17,11.02 15.17,11.02 C15.1125515,11.0260046 15.0544864,11.0191735 15,11 C14.8963267,10.9916999 14.8017149,10.9377223 14.7418128,10.8527001 C14.6819108,10.7676778 14.6629241,10.6604188 14.69,10.56 L14.78,10.08 L14.66,10.08 C14.66,10.08 14.66,10.08 14.66,10.08 L14.66,9.87 L14.77,9.87 L14.82,9.62 L15.08,9.62 C15.08,9.62 15.08,9.62 15.08,9.62 L15.02,9.96 L15.34,10 Z" id="Path" fill="#288D45" fill-rule="nonzero"></path>
                        <polygon id="Path" fill="#F58521" fill-rule="nonzero" points="45.68 35.62 29.58 51.87 36.94 59.33 53.05 43.08"></polygon>
                        <path d="M39.35,50.91 C36.9112526,48.4406304 36.9112526,44.4693696 39.35,42 L45.67,35.62 L53,43.08 L42.31,53.91 L39.35,50.91 Z" id="Path" fill="#F1A421" fill-rule="nonzero"></path>
                        <path d="M41.31,47.47 C40.3863266,46.528755 40.3863266,45.021245 41.31,44.08 C41.7517465,43.6310964 42.355195,43.3782946 42.985,43.3782946 C43.614805,43.3782946 44.2182535,43.6310964 44.66,44.08 C45.582482,45.0178413 45.582482,46.5221587 44.66,47.46 C44.2178878,47.912014 43.6122814,48.1668019 42.98,48.1668019 C42.3477186,48.1668019 41.7421122,47.912014 41.3,47.46 L41.31,47.47 Z" id="Path" fill="#288D45" fill-rule="nonzero"></path>
                        <path d="M19.91,40.81 C20.0203341,42.5503305 20.7637513,44.1901167 22,45.42 C23.5728435,46.9953117 25.7965382,47.7365432 28,47.42 L31,50.48 L44.43,37 L42.24,34.8 C42.24,34.7 42.24,34.6 42.24,34.5 L42.24,19.88 C42.3,19.11 41.92,20.88 41.34,21.07 L37,25.5 L37,38.62 C37.0053363,39.2016294 36.7780163,39.7612728 36.3686072,40.174438 C35.959198,40.5876032 35.4016539,40.8200245 34.82,40.82 L19.91,40.81 Z" id="Path" fill="#F5B261" fill-rule="nonzero"></path>
                        <path d="M34.71,28.07 C34.0888942,28.6934885 33.2450627,29.0439617 32.365,29.0439617 C31.4849373,29.0439617 30.6411058,28.6934885 30.02,28.07 C28.7306354,26.7491605 28.7306354,24.6408395 30.02,23.32 L36.73,16.56 C37.3484451,15.931535 38.193273,15.5776124 39.075,15.5776124 C39.956727,15.5776124 40.8015549,15.931535 41.42,16.56 C42.7081584,17.8774443 42.7081584,19.9825557 41.42,21.3 L34.71,28.07 L34.71,28.07 Z" id="Path" fill="#F7CD9C" fill-rule="nonzero"></path>
                    </g>
                </g>
            </g>
        </g>
    </g>
</svg>