<?xml version="1.0" encoding="UTF-8"?>
<svg width="80px" height="80px" viewBox="0 0 80 80" version="1.1" xmlns="http://www.w3.org/2000/svg" xmlns:xlink="http://www.w3.org/1999/xlink">
    <!-- Generator: sketchtool 53.1 (72631) - https://sketchapp.com -->
    <title>76A8F68E-A5B2-48CA-B60C-2C0FF822D328</title>
    <desc>Created with sketchtool.</desc>
    <defs>
        <polygon id="path-1" points="0.0555915254 0.264282532 38.8592034 0.264282532 38.8592034 30.9458954 0.0555915254 30.9458954"></polygon>
    </defs>
    <g id="Page-1" stroke="none" stroke-width="1" fill="none" fill-rule="evenodd">
        <g id="Pinang---HiFi-3" transform="translate(-1044.000000, -4962.000000)">
            <g id="Features" transform="translate(135.000000, 4431.000000)">
                <g id="icon-3-copy" transform="translate(909.000000, 531.000000)">
                    <circle id="Oval" fill="#278F45" cx="40" cy="40" r="40"></circle>
                    <g id="Group-12" stroke-width="1" transform="translate(15.000000, 12.000000)">
                        <path d="M42,33.5003229 C42,43.7167071 33.2700127,52 22.5,52 C11.7306756,52 3,43.7167071 3,33.5003229 C3,23.2832929 11.7306756,15 22.5,15 C33.2700127,15 42,23.2832929 42,33.5003229" id="Fill-1" fill="#FFFFFF"></path>
                        <path d="M22,17.4343416 C13.337891,17.4343416 6.29160869,24.6415044 6.29160869,33.5 C6.29160869,42.3584956 13.337891,49.5656584 22,49.5656584 C30.6627745,49.5656584 37.7097223,42.3584956 37.7097223,33.5 C37.7097223,24.6415044 30.6627745,17.4343416 22,17.4343416 M22,56 C9.86998609,56 0,45.9075487 0,33.5 C0,21.0937977 9.86998609,11 22,11 C34.1313449,11 44,21.0937977 44,33.5 C44,45.9075487 34.1313449,56 22,56" id="Fill-3" fill="#4AB7DF"></path>
                        <path d="M25,28.4079813 C25,29.2867756 24.1062538,30 22.9995952,30 C21.8953653,30 21,29.2867756 21,28.4079813 L21,22.5913819 C21,21.7132244 21.8953653,21 22.9995952,21 C24.1062538,21 25,21.7132244 25,22.5913819 L25,28.4079813 Z" id="Fill-5" fill="#4AB7DF"></path>
                        <path d="M31,3 C31,4.65676427 29.6201845,6 27.9187227,6 L14.0826091,6 C12.3798155,6 11,4.65676427 11,3 C11,1.3438769 12.3798155,0 14.0826091,0 L27.9187227,0 C29.6201845,0 31,1.3438769 31,3" id="Fill-7" fill="#4AB7DF"></path>
                        <g id="Group-11" transform="translate(12.000000, 14.000000)">
                            <mask id="mask-2" fill="white">
                                <use xlink:href="#path-1"></use>
                            </mask>
                            <g id="Clip-10"></g>
                            <path d="M0.444930508,16.4083529 C1.10132034,16.6180162 1.71871017,16.8750874 2.33940508,17.1274845 C2.94886271,17.393236 3.55435424,17.6636616 4.14133729,17.9581249 C4.73294746,18.2465788 5.31398136,18.5477194 5.88443898,18.8615465 C6.17065932,19.0171247 6.45687966,19.1733705 6.73648983,19.3369613 C7.0161,19.4998843 7.30099831,19.6581333 7.57796441,19.8257304 C8.13057458,20.1582536 8.68384576,20.4947832 9.22257458,20.8460025 C9.77055763,21.1878738 10.2954051,21.5564538 10.8308288,21.9123471 L11.6181,22.4672203 C11.8778797,22.6541811 11.9790153,22.1807695 13.1913203,21.1938833 C14.4023034,20.2063293 15.6351,19.2421454 16.8361678,18.2445757 C18.0326085,17.2423319 19.2045915,16.2127117 20.3884729,15.1951105 C21.5743373,14.1815155 22.7410322,13.1465536 23.9421,12.1496516 L27.530761,9.138914 L31.1418966,6.15354967 C32.3436254,5.15597993 33.5598966,4.17443541 34.7748458,3.19088773 C35.9838458,2.2013306 37.2192864,1.2398176 38.4408458,0.264282532 L38.8592695,0.709650013 C37.8518797,1.91421214 36.8570492,3.13279632 35.838422,4.3240041 C34.8231,5.52122133 33.810422,6.72044171 32.7832017,7.90363688 L29.7068288,11.4592318 L26.6073203,14.9901213 C25.579439,16.1746519 24.5171847,17.3191194 23.472778,18.4856216 C22.4283712,19.649453 21.3707441,20.8012655 20.3382356,21.9784512 C19.3103542,23.1623141 18.3135407,24.3768919 17.2949136,25.5701029 C16.2776085,26.7639815 15.2127102,27.9077814 14.0678288,28.9654457 L11.9248119,30.9458954 L9.88094746,29.1029954 C9.40567627,28.6743209 8.94230339,28.2302888 8.48752373,27.776241 C8.2561678,27.5532234 8.03737119,27.3161838 7.81262542,27.086489 L7.14301525,26.3900598 C6.70740508,25.9113064 6.26187966,25.4465752 5.83882881,24.9537997 C5.40718475,24.4710401 4.98942203,23.9729229 4.57232034,23.4734703 C4.36343898,23.2244118 4.16315085,22.9646697 3.95625254,22.7102694 C3.75067627,22.4578722 3.55171017,22.196127 3.35274407,21.9350495 C2.9521678,21.4148977 2.56282881,20.8813915 2.18340508,20.3358665 C1.79935424,19.7956831 1.43381186,19.2321297 1.07289661,18.6645699 C0.723218644,18.0829881 0.370235593,17.5060803 0.0555915254,16.8810968 L0.444930508,16.4083529 Z" id="Fill-9" fill="#269045" mask="url(#mask-2)"></path>
                        </g>
                    </g>
                </g>
            </g>
        </g>
    </g>
</svg>