<?xml version="1.0" encoding="UTF-8"?>
<svg width="80px" height="80px" viewBox="0 0 80 80" version="1.1" xmlns="http://www.w3.org/2000/svg" xmlns:xlink="http://www.w3.org/1999/xlink">
    <!-- Generator: sketchtool 53.1 (72631) - https://sketchapp.com -->
    <title>24C6B442-76E5-45CF-8468-F16D2154F2E7</title>
    <desc>Created with sketchtool.</desc>
    <defs>
        <polygon id="path-1" points="0 0.203331855 5.27111009 0.203331855 5.27111009 8.37268339 0 8.37268339"></polygon>
        <polygon id="path-3" points="0 70 44.6565138 70 44.6565138 0.357345679 0 0.357345679"></polygon>
    </defs>
    <g id="Page-1" stroke="none" stroke-width="1" fill="none" fill-rule="evenodd">
        <g id="Pinang---HiFi-3" transform="translate(-316.000000, -4694.000000)">
            <g id="Features" transform="translate(135.000000, 4431.000000)">
                <g id="icon-1" transform="translate(181.000000, 263.000000)">
                    <circle id="Oval" fill="#278F45" cx="40" cy="40" r="40"></circle>
                    <g id="Group-89" stroke-width="1" transform="translate(18.000000, 5.000000)">
                        <g id="Group-88">
                            <path d="M7.17126606,31.6657099 L7.17787156,1.84830247 C7.17787156,1.02774691 7.81241284,0.357561728 8.58773394,0.357561728 L24.0904404,0.361018519 C24.8653486,0.361018519 25.4994771,1.0325 25.4994771,1.85219136 L25.4928716,31.6700309 C25.4928716,32.4897222 24.8583303,33.1603395 24.0838349,33.1603395 L8.58030275,33.1568827 C7.80498165,33.1568827 7.17126606,32.4854012 7.17126606,31.6657099" id="Fill-1" fill="#288E45"></path>
                            <path d="M8.58112844,28.6840556 L8.58649541,4.82961111 C10.1371376,4.83047531 11.4053945,3.48880864 11.4062202,1.84899383 L21.2711284,1.85115432 C21.2711284,3.49096914 22.5389725,4.8326358 24.0892018,4.8339321 L24.0842477,28.6875123 C22.5336055,28.6875123 21.2653486,30.029179 21.2653486,31.6685617 L11.3996147,31.6664012 C11.3996147,30.0270185 10.1317706,28.6844877 8.58112844,28.6840556" id="Fill-3" fill="#BDDB91"></path>
                            <path d="M17.7463486,6.68331481 C17.7463486,7.50603086 17.1159358,8.17405556 16.3373119,8.17405556 C15.5591009,8.17405556 14.9282752,7.50603086 14.9282752,6.68288272 C14.9282752,5.85930247 15.5591009,5.19127778 16.3381376,5.19127778 C17.1163486,5.19214198 17.7471743,5.85973457 17.7463486,6.68331481" id="Fill-5" fill="#86AC63"></path>
                            <path d="M17.7427156,26.8354074 C17.7427156,27.6589877 17.1114771,28.3261481 16.3324404,28.3261481 C15.5546422,28.325284 14.9234037,27.6581235 14.9242294,26.8349753 C14.9242294,26.0113951 15.555055,25.3438025 16.3332661,25.3442346 C17.1123028,25.3442346 17.7431284,26.0118272 17.7427156,26.8354074" id="Fill-7" fill="#86AC63"></path>
                            <path d="M16.3340505,23.4678457 C12.8310688,23.4669815 9.99276606,20.4621667 9.99359174,16.7569198 C9.99400459,13.0521049 12.8343716,10.0490185 16.3369404,10.0498827 C19.8395092,10.0503148 22.6782248,13.0546975 22.6773991,16.7603765 C22.6765734,20.4656235 19.8366193,23.4687099 16.3340505,23.4678457" id="Fill-9" fill="#86AC63"></path>
                            <path d="M17.0400138,17.5043642 L17.0404266,16.0136235 C17.0404266,15.5664012 17.3219862,15.2686852 17.7447385,15.2686852 C18.1674908,15.2686852 18.4498761,15.5668333 18.4498761,16.0136235 L18.4490505,18.2501667 C18.4490505,18.697821 18.7306101,18.9959691 19.1533624,18.9959691 C19.5765275,18.9959691 19.8585,18.6982531 19.8585,18.2501667 L19.8589128,17.5047963 C20.2812523,17.5056605 20.5632248,17.2070802 20.5636376,16.7594259 C20.5636376,16.3130679 20.282078,16.0144877 19.8589128,16.0144877 C19.8589128,14.7475741 18.9436376,13.7779444 17.7455642,13.7775123 C16.5474908,13.7775123 15.6313899,14.7458457 15.6305642,16.0131914 L15.6305642,17.5043642 C15.6305642,17.9511543 15.3485917,18.2497346 14.9258394,18.2488704 C14.5030872,18.2488704 14.2211147,17.9511543 14.2211147,17.5035 L14.2215275,15.2673889 C14.2219404,14.8205988 13.9399679,14.5220185 13.5172156,14.5220185 C13.0944633,14.5220185 12.8124908,14.8197346 12.8124908,15.2673889 L12.8124908,16.0123272 C12.3893257,16.0123272 12.1073532,16.3104753 12.1073532,16.7576975 C12.1073532,17.2053519 12.3885,17.5030679 12.8116651,17.5035 C12.8116651,18.7708457 13.7273532,19.7400432 14.9254266,19.7400432 C16.1230872,19.7404753 17.0391881,18.7717099 17.0400138,17.5043642" id="Fill-11" fill="#BDDB91"></path>
                            <path d="M5.28725229,11.6199568 C3.90463761,11.0504506 2.26977523,11.3503272 1.15138073,12.5316852 C-0.35962844,14.1265617 -0.361692661,16.7156975 1.14560092,18.3135988 C2.26193119,19.4971173 3.89596789,19.8004506 5.27899541,19.233537 L5.28725229,11.6199568 Z" id="Fill-13" fill="#F7CD9C"></path>
                            <path d="M5.27998624,19.8785741 C3.89654587,19.3090679 2.26168349,19.6089444 1.14287615,20.7885741 C-0.367720183,22.3847469 -0.370197248,24.9734506 1.13709633,26.572216 C2.25342661,27.7561667 3.8874633,28.0586358 5.27131651,27.4921543 L5.27998624,19.8785741 Z" id="Fill-15" fill="#F7CD9C"></path>
                            <g id="Group-19" transform="translate(0.000000, 27.654321)">
                                <mask id="mask-2" fill="white">
                                    <use xlink:href="#path-1"></use>
                                </mask>
                                <g id="Clip-18"></g>
                                <path d="M5.27111009,0.482654321 C3.88849541,-0.0864197531 2.25322018,0.212592593 1.13482569,1.39308642 C-0.376183486,2.98796296 -0.37866055,5.57753086 1.12863303,7.1767284 C2.2449633,8.35981481 3.87941284,8.66358025 5.26285321,8.09493827 L5.27111009,0.482654321 Z" id="Fill-17" fill="#F7CD9C" mask="url(#mask-2)"></path>
                            </g>
                            <path d="M5.30376606,36.3947284 C3.92073853,35.8247901 2.2854633,36.1255309 1.16665596,37.3064568 C-0.343527523,38.9013333 -0.346417431,41.490037 1.16211468,43.0892346 C2.27720642,44.2718889 3.91206881,44.5747901 5.29509633,44.0078765 L5.30376606,36.3947284 Z" id="Fill-20" fill="#F7CD9C"></path>
                            <mask id="mask-4" fill="white">
                                <use xlink:href="#path-3"></use>
                            </mask>
                            <g id="Clip-23"></g>
                            <polygon id="Fill-22" fill="#F7CD9C" mask="url(#mask-4)" points="3.80600917 39.8632716 8.78284404 39.8632716 8.78284404 14.892284 3.80600917 14.892284"></polygon>
                            <path d="M27.4639128,10.1371667 L27.4593716,6.77846296 C27.4589587,5.41735185 26.4185917,4.31895679 25.1329954,4.32111728 L7.5041422,4.34056173 C6.21854587,4.34142593 5.18065596,5.44198148 5.18230734,6.80309259 L5.1847844,10.1617963 L27.4639128,10.1371667 Z" id="Fill-24" fill="#E7ECEC" mask="url(#mask-4)"></path>
                            <path d="M27.5005734,46.8583889 L27.4943807,41.818821 L5.21731651,41.8438827 L5.22144495,46.8834506 C5.22392202,48.2441296 6.2634633,49.3416605 7.54905963,49.3412284 L25.1775,49.3213519 C26.4635092,49.3187593 27.5005734,48.2190679 27.5005734,46.8583889" id="Fill-25" fill="#E7ECEC" mask="url(#mask-4)"></path>
                            <polygon id="Fill-26" fill="#F1A421" mask="url(#mask-4)" points="27.4945459 44.0689321 27.4639954 7.88368519 5.18486697 7.9117716 5.19188532 15.4976975 5.18486697 15.4976975 5.18486697 38.1038086 5.21211468 38.1038086 5.21748165 44.0970185"></polygon>
                            <path d="M16.7452844,6.18959877 C16.7452844,6.31145062 16.6627156,6.41083333 16.5599174,6.41083333 L14.3478991,6.41083333 C14.2455138,6.41083333 14.1625321,6.31145062 14.1625321,6.18959877 C14.1625321,6.06731481 14.2455138,5.9683642 14.3478991,5.9683642 L16.5599174,5.9683642 C16.6627156,5.9683642 16.7452844,6.06731481 16.7452844,6.18959877" id="Fill-27" fill="#424A60" mask="url(#mask-4)"></path>
                            <path d="M18.0366193,6.18959877 C18.0366193,6.31145062 17.9536376,6.41083333 17.8512523,6.41083333 L15.6396468,6.41083333 C15.5368486,6.41083333 15.453867,6.31145062 15.453867,6.18959877 C15.453867,6.06731481 15.5368486,5.9683642 15.6396468,5.9683642 L17.8512523,5.9683642 C17.9536376,5.9683642 18.0366193,6.06731481 18.0366193,6.18959877" id="Fill-28" fill="#424A60" mask="url(#mask-4)"></path>
                            <path d="M24.8658853,6.18959877 C24.8658853,6.38231481 24.7185,6.53873457 24.5360229,6.53873457 C24.3539587,6.53873457 24.2061606,6.38231481 24.2061606,6.18959877 C24.2061606,5.99688272 24.3539587,5.84046296 24.5360229,5.84046296 C24.7185,5.84046296 24.8658853,5.99688272 24.8658853,6.18959877" id="Fill-29" fill="#424A60" mask="url(#mask-4)"></path>
                            <path d="M20.0669862,6.18959877 C20.0669862,6.38231481 19.9196009,6.53873457 19.7375367,6.53873457 C19.5554725,6.53873457 19.4072615,6.38231481 19.4072615,6.18959877 C19.4072615,5.99688272 19.5554725,5.84046296 19.7375367,5.84046296 C19.9196009,5.84046296 20.0669862,5.99688272 20.0669862,6.18959877" id="Fill-30" fill="#424A60" mask="url(#mask-4)"></path>
                            <path d="M18.4885596,46.7915 C18.4885596,47.1311296 18.2276422,47.4063765 17.9072752,47.4063765 L14.2911743,47.4063765 C13.9703945,47.4063765 13.7098899,47.1311296 13.7098899,46.7915 L13.7098899,46.5179815 C13.7098899,46.1783519 13.9703945,45.9031049 14.2911743,45.9031049 L17.9072752,45.9031049 C18.2276422,45.9031049 18.4885596,46.1783519 18.4885596,46.5179815 L18.4885596,46.7915 Z" id="Fill-31" fill="#424A60" mask="url(#mask-4)"></path>
                            <polygon id="Stroke-32" stroke="#F58521" stroke-width="0.397" mask="url(#mask-4)" points="8.15655963 23.8432099 10.426789 23.8432099 10.426789 21.4411728 8.15655963 21.4411728"></polygon>
                            <polygon id="Stroke-33" stroke="#F58521" stroke-width="0.397" mask="url(#mask-4)" points="10.426789 23.8432099 12.6966055 23.8432099 12.6966055 21.4411728 10.426789 21.4411728"></polygon>
                            <polygon id="Stroke-34" stroke="#F58521" stroke-width="0.397" mask="url(#mask-4)" points="12.6966055 23.8432099 14.966422 23.8432099 14.966422 21.4411728 12.6966055 21.4411728"></polygon>
                            <polygon id="Stroke-35" stroke="#F58521" stroke-width="0.397" mask="url(#mask-4)" points="14.966422 23.8432099 17.2366514 23.8432099 17.2366514 21.4411728 14.966422 21.4411728"></polygon>
                            <polygon id="Stroke-36" stroke="#F58521" stroke-width="0.397" mask="url(#mask-4)" points="17.2366514 23.8432099 19.5064679 23.8432099 19.5064679 21.4411728 17.2366514 21.4411728"></polygon>
                            <polygon id="Stroke-37" stroke="#F58521" stroke-width="0.397" mask="url(#mask-4)" points="19.5064679 23.8432099 21.7762844 23.8432099 21.7762844 21.4411728 19.5064679 21.4411728"></polygon>
                            <polygon id="Stroke-38" stroke="#F58521" stroke-width="0.397" mask="url(#mask-4)" points="21.7762844 23.8432099 24.0465138 23.8432099 24.0465138 21.4411728 21.7762844 21.4411728"></polygon>
                            <polygon id="Stroke-39" stroke="#F58521" stroke-width="0.397" mask="url(#mask-4)" points="8.15655963 26.2452469 10.426789 26.2452469 10.426789 23.8432099 8.15655963 23.8432099"></polygon>
                            <polygon id="Stroke-40" stroke="#F58521" stroke-width="0.397" mask="url(#mask-4)" points="10.426789 26.2452469 12.6966055 26.2452469 12.6966055 23.8432099 10.426789 23.8432099"></polygon>
                            <polygon id="Stroke-41" stroke="#F58521" stroke-width="0.397" mask="url(#mask-4)" points="12.6966055 26.2452469 14.966422 26.2452469 14.966422 23.8432099 12.6966055 23.8432099"></polygon>
                            <polygon id="Stroke-42" stroke="#F58521" stroke-width="0.397" mask="url(#mask-4)" points="14.966422 26.2452469 17.2366514 26.2452469 17.2366514 23.8432099 14.966422 23.8432099"></polygon>
                            <polygon id="Stroke-43" stroke="#F58521" stroke-width="0.397" mask="url(#mask-4)" points="17.2366514 26.2452469 19.5064679 26.2452469 19.5064679 23.8432099 17.2366514 23.8432099"></polygon>
                            <polygon id="Stroke-44" stroke="#F58521" stroke-width="0.397" mask="url(#mask-4)" points="19.5064679 26.2452469 21.7762844 26.2452469 21.7762844 23.8432099 19.5064679 23.8432099"></polygon>
                            <polygon id="Stroke-45" stroke="#F58521" stroke-width="0.397" mask="url(#mask-4)" points="21.7762844 26.2452469 24.0465138 26.2452469 24.0465138 23.8432099 21.7762844 23.8432099"></polygon>
                            <polygon id="Stroke-46" stroke="#F58521" stroke-width="0.397" mask="url(#mask-4)" points="8.15655963 28.647284 10.426789 28.647284 10.426789 26.2452469 8.15655963 26.2452469"></polygon>
                            <polygon id="Stroke-47" stroke="#F58521" stroke-width="0.397" mask="url(#mask-4)" points="10.426789 28.647284 12.6966055 28.647284 12.6966055 26.2452469 10.426789 26.2452469"></polygon>
                            <polygon id="Stroke-48" stroke="#F58521" stroke-width="0.397" mask="url(#mask-4)" points="12.6966055 28.647284 14.966422 28.647284 14.966422 26.2452469 12.6966055 26.2452469"></polygon>
                            <polygon id="Stroke-49" stroke="#F58521" stroke-width="0.397" mask="url(#mask-4)" points="14.966422 28.647284 17.2366514 28.647284 17.2366514 26.2452469 14.966422 26.2452469"></polygon>
                            <polygon id="Stroke-50" stroke="#F58521" stroke-width="0.397" mask="url(#mask-4)" points="17.2366514 28.647284 19.5064679 28.647284 19.5064679 26.2452469 17.2366514 26.2452469"></polygon>
                            <polygon id="Stroke-51" stroke="#F58521" stroke-width="0.397" mask="url(#mask-4)" points="19.5064679 28.647284 21.7762844 28.647284 21.7762844 26.2452469 19.5064679 26.2452469"></polygon>
                            <polygon id="Stroke-52" stroke="#F58521" stroke-width="0.397" mask="url(#mask-4)" points="21.7762844 28.647284 24.0465138 28.647284 24.0465138 26.2452469 21.7762844 26.2452469"></polygon>
                            <polygon id="Stroke-53" stroke="#F58521" stroke-width="0.397" mask="url(#mask-4)" points="8.15655963 31.049321 10.426789 31.049321 10.426789 28.647284 8.15655963 28.647284"></polygon>
                            <polygon id="Stroke-54" stroke="#F58521" stroke-width="0.397" mask="url(#mask-4)" points="10.426789 31.049321 12.6966055 31.049321 12.6966055 28.647284 10.426789 28.647284"></polygon>
                            <polygon id="Stroke-55" stroke="#F58521" stroke-width="0.397" mask="url(#mask-4)" points="12.6966055 31.049321 14.966422 31.049321 14.966422 28.647284 12.6966055 28.647284"></polygon>
                            <polygon id="Stroke-56" stroke="#F58521" stroke-width="0.397" mask="url(#mask-4)" points="14.966422 31.049321 17.2366514 31.049321 17.2366514 28.647284 14.966422 28.647284"></polygon>
                            <polygon id="Stroke-57" stroke="#F58521" stroke-width="0.397" mask="url(#mask-4)" points="17.2366514 31.049321 19.5064679 31.049321 19.5064679 28.647284 17.2366514 28.647284"></polygon>
                            <polygon id="Stroke-58" stroke="#F58521" stroke-width="0.397" mask="url(#mask-4)" points="19.5064679 31.049321 21.7762844 31.049321 21.7762844 28.647284 19.5064679 28.647284"></polygon>
                            <polygon id="Stroke-59" stroke="#F58521" stroke-width="0.397" mask="url(#mask-4)" points="21.7762844 31.049321 24.0465138 31.049321 24.0465138 28.647284 21.7762844 28.647284"></polygon>
                            <polygon id="Stroke-60" stroke="#F58521" stroke-width="0.397" mask="url(#mask-4)" points="8.15655963 33.451358 10.426789 33.451358 10.426789 31.049321 8.15655963 31.049321"></polygon>
                            <polygon id="Stroke-61" stroke="#F58521" stroke-width="0.397" mask="url(#mask-4)" points="10.426789 33.451358 12.6966055 33.451358 12.6966055 31.049321 10.426789 31.049321"></polygon>
                            <polygon id="Stroke-62" stroke="#F58521" stroke-width="0.397" mask="url(#mask-4)" points="12.6966055 33.451358 14.966422 33.451358 14.966422 31.049321 12.6966055 31.049321"></polygon>
                            <polygon id="Stroke-63" stroke="#F58521" stroke-width="0.397" mask="url(#mask-4)" points="14.966422 33.451358 17.2366514 33.451358 17.2366514 31.049321 14.966422 31.049321"></polygon>
                            <polygon id="Stroke-64" stroke="#F58521" stroke-width="0.397" mask="url(#mask-4)" points="17.2366514 33.451358 19.5064679 33.451358 19.5064679 31.049321 17.2366514 31.049321"></polygon>
                            <polygon id="Stroke-65" stroke="#F58521" stroke-width="0.397" mask="url(#mask-4)" points="19.5064679 33.451358 21.7762844 33.451358 21.7762844 31.049321 19.5064679 31.049321"></polygon>
                            <polygon id="Stroke-66" stroke="#F58521" stroke-width="0.397" mask="url(#mask-4)" points="21.7762844 33.451358 24.0465138 33.451358 24.0465138 31.049321 21.7762844 31.049321"></polygon>
                            <polygon id="Stroke-67" stroke="#F58521" stroke-width="0.397" mask="url(#mask-4)" points="8.15655963 35.852963 10.426789 35.852963 10.426789 33.4509259 8.15655963 33.4509259"></polygon>
                            <polygon id="Stroke-68" stroke="#F58521" stroke-width="0.397" mask="url(#mask-4)" points="10.426789 35.852963 12.6966055 35.852963 12.6966055 33.4509259 10.426789 33.4509259"></polygon>
                            <polygon id="Stroke-69" stroke="#F58521" stroke-width="0.397" mask="url(#mask-4)" points="12.6966055 35.852963 14.966422 35.852963 14.966422 33.4509259 12.6966055 33.4509259"></polygon>
                            <polygon id="Stroke-70" stroke="#F58521" stroke-width="0.397" mask="url(#mask-4)" points="14.966422 35.852963 17.2366514 35.852963 17.2366514 33.4509259 14.966422 33.4509259"></polygon>
                            <polygon id="Stroke-71" stroke="#F58521" stroke-width="0.397" mask="url(#mask-4)" points="17.2366514 35.852963 19.5064679 35.852963 19.5064679 33.4509259 17.2366514 33.4509259"></polygon>
                            <polygon id="Stroke-72" stroke="#F58521" stroke-width="0.397" mask="url(#mask-4)" points="19.5064679 35.852963 21.7762844 35.852963 21.7762844 33.4509259 19.5064679 33.4509259"></polygon>
                            <polygon id="Stroke-73" stroke="#F58521" stroke-width="0.397" mask="url(#mask-4)" points="21.7762844 35.852963 24.0465138 35.852963 24.0465138 33.4509259 21.7762844 33.4509259"></polygon>
                            <polygon id="Stroke-74" stroke="#F58521" stroke-width="0.397" mask="url(#mask-4)" points="8.15655963 38.2554321 10.426789 38.2554321 10.426789 35.8533951 8.15655963 35.8533951"></polygon>
                            <polygon id="Stroke-75" stroke="#F58521" stroke-width="0.397" mask="url(#mask-4)" points="10.426789 38.2554321 12.6966055 38.2554321 12.6966055 35.8533951 10.426789 35.8533951"></polygon>
                            <polygon id="Stroke-76" stroke="#F58521" stroke-width="0.397" mask="url(#mask-4)" points="12.6966055 38.2554321 14.966422 38.2554321 14.966422 35.8533951 12.6966055 35.8533951"></polygon>
                            <polygon id="Stroke-77" stroke="#F58521" stroke-width="0.397" mask="url(#mask-4)" points="14.966422 38.2554321 17.2366514 38.2554321 17.2366514 35.8533951 14.966422 35.8533951"></polygon>
                            <polygon id="Stroke-78" stroke="#F58521" stroke-width="0.397" mask="url(#mask-4)" points="17.2366514 38.2554321 19.5064679 38.2554321 19.5064679 35.8533951 17.2366514 35.8533951"></polygon>
                            <polygon id="Stroke-79" stroke="#F58521" stroke-width="0.397" mask="url(#mask-4)" points="19.5064679 38.2554321 21.7762844 38.2554321 21.7762844 35.8533951 19.5064679 35.8533951"></polygon>
                            <polygon id="Stroke-80" stroke="#F58521" stroke-width="0.397" mask="url(#mask-4)" points="21.7762844 38.2554321 24.0465138 38.2554321 24.0465138 35.8533951 21.7762844 35.8533951"></polygon>
                            <polyline id="Stroke-81" stroke="#FFFFFF" stroke-width="1.19" stroke-linecap="round" mask="url(#mask-4)" points="8.58554587 37.9693395 15.3206835 29.3420556 19.8223349 28.6187222 24.046555 21.7608827"></polyline>
                            <polygon id="Fill-82" fill="#E6E7E8" mask="url(#mask-4)" points="36.7794908 43.4579012 19.5523349 61.6475309 27.4298119 70 44.656555 51.8103704"></polygon>
                            <path d="M30.0014587,60.5762284 C27.3988899,57.8168457 27.4071468,53.3536975 30.0146697,50.6007963 L36.7795321,43.4577716 L44.654945,51.8085123 L33.1700367,63.9357963 L30.0014587,60.5762284 Z" id="Fill-83" fill="#FFFFFF" mask="url(#mask-4)"></path>
                            <path d="M32.1059725,56.7257531 C31.1167982,55.6766173 31.1176239,53.9801975 32.1096881,52.932358 C33.0980367,51.8884074 34.7056514,51.8871111 35.6952385,52.9358148 C36.6844128,53.9849506 36.6794587,55.6865556 35.6915229,56.729642 C34.6990459,57.7774815 33.0955596,57.7748889 32.1059725,56.7257531" id="Fill-84" fill="#F58621" mask="url(#mask-4)"></path>
                            <path d="M9.20563761,49.2646605 C9.31916972,51.143858 10.0482523,52.9919444 11.401555,54.4278086 C13.1577936,56.2892901 15.5626101,57.0437346 17.8460505,56.7058333 L21.0782064,60.1341049 L35.4348578,44.9743519 L33.1014633,42.5010185 C33.107656,42.3886728 33.1332523,42.2806481 33.1332523,42.1713272 L33.1819679,25.7986728 C33.2414174,24.9435494 32.8397202,26.9134877 32.223344,27.1347222 L27.4913257,32.1315123 L27.4818303,46.821142 C27.4789404,48.1844136 26.4381606,49.2828086 25.1505,49.2828086 L9.20563761,49.2646605 Z" id="Fill-85" fill="#F5B261" mask="url(#mask-4)"></path>
                            <path d="M25.0444817,34.7155062 C23.6639312,36.1734074 21.4069128,36.1742716 20.0288394,34.7124815 C18.6474633,33.2485309 18.6528303,30.8585926 20.0333807,29.4006914 L27.2110872,21.821679 C28.5928761,20.3633457 30.8515459,20.3620494 32.2325092,21.8264321 C33.6109954,23.2877901 33.6039771,25.6768642 32.2234266,27.1347654 L25.0444817,34.7155062 Z" id="Fill-86" fill="#F7CD9C" mask="url(#mask-4)"></path>
                            <polyline id="Stroke-87" stroke="#F58521" stroke-width="0.793" mask="url(#mask-4)" points="7.22448165 20.8811728 7.22448165 39.3953086 25.0775092 39.6005556"></polyline>
                        </g>
                        <text id="1,24%" font-family="Neris-Bold, Neris" font-size="8" font-weight="bold" fill="#FFFFFF">
                            <tspan x="6.1916542" y="19">1,</tspan>
                            <tspan x="11.2796542" y="19" letter-spacing="-0.3033084">2</tspan>
                            <tspan x="15.5283458" y="19">4%</tspan>
                        </text>
                    </g>
                </g>
            </g>
        </g>
    </g>
</svg>