<?xml version="1.0" encoding="UTF-8"?>
<svg width="116px" height="50px" viewBox="0 0 116 50" version="1.1" xmlns="http://www.w3.org/2000/svg" xmlns:xlink="http://www.w3.org/1999/xlink">
    <!-- Generator: sketchtool 53.1 (72631) - https://sketchapp.com -->
    <title>7B129A77-3177-4A58-8E98-487A2306890F</title>
    <desc>Created with sketchtool.</desc>
    <defs>
        <radialGradient cx="50%" cy="49.9938904%" fx="50%" fy="49.9938904%" r="83.6693002%" gradientTransform="translate(0.500000,0.499939),scale(0.550721,1.000000),translate(-0.500000,-0.499939)" id="radialGradient-1">
            <stop stop-color="#E20613" offset="0%"></stop>
            <stop stop-color="#E20613" offset="18%"></stop>
            <stop stop-color="#731A13" offset="76%"></stop>
            <stop stop-color="#6E1912" offset="100%"></stop>
        </radialGradient>
        <linearGradient x1="-41.1200548%" y1="61.9622587%" x2="141.205686%" y2="36.0628551%" id="linearGradient-2">
            <stop stop-color="#801A14" offset="0%"></stop>
            <stop stop-color="#E31918" offset="19%"></stop>
            <stop stop-color="#ED7556" offset="33%"></stop>
            <stop stop-color="#F0886A" offset="37%"></stop>
            <stop stop-color="#ED7556" offset="42%"></stop>
            <stop stop-color="#E31517" offset="53%"></stop>
            <stop stop-color="#801A14" offset="100%"></stop>
        </linearGradient>
        <linearGradient x1="-333.145116%" y1="93.2900692%" x2="430.886505%" y2="5.036533%" id="linearGradient-3">
            <stop stop-color="#6F6F6E" offset="0%"></stop>
            <stop stop-color="#D9D9D9" offset="27%"></stop>
            <stop stop-color="#FFFFFF" offset="41%"></stop>
            <stop stop-color="#C7C7C7" offset="65%"></stop>
            <stop stop-color="#6F6F6E" offset="100%"></stop>
        </linearGradient>
    </defs>
    <g id="Symbols" stroke="none" stroke-width="1" fill="none" fill-rule="evenodd">
        <g id="-g-OJK">
            <g id="Untitled-4_Artboard-6" transform="translate(4.000000, 3.000000)">
                <path d="M65.13,16.76 C63.39,16.76 62.19,18.17 62.19,20.32 C62.19,22.47 63.31,23.78 65.04,23.78 C66.77,23.78 68,22.58 68,20.21 C68,18.21 67,16.76 65.16,16.76 L65.13,16.76 Z M65.13,17.61 C66.35,17.61 66.92,18.95 66.92,20.25 C66.92,21.55 66.3,22.93 65.11,22.93 C63.92,22.93 63.31,21.67 63.31,20.29 C63.31,18.91 63.87,17.61 65.13,17.61 Z M73.13,16.86 L68.37,16.86 L68.37,17.74 L70.21,17.74 L70.21,23.68 L71.21,23.68 L71.21,17.74 L73.05,17.74 L73.05,16.86 L73.13,16.86 Z M76.47,16.76 C74.73,16.76 73.53,18.17 73.53,20.32 C73.53,22.47 74.65,23.78 76.38,23.78 C78.11,23.78 79.31,22.58 79.31,20.21 C79.31,18.21 78.31,16.76 76.47,16.76 Z M76.47,17.61 C77.69,17.61 78.26,18.95 78.26,20.25 C78.26,21.55 77.64,22.93 76.45,22.93 C75.26,22.93 74.65,21.67 74.65,20.29 C74.65,18.91 75.21,17.61 76.47,17.61 Z M83.32,20.42 C84.059061,20.1751735 84.5532526,19.4784443 84.54,18.7 C84.5681897,18.1952615 84.3702831,17.70416 84,17.36 C83.4264347,16.9318573 82.7111096,16.7387195 82,16.82 C81.4436778,16.8190266 80.8883011,16.8658656 80.34,16.96 L80.34,23.68 L81.34,23.68 L81.34,20.8 L82,20.8 C82.72,20.8 83,21.14 83.24,22.05 C83.3349865,22.6039482 83.4754619,23.1491265 83.66,23.68 L84.7,23.68 C84.483911,23.0777649 84.3167032,22.4590961 84.2,21.83 C84.1393662,21.2211228 83.7580171,20.6910475 83.2,20.44 L83.2,20.44 L83.32,20.42 Z M81.35,20 L81.35,17.68 C81.5871459,17.6341797 81.8285411,17.6140634 82.07,17.62 C82.81,17.62 83.43,17.92 83.43,18.8 C83.4260273,19.158782 83.2655895,19.4979431 82.990738,19.7285878 C82.7158865,19.9592324 82.3540254,20.0583641 82,20 L81.35,20 Z M85.62,23.66 L86.62,23.66 L86.62,16.86 L85.62,16.86 L85.62,23.68 L85.62,23.66 Z M92.12,16.84 L87.41,16.84 L87.41,17.72 L89.24,17.72 L89.24,23.66 L90.24,23.66 L90.24,17.74 L92.08,17.74 L92.08,16.86 L92.12,16.84 Z M95.57,16.84 L94.3,16.84 L92.22,23.66 L93.28,23.66 L93.86,21.66 L96,21.66 L96.61,23.66 L97.7,23.66 L95.62,16.84 L95.57,16.84 Z M94.03,20.84 L94.57,19.04 C94.68,18.62 94.79,18.12 94.89,17.7 L94.89,17.7 C94.98,18.12 95.1,18.6 95.23,19.05 L95.76,20.84 L94.03,20.84 Z M102.03,17.03 C101.587113,16.8067682 101.09579,16.6968218 100.6,16.71 C100.051263,16.6486045 99.5015585,16.8167996 99.0811261,17.1747354 C98.6606936,17.5326711 98.4069449,18.0484971 98.38,18.6 C98.38,19.53 99.06,20.14 100.08,20.6 C100.89,20.94 101.24,21.3 101.24,21.87 C101.24,22.44 100.78,22.87 99.97,22.87 C99.4503491,22.8670996 98.940363,22.7292655 98.49,22.47 L98.26,23.33 C98.7657563,23.6058591 99.3339461,23.7470457 99.91,23.74 C101.44,23.74 102.29,22.89 102.29,21.74 C102.29,20.8 101.76,20.2 100.67,19.74 C99.8,19.37 99.42,19.08 99.42,18.51 C99.42,17.94 99.76,17.6 100.57,17.6 C100.991842,17.5991791 101.4074,17.7022101 101.78,17.9 L102.03,17.05 L102.03,17.03 Z M64.8,25.65 L63.8,25.65 L63.8,30.17 C63.8,31.38 63.38,31.68 62.7,31.68 C62.4693562,31.6846062 62.2395529,31.6508116 62.02,31.58 L61.89,32.43 C62.1782077,32.5188815 62.4784107,32.5627313 62.78,32.56 C63.98,32.56 64.78,32 64.78,30.2 L64.78,25.65 L64.8,25.65 Z M69.01,25.65 L67.75,25.65 L65.67,32.47 L66.73,32.47 L67.31,30.47 L69.4,30.47 L70.01,32.47 L71.1,32.47 L69,25.65 L69.01,25.65 Z M67.47,29.65 L68,27.88 C68.11,27.46 68.22,26.96 68.32,26.54 L68.32,26.54 C68.41,26.96 68.53,27.44 68.65,27.88 L69.19,29.67 L67.47,29.65 Z M75.47,25.84 C75.0093893,25.629805 74.5059281,25.5304828 74,25.55 C73.454526,25.491588 72.9090049,25.6598025 72.4911507,26.0152622 C72.0732964,26.370722 71.8197969,26.8822172 71.79,27.43 C71.79,28.36 72.47,28.98 73.49,29.43 C74.3,29.77 74.65,30.13 74.65,30.71 C74.65,31.29 74.19,31.71 73.38,31.71 C72.8603491,31.7070996 72.350363,31.5692655 71.9,31.31 L71.67,32.17 C72.1738759,32.4506552 72.743363,32.5921641 73.32,32.58 C74.85,32.58 75.7,31.73 75.7,30.58 C75.7,29.64 75.17,29.05 74.08,28.58 C73.21,28.2 72.83,27.92 72.83,27.34 C72.83,26.76 73.17,26.43 73.98,26.43 C74.401842,26.4291791 74.8174004,26.5322101 75.19,26.73 L75.44,25.88 L75.47,25.84 Z M79.69,25.63 L78.43,25.63 L76.35,32.45 L77.41,32.45 L78,30.45 L80.08,30.45 L80.7,32.45 L81.78,32.45 L79.7,25.65 L79.69,25.63 Z M78.15,29.63 L78.69,27.84 C78.81,27.42 78.91,26.92 79.01,26.5 L79.01,26.5 C79.11,26.92 79.22,27.4 79.35,27.84 L79.88,29.63 L78.15,29.63 Z M64.87,37.34 L67.11,34.43 L65.85,34.43 L64.1,36.87 C63.94,37.11 63.77,37.36 63.61,37.63 L63.61,37.63 L63.61,34.43 L62.61,34.43 L62.61,41.25 L63.61,41.25 L63.61,38.74 L64.18,38.03 L66,41.25 L67.2,41.25 L64.83,37.34 L64.87,37.34 Z M71.63,40.34 L69,40.34 L69,38.12 L71.39,38.12 L71.39,37.27 L69,37.27 L69,35.27 L71.53,35.27 L71.53,34.41 L67.92,34.41 L67.92,41.23 L71.63,41.23 L71.63,40.36 L71.63,40.34 Z M77.47,34.34 L76.47,34.34 L76.47,38.47 C76.47,39.82 75.94,40.41 75.08,40.41 C74.22,40.41 73.74,39.83 73.74,38.47 L73.74,34.43 L72.74,34.43 L72.74,38.49 C72.74,40.49 73.74,41.35 75.09,41.35 C76.44,41.35 77.54,40.49 77.54,38.47 L77.54,34.47 L77.47,34.34 Z M81.74,34.34 L80.47,34.34 L78.39,41.16 L79.45,41.16 L80.04,39.16 L82.12,39.16 L82.73,41.16 L83.82,41.16 L81.74,34.34 Z M80.2,38.34 L80.74,36.55 C80.86,36.13 80.96,35.63 81.06,35.21 L81.06,35.21 C81.16,35.63 81.27,36.11 81.4,36.56 L82,38.45 L80.2,38.34 Z M89.64,34.34 L88.64,34.34 L88.64,36.85 C88.64,37.94 88.64,38.85 88.75,39.74 L88.75,39.74 C88.4344613,38.962837 88.0669638,38.2077968 87.65,37.48 L85.87,34.33 L84.77,34.33 L84.77,41.15 L85.77,41.15 L85.77,38.7 C85.77,37.5 85.77,36.62 85.7,35.76 L85.7,35.76 C86.0300639,36.5519359 86.4074104,37.3233256 86.83,38.07 L88.62,41.26 L89.62,41.26 L89.62,34.43 L89.64,34.34 Z M96,37.58 L93.79,37.58 L93.79,38.41 L95,38.41 L95,40.33 C94.7101726,40.4412207 94.3998554,40.4889618 94.09,40.47 C92.76,40.47 91.82,39.57 91.82,37.85 C91.7339586,37.1720329 91.9512096,36.4906181 92.4137882,35.9875639 C92.8763668,35.4845097 93.5372107,35.2109963 94.22,35.24 C94.687191,35.2223235 95.1522754,35.3112367 95.58,35.5 L95.81,34.65 C95.3058303,34.4450474 94.7638535,34.349605 94.22,34.37 C93.2718956,34.3097883 92.3440452,34.6623509 91.6751645,35.3369813 C91.0062838,36.0116116 90.6616756,36.9424456 90.73,37.89 C90.6381825,38.7964909 90.9472024,39.6978246 91.5759033,40.3572875 C92.2046041,41.0167505 93.0901596,41.3684425 94,41.32 C94.6803496,41.3325153 95.3575198,41.2241681 96,41 L96,37.58 Z M100.09,34.43 L98.8,34.43 L96.71,41.25 L97.77,41.25 L98.36,39.25 L100.44,39.25 L101.06,41.25 L102.15,41.25 L100.06,34.43 L100.09,34.43 Z M98.55,38.43 L99.09,36.64 C99.21,36.22 99.32,35.72 99.42,35.3 L99.42,35.3 C99.52,35.72 99.64,36.2 99.76,36.65 L100.3,38.43 L98.55,38.43 Z M108,34.43 L107,34.43 L107,36.94 C107,38.03 107,38.94 107.1,39.83 L107.1,39.83 C106.779693,39.0582099 106.412336,38.3067984 106,37.58 L104.22,34.43 L103.1,34.43 L103.1,41.25 L104.1,41.25 L104.1,38.7 C104.1,37.5 104.1,36.62 104.03,35.76 L104.03,35.76 C104.360064,36.5519359 104.73741,37.3233256 105.16,38.07 L106.95,41.26 L107.95,41.26 L108,34.43 Z" id="Shape" fill="#6F6F6E"></path>
                <path d="M14.87,16.71 C7.63,16.71 3.46,22.66 3.46,29.82 C3.46,36.82 7.08,42.82 14.46,42.82 C16.2994428,42.8526199 18.1211062,42.4554151 19.78,41.66 C21.1815096,42.2632151 22.6639812,42.6574178 24.18,42.83 C28.98,43.11 32.58,40.91 32.58,33.83 L32.58,16.64 L27.5,16.64 L27.5,33.88 C27.5,37.47 26.26,38.21 24.31,38.21 C24.1028601,38.206793 23.8973217,38.1730982 23.7,38.11 C25.2162742,35.4725549 25.9547585,32.4596775 25.83,29.42 C25.83,23.25 22.7,16.71 14.83,16.71 L14.87,16.71 Z M41.87,26.56 L50.57,16.46 L43.2,15.89 L34.2,26.72 L34.2,34.72 L37.72,31.12 L44.6,42.76 L52.42,42.76 L41.91,26.56 L41.87,26.56 Z M14.68,21.18 C18.77,21.18 20.82,24.99 20.82,29.56 C20.82,34.66 18.73,38.24 14.68,38.24 C10.63,38.24 8.35,34.66 8.4,29.66 C8.4,25.16 10.4,21.18 14.68,21.18 Z" id="Shape" fill="url(#radialGradient-1)"></path>
                <rect id="Rectangle" fill="#931A15" fill-rule="nonzero" x="56.71" y="16.11" width="1.01" height="27.56"></rect>
                <path d="M5.21,13.35 C6.60114448,15.8662842 7.4333885,18.6529373 7.65,21.52 C19.21,9.52 30.79,13.6 42.46,16.28 C52.16,17.86 57,14 58.62,11.86 C52.73,15.06 48.27,15.17 44.46,13.86 C39.64,13.72 31.7,7.24 20.89,6.07 C14.7139628,5.37820788 8.66712298,8.18566925 5.21,13.35 Z" id="Path" fill="#6F6F6E"></path>
                <path d="M0,6.06 C3.8,9.81 7.09,13.86 7.71,20.78 C19.26,8.72 30.55,13.26 42.23,15.94 C51.93,17.52 56.72,13.68 58.39,11.53 C43.39,19.67 37.71,7.53 28.3,3.26 C26.3,2.16 12.41,-4.33 0,6.06 Z" id="Path" fill="url(#linearGradient-2)"></path>
                <path d="M5.25,12.61 C6.64030384,15.1273057 7.4756834,17.9130408 7.7,20.78 C19.25,8.72 30.54,13.26 42.22,15.94 C51.92,17.52 56.71,13.68 58.38,11.53 C52.49,14.72 48.03,14.83 44.22,13.53 C39.4,13.39 31.45,6.9 20.64,5.73 C14.6219684,4.93015627 8.66727524,7.59216333 5.25,12.61 Z" id="Path" fill="url(#linearGradient-3)"></path>
            </g>
        </g>
    </g>
</svg>