<svg id="Layer_1" data-name="Layer 1" xmlns="http://www.w3.org/2000/svg" viewBox="0 0 110 60"><defs><style>.cls-1{fill:#288d44;}.cls-2{fill:#f58621;}.cls-3{fill:#f16f24;}.cls-4{fill:#00539a;}</style></defs><title>Untitled-2</title><path class="cls-1" d="M44.84,21.68a1.54,1.54,0,1,1-1.11.45A1.55,1.55,0,0,1,44.84,21.68Zm-1.29,5.58a1.11,1.11,0,0,1,.36-.92,1.66,1.66,0,0,1,1-.28,2.45,2.45,0,0,1,.74.1l.46.15V36.82a.62.62,0,0,1-.62.62H44.17a.62.62,0,0,1-.62-.62Z"/><path class="cls-1" d="M48.9,30.57a4.76,4.76,0,0,1,.42-2A4.56,4.56,0,0,1,50.48,27a5.17,5.17,0,0,1,1.75-.95,7.07,7.07,0,0,1,2.21-.33,7.18,7.18,0,0,1,2.22.33,5.22,5.22,0,0,1,1.76.95,4.38,4.38,0,0,1,1.14,1.52,4.75,4.75,0,0,1,.41,2v6.25a.62.62,0,0,1-.62.62H58a.61.61,0,0,1-.62-.62V31.23a3.33,3.33,0,0,0-.75-2.35,3.44,3.44,0,0,0-4.41,0,3.38,3.38,0,0,0-.74,2.35v5.59a.62.62,0,0,1-.62.62H49.52a.62.62,0,0,1-.62-.62Z"/><path class="cls-1" d="M72.85,37.4l-.71.1L71,37.62l-1.47.1c-.54,0-1.11,0-1.7,0a11.48,11.48,0,0,1-2.89-.3,5,5,0,0,1-1.77-.82,2.63,2.63,0,0,1-.89-1.18,4.54,4.54,0,0,1,0-3,2.67,2.67,0,0,1,.93-1.18,4.47,4.47,0,0,1,1.69-.72,11.46,11.46,0,0,1,2.54-.24c.57,0,1.12,0,1.63.06l1.16.1A2.94,2.94,0,0,0,70,29.17a2.05,2.05,0,0,0-.72-.82,2.88,2.88,0,0,0-1.09-.41,8.55,8.55,0,0,0-1.4-.11,6.26,6.26,0,0,0-2.08.29,4.63,4.63,0,0,0-1,.5,2.7,2.7,0,0,1-.37-.43,1.24,1.24,0,0,1-.24-.77,1.29,1.29,0,0,1,.17-.62,1.41,1.41,0,0,1,.6-.55A3.86,3.86,0,0,1,65,25.88a10.16,10.16,0,0,1,1.83-.14,10.74,10.74,0,0,1,2.44.26,5.4,5.4,0,0,1,1.9.83,3.78,3.78,0,0,1,1.23,1.5,5.12,5.12,0,0,1,.44,2.24Zm-2.56-5-.85-.13a14.3,14.3,0,0,0-1.87-.09,4.2,4.2,0,0,0-2.25.46,1.65,1.65,0,0,0-.7,1.47,1.78,1.78,0,0,0,.15.74,1.34,1.34,0,0,0,.51.58,2.89,2.89,0,0,0,1,.37,8.33,8.33,0,0,0,1.55.12,14,14,0,0,0,1.65-.08c.41,0,.69-.09.82-.12Z"/><path class="cls-1" d="M75.51,30.57a4.76,4.76,0,0,1,.42-2A4.53,4.53,0,0,1,77.08,27a5.37,5.37,0,0,1,1.75-.95A7.07,7.07,0,0,1,81,25.74a7.18,7.18,0,0,1,2.22.33A5.22,5.22,0,0,1,85,27a4.41,4.41,0,0,1,1.15,1.52,4.91,4.91,0,0,1,.41,2v6.25a.62.62,0,0,1-.62.62H84.61a.62.62,0,0,1-.62-.62V31.23a3.33,3.33,0,0,0-.75-2.35,3.44,3.44,0,0,0-4.41,0,3.38,3.38,0,0,0-.74,2.35v5.59a.61.61,0,0,1-.62.62H76.13a.62.62,0,0,1-.62-.62Z"/><path class="cls-1" d="M90.64,39.4l.39.17a7.24,7.24,0,0,0,.77.24,8.36,8.36,0,0,0,1.09.22,9.56,9.56,0,0,0,1.35.09A7,7,0,0,0,95.76,40a3.49,3.49,0,0,0,1.34-.61,3.3,3.3,0,0,0,1-1.24,4.79,4.79,0,0,0,.38-2v-.27A5.48,5.48,0,0,1,96.93,37a4.88,4.88,0,0,1-2.37.54,6.32,6.32,0,0,1-2.34-.42,5.34,5.34,0,0,1-3-3,6.4,6.4,0,0,1-.43-2.36,6,6,0,0,1,.47-2.38,5.64,5.64,0,0,1,1.28-1.89,5.8,5.8,0,0,1,2-1.24A6.6,6.6,0,0,1,95,25.74a7.09,7.09,0,0,1,2.39.39,5.15,5.15,0,0,1,1.92,1.18,5.49,5.49,0,0,1,1.27,2,8.29,8.29,0,0,1,.45,2.88v3.26a8.48,8.48,0,0,1-.49,3.07,5.37,5.37,0,0,1-1.35,2.1,5.13,5.13,0,0,1-2,1.19,8.6,8.6,0,0,1-2.6.38,14.37,14.37,0,0,1-1.69-.1c-.5-.07-.95-.16-1.35-.25a8.88,8.88,0,0,1-1-.3h0a.63.63,0,0,1-.36-.79Zm4.3-4.09A3.55,3.55,0,0,0,96.35,35a3.22,3.22,0,0,0,1.09-.75,3.44,3.44,0,0,0,.71-1.13,4.15,4.15,0,0,0,0-2.89,3.58,3.58,0,0,0-.71-1.16,3.11,3.11,0,0,0-1.09-.76,3.83,3.83,0,0,0-2.85,0,3.34,3.34,0,0,0-1.1.78,3.78,3.78,0,0,0-.7,1.16,3.88,3.88,0,0,0-.25,1.41,3.63,3.63,0,0,0,1,2.62A3.41,3.41,0,0,0,94.94,35.31Z"/><path class="cls-1" d="M39.45,23.08c-1.24-1-2.92-1.57-5.49-1.57a11.9,11.9,0,0,0-1.58.06l-.35,0c-.68.06-1.16.11-1.4.16a2,2,0,0,0-.88.44,1.4,1.4,0,0,0-.33,1V37.18a.43.43,0,0,0,.43.43h1.62a.44.44,0,0,0,.44-.43V32.69a13.12,13.12,0,0,0,2.48.25s.55,0,1.22-.06a8.41,8.41,0,0,0,1.81-.38,6,6,0,0,0,2.24-1.2,4.48,4.48,0,0,0,1.25-1.8,6.52,6.52,0,0,0,.39-2.27A5.15,5.15,0,0,0,39.45,23.08Zm-1,5.5a2.83,2.83,0,0,1-.8,1.13,3.89,3.89,0,0,1-1.51.75,5.85,5.85,0,0,1-1.37.24,6.64,6.64,0,0,1-2.84-.36V23.92a12.19,12.19,0,0,1,3.39-.09,5.6,5.6,0,0,1,.81.19,4.24,4.24,0,0,1,1.55.77,2.49,2.49,0,0,1,.79,1.14,4.11,4.11,0,0,1,.21,1.3A4,4,0,0,1,38.43,28.58Z"/><path class="cls-2" d="M23.65,5.37a2.23,2.23,0,0,0-2.22,0l-8.08,4.67h0c-3.33,2-3.92,5.76-4,7.56v8a11.24,11.24,0,0,0,2.23,6.75l.27.33,3.33,4h0l.14.17a1.34,1.34,0,0,0,1.05.52,1,1,0,0,0,.39-.07,1.26,1.26,0,0,0,.77-1.3V23.1l6.25-3.94a2.38,2.38,0,0,0,1.06-1.94V8S25,6,23.65,5.37ZM22.26,17.75l-5.71,3.6-3.36-4.07c-1.87-2.84.22-4.81,1.51-5.68l6.68-3.86.34-.2c.66-.34,1.09,0,1.09.4s0,8.32,0,8.32v.38A1.4,1.4,0,0,1,22.26,17.75Z"/><path class="cls-2" d="M30.83,46.75c.81,0,1.28.39,1.28,1s-.54,1.1-1.56,1.1h-.64v1.2s0,0-.06,0h-.38a0,0,0,0,1,0,0V46.8a0,0,0,0,1,0,0Zm-.92,1.75h.64c.71,0,1.06-.24,1.06-.7s-.29-.66-.78-.66h-.92Z"/><path class="cls-2" d="M34.81,49a1.23,1.23,0,1,1-1.22-1.23A1.13,1.13,0,0,1,34.81,49Zm-2,0a.74.74,0,0,0,.75.84c.46,0,.74-.32.74-.84s-.28-.84-.74-.84S32.84,48.44,32.84,49Z"/><path class="cls-2" d="M38.29,49.27c-.12.33-.19.58-.27.84,0,0,0,0-.06,0h-.45a.05.05,0,0,1-.06,0c-.05-.17-.12-.37-.19-.56L37,48.88c0-.1-.07-.23-.09-.32s-.06-.06-.07,0-.06.23-.09.32l-.26.67c-.07.19-.14.38-.19.56s0,0-.06,0h-.45s-.06,0-.06,0c-.08-.26-.16-.5-.26-.84L35,47.84s0-.05.05-.05h.38a.09.09,0,0,1,.07,0l.35,1.06c.08.28.14.48.18.68a0,0,0,0,0,.08,0c.05-.2.14-.47.23-.74l.38-1a.06.06,0,0,1,.06,0H37a.06.06,0,0,1,.06,0l.39,1a7.38,7.38,0,0,1,.23.74,0,0,0,0,0,.08,0c0-.2.1-.4.18-.68l.35-1.06a.08.08,0,0,1,.07,0h.38s.06,0,.05.05Z"/><path class="cls-2" d="M40.81,50.14a2.34,2.34,0,0,1-.58.06,1.23,1.23,0,1,1,0-2.46c.63,0,1,.28,1,.75s-.25.57-.77.65l-1,.13a.66.66,0,0,0,.72.54,2.19,2.19,0,0,0,.47-.05l.2,0s.06,0,.07,0l.09.28s0,0,0,.06Zm-.42-1.35c.25,0,.37-.14.37-.29s-.2-.37-.55-.37-.72.25-.74.8Z"/><path class="cls-2" d="M43.09,48.08s0,.05-.06.05c-.59,0-.89.43-.89,1.3v.67s0,0,0,0h-.37s-.06,0-.06,0V47.83s0,0,.06,0h.22s.06,0,.06,0l.07.32c0,.05,0,.06.08,0a1.05,1.05,0,0,1,.88-.43s.06,0,.06,0Z"/><path class="cls-2" d="M45.15,50.14a2.26,2.26,0,0,1-.57.06,1.23,1.23,0,1,1,0-2.46c.64,0,1,.28,1,.75s-.24.57-.76.65l-1,.13a.66.66,0,0,0,.72.54,2.19,2.19,0,0,0,.47-.05l.2,0a.06.06,0,0,1,.08,0l.08.28s0,0,0,.06Zm-.41-1.35c.24,0,.37-.14.37-.29s-.2-.37-.55-.37-.72.25-.75.8Z"/><path class="cls-2" d="M48.27,50.1a0,0,0,0,1-.05,0H48s-.05,0-.05,0l0-.25s0-.06-.09,0a1,1,0,0,1-.8.35A1.09,1.09,0,0,1,45.87,49a1.12,1.12,0,0,1,1.2-1.23,1.3,1.3,0,0,1,.56.1l.16.06V46.7s0,0,.05,0h.38s.05,0,.05,0Zm-.67-1.88a1.31,1.31,0,0,0-.5-.09.73.73,0,0,0-.75.84c0,.52.27.84.72.84s.72-.37.72-.85v-.65Z"/><path class="cls-2" d="M50.25,47.52a1.69,1.69,0,0,1-.06.52c0,.06,0,.08.07,0a.94.94,0,0,1,.78-.34A1.09,1.09,0,0,1,52.17,49,1.13,1.13,0,0,1,51,50.2a1.94,1.94,0,0,1-.7-.12l-.44-.17a.05.05,0,0,1,0,0V46.7s0,0,.06,0h.37s0,0,0,0Zm.19,2.2a1.73,1.73,0,0,0,.51.09c.47,0,.74-.32.74-.84s-.26-.84-.71-.84-.73.37-.73.85v.65Z"/><path class="cls-2" d="M53.33,51.16a.05.05,0,0,1-.06,0h-.38s-.06,0,0-.06l.33-.69a1.15,1.15,0,0,0-.09-1l-.79-1.65s0-.05,0-.05h.4a.07.07,0,0,1,.06,0l.54,1.11a2.9,2.9,0,0,1,.21.63,0,0,0,0,0,.08,0,4.08,4.08,0,0,1,.23-.63l.54-1.11a.06.06,0,0,1,.06,0h.38s.06,0,0,.05Z"/><path class="cls-3" d="M87.16,49.26h.18v-.07a.84.84,0,0,0-.94-.95,2.2,2.2,0,0,0-1.21.42l-.34-.61a2.7,2.7,0,0,1,1.61-.51,1.53,1.53,0,0,1,1.71,1.69V52H87.4v-.42a2.86,2.86,0,0,1,0-.34h0a1.49,1.49,0,0,1-1.38.86,1.35,1.35,0,0,1-1.47-1.32c0-1.43,1.88-1.49,2.61-1.49m-1,2.14A1.31,1.31,0,0,0,87.35,50v-.13h-.21c-.63,0-1.75,0-1.75.82a.72.72,0,0,0,.81.69"/><path class="cls-3" d="M90.64,53c.76,0,1.37-.33,1.37-1.21v-.32c0-.13,0-.27,0-.27h0a1.35,1.35,0,0,1-1.28.67,2,2,0,0,1-1.93-2.21,1.92,1.92,0,0,1,1.89-2.16,1.45,1.45,0,0,1,1.36.64h0a.94.94,0,0,1,0-.14v-.4h.79v4.15a1.94,1.94,0,0,1-2.18,2,3.3,3.3,0,0,1-1.48-.36l.28-.65a2.73,2.73,0,0,0,1.18.29M92,49.71c0-1.13-.55-1.46-1.22-1.46s-1.18.55-1.18,1.43.48,1.52,1.25,1.52c.6,0,1.15-.36,1.15-1.49"/><path class="cls-3" d="M93.8,47.64h.8v.75c0,.18,0,.33,0,.33h0A1.48,1.48,0,0,1,96,47.59h.22v.82l-.24,0a1.33,1.33,0,0,0-1.22,1,2.83,2.83,0,0,0-.1.78V52H93.8Z"/><path class="cls-3" d="M98.67,47.54a2.27,2.27,0,1,1-2.34,2.25,2.25,2.25,0,0,1,2.34-2.25m0,3.81a1.55,1.55,0,1,0-1.49-1.56,1.49,1.49,0,0,0,1.49,1.56"/><path class="cls-4" d="M71.47,45.91h2.78c1.12,0,2,.49,2,1.53a1.37,1.37,0,0,1-1.07,1.41h0c.81.17,1.22.6,1.22,1.34,0,1.44-1.27,1.74-2.35,1.74H71.47Zm1.61,2.38h.45c.53,0,1.07-.12,1.07-.64s-.52-.6-1-.6h-.47Zm0,2.51h.48c.58,0,1.2-.09,1.2-.7s-.63-.72-1.19-.72h-.49Z"/><path class="cls-4" d="M76.72,45.91h2.87c1.07,0,1.94.48,1.94,1.52A1.41,1.41,0,0,1,80.38,49v0c.51.14.55.59.85,1.33l.59,1.64H80.14l-.34-1.09c-.33-1-.54-1.29-1.14-1.29h-.33v2.38H76.72Zm1.61,2.51h.42c.52,0,1.18,0,1.18-.7s-.57-.67-1.18-.67h-.42Z"/><rect class="cls-4" x="82.26" y="45.91" width="1.61" height="6.03"/><path class="cls-4" d="M67.85,42.87H59.44a1.87,1.87,0,0,0-1.85,1.89v8.33A1.88,1.88,0,0,0,59.41,55h8.44a1.88,1.88,0,0,0,1.85-1.9V44.76a1.87,1.87,0,0,0-1.85-1.89M60.44,54H60a1,1,0,0,1-1-1V44.81a1,1,0,0,1,1-1h.93a1.59,1.59,0,0,1,1.54,1.6,1.55,1.55,0,0,1-.45,1.1L59.6,49l2.23,2.27a1.64,1.64,0,0,1,.46,1.11A1.78,1.78,0,0,1,60.44,54m6.86,0H63.14a5.42,5.42,0,0,0,.48-1.69A2.94,2.94,0,0,0,63,50.38l-1.43-1.46L63,47.42a2.68,2.68,0,0,0,.71-1.94,3,3,0,0,0-.46-1.65h1a1.58,1.58,0,0,1,1.53,1.6,1.54,1.54,0,0,1-.44,1.1L63,48.92l4.85,4.95a1,1,0,0,1-.54.14m1-1.55-3.47-3.54,1.65-1.68A2.82,2.82,0,0,0,67,45.48a3,3,0,0,0-.47-1.67l.74,0a1,1,0,0,1,1,1Z"/></svg>