<?xml version="1.0" encoding="UTF-8"?>
<svg width="20px" height="20px" viewBox="0 0 20 20" version="1.1" xmlns="http://www.w3.org/2000/svg" xmlns:xlink="http://www.w3.org/1999/xlink">
    <!-- Generator: sketchtool 53.1 (72631) - https://sketchapp.com -->
    <title>5F0E5335-00DC-44D4-A760-A4FE9457C1D8</title>
    <desc>Created with sketchtool.</desc>
    <g id="Symbols" stroke="none" stroke-width="1" fill="none" fill-rule="evenodd">
        <g id="-g-youtube" fill="#269045" fill-rule="nonzero">
            <g id="003-youtube" transform="translate(0.000000, 3.000000)">
                <path d="M15.8462563,0 L4.1537437,0 C1.85969228,0 0,1.97105599 0,4.40248179 L0,10.5975182 C0,13.028944 1.85969228,15 4.1537437,15 L15.8462563,15 C18.1403077,15 20,13.028944 20,10.5975182 L20,4.40248179 C20,1.97105599 18.1403077,0 15.8462563,0 Z M13.0371084,7.80141072 L7.56813977,10.5659747 C7.4224134,10.6396375 7.25408405,10.5270281 7.25408405,10.3559298 L7.25408405,4.65400226 C7.25408405,4.48046693 7.42683855,4.36799544 7.57286861,4.4464404 L13.0418372,7.38380398 C13.2044399,7.47112343 13.20162,7.71827562 13.0371084,7.80141072 Z" id="Shape"></path>
            </g>
        </g>
    </g>
</svg>